<?xml version="1.0" standalone="no"?>
<!DOCTYPE svg PUBLIC "-//W3C//DTD SVG 1.1//EN" "http://www.w3.org/Graphics/SVG/1.1/DTD/svg11.dtd" >
<svg xmlns="http://www.w3.org/2000/svg" xmlns:xlink="http://www.w3.org/1999/xlink" version="1.1">
<metadata>
Created by FontForge 20170924 at Thu Nov 30 14:34:55 2017
 By www-data
Copyright c 2018 by Natura&#38;Co. All rights reserved.
</metadata>
<defs>
<font id="NaturaAndCo-Medium" horiz-adv-x="664" >
  <font-face 
    font-family="NaturaAndCo"
    font-weight="500"
    font-stretch="normal"
    units-per-em="1000"
    panose-1="2 11 6 1 2 2 1 1 1 4"
    ascent="795"
    descent="-205"
    x-height="547"
    cap-height="750"
    bbox="-77.8574 -239 1410 1117"
    underline-thickness="0"
    underline-position="0"
    stemh="135"
    stemv="123"
    unicode-range="U+0020-FB02"
  />
<missing-glyph horiz-adv-x="500" 
d="M50 -205v985h400v-985h-400zM100 -155h300v885h-300v-885z" />
    <glyph glyph-name="fi" unicode="fi" horiz-adv-x="705" 
d="M214 0h-86c-13 0 -20 7 -20 20v417h-83c-13 0 -20 7 -20 20v70c0 13 7 20 20 20h83v57c0 114 74 186 201 186c27 0 50 -3 70 -10c11 -4 15 -13 11 -25l-18 -59c-3 -12 -11 -15 -24 -14c-7 1 -14 1 -23 1c-63 0 -91 -29 -91 -81v-55h131c13 0 20 -7 20 -20v-70
c0 -13 -7 -20 -20 -20h-131v-417c0 -13 -7 -20 -20 -20zM640 710c0 -51 -30 -80 -83 -80c-51 0 -83 29 -83 80c0 52 32 80 83 80c53 0 83 -28 83 -80zM600 0h-86c-13 0 -20 7 -20 20v507c0 13 7 20 20 20h86c13 0 20 -7 20 -20v-507c0 -13 -7 -20 -20 -20z" />
    <glyph glyph-name="fl" unicode="fl" horiz-adv-x="685" 
d="M214 0h-86c-13 0 -20 7 -20 20v417h-83c-13 0 -20 7 -20 20v70c0 13 7 20 20 20h83v57c0 114 74 186 201 186c27 0 50 -3 70 -10c11 -4 15 -13 11 -25l-18 -59c-3 -12 -11 -15 -24 -14c-7 1 -14 1 -23 1c-63 0 -91 -29 -91 -81v-55h131c13 0 20 -7 20 -20v-70
c0 -13 -7 -20 -20 -20h-131v-417c0 -13 -7 -20 -20 -20zM590 0h-86c-13 0 -20 7 -20 20v717c0 12 6 19 17 22l87 21c13 3 22 -4 22 -18v-742c0 -13 -7 -20 -20 -20z" />
    <glyph glyph-name="f_f" unicode="ff" horiz-adv-x="744" 
d="M583 0h-86c-13 0 -20 7 -20 20v417h-74c-13 0 -20 7 -20 20v70c0 13 7 20 20 20h74v57c0 114 74 186 201 186c27 0 50 -3 70 -10c11 -4 15 -13 11 -25l-18 -59c-4 -12 -11 -16 -24 -14c-7 1 -14 1 -23 1c-63 0 -91 -29 -91 -81v-55h130c13 0 20 -7 20 -20v-70
c0 -13 -7 -20 -20 -20h-130v-417c0 -13 -7 -20 -20 -20zM216 0h-86c-13 0 -20 7 -20 20v417h-83c-13 0 -20 7 -20 20v70c0 13 7 20 20 20h83v47c0 114 74 186 201 186c27 0 50 -3 70 -10c11 -4 15 -13 11 -25l-18 -59c-4 -12 -11 -16 -24 -14c-7 1 -14 1 -23 1
c-63 0 -91 -29 -91 -81v-45h79c13 0 20 -7 20 -20v-70c0 -13 -7 -20 -20 -20h-79v-417c0 -13 -7 -20 -20 -20z" />
    <glyph glyph-name="f_f_i" unicode="ffi" horiz-adv-x="1082" 
d="M583 0h-86c-13 0 -20 7 -20 20v417h-79c-13 0 -20 7 -20 20v70c0 13 7 20 20 20h79v57c0 114 74 186 201 186c27 0 50 -3 70 -10c11 -4 15 -13 11 -25l-18 -59c-4 -12 -11 -16 -24 -14c-7 1 -14 1 -23 1c-63 0 -91 -29 -91 -81v-55h131c13 0 20 -7 20 -20v-70
c0 -13 -7 -20 -20 -20h-131v-417c0 -13 -7 -20 -20 -20zM996 710c0 -51 -30 -80 -83 -80c-51 0 -83 29 -83 80c0 52 32 80 83 80c53 0 83 -28 83 -80zM216 0h-86c-13 0 -20 7 -20 20v417h-83c-13 0 -20 7 -20 20v70c0 13 7 20 20 20h83v47c0 114 74 186 201 186
c27 0 50 -3 70 -10c11 -4 15 -13 11 -25l-18 -59c-4 -12 -11 -16 -24 -14c-7 1 -14 1 -23 1c-63 0 -91 -29 -91 -81v-45h75c13 0 20 -7 20 -20v-70c0 -13 -7 -20 -20 -20h-75v-417c0 -13 -7 -20 -20 -20zM956 0h-86c-13 0 -20 7 -20 20v507c0 13 7 20 20 20h86
c13 0 20 -7 20 -20v-507c0 -13 -7 -20 -20 -20z" />
    <glyph glyph-name="f_f_l" unicode="ffl" horiz-adv-x="1070" 
d="M583 0h-86c-13 0 -20 7 -20 20v417h-76c-13 0 -20 7 -20 20v70c0 13 7 20 20 20h76v57c0 114 74 186 201 186c27 0 50 -3 70 -10c11 -4 15 -13 11 -25l-18 -59c-4 -12 -11 -16 -24 -14c-7 1 -14 1 -23 1c-63 0 -91 -29 -91 -81v-55h131c13 0 20 -7 20 -20v-70
c0 -13 -7 -20 -20 -20h-131v-417c0 -13 -7 -20 -20 -20zM950 0h-86c-13 0 -20 7 -20 20v717c0 12 6 19 17 22l87 21c13 3 22 -4 22 -18v-742c0 -13 -7 -20 -20 -20zM216 0h-86c-13 0 -20 7 -20 20v417h-83c-13 0 -20 7 -20 20v70c0 13 7 20 20 20h83v47
c0 114 74 186 201 186c27 0 50 -3 70 -10c11 -4 15 -13 11 -25l-18 -59c-4 -12 -11 -16 -24 -14c-7 1 -14 1 -23 1c-63 0 -91 -29 -91 -81v-45h79c13 0 20 -7 20 -20v-70c0 -13 -7 -20 -20 -20h-79v-417c0 -13 -7 -20 -20 -20z" />
    <glyph glyph-name="f_b" unicode="fb" horiz-adv-x="1069" 
d="M214 0h-86c-13 0 -20 7 -20 20v417h-83c-13 0 -20 7 -20 20v70c0 13 7 20 20 20h83v57c0 114 74 186 201 186c27 0 50 -3 70 -10c11 -4 15 -13 11 -25l-18 -59c-3 -12 -11 -15 -24 -14c-7 1 -14 1 -23 1c-63 0 -91 -29 -91 -81v-55h131c13 0 20 -7 20 -20v-70
c0 -13 -7 -20 -20 -20h-131v-417c0 -13 -7 -20 -20 -20zM545 0h-71c-13 0 -20 7 -20 20v718c0 12 6 19 17 22l80 20c13 3 22 -3 22 -17v-275c44 48 107 74 178 74c156 0 273 -125 273 -288c0 -162 -118 -290 -274 -290c-73 0 -141 32 -187 92v-58c0 -13 -8 -18 -18 -18z
M559 273c0 -100 73 -178 174 -178c98 0 168 77 168 179s-70 177 -168 177c-101 0 -174 -75 -174 -178z" />
    <glyph glyph-name="f_f_b" unicode="ffb" horiz-adv-x="1470" 
d="M583 0h-86c-13 0 -20 7 -20 20v417h-75c-13 0 -20 7 -20 20v70c0 13 7 20 20 20h75v57c0 114 74 186 201 186c27 0 50 -3 70 -10c11 -4 15 -13 11 -25l-18 -59c-4 -12 -11 -16 -24 -14c-7 1 -14 1 -23 1c-63 0 -91 -29 -91 -81v-55h131c13 0 20 -7 20 -20v-70
c0 -13 -7 -20 -20 -20h-131v-417c0 -13 -7 -20 -20 -20zM931 0h-71c-13 0 -20 7 -20 20v718c0 12 6 19 17 22l80 20c13 3 22 -3 22 -17v-275c44 48 107 74 178 74c156 0 273 -125 273 -288c0 -162 -118 -290 -274 -290c-73 0 -141 32 -187 92v-58c0 -13 -8 -18 -18 -18z
M216 0h-86c-13 0 -20 7 -20 20v417h-83c-13 0 -20 7 -20 20v70c0 13 7 20 20 20h83v47c0 114 74 186 201 186c27 0 50 -3 70 -10c11 -4 15 -13 11 -25l-18 -59c-4 -12 -11 -16 -24 -14c-7 1 -14 1 -23 1c-63 0 -91 -29 -91 -81v-45h86c13 0 20 -7 20 -20v-70
c0 -13 -7 -20 -20 -20h-86v-417c0 -13 -7 -20 -20 -20zM945 273c0 -100 73 -178 174 -178c98 0 168 77 168 179s-70 177 -168 177c-101 0 -174 -75 -174 -178z" />
    <glyph glyph-name="f_h" unicode="fh" horiz-adv-x="1093" 
d="M214 0h-86c-13 0 -20 7 -20 20v417h-83c-13 0 -20 7 -20 20v70c0 13 7 20 20 20h83v57c0 114 74 186 201 186c27 0 50 -3 70 -10c11 -4 15 -13 11 -25l-18 -59c-3 -12 -11 -15 -24 -14c-7 1 -14 1 -23 1c-63 0 -91 -29 -91 -81v-55h131c13 0 20 -7 20 -20v-70
c0 -13 -7 -20 -20 -20h-131v-417c0 -13 -7 -20 -20 -20zM590 0h-86c-13 0 -20 7 -20 20v718c0 12 6 19 17 22l81 20c14 3 22 -3 22 -17v-296c29 52 98 95 184 95c143 0 234 -89 234 -232v-310c0 -13 -7 -20 -20 -20h-86c-13 0 -20 7 -20 20v282c0 98 -49 155 -132 155
c-86 0 -154 -67 -154 -172v-265c0 -13 -7 -20 -20 -20z" />
    <glyph glyph-name="f_f_h" unicode="ffh" horiz-adv-x="1477" 
d="M583 0h-86c-13 0 -20 7 -20 20v417h-78c-13 0 -20 7 -20 20v70c0 13 7 20 20 20h78v57c0 114 74 186 201 186c27 0 50 -3 70 -10c11 -4 15 -13 11 -25l-18 -59c-4 -12 -11 -16 -24 -14c-7 1 -14 1 -23 1c-63 0 -91 -29 -91 -81v-55h131c13 0 20 -7 20 -20v-70
c0 -13 -7 -20 -20 -20h-131v-417c0 -13 -7 -20 -20 -20zM950 0h-86c-13 0 -20 7 -20 20v718c0 12 6 19 17 22l81 20c14 3 22 -3 22 -17v-296c29 52 98 95 184 95c143 0 234 -89 234 -232v-310c0 -13 -7 -20 -20 -20h-86c-13 0 -20 7 -20 20v282c0 98 -49 155 -132 155
c-86 0 -154 -67 -154 -172v-265c0 -13 -7 -20 -20 -20zM216 0h-86c-13 0 -20 7 -20 20v417h-83c-13 0 -20 7 -20 20v70c0 13 7 20 20 20h83v47c0 114 74 186 201 186c27 0 50 -3 70 -10c11 -4 15 -13 11 -25l-18 -59c-4 -12 -11 -16 -24 -14c-7 1 -14 1 -23 1
c-63 0 -91 -29 -91 -81v-45h80c13 0 20 -7 20 -20v-70c0 -13 -7 -20 -20 -20h-80v-417c0 -13 -7 -20 -20 -20z" />
    <glyph glyph-name="f_k" unicode="fk" horiz-adv-x="970" 
d="M214 0h-86c-13 0 -20 7 -20 20v417h-83c-13 0 -20 7 -20 20v70c0 13 7 20 20 20h83v57c0 114 74 186 201 186c27 0 50 -3 70 -10c11 -4 15 -13 11 -25l-18 -59c-3 -12 -11 -15 -24 -14c-7 1 -14 1 -23 1c-63 0 -91 -29 -91 -81v-55h131c13 0 20 -7 20 -20v-70
c0 -13 -7 -20 -20 -20h-131v-417c0 -13 -7 -20 -20 -20zM579 0h-75c-13 0 -20 7 -20 20v718c0 12 6 19 17 22l76 20c13 3 22 -3 22 -17v-417h62l156 189c6 8 14 12 24 12h91c17 0 23 -10 12 -24l-182 -224l194 -275c9 -13 3 -24 -13 -24h-95c-10 0 -18 4 -24 12l-165 230
h-60v-222c0 -13 -7 -20 -20 -20z" />
    <glyph glyph-name="f_f_k" unicode="ffk" horiz-adv-x="1332" 
d="M583 0h-86c-13 0 -20 7 -20 20v417h-87c-13 0 -20 7 -20 20v70c0 13 7 20 20 20h87v57c0 114 74 186 201 186c27 0 50 -3 70 -10c11 -4 15 -13 11 -25l-18 -59c-4 -12 -11 -16 -24 -14c-7 1 -14 1 -23 1c-63 0 -91 -29 -91 -81v-55h131c13 0 20 -7 20 -20v-70
c0 -13 -7 -20 -20 -20h-131v-417c0 -13 -7 -20 -20 -20zM938 0h-75c-13 0 -20 7 -20 20v718c0 12 6 19 17 22l76 20c13 3 22 -3 22 -17v-417h62l156 189c6 8 14 12 24 12h91c17 0 23 -10 12 -24l-182 -224l194 -275c9 -13 3 -24 -13 -24h-95c-10 0 -18 4 -24 12l-165 230
h-60v-222c0 -13 -7 -20 -20 -20zM216 0h-86c-13 0 -20 7 -20 20v417h-83c-13 0 -20 7 -20 20v70c0 13 7 20 20 20h83v47c0 114 74 186 201 186c27 0 50 -3 70 -10c11 -4 15 -13 11 -25l-18 -59c-4 -12 -11 -16 -24 -14c-7 1 -14 1 -23 1c-63 0 -91 -29 -91 -81v-45h71
c13 0 20 -7 20 -20v-70c0 -13 -7 -20 -20 -20h-71v-417c0 -13 -7 -20 -20 -20z" />
    <glyph glyph-name="f_j" unicode="fj" horiz-adv-x="709" 
d="M216 0h-86c-13 0 -20 7 -20 20v417h-83c-13 0 -20 7 -20 20v70c0 13 7 20 20 20h83v57c0 114 74 186 201 186c27 0 50 -3 70 -10c11 -4 15 -13 11 -25l-18 -59c-4 -12 -11 -16 -24 -14c-7 1 -14 1 -23 1c-63 0 -91 -29 -91 -81v-55h131c13 0 20 -7 20 -20v-70
c0 -13 -7 -20 -20 -20h-131v-417c0 -13 -7 -20 -20 -20zM627 710c0 -51 -30 -80 -83 -80c-51 0 -83 29 -83 80c0 52 32 80 83 80c53 0 83 -28 83 -80zM606 47c0 -150 -83 -230 -165 -257c-12 -4 -21 2 -24 14l-20 70c-3 12 1 20 13 25c50 21 73 66 73 150v478
c0 13 7 20 20 20h83c13 0 20 -7 20 -20v-480z" />
    <glyph glyph-name="f_f_j" unicode="ffj" horiz-adv-x="1076" 
d="M583 0h-86c-13 0 -20 7 -20 20v417h-84c-13 0 -20 7 -20 20v70c0 13 7 20 20 20h84v57c0 114 74 186 201 186c27 0 50 -3 70 -10c11 -4 15 -13 11 -25l-18 -59c-4 -12 -11 -16 -24 -14c-7 1 -14 1 -23 1c-63 0 -91 -29 -91 -81v-55h131c13 0 20 -7 20 -20v-70
c0 -13 -7 -20 -20 -20h-131v-417c0 -13 -7 -20 -20 -20zM994 710c0 -51 -30 -80 -83 -80c-51 0 -83 29 -83 80c0 52 32 80 83 80c53 0 83 -28 83 -80zM216 0h-86c-13 0 -20 7 -20 20v417h-83c-13 0 -20 7 -20 20v70c0 13 7 20 20 20h83v47c0 114 74 186 201 186
c27 0 50 -3 70 -10c11 -4 15 -13 11 -25l-18 -59c-4 -12 -11 -16 -24 -14c-7 1 -14 1 -23 1c-63 0 -91 -29 -91 -81v-45h74c13 0 20 -7 20 -20v-70c0 -13 -7 -20 -20 -20h-74v-417c0 -13 -7 -20 -20 -20zM973 47c0 -150 -82 -232 -165 -257c-12 -4 -21 2 -24 14l-20 70
c-3 12 1 20 13 25c50 22 73 66 73 150v478c0 13 7 20 20 20h83c13 0 20 -7 20 -20v-480z" />
    <glyph glyph-name="f_idieresis" unicode="f&#xef;" horiz-adv-x="705" 
d="M216 0h-86c-13 0 -20 7 -20 20v417h-83c-13 0 -20 7 -20 20v70c0 13 7 20 20 20h83v37c0 138 112 206 260 206c46 0 83 -7 109 -14c11 -3 19 -11 16 -22l-19 -67c-4 -13 -12 -20 -26 -16c-10 3 -38 8 -65 8c-99 0 -149 -32 -149 -105v-27h131c13 0 20 -7 20 -20v-70
c0 -13 -7 -20 -20 -20h-131v-417c0 -13 -7 -20 -20 -20zM715 710c0 -51 -30 -80 -83 -80c-51 0 -83 29 -83 80c0 52 32 80 83 80c53 0 83 -28 83 -80zM589 0h-86c-13 0 -20 7 -20 20v507c0 13 7 20 20 20h86c13 0 20 -7 20 -20v-507c0 -13 -7 -20 -20 -20z" />
    <glyph glyph-name=".notdef" horiz-adv-x="500" 
d="M50 -205v985h400v-985h-400zM100 -155h300v885h-300v-885z" />
    <glyph glyph-name="space" unicode=" " horiz-adv-x="250" 
 />
    <glyph glyph-name="A" unicode="A" horiz-adv-x="740" 
d="M138 0h-102c-15 0 -21 9 -16 23l286 711c4 10 12 16 23 16h83c11 0 19 -6 23 -16l286 -711c5 -14 -1 -23 -16 -23h-102c-11 0 -19 5 -23 16l-55 150h-309l-55 -150c-4 -11 -12 -16 -23 -16zM257 278h227l-113 311z" />
    <glyph glyph-name="B" unicode="B" horiz-adv-x="720" 
d="M413 0h-307c-13 0 -20 7 -20 20v710c0 13 7 20 20 20h280c147 0 230 -76 230 -189c0 -56 -31 -111 -75 -138c75 -22 144 -89 144 -190c0 -124 -81 -233 -272 -233zM385 632h-173v-176h176c70 0 99 42 99 90c0 47 -29 86 -102 86zM427 347h-215v-229h197
c102 0 146 56 146 116c0 59 -27 113 -128 113z" />
    <glyph glyph-name="C" unicode="C" horiz-adv-x="780" 
d="M733 124c-70 -86 -174 -140 -298 -140c-220 0 -386 169 -386 388c0 220 166 388 386 388c124 0 228 -54 298 -140c7 -10 6 -19 -2 -28l-50 -52c-9 -10 -20 -9 -28 1c-51 59 -124 101 -218 101c-148 0 -255 -116 -255 -270c0 -152 107 -268 255 -268c93 0 166 42 217 99
c8 10 19 11 28 1l51 -52c8 -9 9 -18 2 -28z" />
    <glyph glyph-name="D" unicode="D" horiz-adv-x="788" 
d="M338 0h-232c-13 0 -20 7 -20 20v710c0 13 7 20 20 20h231c254 0 402 -153 402 -375c0 -223 -149 -375 -401 -375zM336 632h-124v-515h125c194 0 270 117 270 258c0 139 -76 257 -271 257z" />
    <glyph glyph-name="E" unicode="E" horiz-adv-x="632" 
d="M555 0h-449c-13 0 -20 7 -20 20v710c0 13 7 20 20 20h439c13 0 20 -7 20 -20v-79c0 -13 -7 -20 -20 -20h-336v-174h318c13 0 20 -7 20 -20v-78c0 -13 -7 -20 -20 -20h-318v-220h346c13 0 20 -7 20 -20v-79c0 -13 -7 -20 -20 -20z" />
    <glyph glyph-name="F" unicode="F" horiz-adv-x="582" 
d="M195 0h-89c-13 0 -20 7 -20 20v710c0 13 7 20 20 20h411c13 0 20 -7 20 -20v-79c0 -13 -7 -20 -20 -20h-302v-174h291c13 0 20 -7 20 -20v-78c0 -13 -7 -20 -20 -20h-291v-319c0 -13 -7 -20 -20 -20z" />
    <glyph glyph-name="G" unicode="G" horiz-adv-x="844" 
d="M760 0h-80c-13 0 -20 7 -20 20l-1 87c-45 -72 -127 -123 -241 -123c-203 0 -369 163 -369 395c0 213 167 381 384 381c180 0 289 -101 339 -192c5 -11 2 -20 -8 -27l-63 -42c-11 -8 -20 -5 -27 7c-41 65 -115 136 -239 136c-151 0 -255 -114 -255 -263
c0 -167 108 -275 256 -275c146 0 222 97 222 188h-248c-13 0 -20 7 -20 20v70c0 13 7 20 20 20h350c13 0 20 -7 20 -20v-362c0 -13 -7 -20 -20 -20z" />
    <glyph glyph-name="H" unicode="H" horiz-adv-x="836" 
d="M195 0h-89c-13 0 -20 7 -20 20v710c0 13 7 20 20 20h89c13 0 20 -7 20 -20v-273h406v273c0 13 7 20 20 20h89c13 0 20 -7 20 -20v-710c0 -13 -7 -20 -20 -20h-89c-13 0 -20 7 -20 20v318h-406v-318c0 -13 -7 -20 -20 -20z" />
    <glyph glyph-name="I" unicode="I" horiz-adv-x="307" 
d="M197 0h-87c-13 0 -20 7 -20 20v710c0 13 7 20 20 20h87c13 0 20 -7 20 -20v-710c0 -13 -7 -20 -20 -20z" />
    <glyph glyph-name="J" unicode="J" horiz-adv-x="455" 
d="M377 257c0 -169 -94 -273 -241 -273c-34 0 -67 7 -95 19c-11 5 -15 14 -12 25l16 69c3 14 12 17 25 13c15 -5 31 -7 49 -7c82 0 128 63 128 157v470c0 13 7 20 20 20h90c13 0 20 -7 20 -20v-473z" />
    <glyph glyph-name="K" unicode="K" horiz-adv-x="719" 
d="M195 0h-89c-13 0 -20 7 -20 20v710c0 13 7 20 20 20h89c13 0 20 -7 20 -20v-265h54l267 275c7 8 15 10 25 10h105c17 0 22 -12 10 -25l-302 -314l321 -386c11 -14 5 -25 -12 -25h-107c-10 0 -18 3 -25 11l-280 334h-56v-325c0 -13 -7 -20 -20 -20z" />
    <glyph glyph-name="L" unicode="L" horiz-adv-x="592" 
d="M523 0h-417c-13 0 -20 7 -20 20v710c0 13 7 20 20 20h89c13 0 20 -7 20 -20v-611h308c13 0 20 -7 20 -20v-79c0 -13 -7 -20 -20 -20z" />
    <glyph glyph-name="M" unicode="M" horiz-adv-x="1005" 
d="M153 0h-87c-13 0 -21 9 -19 22l115 710c2 13 10 18 22 18h58c11 0 18 -4 23 -15l241 -500l235 500c5 11 12 15 23 15h58c12 0 20 -5 22 -18l114 -710c2 -13 -6 -22 -19 -22h-87c-12 0 -20 5 -22 18l-71 478l-198 -414c-5 -11 -12 -15 -23 -15h-63c-11 0 -18 5 -23 15
l-204 419l-73 -483c-2 -13 -10 -18 -22 -18z" />
    <glyph glyph-name="N" unicode="N" horiz-adv-x="840" 
d="M193 0h-87c-13 0 -20 7 -20 20v710c0 13 7 20 20 20h45c10 0 18 -4 25 -11l450 -499v490c0 13 7 20 20 20h88c13 0 20 -7 20 -20v-710c0 -13 -7 -20 -20 -20h-45c-10 0 -18 4 -25 11l-451 507v-498c0 -13 -7 -20 -20 -20z" />
    <glyph glyph-name="O" unicode="O" horiz-adv-x="871" 
d="M822 372c0 -219 -165 -388 -387 -388c-220 0 -386 169 -386 388c0 220 166 388 386 388c222 0 387 -168 387 -388zM180 372c0 -152 107 -268 255 -268s257 116 257 268c0 154 -109 270 -257 270s-255 -116 -255 -270z" />
    <glyph glyph-name="P" unicode="P" horiz-adv-x="693" 
d="M195 0h-89c-13 0 -20 7 -20 20v710c0 13 7 20 20 20h297c165 0 260 -97 260 -229c0 -134 -95 -231 -259 -231h-189v-270c0 -13 -7 -20 -20 -20zM408 634h-193v-228h189c92 0 127 54 127 115c0 58 -34 113 -123 113z" />
    <glyph glyph-name="Q" unicode="Q" horiz-adv-x="882" 
d="M819 15c-7 -10 -18 -12 -28 -4l-95 73c-67 -62 -158 -100 -261 -100c-220 0 -386 169 -386 388c0 220 166 388 386 388c222 0 387 -168 387 -388c0 -73 -20 -142 -54 -201l89 -69c10 -8 11 -18 4 -28zM180 372c0 -152 107 -268 255 -268c62 0 118 21 161 56l-172 132
c-10 8 -11 18 -4 28l42 63c7 11 18 12 28 4l176 -137c17 37 26 78 26 122c0 154 -109 270 -257 270s-255 -116 -255 -270z" />
    <glyph glyph-name="R" unicode="R" horiz-adv-x="701" 
d="M195 0h-89c-13 0 -20 7 -20 20v710c0 13 7 20 20 20h308c164 0 259 -95 259 -224c0 -97 -52 -175 -146 -208l132 -295c6 -14 0 -23 -15 -23h-98c-11 0 -20 5 -24 15l-125 285h-182v-280c0 -13 -7 -20 -20 -20zM419 634h-204v-218h200c91 0 126 51 126 110
c0 55 -34 108 -122 108z" />
    <glyph glyph-name="S" unicode="S" horiz-adv-x="550" 
d="M505 215c0 -119 -85 -231 -265 -231c-74 0 -125 12 -177 45c-10 6 -12 16 -8 27l25 64c5 12 15 16 27 9c31 -17 71 -29 121 -29c106 0 150 56 150 111c0 46 -28 84 -89 113l-86 41c-87 41 -141 103 -141 189c0 119 103 206 264 206c64 0 114 -16 149 -34
c11 -6 13 -15 8 -27l-29 -65c-5 -12 -14 -15 -26 -10c-26 12 -60 21 -96 21c-88 0 -136 -37 -136 -91c0 -36 22 -62 75 -88l85 -41c102 -48 149 -117 149 -210z" />
    <glyph glyph-name="T" unicode="T" horiz-adv-x="649" 
d="M369 0h-89c-13 0 -20 7 -20 20v611h-202c-13 0 -20 7 -20 20v79c0 13 7 20 20 20h533c13 0 20 -7 20 -20v-79c0 -13 -7 -20 -20 -20h-202v-611c0 -13 -7 -20 -20 -20z" />
    <glyph glyph-name="U" unicode="U" horiz-adv-x="816" 
d="M736 316c0 -204 -130 -332 -328 -332c-195 0 -328 128 -328 332v414c0 13 7 20 20 20h89c13 0 20 -7 20 -20v-418c0 -123 75 -208 199 -208s199 85 199 208v418c0 13 7 20 20 20h89c13 0 20 -7 20 -20v-414z" />
    <glyph glyph-name="V" unicode="V" horiz-adv-x="733" 
d="M408 0h-83c-11 0 -19 6 -23 16l-286 711c-5 14 1 23 16 23h100c11 0 19 -6 23 -16l213 -574l213 574c4 10 12 16 23 16h97c15 0 21 -9 16 -23l-286 -711c-4 -10 -12 -16 -23 -16z" />
    <glyph glyph-name="W" unicode="W" horiz-adv-x="1135" 
d="M396 0h-62c-11 0 -19 4 -23 15l-295 712c-6 14 0 23 15 23h96c11 0 19 -6 23 -16l208 -548l148 449c4 12 11 16 22 16h82c11 0 18 -4 22 -16l148 -451l208 550c4 10 12 16 23 16h93c15 0 21 -9 15 -23l-294 -712c-4 -11 -12 -15 -23 -15h-62c-11 0 -19 5 -23 16l-149 442
l-149 -442c-4 -11 -12 -16 -23 -16z" />
    <glyph glyph-name="X" unicode="X" horiz-adv-x="735" 
d="M143 0h-105c-16 0 -22 11 -13 24l264 368l-242 334c-10 13 -4 24 12 24h103c10 0 18 -4 24 -12l180 -253l182 253c6 8 14 12 24 12h104c16 0 22 -10 12 -24l-247 -334l268 -368c10 -13 4 -24 -12 -24h-104c-10 0 -18 5 -24 13l-203 286l-199 -286c-6 -9 -14 -13 -24 -13z
" />
    <glyph glyph-name="Y" unicode="Y" horiz-adv-x="702" 
d="M396 0h-90c-13 0 -20 7 -20 20v196l-260 510c-7 14 0 24 15 24h98c11 0 18 -5 23 -15l189 -389l191 389c5 10 12 15 23 15h96c15 0 22 -10 15 -24l-260 -510v-196c0 -13 -7 -20 -20 -20z" />
    <glyph glyph-name="Z" unicode="Z" horiz-adv-x="647" 
d="M601 0h-548c-13 0 -20 7 -20 20v71c0 10 3 17 9 25l414 515h-384c-13 0 -20 7 -20 20v79c0 13 7 20 20 20h522c13 0 20 -7 20 -20v-74c0 -10 -3 -18 -9 -25l-409 -512h405c13 0 20 -7 20 -20v-79c0 -13 -7 -20 -20 -20z" />
    <glyph glyph-name="Agrave" unicode="&#xc0;" horiz-adv-x="740" 
d="M484 839c-3 -11 -11 -17 -26 -14l-271 62c-11 2 -16 11 -13 24l14 64c3 12 12 18 24 15l273 -70c10 -3 16 -12 13 -25zM138 0h-102c-15 0 -21 9 -16 23l286 711c4 10 12 16 23 16h83c11 0 19 -6 23 -16l286 -711c5 -14 -1 -23 -16 -23h-102c-11 0 -19 5 -23 16l-55 150
h-309l-55 -150c-4 -11 -12 -16 -23 -16zM257 278h227l-113 311z" />
    <glyph glyph-name="Aacute" unicode="&#xc1;" horiz-adv-x="740" 
d="M580 894l-271 -62c-15 -3 -23 3 -26 14l-14 56c-3 13 3 22 13 25l273 70c12 3 21 -3 24 -15l14 -64c3 -13 -2 -22 -13 -24zM138 0h-102c-15 0 -21 9 -16 23l286 711c4 10 12 16 23 16h83c11 0 19 -6 23 -16l286 -711c5 -14 -1 -23 -16 -23h-102c-11 0 -19 5 -23 16
l-55 150h-309l-55 -150c-4 -11 -12 -16 -23 -16zM257 278h227l-113 311z" />
    <glyph glyph-name="Acircumflex" unicode="&#xc2;" horiz-adv-x="740" 
d="M538 856c-6 -13 -16 -18 -38 -11l-119 39l-118 -39c-22 -7 -33 -1 -38 11l-18 41c-5 12 -2 25 9 30l147 67c8 4 14 4 17 4s9 -1 17 -4l150 -67c11 -5 14 -18 9 -30zM138 0h-102c-15 0 -21 9 -16 23l286 711c4 10 12 16 23 16h83c11 0 19 -6 23 -16l286 -711
c5 -14 -1 -23 -16 -23h-102c-11 0 -19 5 -23 16l-55 150h-309l-55 -150c-4 -11 -12 -16 -23 -16zM257 278h227l-113 311z" />
    <glyph glyph-name="Atilde" unicode="&#xc3;" horiz-adv-x="740" 
d="M498 853c-13 -7 -30 -12 -50 -12c-30 0 -52 8 -74 15c-24 9 -47 17 -78 17c-26 0 -45 -6 -59 -13c-2 -1 -4 -2 -5 -3c-15 -8 -24 -4 -24 12v73c0 10 2 18 10 24c5 4 11 9 20 13c14 7 33 13 58 13c31 0 54 -9 77 -17c22 -8 45 -16 75 -16c20 0 37 5 50 12c4 2 9 5 12 7
c14 10 23 7 23 -10v-72c0 -10 -2 -17 -9 -24c-6 -6 -14 -13 -26 -19zM138 0h-102c-15 0 -21 9 -16 23l286 711c4 10 12 16 23 16h83c11 0 19 -6 23 -16l286 -711c5 -14 -1 -23 -16 -23h-102c-11 0 -19 5 -23 16l-55 150h-309l-55 -150c-4 -11 -12 -16 -23 -16zM257 278h227
l-113 311z" />
    <glyph glyph-name="Adieresis" unicode="&#xc4;" horiz-adv-x="740" 
d="M575 900c0 -51 -30 -80 -83 -80c-51 0 -83 29 -83 80c0 52 32 80 83 80c53 0 83 -28 83 -80zM345 900c0 -51 -30 -80 -83 -80c-51 0 -83 29 -83 80c0 52 32 80 83 80c53 0 83 -28 83 -80zM138 0h-102c-15 0 -21 9 -16 23l286 711c4 10 12 16 23 16h83c11 0 19 -6 23 -16
l286 -711c5 -14 -1 -23 -16 -23h-102c-11 0 -19 5 -23 16l-55 150h-309l-55 -150c-4 -11 -12 -16 -23 -16zM257 278h227l-113 311z" />
    <glyph glyph-name="Amacron" unicode="&#x100;" horiz-adv-x="740" 
d="M506 850h-271c-13 0 -20 7 -20 20v67c0 13 7 20 20 20h271c13 0 20 -7 20 -20v-67c0 -13 -7 -20 -20 -20zM138 0h-102c-15 0 -21 9 -16 23l286 711c4 10 12 16 23 16h83c11 0 19 -6 23 -16l286 -711c5 -14 -1 -23 -16 -23h-102c-11 0 -19 5 -23 16l-55 150h-309l-55 -150
c-4 -11 -12 -16 -23 -16zM257 278h227l-113 311z" />
    <glyph glyph-name="Abreve" unicode="&#x102;" horiz-adv-x="740" 
d="M391 835h-41c-96 0 -141 42 -141 115v1c0 12 8 17 20 17h69c13 0 20 -5 20 -18v-1c0 -19 14 -33 40 -33h24c27 0 41 14 41 33v1c0 13 7 18 20 18h69c13 0 20 -5 20 -17v-1c0 -73 -44 -115 -141 -115zM138 0h-102c-15 0 -21 9 -16 23l286 711c4 10 12 16 23 16h83
c11 0 19 -6 23 -16l286 -711c5 -14 -1 -23 -16 -23h-102c-11 0 -19 5 -23 16l-55 150h-309l-55 -150c-4 -11 -12 -16 -23 -16zM257 278h227l-113 311z" />
    <glyph glyph-name="Aring" unicode="&#xc5;" horiz-adv-x="740" 
d="M476 928c0 -59 -44 -97 -106 -97c-63 0 -105 38 -105 97s43 97 105 97s106 -38 106 -97zM332 927c0 -20 13 -33 38 -33s38 13 38 33c0 22 -13 35 -38 35s-38 -13 -38 -35zM138 0h-102c-15 0 -21 9 -16 23l286 711c4 10 12 16 23 16h83c11 0 19 -6 23 -16l286 -711
c5 -14 -1 -23 -16 -23h-102c-11 0 -19 5 -23 16l-55 150h-309l-55 -150c-4 -11 -12 -16 -23 -16zM257 278h227l-113 311z" />
    <glyph glyph-name="Aringacute" unicode="&#x1fa;" horiz-adv-x="740" 
d="M475 928c0 -59 -44 -97 -106 -97c-63 0 -105 38 -105 97c0 50 31 85 79 95l48 80c5 9 13 14 24 14h113c18 0 23 -12 9 -25l-97 -89c22 -17 35 -43 35 -75zM331 927c0 -20 13 -33 38 -33s38 13 38 33c0 22 -13 35 -38 35s-38 -13 -38 -35zM138 0h-102c-15 0 -21 9 -16 23
l286 711c4 10 12 16 23 16h83c11 0 19 -6 23 -16l286 -711c5 -14 -1 -23 -16 -23h-102c-11 0 -19 5 -23 16l-55 150h-309l-55 -150c-4 -11 -12 -16 -23 -16zM257 278h227l-113 311z" />
    <glyph glyph-name="Aogonek" unicode="&#x104;" horiz-adv-x="740" 
d="M138 0h-102c-15 0 -21 9 -16 23l286 711c4 10 12 16 23 16h83c11 0 19 -6 23 -16l286 -711c5 -14 -1 -23 -16 -23c-41 -12 -108 -39 -136 -68c-9 -8 -14 -17 -14 -26c0 -16 16 -24 36 -24c14 0 29 3 42 8c14 5 22 2 22 -13v-54c0 -11 -4 -20 -14 -24
c-20 -8 -52 -14 -77 -14c-80 0 -126 36 -126 84c0 30 15 56 38 77c30 30 72 52 106 66l-2 4l-55 150h-309l-55 -150c-4 -11 -12 -16 -23 -16zM257 278h227l-113 311z" />
    <glyph glyph-name="AE" unicode="&#xc6;" horiz-adv-x="988" 
d="M36 0c-15 0 -22 9 -16 23l286 711c4 10 12 16 23 16h572c13 0 20 -7 20 -20v-83c0 -13 -7 -20 -20 -20h-423l68 -168h338c13 0 20 -7 20 -20v-83c0 -13 -7 -20 -20 -20h-289l86 -213h230c13 0 20 -7 20 -20v-83c0 -13 -7 -20 -20 -20h-308c-11 0 -19 5 -23 16l-55 150
h-309l-55 -150c-4 -11 -12 -16 -23 -16h-102zM371 589l-114 -311h227z" />
    <glyph glyph-name="AEacute" unicode="&#x1fc;" horiz-adv-x="988" 
d="M804 836l-272 -42c-13 -2 -19 6 -21 19l-8 61c-2 12 6 19 18 21l271 48c13 2 20 -5 22 -18l8 -67c1 -12 -6 -20 -18 -22zM36 0c-15 0 -22 9 -16 23l286 711c4 10 12 16 23 16h572c13 0 20 -7 20 -20v-83c0 -13 -7 -20 -20 -20h-423l68 -168h338c13 0 20 -7 20 -20v-83
c0 -13 -7 -20 -20 -20h-289l86 -213h230c13 0 20 -7 20 -20v-83c0 -13 -7 -20 -20 -20h-308c-11 0 -19 5 -23 16l-55 150h-309l-55 -150c-4 -11 -12 -16 -23 -16h-102zM371 589l-114 -311h227z" />
    <glyph glyph-name="Cacute" unicode="&#x106;" horiz-adv-x="780" 
d="M613 894l-271 -62c-15 -3 -23 3 -26 14l-14 56c-3 13 3 22 13 25l273 70c12 3 21 -3 24 -15l14 -64c3 -13 -2 -22 -13 -24zM733 124c-70 -86 -174 -140 -298 -140c-220 0 -386 169 -386 388c0 220 166 388 386 388c124 0 228 -54 298 -140c7 -10 6 -19 -2 -28l-50 -52
c-9 -10 -20 -9 -28 1c-51 59 -124 101 -218 101c-148 0 -255 -116 -255 -270c0 -152 107 -268 255 -268c93 0 166 42 217 99c8 10 19 11 28 1l51 -52c8 -9 9 -18 2 -28z" />
    <glyph glyph-name="Ccircumflex" unicode="&#x108;" horiz-adv-x="780" 
d="M590 856c-6 -13 -16 -18 -38 -11l-119 39l-118 -39c-22 -7 -33 -1 -38 11l-18 41c-5 12 -2 25 9 30l147 67c8 4 14 4 17 4s9 -1 17 -4l150 -67c11 -5 14 -18 9 -30zM733 124c-70 -86 -174 -140 -298 -140c-220 0 -386 169 -386 388c0 220 166 388 386 388
c124 0 228 -54 298 -140c7 -10 6 -19 -2 -28l-50 -52c-9 -10 -20 -9 -28 1c-51 59 -124 101 -218 101c-148 0 -255 -116 -255 -270c0 -152 107 -268 255 -268c93 0 166 42 217 99c8 10 19 11 28 1l51 -52c8 -9 9 -18 2 -28z" />
    <glyph glyph-name="Ccaron" unicode="&#x10c;" horiz-adv-x="780" 
d="M453 823c-8 -3 -14 -4 -17 -4s-9 0 -17 4l-147 67c-11 5 -14 18 -9 30l18 41c5 12 16 18 38 11l118 -39l119 39c22 7 32 2 38 -11l18 -41c5 -12 2 -25 -9 -30zM733 124c-70 -86 -174 -140 -298 -140c-220 0 -386 169 -386 388c0 220 166 388 386 388
c124 0 228 -54 298 -140c7 -10 6 -19 -2 -28l-50 -52c-9 -10 -20 -9 -28 1c-51 59 -124 101 -218 101c-148 0 -255 -116 -255 -270c0 -152 107 -268 255 -268c93 0 166 42 217 99c8 10 19 11 28 1l51 -52c8 -9 9 -18 2 -28z" />
    <glyph glyph-name="Cdotaccent" unicode="&#x10a;" horiz-adv-x="780" 
d="M509 934c0 -51 -30 -80 -83 -80c-51 0 -83 29 -83 80c0 52 32 80 83 80c53 0 83 -28 83 -80zM733 124c-70 -86 -174 -140 -298 -140c-220 0 -386 169 -386 388c0 220 166 388 386 388c124 0 228 -54 298 -140c7 -10 6 -19 -2 -28l-50 -52c-9 -10 -20 -9 -28 1
c-51 59 -124 101 -218 101c-148 0 -255 -116 -255 -270c0 -152 107 -268 255 -268c93 0 166 42 217 99c8 10 19 11 28 1l51 -52c8 -9 9 -18 2 -28z" />
    <glyph glyph-name="Ccedilla" unicode="&#xc7;" horiz-adv-x="780" 
d="M524 -105c0 -60 -44 -110 -125 -110c-27 0 -54 5 -73 14c-10 5 -16 15 -13 28l12 44c3 10 9 16 23 13c6 -1 12 -2 19 -2c29 0 50 17 50 48c0 21 -7 40 -18 56c-202 17 -350 179 -350 386c0 220 166 388 386 388c124 0 228 -54 298 -140c7 -10 6 -19 -2 -28l-50 -52
c-9 -10 -20 -9 -28 1c-51 59 -124 101 -218 101c-148 0 -255 -116 -255 -270c0 -152 107 -268 255 -268c93 0 166 42 217 99c8 10 19 11 28 1l51 -52c8 -9 9 -18 2 -28c-60 -74 -146 -124 -248 -137c22 -24 39 -57 39 -92z" />
    <glyph glyph-name="Dcaron" unicode="&#x10e;" horiz-adv-x="788" 
d="M399 823c-8 -3 -14 -4 -17 -4s-9 0 -17 4l-147 67c-11 5 -14 18 -9 30l18 41c5 12 16 18 38 11l118 -39l119 39c22 7 32 2 38 -11l18 -41c5 -12 2 -25 -9 -30zM338 0h-232c-13 0 -20 7 -20 20v710c0 13 7 20 20 20h231c254 0 402 -153 402 -375
c0 -223 -149 -375 -401 -375zM336 632h-124v-515h125c194 0 270 117 270 258c0 139 -76 257 -271 257z" />
    <glyph glyph-name="Dcroat" unicode="&#x110;" horiz-adv-x="788" 
d="M338 0h-232c-13 0 -20 7 -20 20v292h-46c-11 0 -20 9 -20 20v83c0 11 9 20 20 20h46v295c0 13 7 20 20 20h231c254 0 402 -153 402 -375c0 -223 -149 -375 -401 -375zM356 312h-144v-195h125c194 0 270 117 270 258c0 139 -76 257 -271 257h-124v-197h144
c11 0 20 -9 20 -20v-83c0 -11 -9 -20 -20 -20z" />
    <glyph glyph-name="Eth" unicode="&#xd0;" horiz-adv-x="788" 
d="M338 0h-232c-13 0 -20 7 -20 20v292h-46c-11 0 -20 9 -20 20v83c0 11 9 20 20 20h46v295c0 13 7 20 20 20h231c254 0 402 -153 402 -375c0 -223 -149 -375 -401 -375zM356 312h-144v-195h125c194 0 270 117 270 258c0 139 -76 257 -271 257h-124v-197h144
c11 0 20 -9 20 -20v-83c0 -11 -9 -20 -20 -20z" />
    <glyph glyph-name="Egrave" unicode="&#xc8;" horiz-adv-x="632" 
d="M456 839c-3 -11 -11 -17 -26 -14l-271 62c-11 2 -16 11 -13 24l14 64c3 12 12 18 24 15l273 -70c10 -3 16 -12 13 -25zM555 0h-449c-13 0 -20 7 -20 20v710c0 13 7 20 20 20h439c13 0 20 -7 20 -20v-79c0 -13 -7 -20 -20 -20h-336v-174h318c13 0 20 -7 20 -20v-78
c0 -13 -7 -20 -20 -20h-318v-220h346c13 0 20 -7 20 -20v-79c0 -13 -7 -20 -20 -20z" />
    <glyph glyph-name="Eacute" unicode="&#xc9;" horiz-adv-x="632" 
d="M512 894l-271 -62c-15 -3 -23 3 -26 14l-14 56c-3 13 3 22 13 25l273 70c12 3 21 -3 24 -15l14 -64c3 -13 -2 -22 -13 -24zM555 0h-449c-13 0 -20 7 -20 20v710c0 13 7 20 20 20h439c13 0 20 -7 20 -20v-79c0 -13 -7 -20 -20 -20h-336v-174h318c13 0 20 -7 20 -20v-78
c0 -13 -7 -20 -20 -20h-318v-220h346c13 0 20 -7 20 -20v-79c0 -13 -7 -20 -20 -20z" />
    <glyph glyph-name="Ecircumflex" unicode="&#xca;" horiz-adv-x="632" 
d="M492 856c-6 -13 -16 -18 -38 -11l-119 39l-118 -39c-22 -7 -33 -1 -38 11l-18 41c-5 12 -2 25 9 30l147 67c8 4 14 4 17 4s9 -1 17 -4l150 -67c11 -5 14 -18 9 -30zM555 0h-449c-13 0 -20 7 -20 20v710c0 13 7 20 20 20h439c13 0 20 -7 20 -20v-79c0 -13 -7 -20 -20 -20
h-336v-174h318c13 0 20 -7 20 -20v-78c0 -13 -7 -20 -20 -20h-318v-220h346c13 0 20 -7 20 -20v-79c0 -13 -7 -20 -20 -20z" />
    <glyph glyph-name="Ecaron" unicode="&#x11a;" horiz-adv-x="632" 
d="M349 823c-8 -3 -14 -4 -17 -4s-9 0 -17 4l-147 67c-11 5 -14 18 -9 30l18 41c5 12 16 18 38 11l118 -39l119 39c22 7 32 2 38 -11l18 -41c5 -12 2 -25 -9 -30zM555 0h-449c-13 0 -20 7 -20 20v710c0 13 7 20 20 20h439c13 0 20 -7 20 -20v-79c0 -13 -7 -20 -20 -20h-336
v-174h318c13 0 20 -7 20 -20v-78c0 -13 -7 -20 -20 -20h-318v-220h346c13 0 20 -7 20 -20v-79c0 -13 -7 -20 -20 -20z" />
    <glyph glyph-name="Edieresis" unicode="&#xcb;" horiz-adv-x="632" 
d="M519 900c0 -51 -30 -80 -83 -80c-51 0 -83 29 -83 80c0 52 32 80 83 80c53 0 83 -28 83 -80zM289 900c0 -51 -30 -80 -83 -80c-51 0 -83 29 -83 80c0 52 32 80 83 80c53 0 83 -28 83 -80zM555 0h-449c-13 0 -20 7 -20 20v710c0 13 7 20 20 20h439c13 0 20 -7 20 -20v-79
c0 -13 -7 -20 -20 -20h-336v-174h318c13 0 20 -7 20 -20v-78c0 -13 -7 -20 -20 -20h-318v-220h346c13 0 20 -7 20 -20v-79c0 -13 -7 -20 -20 -20z" />
    <glyph glyph-name="Emacron" unicode="&#x112;" horiz-adv-x="632" 
d="M463 850h-271c-13 0 -20 7 -20 20v67c0 13 7 20 20 20h271c13 0 20 -7 20 -20v-67c0 -13 -7 -20 -20 -20zM555 0h-449c-13 0 -20 7 -20 20v710c0 13 7 20 20 20h439c13 0 20 -7 20 -20v-79c0 -13 -7 -20 -20 -20h-336v-174h318c13 0 20 -7 20 -20v-78
c0 -13 -7 -20 -20 -20h-318v-220h346c13 0 20 -7 20 -20v-79c0 -13 -7 -20 -20 -20z" />
    <glyph glyph-name="Ebreve" unicode="&#x114;" horiz-adv-x="632" 
d="M344 835h-41c-96 0 -141 42 -141 115v1c0 12 8 17 20 17h69c13 0 20 -5 20 -18v-1c0 -19 14 -33 40 -33h24c27 0 41 14 41 33v1c0 13 7 18 20 18h69c13 0 20 -5 20 -17v-1c0 -73 -44 -115 -141 -115zM555 0h-449c-13 0 -20 7 -20 20v710c0 13 7 20 20 20h439
c13 0 20 -7 20 -20v-79c0 -13 -7 -20 -20 -20h-336v-174h318c13 0 20 -7 20 -20v-78c0 -13 -7 -20 -20 -20h-318v-220h346c13 0 20 -7 20 -20v-79c0 -13 -7 -20 -20 -20z" />
    <glyph glyph-name="Edotaccent" unicode="&#x116;" horiz-adv-x="632" 
d="M415 934c0 -51 -30 -80 -83 -80c-51 0 -83 29 -83 80c0 52 32 80 83 80c53 0 83 -28 83 -80zM555 0h-449c-13 0 -20 7 -20 20v710c0 13 7 20 20 20h439c13 0 20 -7 20 -20v-79c0 -13 -7 -20 -20 -20h-336v-174h318c13 0 20 -7 20 -20v-78c0 -13 -7 -20 -20 -20h-318v-220
h346c13 0 20 -7 20 -20v-79c0 -13 -7 -20 -20 -20z" />
    <glyph glyph-name="Eogonek" unicode="&#x118;" horiz-adv-x="632" 
d="M473 -201c-20 -8 -52 -14 -77 -14c-80 0 -126 36 -126 84c0 30 15 56 38 77c25 25 60 42 93 54h-295c-13 0 -20 7 -20 20v710c0 13 7 20 20 20h439c13 0 20 -7 20 -20v-79c0 -13 -7 -20 -20 -20h-336v-174h318c13 0 20 -7 20 -20v-78c0 -13 -7 -20 -20 -20h-318v-220h346
c13 0 20 -7 20 -20v-79c0 -13 -7 -20 -20 -20h-18c-41 -12 -106 -41 -136 -68c-9 -8 -14 -17 -14 -26c0 -16 16 -24 36 -24c14 0 29 3 42 8c14 5 22 2 22 -13v-54c0 -11 -4 -20 -14 -24z" />
    <glyph glyph-name="Gcircumflex" unicode="&#x11c;" horiz-adv-x="844" 
d="M585 856c-6 -13 -16 -18 -38 -11l-119 39l-118 -39c-22 -7 -33 -1 -38 11l-18 41c-5 12 -2 25 9 30l147 67c8 4 14 4 17 4s9 -1 17 -4l150 -67c11 -5 14 -18 9 -30zM760 0h-80c-13 0 -20 7 -20 20l-1 87c-45 -72 -127 -123 -241 -123c-203 0 -369 163 -369 395
c0 213 167 381 384 381c180 0 289 -101 339 -192c5 -11 2 -20 -8 -27l-63 -42c-11 -8 -20 -5 -27 7c-41 65 -115 136 -239 136c-151 0 -255 -114 -255 -263c0 -167 108 -275 256 -275c146 0 222 97 222 188h-248c-13 0 -20 7 -20 20v70c0 13 7 20 20 20h350
c13 0 20 -7 20 -20v-362c0 -13 -7 -20 -20 -20z" />
    <glyph glyph-name="Gbreve" unicode="&#x11e;" horiz-adv-x="844" 
d="M450 835h-41c-96 0 -141 42 -141 115v1c0 12 8 17 20 17h69c13 0 20 -5 20 -18v-1c0 -19 14 -33 40 -33h24c27 0 41 14 41 33v1c0 13 7 18 20 18h69c13 0 20 -5 20 -17v-1c0 -73 -44 -115 -141 -115zM760 0h-80c-13 0 -20 7 -20 20l-1 87c-45 -72 -127 -123 -241 -123
c-203 0 -369 163 -369 395c0 213 167 381 384 381c180 0 289 -101 339 -192c5 -11 2 -20 -8 -27l-63 -42c-11 -8 -20 -5 -27 7c-41 65 -115 136 -239 136c-151 0 -255 -114 -255 -263c0 -167 108 -275 256 -275c146 0 222 97 222 188h-248c-13 0 -20 7 -20 20v70
c0 13 7 20 20 20h350c13 0 20 -7 20 -20v-362c0 -13 -7 -20 -20 -20z" />
    <glyph glyph-name="Gdotaccent" unicode="&#x120;" horiz-adv-x="844" 
d="M512 934c0 -51 -30 -80 -83 -80c-51 0 -83 29 -83 80c0 52 32 80 83 80c53 0 83 -28 83 -80zM760 0h-80c-13 0 -20 7 -20 20l-1 87c-45 -72 -127 -123 -241 -123c-203 0 -369 163 -369 395c0 213 167 381 384 381c180 0 289 -101 339 -192c5 -11 2 -20 -8 -27l-63 -42
c-11 -8 -20 -5 -27 7c-41 65 -115 136 -239 136c-151 0 -255 -114 -255 -263c0 -167 108 -275 256 -275c146 0 222 97 222 188h-248c-13 0 -20 7 -20 20v70c0 13 7 20 20 20h350c13 0 20 -7 20 -20v-362c0 -13 -7 -20 -20 -20z" />
    <glyph glyph-name="Gcommaaccent" unicode="&#x122;" horiz-adv-x="844" 
d="M760 0h-80c-13 0 -20 7 -20 20l-1 87c-45 -72 -127 -123 -241 -123c-203 0 -369 163 -369 395c0 213 167 381 384 381c180 0 289 -101 339 -192c5 -11 2 -20 -8 -27l-63 -42c-11 -8 -20 -5 -27 7c-41 65 -115 136 -239 136c-151 0 -255 -114 -255 -263
c0 -167 108 -275 256 -275c146 0 222 97 222 188h-248c-13 0 -20 7 -20 20v70c0 13 7 20 20 20h350c13 0 20 -7 20 -20v-362c0 -13 -7 -20 -20 -20zM358 -205c-15 0 -21 9 -16 23l37 91c4 10 12 16 23 16h106c16 0 22 -11 14 -24l-56 -92c-5 -9 -13 -14 -24 -14h-84z" />
    <glyph glyph-name="Hcircumflex" unicode="&#x124;" horiz-adv-x="836" 
d="M579 856c-6 -13 -16 -18 -38 -11l-119 39l-118 -39c-22 -7 -33 -1 -38 11l-18 41c-5 12 -2 25 9 30l147 67c8 4 14 4 17 4s9 -1 17 -4l150 -67c11 -5 14 -18 9 -30zM195 0h-89c-13 0 -20 7 -20 20v710c0 13 7 20 20 20h89c13 0 20 -7 20 -20v-273h406v273
c0 13 7 20 20 20h89c13 0 20 -7 20 -20v-710c0 -13 -7 -20 -20 -20h-89c-13 0 -20 7 -20 20v318h-406v-318c0 -13 -7 -20 -20 -20z" />
    <glyph glyph-name="Hbar" unicode="&#x126;" horiz-adv-x="836" 
d="M195 0h-89c-13 0 -20 7 -20 20v527h-50c-13 0 -20 7 -20 20v60c0 13 7 20 20 20h50v83c0 13 7 20 20 20h89c13 0 20 -7 20 -20v-83h406v83c0 13 7 20 20 20h89c13 0 20 -7 20 -20v-83h50c13 0 20 -7 20 -20v-60c0 -13 -7 -20 -20 -20h-50v-527c0 -13 -7 -20 -20 -20h-89
c-13 0 -20 7 -20 20v318h-406v-318c0 -13 -7 -20 -20 -20zM215 457h406v90h-406v-90z" />
    <glyph glyph-name="Igrave" unicode="&#xcc;" horiz-adv-x="307" 
d="M-24 876l14 64c3 12 12 18 24 15l250 -65c10 -3 16 -12 13 -25l-14 -56c-3 -11 -11 -17 -26 -14l-248 57c-11 3 -16 11 -13 24zM197 0h-87c-13 0 -20 7 -20 20v710c0 13 7 20 20 20h87c13 0 20 -7 20 -20v-710c0 -13 -7 -20 -20 -20z" />
    <glyph glyph-name="Iacute" unicode="&#xcd;" horiz-adv-x="307" 
d="M62 808l-14 56c-3 13 3 22 13 25l232 59c12 3 21 -3 24 -15l14 -64c3 -13 -2 -22 -13 -24l-230 -51c-15 -3 -23 3 -26 14zM197 0h-87c-13 0 -20 7 -20 20v710c0 13 7 20 20 20h87c13 0 20 -7 20 -20v-710c0 -13 -7 -20 -20 -20z" />
    <glyph glyph-name="Icircumflex" unicode="&#xce;" horiz-adv-x="307" 
d="M62 813c-22 -7 -33 -1 -38 11l-18 41c-5 12 -2 25 9 30l122 59c8 4 14 4 17 4s9 0 17 -4l119 -58c11 -5 14 -18 9 -30l-18 -41c-6 -13 -16 -19 -38 -11l-88 30zM197 0h-87c-13 0 -20 7 -20 20v710c0 13 7 20 20 20h87c13 0 20 -7 20 -20v-710c0 -13 -7 -20 -20 -20z" />
    <glyph glyph-name="Itilde" unicode="&#x128;" horiz-adv-x="307" 
d="M281 853c-13 -7 -30 -12 -50 -12c-30 0 -52 8 -74 15c-24 9 -47 17 -78 17c-26 0 -45 -6 -59 -13c-2 -1 -4 -2 -5 -3c-15 -8 -24 -4 -24 12v73c0 10 2 18 10 24c5 4 11 9 20 13c14 7 33 13 58 13c31 0 54 -9 77 -17c22 -8 45 -16 75 -16c20 0 37 5 50 12c4 2 9 5 12 7
c14 10 23 7 23 -10v-72c0 -10 -2 -17 -9 -24c-6 -6 -14 -13 -26 -19zM197 0h-87c-13 0 -20 7 -20 20v710c0 13 7 20 20 20h87c13 0 20 -7 20 -20v-710c0 -13 -7 -20 -20 -20z" />
    <glyph glyph-name="Idieresis" unicode="&#xcf;" horiz-adv-x="307" 
d="M352 900c0 -51 -30 -80 -83 -80c-51 0 -83 29 -83 80c0 52 32 80 83 80c53 0 83 -28 83 -80zM122 900c0 -51 -30 -80 -83 -80c-51 0 -83 29 -83 80c0 52 32 80 83 80c53 0 83 -28 83 -80zM197 0h-87c-13 0 -20 7 -20 20v710c0 13 7 20 20 20h87c13 0 20 -7 20 -20v-710
c0 -13 -7 -20 -20 -20z" />
    <glyph glyph-name="Imacron" unicode="&#x12a;" horiz-adv-x="307" 
d="M289 850h-271c-13 0 -20 7 -20 20v67c0 13 7 20 20 20h271c13 0 20 -7 20 -20v-67c0 -13 -7 -20 -20 -20zM197 0h-87c-13 0 -20 7 -20 20v710c0 13 7 20 20 20h87c13 0 20 -7 20 -20v-710c0 -13 -7 -20 -20 -20z" />
    <glyph glyph-name="Ibreve" unicode="&#x12c;" horiz-adv-x="307" 
d="M174 835h-41c-96 0 -141 42 -141 115v1c0 12 8 17 20 17h69c13 0 20 -5 20 -18v-1c0 -19 14 -33 40 -33h24c27 0 41 14 41 33v1c0 13 7 18 20 18h69c13 0 20 -5 20 -17v-1c0 -73 -44 -115 -141 -115zM197 0h-87c-13 0 -20 7 -20 20v710c0 13 7 20 20 20h87
c13 0 20 -7 20 -20v-710c0 -13 -7 -20 -20 -20z" />
    <glyph glyph-name="Idotaccent" unicode="&#x130;" horiz-adv-x="307" 
d="M236 934c0 -51 -30 -80 -83 -80c-51 0 -83 29 -83 80c0 52 32 80 83 80c53 0 83 -28 83 -80zM197 0h-87c-13 0 -20 7 -20 20v710c0 13 7 20 20 20h87c13 0 20 -7 20 -20v-710c0 -13 -7 -20 -20 -20z" />
    <glyph glyph-name="Iogonek" unicode="&#x12e;" horiz-adv-x="312" 
d="M92 -215c-80 0 -127 36 -127 84c0 28 16 52 37 73c25 25 60 44 88 57v731c0 13 7 20 20 20h92c13 0 20 -7 20 -20v-711c0 -12 -7 -19 -19 -20h-2c-21 -9 -76 -37 -102 -63c-10 -10 -16 -20 -16 -30c0 -16 16 -24 36 -24c14 0 29 3 42 8c14 5 22 2 22 -13v-54
c0 -11 -4 -20 -14 -24c-20 -8 -52 -14 -77 -14z" />
    <glyph glyph-name="Jcircumflex" unicode="&#x134;" horiz-adv-x="405" 
d="M471 856c-6 -13 -16 -18 -38 -11l-119 39l-118 -39c-22 -7 -33 -1 -38 11l-18 41c-5 12 -2 25 9 30l147 67c8 4 14 4 17 4s9 -1 17 -4l150 -67c11 -5 14 -18 9 -30zM377 257c0 -169 -94 -273 -241 -273c-34 0 -67 7 -95 19c-11 5 -15 14 -12 25l16 69c3 14 12 17 25 13
c15 -5 31 -7 49 -7c82 0 128 63 128 157v470c0 13 7 20 20 20h90c13 0 20 -7 20 -20v-473z" />
    <glyph glyph-name="Kcommaaccent" unicode="&#x136;" horiz-adv-x="719" 
d="M195 0h-89c-13 0 -20 7 -20 20v710c0 13 7 20 20 20h89c13 0 20 -7 20 -20v-265h54l267 275c7 8 15 10 25 10h105c17 0 22 -12 10 -25l-302 -314l321 -386c11 -14 5 -25 -12 -25h-107c-10 0 -18 3 -25 11l-280 334h-56v-325c0 -13 -7 -20 -20 -20zM275 -205
c-15 0 -21 9 -16 23l37 91c4 10 12 16 23 16h106c16 0 22 -11 14 -24l-56 -92c-5 -9 -13 -14 -24 -14h-84z" />
    <glyph glyph-name="Lacute" unicode="&#x139;" horiz-adv-x="592" 
d="M108 813l-10 61c-2 12 6 20 18 22l228 47c14 3 22 -4 24 -18l8 -67c2 -14 -6 -22 -18 -24l-226 -38c-14 -2 -22 5 -24 17zM523 0h-417c-13 0 -20 7 -20 20v710c0 13 7 20 20 20h89c13 0 20 -7 20 -20v-611h308c13 0 20 -7 20 -20v-79c0 -13 -7 -20 -20 -20z" />
    <glyph glyph-name="Lcaron" unicode="&#x13d;" horiz-adv-x="594" 
d="M370 621l39 142c3 12 12 17 23 17h92c15 0 22 -9 16 -23l-64 -143c-4 -10 -13 -15 -24 -15h-65c-14 0 -21 9 -17 22zM523 0h-417c-13 0 -20 7 -20 20v710c0 13 7 20 20 20h89c13 0 20 -7 20 -20v-611h308c13 0 20 -7 20 -20v-79c0 -13 -7 -20 -20 -20z" />
    <glyph glyph-name="Lcommaaccent" unicode="&#x13b;" horiz-adv-x="592" 
d="M523 0h-417c-13 0 -20 7 -20 20v710c0 13 7 20 20 20h89c13 0 20 -7 20 -20v-611h308c13 0 20 -7 20 -20v-79c0 -13 -7 -20 -20 -20zM238 -205c-15 0 -21 9 -16 23l37 91c4 10 12 16 23 16h106c16 0 22 -11 14 -24l-56 -92c-5 -9 -13 -14 -24 -14h-84z" />
    <glyph glyph-name="Lslash" unicode="&#x141;" horiz-adv-x="592" 
d="M28 302v71c0 11 5 18 15 23l43 22v312c0 13 7 20 20 20h89c13 0 20 -7 20 -20v-248l136 68c14 7 24 1 24 -14v-71c0 -11 -5 -18 -15 -23l-145 -72v-251h308c13 0 20 -7 20 -20v-79c0 -13 -7 -20 -20 -20h-417c-13 0 -20 7 -20 20v285l-34 -17c-14 -7 -24 -1 -24 14z" />
    <glyph glyph-name="Ldot" unicode="&#x13f;" horiz-adv-x="592" 
d="M523 0h-417c-13 0 -20 7 -20 20v710c0 13 7 20 20 20h89c13 0 20 -7 20 -20v-611h308c13 0 20 -7 20 -20v-79c0 -13 -7 -20 -20 -20zM543 400c0 -51 -30 -80 -83 -80c-51 0 -83 29 -83 80c0 52 32 80 83 80c53 0 83 -28 83 -80z" />
    <glyph glyph-name="Nacute" unicode="&#x143;" horiz-adv-x="840" 
d="M595 894l-271 -62c-15 -3 -23 3 -26 14l-14 56c-3 13 3 22 13 25l273 70c12 3 21 -3 24 -15l14 -64c3 -13 -2 -22 -13 -24zM193 0h-87c-13 0 -20 7 -20 20v710c0 13 7 20 20 20h45c10 0 18 -4 25 -11l450 -499v490c0 13 7 20 20 20h88c13 0 20 -7 20 -20v-710
c0 -13 -7 -20 -20 -20h-45c-10 0 -18 4 -25 11l-451 507v-498c0 -13 -7 -20 -20 -20z" />
    <glyph glyph-name="Ncaron" unicode="&#x147;" horiz-adv-x="840" 
d="M448 823c-8 -3 -14 -4 -17 -4s-9 0 -17 4l-147 67c-11 5 -14 18 -9 30l18 41c5 12 16 18 38 11l118 -39l119 39c22 7 32 2 38 -11l18 -41c5 -12 2 -25 -9 -30zM193 0h-87c-13 0 -20 7 -20 20v710c0 13 7 20 20 20h45c10 0 18 -4 25 -11l450 -499v490c0 13 7 20 20 20h88
c13 0 20 -7 20 -20v-710c0 -13 -7 -20 -20 -20h-45c-10 0 -18 4 -25 11l-451 507v-498c0 -13 -7 -20 -20 -20z" />
    <glyph glyph-name="Ntilde" unicode="&#xd1;" horiz-adv-x="840" 
d="M559 853c-13 -7 -30 -12 -50 -12c-30 0 -52 8 -74 15c-24 9 -47 17 -78 17c-26 0 -45 -6 -59 -13c-2 -1 -4 -2 -5 -3c-15 -8 -24 -4 -24 12v73c0 10 2 18 10 24c5 4 11 9 20 13c14 7 33 13 58 13c31 0 54 -9 77 -17c22 -8 45 -16 75 -16c20 0 37 5 50 12c4 2 9 5 12 7
c14 10 23 7 23 -10v-72c0 -10 -2 -17 -9 -24c-6 -6 -14 -13 -26 -19zM193 0h-87c-13 0 -20 7 -20 20v710c0 13 7 20 20 20h45c10 0 18 -4 25 -11l450 -499v490c0 13 7 20 20 20h88c13 0 20 -7 20 -20v-710c0 -13 -7 -20 -20 -20h-45c-10 0 -18 4 -25 11l-451 507v-498
c0 -13 -7 -20 -20 -20z" />
    <glyph glyph-name="Ncommaaccent" unicode="&#x145;" horiz-adv-x="840" 
d="M193 0h-87c-13 0 -20 7 -20 20v710c0 13 7 20 20 20h45c10 0 18 -4 25 -11l450 -499v490c0 13 7 20 20 20h88c13 0 20 -7 20 -20v-710c0 -13 -7 -20 -20 -20h-45c-10 0 -18 4 -25 11l-451 507v-498c0 -13 -7 -20 -20 -20zM358 -205c-15 0 -21 9 -16 23l37 91
c4 10 12 16 23 16h106c16 0 22 -11 14 -24l-56 -92c-5 -9 -13 -14 -24 -14h-84z" />
    <glyph glyph-name="Eng" unicode="&#x14a;" horiz-adv-x="840" 
d="M646 750h88c13 0 20 -7 20 -20v-673c0 -169 -94 -273 -241 -273c-34 0 -67 6 -95 19c-11 5 -15 14 -12 25l16 69c3 14 12 17 25 13c15 -5 31 -7 49 -7c80 0 126 60 128 151v2l-411 462v-498c0 -13 -7 -20 -20 -20h-87c-13 0 -20 7 -20 20v710c0 13 7 20 20 20h45
c10 0 18 -4 25 -11l450 -499v490c0 13 7 20 20 20z" />
    <glyph glyph-name="Ograve" unicode="&#xd2;" horiz-adv-x="871" 
d="M575 839c-3 -11 -11 -17 -26 -14l-271 62c-11 2 -16 11 -13 24l14 64c3 12 12 18 24 15l273 -70c10 -3 16 -12 13 -25zM822 372c0 -219 -165 -388 -387 -388c-220 0 -386 169 -386 388c0 220 166 388 386 388c222 0 387 -168 387 -388zM180 372c0 -152 107 -268 255 -268
s257 116 257 268c0 154 -109 270 -257 270s-255 -116 -255 -270z" />
    <glyph glyph-name="Oacute" unicode="&#xd3;" horiz-adv-x="871" 
d="M593 894l-271 -62c-15 -3 -23 3 -26 14l-14 56c-3 13 3 22 13 25l273 70c12 3 21 -3 24 -15l14 -64c3 -13 -2 -22 -13 -24zM822 372c0 -219 -165 -388 -387 -388c-220 0 -386 169 -386 388c0 220 166 388 386 388c222 0 387 -168 387 -388zM180 372
c0 -152 107 -268 255 -268s257 116 257 268c0 154 -109 270 -257 270s-255 -116 -255 -270z" />
    <glyph glyph-name="Ocircumflex" unicode="&#xd4;" horiz-adv-x="871" 
d="M600 856c-6 -13 -16 -18 -38 -11l-119 39l-118 -39c-22 -7 -33 -1 -38 11l-18 41c-5 12 -2 25 9 30l147 67c8 4 14 4 17 4s9 -1 17 -4l150 -67c11 -5 14 -18 9 -30zM822 372c0 -219 -165 -388 -387 -388c-220 0 -386 169 -386 388c0 220 166 388 386 388
c222 0 387 -168 387 -388zM180 372c0 -152 107 -268 255 -268s257 116 257 268c0 154 -109 270 -257 270s-255 -116 -255 -270z" />
    <glyph glyph-name="Otilde" unicode="&#xd5;" horiz-adv-x="871" 
d="M563 853c-13 -7 -30 -12 -50 -12c-30 0 -52 8 -74 15c-24 9 -47 17 -78 17c-26 0 -45 -6 -59 -13c-2 -1 -4 -2 -5 -3c-15 -8 -24 -4 -24 12v73c0 10 2 18 10 24c5 4 11 9 20 13c14 7 33 13 58 13c31 0 54 -9 77 -17c22 -8 45 -16 75 -16c20 0 37 5 50 12c4 2 9 5 12 7
c14 10 23 7 23 -10v-72c0 -10 -2 -17 -9 -24c-6 -6 -14 -13 -26 -19zM822 372c0 -219 -165 -388 -387 -388c-220 0 -386 169 -386 388c0 220 166 388 386 388c222 0 387 -168 387 -388zM180 372c0 -152 107 -268 255 -268s257 116 257 268c0 154 -109 270 -257 270
s-255 -116 -255 -270z" />
    <glyph glyph-name="Odieresis" unicode="&#xd6;" horiz-adv-x="871" 
d="M633 900c0 -51 -30 -80 -83 -80c-51 0 -83 29 -83 80c0 52 32 80 83 80c53 0 83 -28 83 -80zM403 900c0 -51 -30 -80 -83 -80c-51 0 -83 29 -83 80c0 52 32 80 83 80c53 0 83 -28 83 -80zM822 372c0 -219 -165 -388 -387 -388c-220 0 -386 169 -386 388
c0 220 166 388 386 388c222 0 387 -168 387 -388zM180 372c0 -152 107 -268 255 -268s257 116 257 268c0 154 -109 270 -257 270s-255 -116 -255 -270z" />
    <glyph glyph-name="Omacron" unicode="&#x14c;" horiz-adv-x="871" 
d="M571 850h-271c-13 0 -20 7 -20 20v67c0 13 7 20 20 20h271c13 0 20 -7 20 -20v-67c0 -13 -7 -20 -20 -20zM822 372c0 -219 -165 -388 -387 -388c-220 0 -386 169 -386 388c0 220 166 388 386 388c222 0 387 -168 387 -388zM180 372c0 -152 107 -268 255 -268
s257 116 257 268c0 154 -109 270 -257 270s-255 -116 -255 -270z" />
    <glyph glyph-name="Obreve" unicode="&#x14e;" horiz-adv-x="871" 
d="M456 835h-41c-96 0 -141 42 -141 115v1c0 12 8 17 20 17h69c13 0 20 -5 20 -18v-1c0 -19 14 -33 40 -33h24c27 0 41 14 41 33v1c0 13 7 18 20 18h69c13 0 20 -5 20 -17v-1c0 -73 -44 -115 -141 -115zM822 372c0 -219 -165 -388 -387 -388c-220 0 -386 169 -386 388
c0 220 166 388 386 388c222 0 387 -168 387 -388zM180 372c0 -152 107 -268 255 -268s257 116 257 268c0 154 -109 270 -257 270s-255 -116 -255 -270z" />
    <glyph glyph-name="Ohungarumlaut" unicode="&#x150;" horiz-adv-x="871" 
d="M541 871h-66c-15 0 -22 10 -15 24l52 101c5 10 12 14 23 14h71c15 0 21 -10 14 -24l-55 -101c-5 -10 -13 -14 -24 -14zM370 871h-68c-15 0 -21 10 -14 24l50 100c5 10 12 15 23 15h72c15 0 21 -10 14 -24l-53 -101c-5 -9 -13 -14 -24 -14zM822 372
c0 -219 -165 -388 -387 -388c-220 0 -386 169 -386 388c0 220 166 388 386 388c222 0 387 -168 387 -388zM180 372c0 -152 107 -268 255 -268s257 116 257 268c0 154 -109 270 -257 270s-255 -116 -255 -270z" />
    <glyph glyph-name="Oslash" unicode="&#xd8;" horiz-adv-x="871" 
d="M89 9l71 86c-69 70 -111 167 -111 277c0 220 166 388 386 388c83 0 159 -24 220 -65l44 53c6 8 15 12 25 12h77c17 0 23 -11 12 -25l-85 -103c59 -68 94 -159 94 -260c0 -219 -165 -388 -387 -388c-74 0 -141 19 -199 52l-33 -40c-6 -8 -15 -12 -25 -12h-77
c-17 0 -23 11 -12 25zM180 372c0 -70 23 -132 61 -179l336 407c-40 27 -88 42 -142 42c-148 0 -255 -116 -255 -270zM692 372c0 61 -17 116 -47 160l-329 -399c35 -19 75 -29 119 -29c148 0 257 116 257 268z" />
    <glyph glyph-name="Oslashacute" unicode="&#x1fe;" horiz-adv-x="871" 
d="M646 894l-271 -62c-15 -3 -23 3 -26 14l-14 56c-3 13 3 22 13 25l273 70c12 3 21 -3 24 -15l14 -64c3 -13 -2 -22 -13 -24zM89 9l71 86c-69 70 -111 167 -111 277c0 220 166 388 386 388c83 0 159 -24 220 -65l44 53c6 8 15 12 25 12h77c17 0 23 -11 12 -25l-85 -103
c59 -68 94 -159 94 -260c0 -219 -165 -388 -387 -388c-74 0 -141 19 -199 52l-33 -40c-6 -8 -15 -12 -25 -12h-77c-17 0 -23 11 -12 25zM180 372c0 -70 23 -132 61 -179l336 407c-40 27 -88 42 -142 42c-148 0 -255 -116 -255 -270zM692 372c0 61 -17 116 -47 160l-329 -399
c35 -19 75 -29 119 -29c148 0 257 116 257 268z" />
    <glyph glyph-name="OE" unicode="&#x152;" horiz-adv-x="943" 
d="M563 119h303c13 0 20 -7 20 -20v-79c0 -13 -7 -20 -20 -20h-431c-220 0 -386 153 -386 372c0 220 166 378 386 378h421c13 0 20 -7 20 -20v-79c0 -13 -7 -20 -20 -20h-293v-174h276c13 0 20 -7 20 -20v-78c0 -13 -7 -20 -20 -20h-276v-220zM185 372
c0 -150 106 -253 250 -253v513c-144 -1 -250 -109 -250 -260z" />
    <glyph glyph-name="Racute" unicode="&#x154;" horiz-adv-x="701" 
d="M537 894l-271 -62c-15 -3 -23 3 -26 14l-14 56c-3 13 3 22 13 25l273 70c12 3 21 -3 24 -15l14 -64c3 -13 -2 -22 -13 -24zM195 0h-89c-13 0 -20 7 -20 20v710c0 13 7 20 20 20h308c164 0 259 -95 259 -224c0 -97 -52 -175 -146 -208l132 -295c6 -14 0 -23 -15 -23h-98
c-11 0 -20 5 -24 15l-125 285h-182v-280c0 -13 -7 -20 -20 -20zM419 634h-204v-218h200c91 0 126 51 126 110c0 55 -34 108 -122 108z" />
    <glyph glyph-name="Rcaron" unicode="&#x158;" horiz-adv-x="701" 
d="M386 823c-8 -3 -14 -4 -17 -4s-9 0 -17 4l-147 67c-11 5 -14 18 -9 30l18 41c5 12 16 18 38 11l118 -39l119 39c22 7 32 2 38 -11l18 -41c5 -12 2 -25 -9 -30zM195 0h-89c-13 0 -20 7 -20 20v710c0 13 7 20 20 20h308c164 0 259 -95 259 -224c0 -97 -52 -175 -146 -208
l132 -295c6 -14 0 -23 -15 -23h-98c-11 0 -20 5 -24 15l-125 285h-182v-280c0 -13 -7 -20 -20 -20zM419 634h-204v-218h200c91 0 126 51 126 110c0 55 -34 108 -122 108z" />
    <glyph glyph-name="Rcommaaccent" unicode="&#x156;" horiz-adv-x="701" 
d="M195 0h-89c-13 0 -20 7 -20 20v710c0 13 7 20 20 20h308c164 0 259 -95 259 -224c0 -97 -52 -175 -146 -208l132 -295c6 -14 0 -23 -15 -23h-98c-11 0 -20 5 -24 15l-125 285h-182v-280c0 -13 -7 -20 -20 -20zM419 634h-204v-218h200c91 0 126 51 126 110
c0 55 -34 108 -122 108zM284 -205c-15 0 -21 9 -16 23l37 91c4 10 12 16 23 16h106c16 0 22 -11 14 -24l-56 -92c-5 -9 -13 -14 -24 -14h-84z" />
    <glyph glyph-name="Thorn" unicode="&#xde;" horiz-adv-x="688" 
d="M86 20v710c0 13 7 20 20 20h92c13 0 20 -7 20 -20v-73h125c200 0 315 -109 315 -269s-115 -269 -315 -269h-125v-99c0 -13 -7 -20 -20 -20h-92c-13 0 -20 7 -20 20zM333 537h-115v-298h115c137 0 185 67 185 149s-48 149 -185 149z" />
    <glyph glyph-name="Sacute" unicode="&#x15a;" horiz-adv-x="550" 
d="M480 894l-271 -62c-15 -3 -23 3 -26 14l-14 56c-3 13 3 22 13 25l273 70c12 3 21 -3 24 -15l14 -64c3 -13 -2 -22 -13 -24zM505 215c0 -119 -85 -231 -265 -231c-74 0 -125 12 -177 45c-10 6 -12 16 -8 27l25 64c5 12 15 16 27 9c31 -17 71 -29 121 -29
c106 0 150 56 150 111c0 46 -28 84 -89 113l-86 41c-87 41 -141 103 -141 189c0 119 103 206 264 206c64 0 114 -16 149 -34c11 -6 13 -15 8 -27l-29 -65c-5 -12 -14 -15 -26 -10c-26 12 -60 21 -96 21c-88 0 -136 -37 -136 -91c0 -36 22 -62 75 -88l85 -41
c102 -48 149 -117 149 -210z" />
    <glyph glyph-name="Scircumflex" unicode="&#x15c;" horiz-adv-x="550" 
d="M457 856c-6 -13 -16 -18 -38 -11l-119 39l-118 -39c-22 -7 -33 -1 -38 11l-18 41c-5 12 -2 25 9 30l147 67c8 4 14 4 17 4s9 -1 17 -4l150 -67c11 -5 14 -18 9 -30zM505 215c0 -119 -85 -231 -265 -231c-74 0 -125 12 -177 45c-10 6 -12 16 -8 27l25 64c5 12 15 16 27 9
c31 -17 71 -29 121 -29c106 0 150 56 150 111c0 46 -28 84 -89 113l-86 41c-87 41 -141 103 -141 189c0 119 103 206 264 206c64 0 114 -16 149 -34c11 -6 13 -15 8 -27l-29 -65c-5 -12 -14 -15 -26 -10c-26 12 -60 21 -96 21c-88 0 -136 -37 -136 -91c0 -36 22 -62 75 -88
l85 -41c102 -48 149 -117 149 -210z" />
    <glyph glyph-name="Scaron" unicode="&#x160;" horiz-adv-x="550" 
d="M316 823c-8 -3 -14 -4 -17 -4s-9 0 -17 4l-147 67c-11 5 -14 18 -9 30l18 41c5 12 16 18 38 11l118 -39l119 39c22 7 32 2 38 -11l18 -41c5 -12 2 -25 -9 -30zM505 215c0 -119 -85 -231 -265 -231c-74 0 -125 12 -177 45c-10 6 -12 16 -8 27l25 64c5 12 15 16 27 9
c31 -17 71 -29 121 -29c106 0 150 56 150 111c0 46 -28 84 -89 113l-86 41c-87 41 -141 103 -141 189c0 119 103 206 264 206c64 0 114 -16 149 -34c11 -6 13 -15 8 -27l-29 -65c-5 -12 -14 -15 -26 -10c-26 12 -60 21 -96 21c-88 0 -136 -37 -136 -91c0 -36 22 -62 75 -88
l85 -41c102 -48 149 -117 149 -210z" />
    <glyph glyph-name="Scedilla" unicode="&#x15e;" horiz-adv-x="550" 
d="M377 -105c0 -60 -44 -110 -125 -110c-27 0 -54 5 -73 14c-10 5 -16 15 -13 28l12 44c3 10 9 16 23 13c6 -1 12 -2 19 -2c29 0 50 17 50 48c0 21 -7 39 -17 54h-13c-74 0 -125 12 -177 45c-10 6 -12 16 -8 27l25 64c5 12 15 16 27 9c31 -17 71 -29 121 -29
c106 0 150 56 150 111c0 46 -28 84 -89 113l-86 41c-87 41 -141 103 -141 189c0 119 103 206 264 206c64 0 114 -16 149 -34c11 -6 13 -15 8 -27l-29 -65c-5 -12 -14 -15 -26 -10c-26 12 -60 21 -96 21c-88 0 -136 -37 -136 -91c0 -36 22 -62 75 -88l85 -41
c102 -48 149 -117 149 -210c0 -97 -56 -189 -174 -220c24 -25 46 -61 46 -100z" />
    <glyph glyph-name="Scommaaccent" unicode="&#x218;" horiz-adv-x="550" 
d="M505 215c0 -119 -85 -231 -265 -231c-74 0 -125 12 -177 45c-10 6 -12 16 -8 27l25 64c5 12 15 16 27 9c31 -17 71 -29 121 -29c106 0 150 56 150 111c0 46 -28 84 -89 113l-86 41c-87 41 -141 103 -141 189c0 119 103 206 264 206c64 0 114 -16 149 -34
c11 -6 13 -15 8 -27l-29 -65c-5 -12 -14 -15 -26 -10c-26 12 -60 21 -96 21c-88 0 -136 -37 -136 -91c0 -36 22 -62 75 -88l85 -41c102 -48 149 -117 149 -210zM186 -205c-15 0 -21 9 -16 23l37 91c4 10 12 16 23 16h106c16 0 22 -11 14 -24l-56 -92c-5 -9 -13 -14 -24 -14
h-84z" />
    <glyph glyph-name="uni1E9E" unicode="&#x1e9e;" horiz-adv-x="755" 
d="M86 20v490c0 155 116 240 258 240h340c9 0 13 -2 13 -8v-4c0 -5 -2 -8 -6 -16l-161 -279c122 -9 215 -97 215 -214c0 -120 -99 -245 -270 -245c-59 0 -110 14 -142 33c-10 5 -13 13 -13 23v81c0 16 9 21 23 13c32 -17 74 -30 123 -30c95 0 147 59 147 122
c0 68 -54 112 -136 112h-107c-15 0 -22 11 -14 24l149 265h-154c-93 0 -139 -57 -139 -131v-476c0 -13 -7 -20 -20 -20h-86c-13 0 -20 7 -20 20z" />
    <glyph glyph-name="Tcaron" unicode="&#x164;" horiz-adv-x="649" 
d="M345 823c-8 -3 -14 -4 -17 -4s-9 0 -17 4l-147 67c-11 5 -14 18 -9 30l18 41c5 12 16 18 38 11l118 -39l119 39c22 7 32 2 38 -11l18 -41c5 -12 2 -25 -9 -30zM369 0h-89c-13 0 -20 7 -20 20v611h-202c-13 0 -20 7 -20 20v79c0 13 7 20 20 20h533c13 0 20 -7 20 -20v-79
c0 -13 -7 -20 -20 -20h-202v-611c0 -13 -7 -20 -20 -20z" />
    <glyph glyph-name="uni021A" unicode="&#x21a;" horiz-adv-x="649" 
d="M369 0h-89c-13 0 -20 7 -20 20v611h-202c-13 0 -20 7 -20 20v79c0 13 7 20 20 20h533c13 0 20 -7 20 -20v-79c0 -13 -7 -20 -20 -20h-202v-611c0 -13 -7 -20 -20 -20zM231 -205c-15 0 -21 9 -16 23l37 91c4 10 12 16 23 16h106c16 0 22 -11 14 -24l-56 -92
c-5 -9 -13 -14 -24 -14h-84z" />
    <glyph glyph-name="Tbar" unicode="&#x166;" horiz-adv-x="649" 
d="M369 0h-89c-13 0 -20 7 -20 20v294h-87c-13 0 -20 7 -20 20v58c0 13 7 20 20 20h87v219h-202c-13 0 -20 7 -20 20v79c0 13 7 20 20 20h533c13 0 20 -7 20 -20v-79c0 -13 -7 -20 -20 -20h-202v-219h87c13 0 20 -7 20 -20v-58c0 -13 -7 -20 -20 -20h-87v-294
c0 -13 -7 -20 -20 -20z" />
    <glyph glyph-name="uni0162" unicode="&#x162;" horiz-adv-x="570" 
d="M238 0c-12 0 -20 8 -20 22v605h-160c-13 0 -20 7 -20 20v83c0 13 7 20 20 20h454c13 0 20 -7 20 -20v-83c0 -13 -7 -20 -20 -20h-160v-611c0 -9 -4 -13 -11 -15c26 -22 50 -56 50 -102c0 -60 -49 -114 -130 -114c-26 0 -52 5 -71 14c-10 5 -14 13 -14 24v47
c0 14 8 19 22 15c8 -2 16 -3 25 -3c30 0 56 13 56 43c0 26 -12 53 -41 75z" />
    <glyph glyph-name="Ugrave" unicode="&#xd9;" horiz-adv-x="816" 
d="M532 839c-3 -11 -11 -17 -26 -14l-271 62c-11 2 -16 11 -13 24l14 64c3 12 12 18 24 15l273 -70c10 -3 16 -12 13 -25zM736 316c0 -204 -130 -332 -328 -332c-195 0 -328 128 -328 332v414c0 13 7 20 20 20h89c13 0 20 -7 20 -20v-418c0 -123 75 -208 199 -208
s199 85 199 208v418c0 13 7 20 20 20h89c13 0 20 -7 20 -20v-414z" />
    <glyph glyph-name="Uacute" unicode="&#xda;" horiz-adv-x="816" 
d="M584 894l-271 -62c-15 -3 -23 3 -26 14l-14 56c-3 13 3 22 13 25l273 70c12 3 21 -3 24 -15l14 -64c3 -13 -2 -22 -13 -24zM736 316c0 -204 -130 -332 -328 -332c-195 0 -328 128 -328 332v414c0 13 7 20 20 20h89c13 0 20 -7 20 -20v-418c0 -123 75 -208 199 -208
s199 85 199 208v418c0 13 7 20 20 20h89c13 0 20 -7 20 -20v-414z" />
    <glyph glyph-name="Ucircumflex" unicode="&#xdb;" horiz-adv-x="816" 
d="M569 856c-6 -13 -16 -18 -38 -11l-119 39l-118 -39c-22 -7 -33 -1 -38 11l-18 41c-5 12 -2 25 9 30l147 67c8 4 14 4 17 4s9 -1 17 -4l150 -67c11 -5 14 -18 9 -30zM736 316c0 -204 -130 -332 -328 -332c-195 0 -328 128 -328 332v414c0 13 7 20 20 20h89
c13 0 20 -7 20 -20v-418c0 -123 75 -208 199 -208s199 85 199 208v418c0 13 7 20 20 20h89c13 0 20 -7 20 -20v-414z" />
    <glyph glyph-name="Utilde" unicode="&#x168;" horiz-adv-x="816" 
d="M536 853c-13 -7 -30 -12 -50 -12c-30 0 -52 8 -74 15c-24 9 -47 17 -78 17c-26 0 -45 -6 -59 -13c-2 -1 -4 -2 -5 -3c-15 -8 -24 -4 -24 12v73c0 10 2 18 10 24c5 4 11 9 20 13c14 7 33 13 58 13c31 0 54 -9 77 -17c22 -8 45 -16 75 -16c20 0 37 5 50 12c4 2 9 5 12 7
c14 10 23 7 23 -10v-72c0 -10 -2 -17 -9 -24c-6 -6 -14 -13 -26 -19zM736 316c0 -204 -130 -332 -328 -332c-195 0 -328 128 -328 332v414c0 13 7 20 20 20h89c13 0 20 -7 20 -20v-418c0 -123 75 -208 199 -208s199 85 199 208v418c0 13 7 20 20 20h89c13 0 20 -7 20 -20
v-414z" />
    <glyph glyph-name="Udieresis" unicode="&#xdc;" horiz-adv-x="816" 
d="M606 900c0 -51 -30 -80 -83 -80c-51 0 -83 29 -83 80c0 52 32 80 83 80c53 0 83 -28 83 -80zM376 900c0 -51 -30 -80 -83 -80c-51 0 -83 29 -83 80c0 52 32 80 83 80c53 0 83 -28 83 -80zM736 316c0 -204 -130 -332 -328 -332c-195 0 -328 128 -328 332v414
c0 13 7 20 20 20h89c13 0 20 -7 20 -20v-418c0 -123 75 -208 199 -208s199 85 199 208v418c0 13 7 20 20 20h89c13 0 20 -7 20 -20v-414z" />
    <glyph glyph-name="Umacron" unicode="&#x16a;" horiz-adv-x="816" 
d="M544 850h-271c-13 0 -20 7 -20 20v67c0 13 7 20 20 20h271c13 0 20 -7 20 -20v-67c0 -13 -7 -20 -20 -20zM736 316c0 -204 -130 -332 -328 -332c-195 0 -328 128 -328 332v414c0 13 7 20 20 20h89c13 0 20 -7 20 -20v-418c0 -123 75 -208 199 -208s199 85 199 208v418
c0 13 7 20 20 20h89c13 0 20 -7 20 -20v-414z" />
    <glyph glyph-name="Ubreve" unicode="&#x16c;" horiz-adv-x="816" 
d="M429 835h-41c-96 0 -141 42 -141 115v1c0 12 8 17 20 17h69c13 0 20 -5 20 -18v-1c0 -19 14 -33 40 -33h24c27 0 41 14 41 33v1c0 13 7 18 20 18h69c13 0 20 -5 20 -17v-1c0 -73 -44 -115 -141 -115zM736 316c0 -204 -130 -332 -328 -332c-195 0 -328 128 -328 332v414
c0 13 7 20 20 20h89c13 0 20 -7 20 -20v-418c0 -123 75 -208 199 -208s199 85 199 208v418c0 13 7 20 20 20h89c13 0 20 -7 20 -20v-414z" />
    <glyph glyph-name="Uring" unicode="&#x16e;" horiz-adv-x="816" 
d="M514 928c0 -59 -44 -97 -106 -97c-63 0 -105 38 -105 97s43 97 105 97s106 -38 106 -97zM370 927c0 -20 13 -33 38 -33s38 13 38 33c0 22 -13 35 -38 35s-38 -13 -38 -35zM736 316c0 -204 -130 -332 -328 -332c-195 0 -328 128 -328 332v414c0 13 7 20 20 20h89
c13 0 20 -7 20 -20v-418c0 -123 75 -208 199 -208s199 85 199 208v418c0 13 7 20 20 20h89c13 0 20 -7 20 -20v-414z" />
    <glyph glyph-name="Uhungarumlaut" unicode="&#x170;" horiz-adv-x="816" 
d="M509 871h-66c-15 0 -22 10 -15 24l52 101c5 10 12 14 23 14h71c15 0 21 -10 14 -24l-55 -101c-5 -10 -13 -14 -24 -14zM338 871h-68c-15 0 -21 10 -14 24l50 100c5 10 12 15 23 15h72c15 0 21 -10 14 -24l-53 -101c-5 -9 -13 -14 -24 -14zM736 316
c0 -204 -130 -332 -328 -332c-195 0 -328 128 -328 332v414c0 13 7 20 20 20h89c13 0 20 -7 20 -20v-418c0 -123 75 -208 199 -208s199 85 199 208v418c0 13 7 20 20 20h89c13 0 20 -7 20 -20v-414z" />
    <glyph glyph-name="Uogonek" unicode="&#x172;" horiz-adv-x="816" 
d="M391 -215c-80 0 -126 36 -126 84c0 28 14 51 35 72c18 18 41 34 63 45c-170 18 -283 142 -283 330v414c0 13 7 20 20 20h89c13 0 20 -7 20 -20v-418c0 -123 75 -208 199 -208s199 85 199 208v418c0 13 7 20 20 20h89c13 0 20 -7 20 -20v-414c0 -181 -102 -302 -263 -327
c-25 -14 -53 -31 -71 -49c-12 -11 -20 -23 -20 -34c0 -16 16 -24 36 -24c12 0 25 2 36 6c17 6 25 2 27 -12l8 -46c2 -12 -3 -21 -12 -26c-23 -12 -57 -19 -86 -19z" />
    <glyph glyph-name="Wgrave" unicode="&#x1e80;" horiz-adv-x="1135" 
d="M680 839c-3 -11 -11 -17 -26 -14l-271 62c-11 2 -16 11 -13 24l14 64c3 12 12 18 24 15l273 -70c10 -3 16 -12 13 -25zM396 0h-62c-11 0 -19 4 -23 15l-295 712c-6 14 0 23 15 23h96c11 0 19 -6 23 -16l208 -548l148 449c4 12 11 16 22 16h82c11 0 18 -4 22 -16l148 -451
l208 550c4 10 12 16 23 16h93c15 0 21 -9 15 -23l-294 -712c-4 -11 -12 -15 -23 -15h-62c-11 0 -19 5 -23 16l-149 442l-149 -442c-4 -11 -12 -16 -23 -16z" />
    <glyph glyph-name="Wacute" unicode="&#x1e82;" horiz-adv-x="1135" 
d="M763 894l-271 -62c-15 -3 -23 3 -26 14l-14 56c-3 13 3 22 13 25l273 70c12 3 21 -3 24 -15l14 -64c3 -13 -2 -22 -13 -24zM396 0h-62c-11 0 -19 4 -23 15l-295 712c-6 14 0 23 15 23h96c11 0 19 -6 23 -16l208 -548l148 449c4 12 11 16 22 16h82c11 0 18 -4 22 -16
l148 -451l208 550c4 10 12 16 23 16h93c15 0 21 -9 15 -23l-294 -712c-4 -11 -12 -15 -23 -15h-62c-11 0 -19 5 -23 16l-149 442l-149 -442c-4 -11 -12 -16 -23 -16z" />
    <glyph glyph-name="Wcircumflex" unicode="&#x174;" horiz-adv-x="1135" 
d="M728 856c-6 -13 -16 -18 -38 -11l-119 39l-118 -39c-22 -7 -33 -1 -38 11l-18 41c-5 12 -2 25 9 30l147 67c8 4 14 4 17 4s9 -1 17 -4l150 -67c11 -5 14 -18 9 -30zM396 0h-62c-11 0 -19 4 -23 15l-295 712c-6 14 0 23 15 23h96c11 0 19 -6 23 -16l208 -548l148 449
c4 12 11 16 22 16h82c11 0 18 -4 22 -16l148 -451l208 550c4 10 12 16 23 16h93c15 0 21 -9 15 -23l-294 -712c-4 -11 -12 -15 -23 -15h-62c-11 0 -19 5 -23 16l-149 442l-149 -442c-4 -11 -12 -16 -23 -16z" />
    <glyph glyph-name="Wdieresis" unicode="&#x1e84;" horiz-adv-x="1135" 
d="M770 900c0 -51 -30 -80 -83 -80c-51 0 -83 29 -83 80c0 52 32 80 83 80c53 0 83 -28 83 -80zM540 900c0 -51 -30 -80 -83 -80c-51 0 -83 29 -83 80c0 52 32 80 83 80c53 0 83 -28 83 -80zM396 0h-62c-11 0 -19 4 -23 15l-295 712c-6 14 0 23 15 23h96c11 0 19 -6 23 -16
l208 -548l148 449c4 12 11 16 22 16h82c11 0 18 -4 22 -16l148 -451l208 550c4 10 12 16 23 16h93c15 0 21 -9 15 -23l-294 -712c-4 -11 -12 -15 -23 -15h-62c-11 0 -19 5 -23 16l-149 442l-149 -442c-4 -11 -12 -16 -23 -16z" />
    <glyph glyph-name="Ygrave" unicode="&#x1ef2;" horiz-adv-x="702" 
d="M463 839c-3 -11 -11 -17 -26 -14l-271 62c-11 2 -16 11 -13 24l14 64c3 12 12 18 24 15l273 -70c10 -3 16 -12 13 -25zM396 0h-90c-13 0 -20 7 -20 20v196l-260 510c-7 14 0 24 15 24h98c11 0 18 -5 23 -15l189 -389l191 389c5 10 12 15 23 15h96c15 0 22 -10 15 -24
l-260 -510v-196c0 -13 -7 -20 -20 -20z" />
    <glyph glyph-name="Yacute" unicode="&#xdd;" horiz-adv-x="702" 
d="M547 894l-271 -62c-15 -3 -23 3 -26 14l-14 56c-3 13 3 22 13 25l273 70c12 3 21 -3 24 -15l14 -64c3 -13 -2 -22 -13 -24zM396 0h-90c-13 0 -20 7 -20 20v196l-260 510c-7 14 0 24 15 24h98c11 0 18 -5 23 -15l189 -389l191 389c5 10 12 15 23 15h96c15 0 22 -10 15 -24
l-260 -510v-196c0 -13 -7 -20 -20 -20z" />
    <glyph glyph-name="Ycircumflex" unicode="&#x176;" horiz-adv-x="702" 
d="M513 856c-6 -13 -16 -18 -38 -11l-119 39l-118 -39c-22 -7 -33 -1 -38 11l-18 41c-5 12 -2 25 9 30l147 67c8 4 14 4 17 4s9 -1 17 -4l150 -67c11 -5 14 -18 9 -30zM396 0h-90c-13 0 -20 7 -20 20v196l-260 510c-7 14 0 24 15 24h98c11 0 18 -5 23 -15l189 -389l191 389
c5 10 12 15 23 15h96c15 0 22 -10 15 -24l-260 -510v-196c0 -13 -7 -20 -20 -20z" />
    <glyph glyph-name="Ydieresis" unicode="&#x178;" horiz-adv-x="702" 
d="M552 900c0 -51 -30 -80 -83 -80c-51 0 -83 29 -83 80c0 52 32 80 83 80c53 0 83 -28 83 -80zM322 900c0 -51 -30 -80 -83 -80c-51 0 -83 29 -83 80c0 52 32 80 83 80c53 0 83 -28 83 -80zM396 0h-90c-13 0 -20 7 -20 20v196l-260 510c-7 14 0 24 15 24h98
c11 0 18 -5 23 -15l189 -389l191 389c5 10 12 15 23 15h96c15 0 22 -10 15 -24l-260 -510v-196c0 -13 -7 -20 -20 -20z" />
    <glyph glyph-name="Zacute" unicode="&#x179;" horiz-adv-x="647" 
d="M528 894l-271 -62c-15 -3 -23 3 -26 14l-14 56c-3 13 3 22 13 25l273 70c12 3 21 -3 24 -15l14 -64c3 -13 -2 -22 -13 -24zM601 0h-548c-13 0 -20 7 -20 20v71c0 10 3 17 9 25l414 515h-384c-13 0 -20 7 -20 20v79c0 13 7 20 20 20h522c13 0 20 -7 20 -20v-74
c0 -10 -3 -18 -9 -25l-409 -512h405c13 0 20 -7 20 -20v-79c0 -13 -7 -20 -20 -20z" />
    <glyph glyph-name="Zcaron" unicode="&#x17d;" horiz-adv-x="647" 
d="M356 823c-8 -3 -14 -4 -17 -4s-9 0 -17 4l-147 67c-11 5 -14 18 -9 30l18 41c5 12 16 18 38 11l118 -39l119 39c22 7 32 2 38 -11l18 -41c5 -12 2 -25 -9 -30zM601 0h-548c-13 0 -20 7 -20 20v71c0 10 3 17 9 25l414 515h-384c-13 0 -20 7 -20 20v79c0 13 7 20 20 20h522
c13 0 20 -7 20 -20v-74c0 -10 -3 -18 -9 -25l-409 -512h405c13 0 20 -7 20 -20v-79c0 -13 -7 -20 -20 -20z" />
    <glyph glyph-name="Zdotaccent" unicode="&#x17b;" horiz-adv-x="647" 
d="M422 934c0 -51 -30 -80 -83 -80c-51 0 -83 29 -83 80c0 52 32 80 83 80c53 0 83 -28 83 -80zM601 0h-548c-13 0 -20 7 -20 20v71c0 10 3 17 9 25l414 515h-384c-13 0 -20 7 -20 20v79c0 13 7 20 20 20h522c13 0 20 -7 20 -20v-74c0 -10 -3 -18 -9 -25l-409 -512h405
c13 0 20 -7 20 -20v-79c0 -13 -7 -20 -20 -20z" />
    <glyph glyph-name="a" unicode="a" horiz-adv-x="632" 
d="M235 -16c-114 0 -186 63 -186 160c0 45 17 83 47 114c51 53 138 84 236 85c33 0 68 -3 103 -10v3c0 76 -56 115 -147 115c-56 0 -121 -21 -156 -36c-14 -6 -22 -3 -27 9l-23 61c-5 12 -4 23 8 29c46 22 121 48 210 48c170 0 261 -83 261 -248v-170c0 -46 6 -91 15 -121
c5 -15 -7 -23 -20 -23h-60c-19 0 -28 3 -34 13c-8 11 -19 43 -23 72c-36 -54 -117 -101 -204 -101zM173 153c0 -40 27 -66 80 -66c93 0 183 67 183 145v13c-31 8 -62 11 -90 11c-65 0 -120 -19 -150 -49c-15 -16 -23 -34 -23 -54z" />
    <glyph glyph-name="b" unicode="b" horiz-adv-x="690" 
d="M166 0h-71c-13 0 -20 7 -20 20v718c0 12 6 19 17 22l80 20c13 3 22 -3 22 -17v-275c44 48 107 74 178 74c156 0 273 -125 273 -288c0 -162 -118 -290 -274 -290c-73 0 -141 32 -187 92v-58c0 -13 -8 -18 -18 -18zM180 273c0 -100 73 -178 174 -178c98 0 168 77 168 179
s-70 177 -168 177c-101 0 -174 -75 -174 -178z" />
    <glyph glyph-name="c" unicode="c" horiz-adv-x="587" 
d="M542 68c-52 -51 -123 -84 -207 -84c-166 0 -290 128 -290 289c0 159 125 289 290 289c83 0 155 -34 206 -84c9 -9 8 -19 0 -28l-43 -49c-8 -10 -18 -10 -28 -1c-38 34 -77 52 -135 52c-98 0 -168 -79 -168 -179c0 -101 70 -180 168 -180c59 0 98 18 136 53
c10 9 21 9 29 -1l42 -49c8 -9 9 -19 0 -28z" />
    <glyph glyph-name="d" unicode="d" horiz-adv-x="682" 
d="M587 0h-73c-9 0 -16 5 -16 18v52c-44 -56 -109 -86 -184 -86c-154 0 -269 128 -269 289c0 159 116 289 270 289c69 0 129 -26 173 -75v251c0 12 6 19 17 22l80 20c13 3 22 -3 22 -17v-743c0 -13 -7 -20 -20 -20zM167 273c0 -101 68 -180 165 -180c99 0 171 80 171 182
c0 98 -72 177 -171 177c-97 0 -165 -79 -165 -179z" />
    <glyph glyph-name="e" unicode="e" horiz-adv-x="618" 
d="M543 30c-59 -35 -128 -46 -196 -46c-181 0 -302 117 -302 287c0 164 119 291 274 291c137 0 252 -96 252 -268c0 -16 -1 -31 -3 -43s-9 -18 -21 -18h-379c15 -87 81 -138 187 -138c64 0 112 12 150 31c12 7 22 3 26 -10l21 -59c4 -12 1 -20 -9 -27zM315 456
c-73 0 -127 -48 -144 -126h280c-5 79 -57 126 -136 126z" />
    <glyph glyph-name="f" unicode="f" horiz-adv-x="379" 
d="M214 0h-86c-13 0 -20 7 -20 20v417h-83c-13 0 -20 7 -20 20v70c0 13 7 20 20 20h83v57c0 114 74 186 201 186c27 0 50 -3 70 -10c11 -4 15 -13 11 -25l-18 -59c-3 -12 -11 -15 -24 -14c-7 1 -14 1 -23 1c-63 0 -91 -29 -91 -81v-55h131c13 0 20 -7 20 -20v-70
c0 -13 -7 -20 -20 -20h-131v-417c0 -13 -7 -20 -20 -20z" />
    <glyph glyph-name="g" unicode="g" horiz-adv-x="690" 
d="M615 44c0 -160 -98 -259 -290 -259c-93 0 -176 30 -232 73c-9 7 -11 17 -6 27l26 59c6 13 15 15 27 7c48 -34 115 -56 183 -56c128 0 181 68 181 147v26c-45 -54 -110 -84 -185 -84c-156 0 -274 125 -274 287c0 163 117 291 273 291c76 0 142 -29 187 -85v52
c0 13 10 18 22 18h68c13 0 20 -7 20 -20v-483zM169 271c0 -101 69 -176 168 -176s171 77 171 176c0 104 -72 180 -171 180s-168 -77 -168 -180z" />
    <glyph glyph-name="h" unicode="h" horiz-adv-x="684" 
d="M181 0h-86c-13 0 -20 7 -20 20v718c0 12 6 19 17 22l81 20c14 3 22 -3 22 -17v-296c29 52 98 95 184 95c143 0 234 -89 234 -232v-310c0 -13 -7 -20 -20 -20h-86c-13 0 -20 7 -20 20v282c0 98 -49 155 -132 155c-86 0 -154 -67 -154 -172v-265c0 -13 -7 -20 -20 -20z" />
    <glyph glyph-name="i" unicode="i" horiz-adv-x="296" 
d="M231 710c0 -51 -30 -80 -83 -80c-51 0 -83 29 -83 80c0 52 32 80 83 80c53 0 83 -28 83 -80zM191 0h-86c-13 0 -20 7 -20 20v507c0 13 7 20 20 20h86c13 0 20 -7 20 -20v-507c0 -13 -7 -20 -20 -20z" />
    <glyph glyph-name="j" unicode="j" horiz-adv-x="319" 
d="M257 710c0 -51 -30 -80 -83 -80c-51 0 -83 29 -83 80c0 52 32 80 83 80c53 0 83 -28 83 -80zM236 47c0 -150 -82 -232 -165 -257c-12 -4 -21 2 -24 14l-20 70c-3 12 1 20 13 25c50 22 73 66 73 150v478c0 13 7 20 20 20h83c13 0 20 -7 20 -20v-480z" />
    <glyph glyph-name="k" unicode="k" horiz-adv-x="561" 
d="M170 0h-75c-13 0 -20 7 -20 20v718c0 12 6 19 17 22l76 20c13 3 22 -3 22 -17v-417h62l156 189c6 8 14 12 24 12h91c17 0 23 -10 12 -24l-182 -224l194 -275c9 -13 3 -24 -13 -24h-95c-10 0 -18 4 -24 12l-165 230h-60v-222c0 -13 -7 -20 -20 -20z" />
    <glyph glyph-name="l" unicode="l" horiz-adv-x="276" 
d="M181 0h-86c-13 0 -20 7 -20 20v717c0 12 6 19 17 22l87 21c13 3 22 -4 22 -18v-742c0 -13 -7 -20 -20 -20z" />
    <glyph glyph-name="m" unicode="m" horiz-adv-x="1046" 
d="M181 0h-86c-13 0 -20 7 -20 20v507c0 13 7 20 20 20h81c11 0 19 -6 19 -18v-60c27 51 90 93 170 93c91 0 161 -39 196 -107c31 58 101 107 191 107c136 0 223 -87 223 -227v-315c0 -13 -7 -20 -20 -20h-86c-13 0 -20 7 -20 20v296c0 89 -44 141 -119 141
c-86 0 -142 -66 -142 -162v-275c0 -13 -7 -20 -20 -20h-86c-13 0 -20 7 -20 20v296c0 89 -44 141 -119 141c-86 0 -142 -66 -142 -162v-275c0 -13 -7 -20 -20 -20z" />
    <glyph glyph-name="n" unicode="n" horiz-adv-x="684" 
d="M181 0h-86c-13 0 -20 7 -20 20v507c0 13 7 20 20 20h79c12 0 21 -6 21 -18v-62c29 52 98 95 184 95c143 0 234 -89 234 -232v-310c0 -13 -7 -20 -20 -20h-86c-13 0 -20 7 -20 20v282c0 98 -49 155 -132 155c-86 0 -154 -67 -154 -172v-265c0 -13 -7 -20 -20 -20z" />
    <glyph glyph-name="o" unicode="o" horiz-adv-x="671" 
d="M626 273c0 -161 -124 -289 -291 -289c-166 0 -290 128 -290 289c0 159 125 289 290 289c167 0 291 -130 291 -289zM167 273c0 -101 70 -180 168 -180c100 0 169 79 169 180c0 100 -69 179 -169 179c-98 0 -168 -79 -168 -179z" />
    <glyph glyph-name="p" unicode="p" horiz-adv-x="690" 
d="M176 -205h-81c-13 0 -20 7 -20 20v712c0 13 7 20 20 20h68c12 0 22 -5 22 -18v-52c45 56 111 85 187 85c156 0 273 -125 273 -288c0 -162 -118 -290 -274 -290c-67 0 -130 27 -175 78v-247c0 -13 -7 -20 -20 -20zM180 273c0 -100 73 -178 174 -178c98 0 168 77 168 179
s-70 177 -168 177c-101 0 -174 -75 -174 -178z" />
    <glyph glyph-name="q" unicode="q" horiz-adv-x="690" 
d="M595 -205h-81c-13 0 -20 7 -20 20v242c-44 -48 -105 -73 -175 -73c-156 0 -274 126 -274 288c0 163 117 290 273 290c76 0 142 -30 187 -87v54c0 13 10 18 22 18h68c13 0 20 -7 20 -20v-712c0 -13 -7 -20 -20 -20zM168 272c0 -102 70 -177 168 -177c101 0 174 75 174 175
c0 103 -73 181 -174 181c-98 0 -168 -77 -168 -179z" />
    <glyph glyph-name="r" unicode="r" horiz-adv-x="462" 
d="M181 0h-86c-13 0 -20 7 -20 20v507c0 13 7 20 20 20h79c12 0 21 -5 21 -18v-67c30 54 102 100 193 100c17 0 36 -2 52 -6c13 -3 17 -12 14 -24l-19 -81c-3 -13 -12 -17 -25 -14c-12 3 -26 5 -42 5c-93 0 -167 -55 -167 -162v-260c0 -13 -7 -20 -20 -20z" />
    <glyph glyph-name="s" unicode="s" horiz-adv-x="482" 
d="M437 156c0 -82 -67 -172 -219 -172c-63 0 -117 15 -151 34c-11 6 -13 15 -9 27l22 59c5 13 13 16 26 10c27 -13 66 -22 106 -22c78 0 107 34 107 62c0 31 -21 49 -68 68l-69 29c-80 33 -125 75 -125 147c0 90 83 164 219 164c45 0 92 -10 123 -25c11 -5 13 -15 9 -26
l-24 -61c-5 -13 -14 -15 -26 -10c-22 8 -49 13 -81 13c-59 0 -95 -23 -95 -54c0 -25 14 -37 54 -53l67 -28c92 -39 134 -83 134 -162z" />
    <glyph glyph-name="t" unicode="t" horiz-adv-x="407" 
d="M368 -5c-20 -6 -47 -11 -71 -11c-120 0 -193 75 -193 201v252h-73c-13 0 -20 7 -20 20v70c0 13 7 20 20 20h73v117c0 12 6 19 17 22l85 20c13 3 22 -4 22 -18v-141h127c13 0 20 -7 20 -20v-70c0 -13 -7 -20 -20 -20h-127v-252c0 -53 29 -84 82 -84c10 0 24 1 36 3
c13 3 21 0 23 -14l12 -70c2 -11 -2 -21 -13 -25z" />
    <glyph glyph-name="u" unicode="u" horiz-adv-x="672" 
d="M601 257c0 -168 -93 -273 -265 -273c-170 0 -265 106 -265 274v269c0 13 7 20 20 20h86c13 0 20 -7 20 -20v-277c0 -92 43 -155 139 -155c98 0 139 62 139 155v277c0 13 7 20 20 20h86c13 0 20 -7 20 -20v-270z" />
    <glyph glyph-name="v" unicode="v" horiz-adv-x="590" 
d="M329 0h-68c-11 0 -20 5 -24 15l-221 509c-6 14 0 23 15 23h93c11 0 19 -6 23 -16l149 -388l148 388c4 10 12 16 23 16h92c15 0 21 -9 15 -23l-221 -509c-4 -10 -13 -15 -24 -15z" />
    <glyph glyph-name="w" unicode="w" horiz-adv-x="913" 
d="M316 0h-52c-11 0 -20 5 -24 15l-224 509c-6 14 1 23 16 23h86c11 0 19 -4 23 -15l149 -352l115 283c4 10 12 16 23 16h63c11 0 19 -6 23 -16l112 -286l148 355c4 11 12 15 23 15h84c15 0 22 -9 16 -23l-223 -509c-4 -10 -13 -15 -24 -15h-51c-11 0 -19 6 -23 16l-117 301
l-120 -301c-4 -10 -12 -16 -23 -16z" />
    <glyph glyph-name="x" unicode="x" horiz-adv-x="583" 
d="M133 0h-98c-16 0 -22 10 -12 24l199 262l-184 237c-10 13 -5 24 12 24h98c10 0 18 -4 24 -12l118 -165l121 165c6 9 14 12 24 12h98c17 0 22 -11 12 -24l-187 -238l202 -261c10 -13 5 -24 -12 -24h-99c-10 0 -18 4 -24 12l-135 189l-133 -188c-6 -8 -14 -13 -24 -13z" />
    <glyph glyph-name="y" unicode="y" horiz-adv-x="595" 
d="M258 -205h-74c-15 0 -21 9 -16 23l59 149l-216 557c-5 14 1 23 16 23h91c11 0 19 -5 23 -16l147 -408l160 408c4 10 12 16 23 16h93c15 0 21 -9 15 -23l-298 -714c-4 -11 -12 -15 -23 -15z" />
    <glyph glyph-name="z" unicode="z" horiz-adv-x="514" 
d="M466 0h-423c-13 0 -20 7 -20 20v51c0 10 3 18 9 25l304 341h-279c-13 0 -20 7 -20 20v70c0 13 7 20 20 20h419c13 0 20 -7 20 -20v-51c0 -10 -3 -18 -9 -25l-297 -341h276c13 0 20 -7 20 -20v-70c0 -13 -7 -20 -20 -20z" />
    <glyph glyph-name="agrave" unicode="&#xe0;" horiz-adv-x="632" 
d="M452 632c-3 -11 -11 -17 -26 -14l-271 62c-11 2 -16 11 -13 24l14 64c3 12 12 18 24 15l273 -70c10 -3 16 -12 13 -25zM235 -16c-114 0 -186 63 -186 160c0 45 17 83 47 114c51 53 138 84 236 85c33 0 68 -3 103 -10v3c0 76 -56 115 -147 115c-56 0 -121 -21 -156 -36
c-14 -6 -22 -3 -27 9l-23 61c-5 12 -4 23 8 29c46 22 121 48 210 48c170 0 261 -83 261 -248v-170c0 -46 6 -91 15 -121c5 -15 -7 -23 -20 -23h-60c-19 0 -28 3 -34 13c-8 11 -19 43 -23 72c-36 -54 -117 -101 -204 -101zM173 153c0 -40 27 -66 80 -66c93 0 183 67 183 145
v13c-31 8 -62 11 -90 11c-65 0 -120 -19 -150 -49c-15 -16 -23 -34 -23 -54z" />
    <glyph glyph-name="aacute" unicode="&#xe1;" horiz-adv-x="632" 
d="M499 680l-271 -62c-15 -3 -23 3 -26 14l-14 56c-3 13 3 22 13 25l273 70c12 3 21 -3 24 -15l14 -64c3 -13 -2 -22 -13 -24zM235 -16c-114 0 -186 63 -186 160c0 45 17 83 47 114c51 53 138 84 236 85c33 0 68 -3 103 -10v3c0 76 -56 115 -147 115
c-56 0 -121 -21 -156 -36c-14 -6 -22 -3 -27 9l-23 61c-5 12 -4 23 8 29c46 22 121 48 210 48c170 0 261 -83 261 -248v-170c0 -46 6 -91 15 -121c5 -15 -7 -23 -20 -23h-60c-19 0 -28 3 -34 13c-8 11 -19 43 -23 72c-36 -54 -117 -101 -204 -101zM173 153
c0 -40 27 -66 80 -66c93 0 183 67 183 145v13c-31 8 -62 11 -90 11c-65 0 -120 -19 -150 -49c-15 -16 -23 -34 -23 -54z" />
    <glyph glyph-name="acircumflex" unicode="&#xe2;" horiz-adv-x="632" 
d="M472 637c-6 -13 -16 -18 -38 -11l-119 39l-118 -39c-22 -7 -33 -1 -38 11l-18 41c-5 12 -2 25 9 30l147 67c8 4 14 4 17 4s9 -1 17 -4l150 -67c11 -5 14 -18 9 -30zM235 -16c-114 0 -186 63 -186 160c0 45 17 83 47 114c51 53 138 84 236 85c33 0 68 -3 103 -10v3
c0 76 -56 115 -147 115c-56 0 -121 -21 -156 -36c-14 -6 -22 -3 -27 9l-23 61c-5 12 -4 23 8 29c46 22 121 48 210 48c170 0 261 -83 261 -248v-170c0 -46 6 -91 15 -121c5 -15 -7 -23 -20 -23h-60c-19 0 -28 3 -34 13c-8 11 -19 43 -23 72c-36 -54 -117 -101 -204 -101z
M173 153c0 -40 27 -66 80 -66c93 0 183 67 183 145v13c-31 8 -62 11 -90 11c-65 0 -120 -19 -150 -49c-15 -16 -23 -34 -23 -54z" />
    <glyph glyph-name="atilde" unicode="&#xe3;" horiz-adv-x="632" 
d="M446 634c-13 -6 -30 -12 -50 -12c-30 0 -52 7 -74 15c-24 8 -47 17 -78 17c-19 0 -34 -3 -46 -7c-13 -4 -22 -10 -29 -15c-6 -4 -13 -2 -13 7v78c0 15 4 24 11 31c5 5 13 10 20 13c14 6 32 12 57 12c31 0 54 -9 77 -17c22 -8 45 -16 75 -16c20 0 36 4 48 10
c11 5 19 11 25 16c5 4 12 1 12 -5v-78c0 -14 -6 -26 -16 -36c-6 -6 -12 -10 -19 -13zM235 -16c-114 0 -186 63 -186 160c0 45 17 83 47 114c51 53 138 84 236 85c33 0 68 -3 103 -10v3c0 76 -56 115 -147 115c-56 0 -121 -21 -156 -36c-14 -6 -22 -3 -27 9l-23 61
c-5 12 -4 23 8 29c46 22 121 48 210 48c170 0 261 -83 261 -248v-170c0 -46 6 -91 15 -121c5 -15 -7 -23 -20 -23h-60c-19 0 -28 3 -34 13c-8 11 -19 43 -23 72c-36 -54 -117 -101 -204 -101zM173 153c0 -40 27 -66 80 -66c93 0 183 67 183 145v13c-31 8 -62 11 -90 11
c-65 0 -120 -19 -150 -49c-15 -16 -23 -34 -23 -54z" />
    <glyph glyph-name="adieresis" unicode="&#xe4;" horiz-adv-x="632" 
d="M513 681c0 -51 -30 -80 -83 -80c-51 0 -83 29 -83 80c0 52 32 80 83 80c53 0 83 -28 83 -80zM283 681c0 -51 -30 -80 -83 -80c-51 0 -83 29 -83 80c0 52 32 80 83 80c53 0 83 -28 83 -80zM235 -16c-114 0 -186 63 -186 160c0 45 17 83 47 114c51 53 138 84 236 85
c33 0 68 -3 103 -10v3c0 76 -56 115 -147 115c-56 0 -121 -21 -156 -36c-14 -6 -22 -3 -27 9l-23 61c-5 12 -4 23 8 29c46 22 121 48 210 48c170 0 261 -83 261 -248v-170c0 -46 6 -91 15 -121c5 -15 -7 -23 -20 -23h-60c-19 0 -28 3 -34 13c-8 11 -19 43 -23 72
c-36 -54 -117 -101 -204 -101zM173 153c0 -40 27 -66 80 -66c93 0 183 67 183 145v13c-31 8 -62 11 -90 11c-65 0 -120 -19 -150 -49c-15 -16 -23 -34 -23 -54z" />
    <glyph glyph-name="amacron" unicode="&#x101;" horiz-adv-x="632" 
d="M451 670h-271c-13 0 -20 7 -20 20v70c0 13 7 20 20 20h271c13 0 20 -7 20 -20v-70c0 -13 -7 -20 -20 -20zM235 -16c-114 0 -186 63 -186 160c0 45 17 83 47 114c51 53 138 84 236 85c33 0 68 -3 103 -10v3c0 76 -56 115 -147 115c-56 0 -121 -21 -156 -36
c-14 -6 -22 -3 -27 9l-23 61c-5 12 -4 23 8 29c46 22 121 48 210 48c170 0 261 -83 261 -248v-170c0 -46 6 -91 15 -121c5 -15 -7 -23 -20 -23h-60c-19 0 -28 3 -34 13c-8 11 -19 43 -23 72c-36 -54 -117 -101 -204 -101zM173 153c0 -40 27 -66 80 -66c93 0 183 67 183 145
v13c-31 8 -62 11 -90 11c-65 0 -120 -19 -150 -49c-15 -16 -23 -34 -23 -54z" />
    <glyph glyph-name="abreve" unicode="&#x103;" horiz-adv-x="632" 
d="M340 627h-45c-95 0 -139 41 -139 122v11c0 13 7 20 20 20h69c13 0 20 -7 20 -20v-15c0 -24 17 -40 43 -40h18c26 0 44 16 44 40v15c0 13 7 20 20 20h69c13 0 20 -7 20 -20v-11c0 -81 -45 -122 -139 -122zM235 -16c-114 0 -186 63 -186 160c0 45 17 83 47 114
c51 53 138 84 236 85c33 0 68 -3 103 -10v3c0 76 -56 115 -147 115c-56 0 -121 -21 -156 -36c-14 -6 -22 -3 -27 9l-23 61c-5 12 -4 23 8 29c46 22 121 48 210 48c170 0 261 -83 261 -248v-170c0 -46 6 -91 15 -121c5 -15 -7 -23 -20 -23h-60c-19 0 -28 3 -34 13
c-8 11 -19 43 -23 72c-36 -54 -117 -101 -204 -101zM173 153c0 -40 27 -66 80 -66c93 0 183 67 183 145v13c-31 8 -62 11 -90 11c-65 0 -120 -19 -150 -49c-15 -16 -23 -34 -23 -54z" />
    <glyph glyph-name="aring" unicode="&#xe5;" horiz-adv-x="632" 
d="M427 723c0 -59 -44 -97 -106 -97c-63 0 -105 38 -105 97s43 97 105 97s106 -38 106 -97zM275 722c0 -24 16 -40 46 -40s46 16 46 40c0 26 -16 42 -46 42s-46 -16 -46 -42zM235 -16c-114 0 -186 63 -186 160c0 45 17 83 47 114c51 53 138 84 236 85c33 0 68 -3 103 -10v3
c0 76 -56 115 -147 115c-56 0 -121 -21 -156 -36c-14 -6 -22 -3 -27 9l-23 61c-5 12 -4 23 8 29c46 22 121 48 210 48c170 0 261 -83 261 -248v-170c0 -46 6 -91 15 -121c5 -15 -7 -23 -20 -23h-60c-19 0 -28 3 -34 13c-8 11 -19 43 -23 72c-36 -54 -117 -101 -204 -101z
M173 153c0 -40 27 -66 80 -66c93 0 183 67 183 145v13c-31 8 -62 11 -90 11c-65 0 -120 -19 -150 -49c-15 -16 -23 -34 -23 -54z" />
    <glyph glyph-name="aringacute" unicode="&#x1fb;" horiz-adv-x="632" 
d="M432 723c0 -59 -44 -97 -106 -97c-63 0 -105 38 -105 97c0 49 30 84 76 94l54 90c5 9 13 14 24 14h113c18 0 23 -12 9 -25l-104 -95c24 -17 39 -44 39 -78zM280 722c0 -24 16 -40 46 -40s46 16 46 40c0 26 -16 42 -46 42s-46 -16 -46 -42zM235 -16
c-114 0 -186 63 -186 160c0 45 17 83 47 114c51 53 138 84 236 85c33 0 68 -3 103 -10v3c0 76 -56 115 -147 115c-56 0 -121 -21 -156 -36c-14 -6 -22 -3 -27 9l-23 61c-5 12 -4 23 8 29c46 22 121 48 210 48c170 0 261 -83 261 -248v-170c0 -46 6 -91 15 -121
c5 -15 -7 -23 -20 -23h-60c-19 0 -28 3 -34 13c-8 11 -19 43 -23 72c-36 -54 -117 -101 -204 -101zM173 153c0 -40 27 -66 80 -66c93 0 183 67 183 145v13c-31 8 -62 11 -90 11c-65 0 -120 -19 -150 -49c-15 -16 -23 -34 -23 -54z" />
    <glyph glyph-name="aogonek" unicode="&#x105;" horiz-adv-x="632" 
d="M235 -16c-114 0 -186 63 -186 160c0 45 17 83 47 114c51 53 138 84 236 85c33 0 68 -3 103 -10v3c0 76 -56 115 -147 115c-56 0 -121 -21 -156 -36c-14 -6 -22 -3 -27 9l-23 61c-5 12 -4 23 8 29c46 22 121 48 210 48c170 0 261 -83 261 -248v-170c0 -46 6 -91 15 -121
c5 -15 -7 -23 -20 -23c-32 -7 -92 -34 -122 -64c-11 -11 -18 -22 -18 -32c0 -16 16 -24 36 -24c14 0 29 3 42 8c14 5 22 2 22 -13v-54c0 -11 -4 -20 -14 -24c-20 -8 -52 -14 -77 -14c-80 0 -126 36 -126 84c0 28 15 53 36 74c30 30 84 56 129 70l-2 2c-8 11 -19 43 -23 72
c-36 -54 -117 -101 -204 -101zM173 153c0 -40 27 -66 80 -66c93 0 183 67 183 145v13c-31 8 -62 11 -90 11c-65 0 -120 -19 -150 -49c-15 -16 -23 -34 -23 -54z" />
    <glyph glyph-name="ae" unicode="&#xe6;" horiz-adv-x="1017" 
d="M235 -16c-114 0 -186 63 -186 160c0 45 17 83 47 114c51 53 138 84 236 85c33 0 68 -3 103 -10v3c0 76 -56 115 -147 115c-56 0 -121 -21 -156 -36c-14 -6 -22 -3 -27 9l-23 61c-5 12 -4 23 8 29c46 22 121 48 210 48c102 0 175 -30 218 -89c49 55 120 89 200 89
c137 0 252 -96 252 -268c0 -16 -1 -31 -3 -43s-9 -18 -21 -18h-379c15 -87 81 -138 187 -138c64 0 113 10 150 31c12 7 21 3 26 -10l21 -59c4 -12 1 -21 -9 -27c-59 -35 -128 -46 -196 -46c-73 0 -136 19 -185 52v-16c0 -13 -7 -20 -20 -20h-69c-12 0 -19 6 -21 18l-12 67
c-36 -54 -117 -101 -204 -101zM714 456c-73 0 -127 -48 -144 -126h280c-5 79 -57 126 -136 126zM173 153c0 -40 27 -66 80 -66c93 0 183 67 183 145v13c-31 8 -62 11 -90 11c-65 0 -120 -19 -150 -49c-15 -16 -23 -34 -23 -54z" />
    <glyph glyph-name="aeacute" unicode="&#x1fd;" horiz-adv-x="1017" 
d="M729 680l-271 -62c-15 -3 -23 3 -26 14l-14 56c-3 13 3 22 13 25l273 70c12 3 21 -3 24 -15l14 -64c3 -13 -2 -22 -13 -24zM235 -16c-114 0 -186 63 -186 160c0 45 17 83 47 114c51 53 138 84 236 85c33 0 68 -3 103 -10v3c0 76 -56 115 -147 115
c-56 0 -121 -21 -156 -36c-14 -6 -22 -3 -27 9l-23 61c-5 12 -4 23 8 29c46 22 121 48 210 48c102 0 175 -30 218 -89c49 55 120 89 200 89c137 0 252 -96 252 -268c0 -16 -1 -31 -3 -43s-9 -18 -21 -18h-379c15 -87 81 -138 187 -138c64 0 113 10 150 31c12 7 21 3 26 -10
l21 -59c4 -12 1 -21 -9 -27c-59 -35 -128 -46 -196 -46c-73 0 -136 19 -185 52v-16c0 -13 -7 -20 -20 -20h-69c-12 0 -19 6 -21 18l-12 67c-36 -54 -117 -101 -204 -101zM714 456c-73 0 -127 -48 -144 -126h280c-5 79 -57 126 -136 126zM173 153c0 -40 27 -66 80 -66
c93 0 183 67 183 145v13c-31 8 -62 11 -90 11c-65 0 -120 -19 -150 -49c-15 -16 -23 -34 -23 -54z" />
    <glyph glyph-name="cacute" unicode="&#x107;" horiz-adv-x="587" 
d="M457 680l-215 -53c-13 -3 -20 4 -22 18l-10 60c-2 12 6 20 17 23l215 56c13 3 20 -3 22 -17l10 -65c2 -12 -6 -19 -17 -22zM542 68c-52 -51 -123 -84 -207 -84c-166 0 -290 128 -290 289c0 159 125 289 290 289c83 0 155 -34 206 -84c9 -9 8 -19 0 -28l-43 -49
c-8 -10 -18 -10 -28 -1c-38 34 -77 52 -135 52c-98 0 -168 -79 -168 -179c0 -101 70 -180 168 -180c59 0 98 18 136 53c10 9 21 9 29 -1l42 -49c8 -9 9 -19 0 -28z" />
    <glyph glyph-name="ccircumflex" unicode="&#x109;" horiz-adv-x="587" 
d="M482 637c-6 -13 -16 -18 -38 -11l-119 39l-118 -39c-22 -7 -33 -1 -38 11l-18 41c-5 12 -2 25 9 30l147 67c8 4 14 4 17 4s9 -1 17 -4l150 -67c11 -5 14 -18 9 -30zM542 68c-52 -51 -123 -84 -207 -84c-166 0 -290 128 -290 289c0 159 125 289 290 289
c83 0 155 -34 206 -84c9 -9 8 -19 0 -28l-43 -49c-8 -10 -18 -10 -28 -1c-38 34 -77 52 -135 52c-98 0 -168 -79 -168 -179c0 -101 70 -180 168 -180c59 0 98 18 136 53c10 9 21 9 29 -1l42 -49c8 -9 9 -19 0 -28z" />
    <glyph glyph-name="ccaron" unicode="&#x10d;" horiz-adv-x="587" 
d="M341 628c-8 -3 -14 -4 -17 -4s-9 0 -17 4l-147 67c-11 5 -14 18 -9 30l18 41c5 12 16 18 38 11l118 -39l119 39c22 7 32 2 38 -11l18 -41c5 -12 2 -25 -9 -30zM542 68c-52 -51 -123 -84 -207 -84c-166 0 -290 128 -290 289c0 159 125 289 290 289c83 0 155 -34 206 -84
c9 -9 8 -19 0 -28l-43 -49c-8 -10 -18 -10 -28 -1c-38 34 -77 52 -135 52c-98 0 -168 -79 -168 -179c0 -101 70 -180 168 -180c59 0 98 18 136 53c10 9 21 9 29 -1l42 -49c8 -9 9 -19 0 -28z" />
    <glyph glyph-name="cdotaccent" unicode="&#x10b;" horiz-adv-x="587" 
d="M415 700c0 -51 -30 -80 -83 -80c-51 0 -83 29 -83 80c0 52 32 80 83 80c53 0 83 -28 83 -80zM542 68c-52 -51 -123 -84 -207 -84c-166 0 -290 128 -290 289c0 159 125 289 290 289c83 0 155 -34 206 -84c9 -9 8 -19 0 -28l-43 -49c-8 -10 -18 -10 -28 -1
c-38 34 -77 52 -135 52c-98 0 -168 -79 -168 -179c0 -101 70 -180 168 -180c59 0 98 18 136 53c10 9 21 9 29 -1l42 -49c8 -9 9 -19 0 -28z" />
    <glyph glyph-name="ccedilla" unicode="&#xe7;" horiz-adv-x="587" 
d="M420 -105c0 -60 -44 -110 -125 -110c-27 0 -54 5 -73 14c-10 5 -16 15 -13 28l12 44c3 10 9 16 23 13c6 -1 12 -2 19 -2c29 0 50 17 50 48c0 22 -8 41 -18 57c-146 18 -250 138 -250 286c0 159 125 289 290 289c83 0 155 -34 206 -84c9 -9 8 -19 0 -28l-43 -49
c-8 -10 -18 -10 -28 -1c-38 34 -77 52 -135 52c-98 0 -168 -79 -168 -179c0 -101 70 -180 168 -180c59 0 98 18 136 53c10 9 21 9 29 -1l42 -49c8 -9 9 -19 0 -28c-42 -41 -97 -71 -161 -81c21 -24 39 -56 39 -92z" />
    <glyph glyph-name="dcaron" unicode="&#x10f;" horiz-adv-x="847" 
d="M587 0h-73c-9 0 -16 5 -16 18v52c-44 -56 -109 -86 -184 -86c-154 0 -269 128 -269 289c0 159 116 289 270 289c69 0 129 -26 173 -75v251c0 12 6 19 17 22l80 20c13 3 22 -3 22 -17v-743c0 -13 -7 -20 -20 -20zM757 599h-65c-14 0 -21 9 -17 22l39 142c3 12 12 17 23 17
h92c15 0 22 -9 16 -23l-64 -143c-4 -10 -13 -15 -24 -15zM167 273c0 -101 68 -180 165 -180c99 0 171 80 171 182c0 98 -72 177 -171 177c-97 0 -165 -79 -165 -179z" />
    <glyph glyph-name="dcroat" unicode="&#x111;" horiz-adv-x="682" 
d="M587 0h-73c-9 0 -16 5 -16 18v52c-44 -56 -109 -86 -184 -86c-154 0 -269 128 -269 289c0 159 116 289 270 289c69 0 129 -26 173 -75v119h-155c-13 0 -20 7 -20 20v48c0 13 7 20 20 20h155v44c0 12 6 19 17 22l80 20c13 3 22 -3 22 -17v-69h50c13 0 20 -7 20 -20v-48
c0 -13 -7 -20 -20 -20h-50v-586c0 -13 -7 -20 -20 -20zM167 273c0 -101 68 -180 165 -180c99 0 171 80 171 182c0 98 -72 177 -171 177c-97 0 -165 -79 -165 -179z" />
    <glyph glyph-name="egrave" unicode="&#xe8;" horiz-adv-x="618" 
d="M449 632c-3 -11 -11 -17 -26 -14l-271 62c-11 2 -16 11 -13 24l14 64c3 12 12 18 24 15l273 -70c10 -3 16 -12 13 -25zM543 30c-59 -35 -128 -46 -196 -46c-181 0 -302 117 -302 287c0 164 119 291 274 291c137 0 252 -96 252 -268c0 -16 -1 -31 -3 -43s-9 -18 -21 -18
h-379c15 -87 81 -138 187 -138c64 0 112 12 150 31c12 7 22 3 26 -10l21 -59c4 -12 1 -20 -9 -27zM315 456c-73 0 -127 -48 -144 -126h280c-5 79 -57 126 -136 126z" />
    <glyph glyph-name="eacute" unicode="&#xe9;" horiz-adv-x="618" 
d="M503 680l-271 -62c-15 -3 -23 3 -26 14l-14 56c-3 13 3 22 13 25l273 70c12 3 21 -3 24 -15l14 -64c3 -13 -2 -22 -13 -24zM543 30c-59 -35 -128 -46 -196 -46c-181 0 -302 117 -302 287c0 164 119 291 274 291c137 0 252 -96 252 -268c0 -16 -1 -31 -3 -43
s-9 -18 -21 -18h-379c15 -87 81 -138 187 -138c64 0 112 12 150 31c12 7 22 3 26 -10l21 -59c4 -12 1 -20 -9 -27zM315 456c-73 0 -127 -48 -144 -126h280c-5 79 -57 126 -136 126z" />
    <glyph glyph-name="ecircumflex" unicode="&#xea;" horiz-adv-x="618" 
d="M472 637c-6 -13 -16 -18 -38 -11l-119 39l-118 -39c-22 -7 -33 -1 -38 11l-18 41c-5 12 -2 25 9 30l147 67c8 4 14 4 17 4s9 -1 17 -4l150 -67c11 -5 14 -18 9 -30zM543 30c-59 -35 -128 -46 -196 -46c-181 0 -302 117 -302 287c0 164 119 291 274 291
c137 0 252 -96 252 -268c0 -16 -1 -31 -3 -43s-9 -18 -21 -18h-379c15 -87 81 -138 187 -138c64 0 112 12 150 31c12 7 22 3 26 -10l21 -59c4 -12 1 -20 -9 -27zM315 456c-73 0 -127 -48 -144 -126h280c-5 79 -57 126 -136 126z" />
    <glyph glyph-name="ecaron" unicode="&#x11b;" horiz-adv-x="618" 
d="M333 628c-8 -3 -14 -4 -17 -4s-9 0 -17 4l-147 67c-11 5 -14 18 -9 30l18 41c5 12 16 18 38 11l118 -39l119 39c22 7 32 2 38 -11l18 -41c5 -12 2 -25 -9 -30zM543 30c-59 -35 -128 -46 -196 -46c-181 0 -302 117 -302 287c0 164 119 291 274 291c137 0 252 -96 252 -268
c0 -16 -1 -31 -3 -43s-9 -18 -21 -18h-379c15 -87 81 -138 187 -138c64 0 112 12 150 31c12 7 22 3 26 -10l21 -59c4 -12 1 -20 -9 -27zM315 456c-73 0 -127 -48 -144 -126h280c-5 79 -57 126 -136 126z" />
    <glyph glyph-name="edieresis" unicode="&#xeb;" horiz-adv-x="618" 
d="M518 681c0 -51 -30 -80 -83 -80c-51 0 -83 29 -83 80c0 52 32 80 83 80c53 0 83 -28 83 -80zM288 681c0 -51 -30 -80 -83 -80c-51 0 -83 29 -83 80c0 52 32 80 83 80c53 0 83 -28 83 -80zM543 30c-59 -35 -128 -46 -196 -46c-181 0 -302 117 -302 287
c0 164 119 291 274 291c137 0 252 -96 252 -268c0 -16 -1 -31 -3 -43s-9 -18 -21 -18h-379c15 -87 81 -138 187 -138c64 0 112 12 150 31c12 7 22 3 26 -10l21 -59c4 -12 1 -20 -9 -27zM315 456c-73 0 -127 -48 -144 -126h280c-5 79 -57 126 -136 126z" />
    <glyph glyph-name="emacron" unicode="&#x113;" horiz-adv-x="618" 
d="M452 670h-271c-13 0 -20 7 -20 20v70c0 13 7 20 20 20h271c13 0 20 -7 20 -20v-70c0 -13 -7 -20 -20 -20zM543 30c-59 -35 -128 -46 -196 -46c-181 0 -302 117 -302 287c0 164 119 291 274 291c137 0 252 -96 252 -268c0 -16 -1 -31 -3 -43s-9 -18 -21 -18h-379
c15 -87 81 -138 187 -138c64 0 112 12 150 31c12 7 22 3 26 -10l21 -59c4 -12 1 -20 -9 -27zM315 456c-73 0 -127 -48 -144 -126h280c-5 79 -57 126 -136 126z" />
    <glyph glyph-name="ebreve" unicode="&#x115;" horiz-adv-x="618" 
d="M341 627h-45c-95 0 -139 41 -139 122v11c0 13 7 20 20 20h69c13 0 20 -7 20 -20v-15c0 -24 17 -40 43 -40h18c26 0 44 16 44 40v15c0 13 7 20 20 20h69c13 0 20 -7 20 -20v-11c0 -81 -45 -122 -139 -122zM543 30c-59 -35 -128 -46 -196 -46c-181 0 -302 117 -302 287
c0 164 119 291 274 291c137 0 252 -96 252 -268c0 -16 -1 -31 -3 -43s-9 -18 -21 -18h-379c15 -87 81 -138 187 -138c64 0 112 12 150 31c12 7 22 3 26 -10l21 -59c4 -12 1 -20 -9 -27zM315 456c-73 0 -127 -48 -144 -126h280c-5 79 -57 126 -136 126z" />
    <glyph glyph-name="edotaccent" unicode="&#x117;" horiz-adv-x="618" 
d="M402 700c0 -51 -30 -80 -83 -80c-51 0 -83 29 -83 80c0 52 32 80 83 80c53 0 83 -28 83 -80zM543 30c-59 -35 -128 -46 -196 -46c-181 0 -302 117 -302 287c0 164 119 291 274 291c137 0 252 -96 252 -268c0 -16 -1 -31 -3 -43s-9 -18 -21 -18h-379
c15 -87 81 -138 187 -138c64 0 112 12 150 31c12 7 22 3 26 -10l21 -59c4 -12 1 -20 -9 -27zM315 456c-73 0 -127 -48 -144 -126h280c-5 79 -57 126 -136 126z" />
    <glyph glyph-name="eogonek" unicode="&#x119;" horiz-adv-x="618" 
d="M494 -201c-20 -8 -52 -14 -77 -14c-80 0 -126 36 -126 84c0 28 16 55 39 78c14 14 30 27 47 38c-10 -1 -20 -1 -30 -1c-181 0 -302 117 -302 287c0 164 119 291 274 291c137 0 252 -96 252 -268c0 -16 -1 -31 -3 -43s-9 -18 -21 -18h-379c15 -87 81 -138 187 -138
c64 0 112 12 150 31c12 7 22 3 26 -10l21 -59c4 -12 1 -20 -9 -27c-26 -16 -72 -44 -104 -73c-19 -17 -31 -36 -31 -49c0 -17 16 -26 36 -26c14 0 29 3 42 8c14 5 22 2 22 -13v-54c0 -11 -4 -19 -14 -24zM315 456c-73 0 -127 -48 -144 -126h280c-5 79 -57 126 -136 126z" />
    <glyph glyph-name="gcircumflex" unicode="&#x11d;" horiz-adv-x="690" 
d="M493 637c-6 -13 -16 -18 -38 -11l-119 39l-118 -39c-22 -7 -33 -1 -38 11l-18 41c-5 12 -2 25 9 30l147 67c8 4 14 4 17 4s9 -1 17 -4l150 -67c11 -5 14 -18 9 -30zM615 44c0 -160 -98 -259 -290 -259c-93 0 -176 30 -232 73c-9 7 -11 17 -6 27l26 59c6 13 15 15 27 7
c48 -34 115 -56 183 -56c128 0 181 68 181 147v26c-45 -54 -110 -84 -185 -84c-156 0 -274 125 -274 287c0 163 117 291 273 291c76 0 142 -29 187 -85v52c0 13 10 18 22 18h68c13 0 20 -7 20 -20v-483zM169 271c0 -101 69 -176 168 -176s171 77 171 176
c0 104 -72 180 -171 180s-168 -77 -168 -180z" />
    <glyph glyph-name="gbreve" unicode="&#x11f;" horiz-adv-x="690" 
d="M363 627h-45c-95 0 -139 41 -139 122v11c0 13 7 20 20 20h69c13 0 20 -7 20 -20v-15c0 -24 17 -40 43 -40h18c26 0 44 16 44 40v15c0 13 7 20 20 20h69c13 0 20 -7 20 -20v-11c0 -81 -45 -122 -139 -122zM615 44c0 -160 -98 -259 -290 -259c-93 0 -176 30 -232 73
c-9 7 -11 17 -6 27l26 59c6 13 15 15 27 7c48 -34 115 -56 183 -56c128 0 181 68 181 147v26c-45 -54 -110 -84 -185 -84c-156 0 -274 125 -274 287c0 163 117 291 273 291c76 0 142 -29 187 -85v52c0 13 10 18 22 18h68c13 0 20 -7 20 -20v-483zM169 271
c0 -101 69 -176 168 -176s171 77 171 176c0 104 -72 180 -171 180s-168 -77 -168 -180z" />
    <glyph glyph-name="gdotaccent" unicode="&#x121;" horiz-adv-x="690" 
d="M415 700c0 -51 -30 -80 -83 -80c-51 0 -83 29 -83 80c0 52 32 80 83 80c53 0 83 -28 83 -80zM615 44c0 -160 -98 -259 -290 -259c-93 0 -176 30 -232 73c-9 7 -11 17 -6 27l26 59c6 13 15 15 27 7c48 -34 115 -56 183 -56c128 0 181 68 181 147v26
c-45 -54 -110 -84 -185 -84c-156 0 -274 125 -274 287c0 163 117 291 273 291c76 0 142 -29 187 -85v52c0 13 10 18 22 18h68c13 0 20 -7 20 -20v-483zM169 271c0 -101 69 -176 168 -176s171 77 171 176c0 104 -72 180 -171 180s-168 -77 -168 -180z" />
    <glyph glyph-name="gcommaaccent" unicode="&#x123;" horiz-adv-x="690" 
d="M385 649h-96c-16 0 -22 11 -14 24l55 92c5 9 13 14 24 14h76c15 0 22 -9 16 -23l-38 -92c-4 -11 -12 -15 -23 -15zM615 44c0 -160 -98 -259 -290 -259c-93 0 -176 30 -232 73c-9 7 -11 17 -6 27l26 59c6 13 15 15 27 7c48 -34 115 -56 183 -56c128 0 181 68 181 147v26
c-45 -54 -110 -84 -185 -84c-156 0 -274 125 -274 287c0 163 117 291 273 291c76 0 142 -29 187 -85v52c0 13 10 18 22 18h68c13 0 20 -7 20 -20v-483zM169 271c0 -101 69 -176 168 -176s171 77 171 176c0 104 -72 180 -171 180s-168 -77 -168 -180z" />
    <glyph glyph-name="hcircumflex" unicode="&#x125;" horiz-adv-x="684" 
d="M305 864c-6 -13 -16 -18 -38 -11l-119 39l-118 -39c-22 -7 -33 -1 -38 11l-18 41c-5 12 -2 25 9 30l147 67c8 4 14 4 17 4s9 -1 17 -4l150 -67c11 -5 14 -18 9 -30zM181 0h-86c-13 0 -20 7 -20 20v718c0 12 6 19 17 22l81 20c14 3 22 -3 22 -17v-296c29 52 98 95 184 95
c143 0 234 -89 234 -232v-310c0 -13 -7 -20 -20 -20h-86c-13 0 -20 7 -20 20v282c0 98 -49 155 -132 155c-86 0 -154 -67 -154 -172v-265c0 -13 -7 -20 -20 -20z" />
    <glyph glyph-name="hbar" unicode="&#x127;" horiz-adv-x="684" 
d="M181 0h-86c-13 0 -20 7 -20 20v586h-50c-13 0 -20 7 -20 20v48c0 13 7 20 20 20h50v44c0 12 6 19 17 22l81 20c14 3 22 -3 22 -17v-69h154c13 0 20 -7 20 -20v-48c0 -13 -7 -20 -20 -20h-154v-139c29 52 98 95 184 95c143 0 234 -89 234 -232v-310c0 -13 -7 -20 -20 -20
h-86c-13 0 -20 7 -20 20v282c0 98 -49 155 -132 155c-86 0 -154 -67 -154 -172v-265c0 -13 -7 -20 -20 -20z" />
    <glyph glyph-name="igrave" unicode="&#xec;" horiz-adv-x="296" 
d="M235 661c-3 -11 -11 -17 -26 -14l-192 43c-11 2 -16 11 -13 24l14 64c3 12 12 18 24 15l194 -51c10 -3 16 -12 13 -25zM191 0h-86c-13 0 -20 7 -20 20v507c0 13 7 20 20 20h86c13 0 20 -7 20 -20v-507c0 -13 -7 -20 -20 -20z" />
    <glyph glyph-name="iacute" unicode="&#xed;" horiz-adv-x="296" 
d="M304 684l-213 -59c-15 -4 -23 3 -26 14l-14 56c-3 13 3 22 13 25l215 67c12 4 21 -3 24 -15l14 -64c3 -13 -2 -21 -13 -24zM191 0h-86c-13 0 -20 7 -20 20v507c0 13 7 20 20 20h86c13 0 20 -7 20 -20v-507c0 -13 -7 -20 -20 -20z" />
    <glyph glyph-name="icircumflex" unicode="&#xee;" horiz-adv-x="296" 
d="M61 631c-17 -8 -27 0 -30 13l-10 50c-2 11 5 19 14 24l98 57c5 3 9 4 14 4c4 0 9 -1 14 -4l99 -57c9 -5 17 -13 14 -24l-15 -49c-4 -13 -13 -19 -30 -12l-82 35zM191 0h-86c-13 0 -20 7 -20 20v507c0 13 7 20 20 20h86c13 0 20 -7 20 -20v-507c0 -13 -7 -20 -20 -20z" />
    <glyph glyph-name="itilde" unicode="&#x129;" horiz-adv-x="296" 
d="M260 663c-12 -7 -27 -12 -44 -12c-27 0 -46 8 -65 15c-21 9 -42 17 -69 17c-22 0 -38 -5 -49 -11l-4 -2c-4 -3 -24 -6 -24 11v71c0 9 1 19 9 25c4 3 9 8 17 12c12 7 29 13 51 13c27 0 48 -9 68 -17c19 -8 39 -16 66 -16c17 0 32 4 44 12c3 2 5 3 8 5c14 10 23 7 23 -10
v-70c0 -9 -1 -18 -8 -25c-5 -5 -13 -12 -23 -18zM191 0h-86c-13 0 -20 7 -20 20v507c0 13 7 20 20 20h86c13 0 20 -7 20 -20v-507c0 -13 -7 -20 -20 -20z" />
    <glyph glyph-name="idieresis" unicode="&#xef;" horiz-adv-x="296" 
d="M318 723c0 -42 -26 -66 -72 -66c-45 0 -72 24 -72 66c0 44 27 67 72 67c46 0 72 -23 72 -67zM124 723c0 -42 -25 -66 -72 -66c-45 0 -73 24 -73 66c0 44 28 67 73 67c47 0 72 -23 72 -67zM191 0h-86c-13 0 -20 7 -20 20v507c0 13 7 20 20 20h86c13 0 20 -7 20 -20v-507
c0 -13 -7 -20 -20 -20z" />
    <glyph glyph-name="imacron" unicode="&#x12b;" horiz-adv-x="296" 
d="M272 670h-248c-13 0 -20 7 -20 20v70c0 13 7 20 20 20h248c13 0 20 -7 20 -20v-70c0 -13 -7 -20 -20 -20zM191 0h-86c-13 0 -20 7 -20 20v507c0 13 7 20 20 20h86c13 0 20 -7 20 -20v-507c0 -13 -7 -20 -20 -20z" />
    <glyph glyph-name="ibreve" unicode="&#x12d;" horiz-adv-x="296" 
d="M156 627h-17c-95 0 -146 44 -146 125v8c0 13 7 20 20 20h69c13 0 20 -7 20 -20v-15c0 -24 17 -40 43 -40h5c26 0 44 16 44 40v15c0 13 7 20 20 20h69c13 0 20 -7 20 -20v-8c0 -81 -53 -125 -147 -125zM191 0h-86c-13 0 -20 7 -20 20v507c0 13 7 20 20 20h86
c13 0 20 -7 20 -20v-507c0 -13 -7 -20 -20 -20z" />
    <glyph glyph-name="iogonek" unicode="&#x12f;" horiz-adv-x="296" 
d="M97 -215c-80 0 -118 36 -118 85c0 30 15 56 36 77c22 22 49 38 70 48v532c0 13 7 20 20 20h86c13 0 20 -7 20 -20v-508c0 -12 -6 -17 -19 -22c-16 -6 -51 -23 -72 -46c-14 -15 -24 -30 -24 -45c0 -16 17 -24 37 -24c13 0 28 3 41 8c14 5 22 2 22 -13v-54
c0 -11 -4 -19 -14 -23c-21 -8 -56 -15 -85 -15z" />
    <glyph glyph-name="dotlessi" unicode="&#x131;" horiz-adv-x="296" 
d="M191 0h-86c-13 0 -20 7 -20 20v507c0 13 7 20 20 20h86c13 0 20 -7 20 -20v-507c0 -13 -7 -20 -20 -20z" />
    <glyph glyph-name="jcircumflex" unicode="&#x135;" horiz-adv-x="321" 
d="M89 630c-16 -7 -25 0 -28 13l-11 51c-2 11 5 19 14 24l98 57c5 3 9 4 14 4c4 0 9 -1 14 -4l99 -57c9 -5 17 -13 14 -24l-13 -50c-3 -13 -13 -19 -30 -12l-84 36zM236 47c0 -150 -82 -232 -165 -257c-12 -4 -21 2 -24 14l-20 70c-3 12 1 20 13 25c50 22 73 66 73 150v478
c0 13 7 20 20 20h83c13 0 20 -7 20 -20v-480z" />
    <glyph glyph-name="dotlessj" unicode="&#xf6be;" horiz-adv-x="321" 
d="M236 47c0 -150 -82 -232 -165 -257c-12 -4 -21 2 -24 14l-20 70c-3 12 1 20 13 25c50 22 73 66 73 150v478c0 13 7 20 20 20h83c13 0 20 -7 20 -20v-480z" />
    <glyph glyph-name="kcommaaccent" unicode="&#x137;" horiz-adv-x="561" 
d="M170 0h-75c-13 0 -20 7 -20 20v718c0 12 6 19 17 22l76 20c13 3 22 -3 22 -17v-417h62l156 189c6 8 14 12 24 12h91c17 0 23 -10 12 -24l-182 -224l194 -275c9 -13 3 -24 -13 -24h-95c-10 0 -18 4 -24 12l-165 230h-60v-222c0 -13 -7 -20 -20 -20zM213 -205
c-15 0 -21 9 -16 23l37 91c4 10 12 16 23 16h106c16 0 22 -11 14 -24l-56 -92c-5 -9 -13 -14 -24 -14h-84z" />
    <glyph glyph-name="lacute" unicode="&#x13a;" horiz-adv-x="276" 
d="M286 877l-186 -59c-14 -4 -22 3 -23 17l-6 60c-1 11 5 19 16 23l187 65c14 5 22 -2 23 -16l6 -68c1 -11 -6 -18 -17 -22zM181 0h-86c-13 0 -20 7 -20 20v717c0 12 6 19 17 22l87 21c13 3 22 -4 22 -18v-742c0 -13 -7 -20 -20 -20z" />
    <glyph glyph-name="lcaron" unicode="&#x13e;" horiz-adv-x="440" 
d="M181 0h-86c-13 0 -20 7 -20 20v717c0 12 6 19 17 22l87 21c13 3 22 -4 22 -18v-742c0 -13 -7 -20 -20 -20zM350 599h-65c-14 0 -21 9 -17 22l39 142c3 12 12 17 23 17h92c15 0 22 -9 16 -23l-64 -143c-4 -10 -13 -15 -24 -15z" />
    <glyph glyph-name="lcommaaccent" unicode="&#x13c;" horiz-adv-x="276" 
d="M181 0h-86c-13 0 -20 7 -20 20v717c0 12 6 19 17 22l87 21c13 3 22 -4 22 -18v-742c0 -13 -7 -20 -20 -20zM38 -205c-15 0 -21 9 -16 23l37 91c4 10 12 16 23 16h106c16 0 22 -11 14 -24l-56 -92c-5 -9 -13 -14 -24 -14h-84z" />
    <glyph glyph-name="lslash" unicode="&#x142;" horiz-adv-x="276" 
d="M181 0h-86c-13 0 -20 7 -20 20v328l-66 -33c-14 -7 -24 -1 -24 14v64c0 11 5 18 15 23l75 38v283c0 12 6 19 17 22l87 21c13 3 22 -4 22 -18v-245l66 33c14 7 24 1 24 -14v-64c0 -11 -5 -18 -15 -23l-75 -38v-391c0 -13 -7 -20 -20 -20z" />
    <glyph glyph-name="ldot" unicode="&#x140;" horiz-adv-x="443" 
d="M181 0h-86c-13 0 -20 7 -20 20v717c0 12 6 19 17 22l87 21c13 3 22 -4 22 -18v-742c0 -13 -7 -20 -20 -20zM443 363c0 -51 -30 -80 -83 -80c-51 0 -83 29 -83 80c0 52 32 80 83 80c53 0 83 -28 83 -80z" />
    <glyph glyph-name="nacute" unicode="&#x144;" horiz-adv-x="684" 
d="M535 680l-271 -62c-15 -3 -23 3 -26 14l-14 56c-3 13 3 22 13 25l273 70c12 3 21 -3 24 -15l14 -64c3 -13 -2 -22 -13 -24zM181 0h-86c-13 0 -20 7 -20 20v507c0 13 7 20 20 20h79c12 0 21 -6 21 -18v-62c29 52 98 95 184 95c143 0 234 -89 234 -232v-310
c0 -13 -7 -20 -20 -20h-86c-13 0 -20 7 -20 20v282c0 98 -49 155 -132 155c-86 0 -154 -67 -154 -172v-265c0 -13 -7 -20 -20 -20z" />
    <glyph glyph-name="ncaron" unicode="&#x148;" horiz-adv-x="684" 
d="M374 628c-8 -3 -14 -4 -17 -4s-9 0 -17 4l-147 67c-11 5 -14 18 -9 30l18 41c5 12 16 18 38 11l118 -39l119 39c22 7 32 2 38 -11l18 -41c5 -12 2 -25 -9 -30zM181 0h-86c-13 0 -20 7 -20 20v507c0 13 7 20 20 20h79c12 0 21 -6 21 -18v-62c29 52 98 95 184 95
c143 0 234 -89 234 -232v-310c0 -13 -7 -20 -20 -20h-86c-13 0 -20 7 -20 20v282c0 98 -49 155 -132 155c-86 0 -154 -67 -154 -172v-265c0 -13 -7 -20 -20 -20z" />
    <glyph glyph-name="ntilde" unicode="&#xf1;" horiz-adv-x="684" 
d="M478 634c-13 -6 -30 -12 -50 -12c-30 0 -52 7 -74 15c-24 8 -47 17 -78 17c-19 0 -34 -3 -46 -7c-13 -4 -22 -10 -29 -15c-6 -4 -13 -2 -13 7v78c0 15 4 24 11 31c5 5 13 10 20 13c14 6 32 12 57 12c31 0 54 -9 77 -17c22 -8 45 -16 75 -16c20 0 36 4 48 10
c11 5 19 11 25 16c5 4 12 1 12 -5v-78c0 -14 -6 -26 -16 -36c-6 -6 -12 -10 -19 -13zM181 0h-86c-13 0 -20 7 -20 20v507c0 13 7 20 20 20h79c12 0 21 -6 21 -18v-62c29 52 98 95 184 95c143 0 234 -89 234 -232v-310c0 -13 -7 -20 -20 -20h-86c-13 0 -20 7 -20 20v282
c0 98 -49 155 -132 155c-86 0 -154 -67 -154 -172v-265c0 -13 -7 -20 -20 -20z" />
    <glyph glyph-name="ncommaaccent" unicode="&#x146;" horiz-adv-x="684" 
d="M181 0h-86c-13 0 -20 7 -20 20v507c0 13 7 20 20 20h79c12 0 21 -6 21 -18v-62c29 52 98 95 184 95c143 0 234 -89 234 -232v-310c0 -13 -7 -20 -20 -20h-86c-13 0 -20 7 -20 20v282c0 98 -49 155 -132 155c-86 0 -154 -67 -154 -172v-265c0 -13 -7 -20 -20 -20z
M256 -205c-15 0 -21 9 -16 23l37 91c4 10 12 16 23 16h106c16 0 22 -11 14 -24l-56 -92c-5 -9 -13 -14 -24 -14h-84z" />
    <glyph glyph-name="eng" unicode="&#x14b;" horiz-adv-x="684" 
d="M445 -210c-12 -4 -21 2 -24 14l-20 70c-3 12 1 20 13 25c50 21 73 66 73 150v253c0 98 -49 155 -132 155c-86 0 -154 -67 -154 -172v-265c0 -13 -7 -20 -20 -20h-86c-13 0 -20 7 -20 20v507c0 13 7 20 20 20h79c12 0 21 -6 21 -18v-62c29 52 98 95 184 95
c143 0 234 -89 234 -232v-283c0 -150 -83 -230 -168 -257z" />
    <glyph glyph-name="ograve" unicode="&#xf2;" horiz-adv-x="671" 
d="M478 632c-3 -11 -11 -17 -26 -14l-271 62c-11 2 -16 11 -13 24l14 64c3 12 12 18 24 15l273 -70c10 -3 16 -12 13 -25zM626 273c0 -161 -124 -289 -291 -289c-166 0 -290 128 -290 289c0 159 125 289 290 289c167 0 291 -130 291 -289zM167 273c0 -101 70 -180 168 -180
c100 0 169 79 169 180c0 100 -69 179 -169 179c-98 0 -168 -79 -168 -179z" />
    <glyph glyph-name="oacute" unicode="&#xf3;" horiz-adv-x="671" 
d="M520 680l-271 -62c-15 -3 -23 3 -26 14l-14 56c-3 13 3 22 13 25l273 70c12 3 21 -3 24 -15l14 -64c3 -13 -2 -22 -13 -24zM626 273c0 -161 -124 -289 -291 -289c-166 0 -290 128 -290 289c0 159 125 289 290 289c167 0 291 -130 291 -289zM167 273
c0 -101 70 -180 168 -180c100 0 169 79 169 180c0 100 -69 179 -169 179c-98 0 -168 -79 -168 -179z" />
    <glyph glyph-name="ocircumflex" unicode="&#xf4;" horiz-adv-x="671" 
d="M492 637c-6 -13 -16 -18 -38 -11l-119 39l-118 -39c-22 -7 -33 -1 -38 11l-18 41c-5 12 -2 25 9 30l147 67c8 4 14 4 17 4s9 -1 17 -4l150 -67c11 -5 14 -18 9 -30zM626 273c0 -161 -124 -289 -291 -289c-166 0 -290 128 -290 289c0 159 125 289 290 289
c167 0 291 -130 291 -289zM167 273c0 -101 70 -180 168 -180c100 0 169 79 169 180c0 100 -69 179 -169 179c-98 0 -168 -79 -168 -179z" />
    <glyph glyph-name="otilde" unicode="&#xf5;" horiz-adv-x="671" 
d="M463 634c-13 -6 -30 -12 -50 -12c-30 0 -52 7 -74 15c-24 8 -47 17 -78 17c-19 0 -34 -3 -46 -7c-13 -4 -22 -10 -29 -15c-6 -4 -13 -2 -13 7v78c0 15 4 24 11 31c5 5 13 10 20 13c14 6 32 12 57 12c31 0 54 -9 77 -17c22 -8 45 -16 75 -16c20 0 36 4 48 10
c11 5 19 11 25 16c5 4 12 1 12 -5v-78c0 -14 -6 -26 -16 -36c-6 -6 -12 -10 -19 -13zM626 273c0 -161 -124 -289 -291 -289c-166 0 -290 128 -290 289c0 159 125 289 290 289c167 0 291 -130 291 -289zM167 273c0 -101 70 -180 168 -180c100 0 169 79 169 180
c0 100 -69 179 -169 179c-98 0 -168 -79 -168 -179z" />
    <glyph glyph-name="odieresis" unicode="&#xf6;" horiz-adv-x="671" 
d="M533 681c0 -51 -30 -80 -83 -80c-51 0 -83 29 -83 80c0 52 32 80 83 80c53 0 83 -28 83 -80zM303 681c0 -51 -30 -80 -83 -80c-51 0 -83 29 -83 80c0 52 32 80 83 80c53 0 83 -28 83 -80zM626 273c0 -161 -124 -289 -291 -289c-166 0 -290 128 -290 289
c0 159 125 289 290 289c167 0 291 -130 291 -289zM167 273c0 -101 70 -180 168 -180c100 0 169 79 169 180c0 100 -69 179 -169 179c-98 0 -168 -79 -168 -179z" />
    <glyph glyph-name="omacron" unicode="&#x14d;" horiz-adv-x="671" 
d="M471 670h-271c-13 0 -20 7 -20 20v70c0 13 7 20 20 20h271c13 0 20 -7 20 -20v-70c0 -13 -7 -20 -20 -20zM626 273c0 -161 -124 -289 -291 -289c-166 0 -290 128 -290 289c0 159 125 289 290 289c167 0 291 -130 291 -289zM167 273c0 -101 70 -180 168 -180
c100 0 169 79 169 180c0 100 -69 179 -169 179c-98 0 -168 -79 -168 -179z" />
    <glyph glyph-name="obreve" unicode="&#x14f;" horiz-adv-x="671" 
d="M358 627h-45c-95 0 -139 41 -139 122v11c0 13 7 20 20 20h69c13 0 20 -7 20 -20v-15c0 -24 17 -40 43 -40h18c26 0 44 16 44 40v15c0 13 7 20 20 20h69c13 0 20 -7 20 -20v-11c0 -81 -45 -122 -139 -122zM626 273c0 -161 -124 -289 -291 -289c-166 0 -290 128 -290 289
c0 159 125 289 290 289c167 0 291 -130 291 -289zM167 273c0 -101 70 -180 168 -180c100 0 169 79 169 180c0 100 -69 179 -169 179c-98 0 -168 -79 -168 -179z" />
    <glyph glyph-name="ohungarumlaut" unicode="&#x151;" horiz-adv-x="671" 
d="M443 641h-66c-15 0 -22 10 -15 24l52 101c5 10 12 14 23 14h71c15 0 21 -10 14 -24l-55 -101c-5 -10 -13 -14 -24 -14zM272 641h-68c-15 0 -21 10 -14 24l50 100c5 10 12 15 23 15h72c15 0 21 -10 14 -24l-53 -101c-5 -9 -13 -14 -24 -14zM626 273
c0 -161 -124 -289 -291 -289c-166 0 -290 128 -290 289c0 159 125 289 290 289c167 0 291 -130 291 -289zM167 273c0 -101 70 -180 168 -180c100 0 169 79 169 180c0 100 -69 179 -169 179c-98 0 -168 -79 -168 -179z" />
    <glyph glyph-name="oslash" unicode="&#xf8;" horiz-adv-x="671" 
d="M137 -16h-47c-17 0 -21 11 -11 24l48 61c-51 52 -82 124 -82 204c0 159 125 289 290 289c57 0 109 -15 153 -41l23 29c6 8 14 12 24 12h47c17 0 21 -11 11 -24l-49 -62c51 -52 82 -124 82 -203c0 -161 -124 -289 -291 -289c-56 0 -108 15 -151 41l-23 -29
c-6 -8 -14 -12 -24 -12zM167 273c0 -43 12 -81 34 -112l216 271c-24 13 -52 20 -82 20c-98 0 -168 -79 -168 -179zM504 273c0 42 -12 81 -34 111l-215 -271c23 -13 50 -20 80 -20c100 0 169 79 169 180z" />
    <glyph glyph-name="oslashacute" unicode="&#x1ff;" horiz-adv-x="671" 
d="M509 680l-271 -62c-15 -3 -23 3 -26 14l-14 56c-3 13 3 22 13 25l273 70c12 3 21 -3 24 -15l14 -64c3 -13 -2 -22 -13 -24zM137 -16h-47c-17 0 -21 11 -11 24l48 61c-51 52 -82 124 -82 204c0 159 125 289 290 289c57 0 109 -15 153 -41l23 29c6 8 14 12 24 12h47
c17 0 21 -11 11 -24l-49 -62c51 -52 82 -124 82 -203c0 -161 -124 -289 -291 -289c-56 0 -108 15 -151 41l-23 -29c-6 -8 -14 -12 -24 -12zM167 273c0 -43 12 -81 34 -112l216 271c-24 13 -52 20 -82 20c-98 0 -168 -79 -168 -179zM504 273c0 42 -12 81 -34 111l-215 -271
c23 -13 50 -20 80 -20c100 0 169 79 169 180z" />
    <glyph glyph-name="oe" unicode="&#x153;" horiz-adv-x="1080" 
d="M1005 30c-59 -35 -128 -46 -196 -46c-107 0 -193 41 -246 110c-51 -67 -132 -110 -228 -110c-166 0 -290 128 -290 289c0 159 125 289 290 289c97 0 178 -44 229 -111c49 68 127 111 217 111c137 0 252 -96 252 -268c0 -16 -1 -31 -3 -43s-9 -18 -21 -18h-379
c15 -87 81 -138 187 -138c64 0 112 12 150 31c12 7 22 3 26 -10l21 -59c4 -12 1 -20 -9 -27zM777 456c-73 0 -127 -48 -144 -126h280c-5 79 -57 126 -136 126zM167 273c0 -101 70 -180 168 -180c100 0 169 79 169 180c0 100 -69 179 -169 179c-98 0 -168 -79 -168 -179z" />
    <glyph glyph-name="racute" unicode="&#x155;" horiz-adv-x="462" 
d="M393 675l-164 -47c-17 -5 -26 2 -29 15l-15 63c-3 11 4 19 14 22l180 55c14 4 21 -3 23 -17l8 -68c1 -11 -6 -20 -17 -23zM181 0h-86c-13 0 -20 7 -20 20v507c0 13 7 20 20 20h79c12 0 21 -5 21 -18v-67c30 54 102 100 193 100c17 0 36 -2 52 -6c13 -3 17 -12 14 -24
l-19 -81c-3 -13 -12 -17 -25 -14c-12 3 -26 5 -42 5c-93 0 -167 -55 -167 -162v-260c0 -13 -7 -20 -20 -20z" />
    <glyph glyph-name="rcommaaccent" unicode="&#x157;" horiz-adv-x="462" 
d="M181 0h-86c-13 0 -20 7 -20 20v507c0 13 7 20 20 20h79c12 0 21 -5 21 -18v-67c30 54 102 100 193 100c17 0 36 -2 52 -6c13 -3 17 -12 14 -24l-19 -81c-3 -13 -12 -17 -25 -14c-12 3 -26 5 -42 5c-93 0 -167 -55 -167 -162v-260c0 -13 -7 -20 -20 -20zM54 -205
c-15 0 -21 9 -16 23l37 91c4 10 12 16 23 16h106c16 0 22 -11 14 -24l-56 -92c-5 -9 -13 -14 -24 -14h-84z" />
    <glyph glyph-name="rcaron" unicode="&#x159;" horiz-adv-x="462" 
d="M280 628c-8 -3 -14 -4 -17 -4s-9 0 -17 4l-147 67c-11 5 -14 18 -9 30l18 41c5 12 16 18 38 11l118 -39l119 39c22 7 32 2 38 -11l18 -41c5 -12 2 -25 -9 -30zM181 0h-86c-13 0 -20 7 -20 20v507c0 13 7 20 20 20h79c12 0 21 -5 21 -18v-67c30 54 102 100 193 100
c17 0 36 -2 52 -6c13 -3 17 -12 14 -24l-19 -81c-3 -13 -12 -17 -25 -14c-12 3 -26 5 -42 5c-93 0 -167 -55 -167 -162v-260c0 -13 -7 -20 -20 -20z" />
    <glyph glyph-name="sacute" unicode="&#x15b;" horiz-adv-x="482" 
d="M392 676l-200 -52c-13 -4 -22 3 -22 17v64c0 11 6 20 17 23l200 56c13 4 22 -3 22 -17v-69c0 -12 -6 -19 -17 -22zM437 156c0 -82 -67 -172 -219 -172c-63 0 -117 15 -151 34c-11 6 -13 15 -9 27l22 59c5 13 13 16 26 10c27 -13 66 -22 106 -22c78 0 107 34 107 62
c0 31 -21 49 -68 68l-69 29c-80 33 -125 75 -125 147c0 90 83 164 219 164c45 0 92 -10 123 -25c11 -5 13 -15 9 -26l-24 -61c-5 -13 -14 -15 -26 -10c-22 8 -49 13 -81 13c-59 0 -95 -23 -95 -54c0 -25 14 -37 54 -53l67 -28c92 -39 134 -83 134 -162z" />
    <glyph glyph-name="scircumflex" unicode="&#x15d;" horiz-adv-x="482" 
d="M397 637c-6 -13 -16 -18 -38 -11l-119 39l-118 -39c-22 -7 -33 -1 -38 11l-18 41c-5 12 -2 25 9 30l147 67c8 4 14 4 17 4s9 -1 17 -4l150 -67c11 -5 14 -18 9 -30zM437 156c0 -82 -67 -172 -219 -172c-63 0 -117 15 -151 34c-11 6 -13 15 -9 27l22 59c5 13 13 16 26 10
c27 -13 66 -22 106 -22c78 0 107 34 107 62c0 31 -21 49 -68 68l-69 29c-80 33 -125 75 -125 147c0 90 83 164 219 164c45 0 92 -10 123 -25c11 -5 13 -15 9 -26l-24 -61c-5 -13 -14 -15 -26 -10c-22 8 -49 13 -81 13c-59 0 -95 -23 -95 -54c0 -25 14 -37 54 -53l67 -28
c92 -39 134 -83 134 -162z" />
    <glyph glyph-name="scaron" unicode="&#x161;" horiz-adv-x="482" 
d="M267 628c-8 -3 -14 -4 -17 -4s-9 0 -17 4l-147 67c-11 5 -14 18 -9 30l18 41c5 12 16 18 38 11l118 -39l119 39c22 7 32 2 38 -11l18 -41c5 -12 2 -25 -9 -30zM437 156c0 -82 -67 -172 -219 -172c-63 0 -117 15 -151 34c-11 6 -13 15 -9 27l22 59c5 13 13 16 26 10
c27 -13 66 -22 106 -22c78 0 107 34 107 62c0 31 -21 49 -68 68l-69 29c-80 33 -125 75 -125 147c0 90 83 164 219 164c45 0 92 -10 123 -25c11 -5 13 -15 9 -26l-24 -61c-5 -13 -14 -15 -26 -10c-22 8 -49 13 -81 13c-59 0 -95 -23 -95 -54c0 -25 14 -37 54 -53l67 -28
c92 -39 134 -83 134 -162z" />
    <glyph glyph-name="scedilla" unicode="&#x15f;" horiz-adv-x="482" 
d="M337 -105c0 -60 -44 -110 -125 -110c-27 0 -54 5 -73 14c-10 5 -16 15 -13 28l12 44c3 10 9 16 23 13c6 -1 12 -2 19 -2c29 0 50 17 50 48c0 21 -7 39 -17 54c-61 1 -113 15 -146 34c-11 6 -13 15 -9 27l22 59c5 13 13 16 26 10c27 -13 66 -22 106 -22
c78 0 107 34 107 62c0 31 -21 49 -68 68l-69 29c-80 33 -125 75 -125 147c0 90 83 164 219 164c45 0 92 -10 123 -25c11 -5 13 -15 9 -26l-24 -61c-5 -13 -14 -15 -26 -10c-22 8 -49 13 -81 13c-59 0 -95 -23 -95 -54c0 -25 14 -37 54 -53l67 -28c92 -39 134 -83 134 -162
c0 -67 -45 -139 -144 -163c24 -26 44 -60 44 -98z" />
    <glyph glyph-name="scommaaccent" unicode="&#x219;" horiz-adv-x="482" 
d="M437 156c0 -82 -67 -172 -219 -172c-63 0 -117 15 -151 34c-11 6 -13 15 -9 27l22 59c5 13 13 16 26 10c27 -13 66 -22 106 -22c78 0 107 34 107 62c0 31 -21 49 -68 68l-69 29c-80 33 -125 75 -125 147c0 90 83 164 219 164c45 0 92 -10 123 -25c11 -5 13 -15 9 -26
l-24 -61c-5 -13 -14 -15 -26 -10c-22 8 -49 13 -81 13c-59 0 -95 -23 -95 -54c0 -25 14 -37 54 -53l67 -28c92 -39 134 -83 134 -162zM147 -205c-15 0 -21 9 -16 23l37 91c4 10 12 16 23 16h106c16 0 22 -11 14 -24l-56 -92c-5 -9 -13 -14 -24 -14h-84z" />
    <glyph glyph-name="germandbls" unicode="&#xdf;" horiz-adv-x="711" 
d="M223 3c0 -134 -73 -218 -195 -218c-20 0 -41 2 -56 6c-11 3 -16 12 -16 23l1 68c0 15 9 19 23 17c9 -2 19 -3 31 -3c57 0 86 40 86 106v552c0 155 130 236 272 236c150 0 240 -77 240 -174c0 -68 -35 -109 -88 -138l-55 -30c-22 -12 -35 -26 -35 -47s13 -35 42 -47
l96 -41c86 -36 119 -85 119 -156c0 -83 -69 -173 -221 -173c-59 0 -109 15 -140 34c-10 5 -13 13 -13 23v70c0 16 9 21 23 13c33 -17 79 -31 128 -31c77 0 106 32 106 63c0 30 -22 46 -64 64l-93 40c-65 28 -105 65 -105 132c0 64 39 106 97 138l36 20c28 15 43 32 43 58
c0 40 -42 73 -111 73c-93 0 -151 -53 -151 -127v-551z" />
    <glyph glyph-name="tcaron" unicode="&#x165;" horiz-adv-x="472" 
d="M388 619h-66c-14 0 -21 9 -17 22l34 122c3 12 12 17 23 17h92c15 0 22 -10 15 -24l-58 -122c-5 -11 -12 -15 -23 -15zM368 -5c-20 -6 -47 -11 -71 -11c-120 0 -193 75 -193 201v252h-73c-13 0 -20 7 -20 20v70c0 13 7 20 20 20h73v117c0 12 6 19 17 22l85 20
c13 3 22 -4 22 -18v-141h127c13 0 20 -7 20 -20v-70c0 -13 -7 -20 -20 -20h-127v-252c0 -53 29 -84 82 -84c10 0 24 1 36 3c13 3 21 0 23 -14l12 -70c2 -11 -2 -21 -13 -25z" />
    <glyph glyph-name="uni021B" unicode="&#x21b;" horiz-adv-x="407" 
d="M368 -5c-20 -6 -47 -11 -71 -11c-120 0 -193 75 -193 201v252h-73c-13 0 -20 7 -20 20v70c0 13 7 20 20 20h73v117c0 12 6 19 17 22l85 20c13 3 22 -4 22 -18v-141h127c13 0 20 -7 20 -20v-70c0 -13 -7 -20 -20 -20h-127v-252c0 -53 29 -84 82 -84c10 0 24 1 36 3
c13 3 21 0 23 -14l12 -70c2 -11 -2 -21 -13 -25zM157 -205c-15 0 -21 9 -16 23l37 91c4 10 12 16 23 16h106c16 0 22 -11 14 -24l-56 -92c-5 -9 -13 -14 -24 -14h-84z" />
    <glyph glyph-name="tbar" unicode="&#x167;" horiz-adv-x="407" 
d="M368 -5c-20 -6 -47 -11 -71 -11c-120 0 -193 75 -193 201v62h-47c-13 0 -20 7 -20 20v58c0 13 7 20 20 20h47v92h-73c-13 0 -20 7 -20 20v70c0 13 7 20 20 20h73v117c0 12 6 19 17 22l85 20c13 3 22 -4 22 -18v-141h127c13 0 20 -7 20 -20v-70c0 -13 -7 -20 -20 -20h-127
v-92h104c13 0 20 -7 20 -20v-58c0 -13 -7 -20 -20 -20h-104v-62c0 -53 29 -84 82 -84c10 0 24 1 36 3c13 3 21 0 23 -14l12 -70c2 -11 -2 -21 -13 -25z" />
    <glyph glyph-name="uni0163" unicode="&#x163;" horiz-adv-x="407" 
d="M338 -101c0 -60 -48 -114 -129 -114c-26 0 -52 5 -71 14c-10 5 -14 13 -14 24v47c0 14 8 19 22 15c7 -2 16 -3 24 -3c31 0 57 19 57 51c0 28 -6 49 -15 66c-68 28 -108 93 -108 186v252h-73c-13 0 -20 7 -20 20v70c0 13 7 20 20 20h73v117c0 12 6 19 17 22l85 20
c13 3 22 -4 22 -18v-141h127c13 0 20 -7 20 -20v-70c0 -13 -7 -20 -20 -20h-127v-252c0 -53 29 -84 82 -84c10 0 24 1 36 3c13 3 21 0 23 -14l12 -70c2 -11 -2 -21 -13 -25c-16 -5 -36 -9 -55 -10c14 -23 25 -52 25 -86z" />
    <glyph glyph-name="ugrave" unicode="&#xf9;" horiz-adv-x="672" 
d="M456 632c-3 -11 -11 -17 -26 -14l-271 62c-11 2 -16 11 -13 24l14 64c3 12 12 18 24 15l273 -70c10 -3 16 -12 13 -25zM601 257c0 -168 -93 -273 -265 -273c-170 0 -265 106 -265 274v269c0 13 7 20 20 20h86c13 0 20 -7 20 -20v-277c0 -92 43 -155 139 -155
c98 0 139 62 139 155v277c0 13 7 20 20 20h86c13 0 20 -7 20 -20v-270z" />
    <glyph glyph-name="uacute" unicode="&#xfa;" horiz-adv-x="672" 
d="M538 680l-271 -62c-15 -3 -23 3 -26 14l-14 56c-3 13 3 22 13 25l273 70c12 3 21 -3 24 -15l14 -64c3 -13 -2 -22 -13 -24zM601 257c0 -168 -93 -273 -265 -273c-170 0 -265 106 -265 274v269c0 13 7 20 20 20h86c13 0 20 -7 20 -20v-277c0 -92 43 -155 139 -155
c98 0 139 62 139 155v277c0 13 7 20 20 20h86c13 0 20 -7 20 -20v-270z" />
    <glyph glyph-name="ucircumflex" unicode="&#xfb;" horiz-adv-x="672" 
d="M493 637c-6 -13 -16 -18 -38 -11l-119 39l-118 -39c-22 -7 -33 -1 -38 11l-18 41c-6 12 -2 25 9 30l147 67c8 4 14 4 17 4s9 -1 17 -4l150 -67c11 -5 14 -18 9 -30zM601 257c0 -168 -93 -273 -265 -273c-170 0 -265 106 -265 274v269c0 13 7 20 20 20h86
c13 0 20 -7 20 -20v-277c0 -92 43 -155 139 -155c98 0 139 62 139 155v277c0 13 7 20 20 20h86c13 0 20 -7 20 -20v-270z" />
    <glyph glyph-name="utilde" unicode="&#x169;" horiz-adv-x="672" 
d="M464 634c-13 -6 -30 -12 -50 -12c-30 0 -52 7 -74 15c-24 8 -47 17 -78 17c-19 0 -34 -3 -46 -7c-13 -4 -22 -10 -29 -15c-6 -4 -13 -2 -13 7v78c0 15 4 24 11 31c5 5 13 10 20 13c14 6 32 12 57 12c31 0 54 -9 77 -17c22 -8 45 -16 75 -16c20 0 36 4 48 10
c11 5 19 11 25 16c5 4 12 1 12 -5v-78c0 -14 -6 -26 -16 -36c-6 -6 -12 -10 -19 -13zM601 257c0 -168 -93 -273 -265 -273c-170 0 -265 106 -265 274v269c0 13 7 20 20 20h86c13 0 20 -7 20 -20v-277c0 -92 43 -155 139 -155c98 0 139 62 139 155v277c0 13 7 20 20 20h86
c13 0 20 -7 20 -20v-270z" />
    <glyph glyph-name="udieresis" unicode="&#xfc;" horiz-adv-x="672" 
d="M534 681c0 -51 -30 -80 -83 -80c-51 0 -83 29 -83 80c0 52 32 80 83 80c53 0 83 -28 83 -80zM304 681c0 -51 -30 -80 -83 -80c-51 0 -83 29 -83 80c0 52 32 80 83 80c53 0 83 -28 83 -80zM601 257c0 -168 -93 -273 -265 -273c-170 0 -265 106 -265 274v269
c0 13 7 20 20 20h86c13 0 20 -7 20 -20v-277c0 -92 43 -155 139 -155c98 0 139 62 139 155v277c0 13 7 20 20 20h86c13 0 20 -7 20 -20v-270z" />
    <glyph glyph-name="umacron" unicode="&#x16b;" horiz-adv-x="672" 
d="M472 670h-271c-13 0 -20 7 -20 20v70c0 13 7 20 20 20h271c13 0 20 -7 20 -20v-70c0 -13 -7 -20 -20 -20zM601 257c0 -168 -93 -273 -265 -273c-170 0 -265 106 -265 274v269c0 13 7 20 20 20h86c13 0 20 -7 20 -20v-277c0 -92 43 -155 139 -155c98 0 139 62 139 155v277
c0 13 7 20 20 20h86c13 0 20 -7 20 -20v-270z" />
    <glyph glyph-name="ubreve" unicode="&#x16d;" horiz-adv-x="672" 
d="M359 627h-45c-95 0 -139 41 -139 122v11c0 13 7 20 20 20h69c13 0 20 -7 20 -20v-15c0 -24 17 -40 43 -40h18c26 0 44 16 44 40v15c0 13 7 20 20 20h69c13 0 20 -7 20 -20v-11c0 -81 -45 -122 -139 -122zM601 257c0 -168 -93 -273 -265 -273c-170 0 -265 106 -265 274
v269c0 13 7 20 20 20h86c13 0 20 -7 20 -20v-277c0 -92 43 -155 139 -155c98 0 139 62 139 155v277c0 13 7 20 20 20h86c13 0 20 -7 20 -20v-270z" />
    <glyph glyph-name="uring" unicode="&#x16f;" horiz-adv-x="672" 
d="M442 723c0 -59 -44 -97 -106 -97c-63 0 -105 38 -105 97s43 97 105 97s106 -38 106 -97zM290 722c0 -24 16 -40 46 -40s46 16 46 40c0 26 -16 42 -46 42s-46 -16 -46 -42zM601 257c0 -168 -93 -273 -265 -273c-170 0 -265 106 -265 274v269c0 13 7 20 20 20h86
c13 0 20 -7 20 -20v-277c0 -92 43 -155 139 -155c98 0 139 62 139 155v277c0 13 7 20 20 20h86c13 0 20 -7 20 -20v-270z" />
    <glyph glyph-name="uhungarumlaut" unicode="&#x171;" horiz-adv-x="672" 
d="M440 641h-66c-15 0 -22 10 -15 24l52 101c5 10 12 14 23 14h71c15 0 21 -10 14 -24l-55 -101c-5 -10 -13 -14 -24 -14zM269 641h-68c-15 0 -21 10 -14 24l50 100c5 10 12 15 23 15h72c15 0 21 -10 14 -24l-53 -101c-5 -9 -13 -14 -24 -14zM601 257
c0 -168 -93 -273 -265 -273c-170 0 -265 106 -265 274v269c0 13 7 20 20 20h86c13 0 20 -7 20 -20v-277c0 -92 43 -155 139 -155c98 0 139 62 139 155v277c0 13 7 20 20 20h86c13 0 20 -7 20 -20v-270z" />
    <glyph glyph-name="uogonek" unicode="&#x173;" horiz-adv-x="672" 
d="M391 -201c-20 -8 -52 -14 -77 -14c-80 0 -126 36 -126 84c0 29 15 54 37 75c18 18 41 32 62 43c-139 19 -216 120 -216 271v269c0 13 7 20 20 20h86c13 0 20 -7 20 -20v-277c0 -92 43 -155 139 -155c98 0 139 62 139 155v277c0 13 7 20 20 20h86c13 0 20 -7 20 -20v-270
c0 -146 -70 -244 -201 -268c-27 -14 -57 -31 -76 -50c-12 -11 -19 -23 -19 -33c0 -16 16 -24 36 -24c14 0 29 3 42 8c14 5 22 2 22 -13v-54c0 -11 -4 -20 -14 -24z" />
    <glyph glyph-name="wgrave" unicode="&#x1e81;" horiz-adv-x="913" 
d="M581 632c-3 -11 -11 -17 -26 -14l-271 62c-11 2 -16 11 -13 24l14 64c3 12 12 18 24 15l273 -70c10 -3 16 -12 13 -25zM316 0h-52c-11 0 -20 5 -24 15l-224 509c-6 14 1 23 16 23h86c11 0 19 -4 23 -15l149 -352l115 283c4 10 12 16 23 16h63c11 0 19 -6 23 -16l112 -286
l148 355c4 11 12 15 23 15h84c15 0 22 -9 16 -23l-223 -509c-4 -10 -13 -15 -24 -15h-51c-11 0 -19 6 -23 16l-117 301l-120 -301c-4 -10 -12 -16 -23 -16z" />
    <glyph glyph-name="wacute" unicode="&#x1e83;" horiz-adv-x="913" 
d="M660 680l-271 -62c-15 -3 -23 3 -26 14l-14 56c-3 13 3 22 13 25l273 70c12 3 21 -3 24 -15l14 -64c3 -13 -2 -22 -13 -24zM316 0h-52c-11 0 -20 5 -24 15l-224 509c-6 14 1 23 16 23h86c11 0 19 -4 23 -15l149 -352l115 283c4 10 12 16 23 16h63c11 0 19 -6 23 -16
l112 -286l148 355c4 11 12 15 23 15h84c15 0 22 -9 16 -23l-223 -509c-4 -10 -13 -15 -24 -15h-51c-11 0 -19 6 -23 16l-117 301l-120 -301c-4 -10 -12 -16 -23 -16z" />
    <glyph glyph-name="wcircumflex" unicode="&#x175;" horiz-adv-x="913" 
d="M613 637c-6 -13 -16 -18 -38 -11l-119 39l-118 -39c-22 -7 -33 -1 -38 11l-18 41c-5 12 -2 25 9 30l147 67c8 4 14 4 17 4s9 -1 17 -4l150 -67c11 -5 14 -18 9 -30zM316 0h-52c-11 0 -20 5 -24 15l-224 509c-6 14 1 23 16 23h86c11 0 19 -4 23 -15l149 -352l115 283
c4 10 12 16 23 16h63c11 0 19 -6 23 -16l112 -286l148 355c4 11 12 15 23 15h84c15 0 22 -9 16 -23l-223 -509c-4 -10 -13 -15 -24 -15h-51c-11 0 -19 6 -23 16l-117 301l-120 -301c-4 -10 -12 -16 -23 -16z" />
    <glyph glyph-name="wdieresis" unicode="&#x1e85;" horiz-adv-x="913" 
d="M655 681c0 -51 -30 -80 -83 -80c-51 0 -83 29 -83 80c0 52 32 80 83 80c53 0 83 -28 83 -80zM425 681c0 -51 -30 -80 -83 -80c-51 0 -83 29 -83 80c0 52 32 80 83 80c53 0 83 -28 83 -80zM316 0h-52c-11 0 -20 5 -24 15l-224 509c-6 14 1 23 16 23h86c11 0 19 -4 23 -15
l149 -352l115 283c4 10 12 16 23 16h63c11 0 19 -6 23 -16l112 -286l148 355c4 11 12 15 23 15h84c15 0 22 -9 16 -23l-223 -509c-4 -10 -13 -15 -24 -15h-51c-11 0 -19 6 -23 16l-117 301l-120 -301c-4 -10 -12 -16 -23 -16z" />
    <glyph glyph-name="ygrave" unicode="&#x1ef3;" horiz-adv-x="595" 
d="M394 632c-3 -11 -11 -17 -26 -14l-271 62c-11 2 -16 11 -13 24l14 64c3 12 12 18 24 15l273 -70c10 -3 16 -12 13 -25zM258 -205h-74c-15 0 -21 9 -16 23l59 149l-216 557c-5 14 1 23 16 23h91c11 0 19 -5 23 -16l147 -408l160 408c4 10 12 16 23 16h93
c15 0 21 -9 15 -23l-298 -714c-4 -11 -12 -15 -23 -15z" />
    <glyph glyph-name="yacute" unicode="&#xfd;" horiz-adv-x="595" 
d="M497 680l-271 -62c-15 -3 -23 3 -26 14l-14 56c-3 13 3 22 13 25l273 70c12 3 21 -3 24 -15l14 -64c3 -13 -2 -22 -13 -24zM258 -205h-74c-15 0 -21 9 -16 23l59 149l-216 557c-5 14 1 23 16 23h91c11 0 19 -5 23 -16l147 -408l160 408c4 10 12 16 23 16h93
c15 0 21 -9 15 -23l-298 -714c-4 -11 -12 -15 -23 -15z" />
    <glyph glyph-name="ycircumflex" unicode="&#x177;" horiz-adv-x="595" 
d="M453 637c-6 -13 -16 -18 -38 -11l-119 39l-118 -39c-22 -7 -33 -1 -38 11l-18 41c-5 12 -2 25 9 30l147 67c8 4 14 4 17 4s9 -1 17 -4l150 -67c11 -5 14 -18 9 -30zM258 -205h-74c-15 0 -21 9 -16 23l59 149l-216 557c-5 14 1 23 16 23h91c11 0 19 -5 23 -16l147 -408
l160 408c4 10 12 16 23 16h93c15 0 21 -9 15 -23l-298 -714c-4 -11 -12 -15 -23 -15z" />
    <glyph glyph-name="ydieresis" unicode="&#xff;" horiz-adv-x="595" 
d="M495 681c0 -51 -30 -80 -83 -80c-51 0 -83 29 -83 80c0 52 32 80 83 80c53 0 83 -28 83 -80zM265 681c0 -51 -30 -80 -83 -80c-51 0 -83 29 -83 80c0 52 32 80 83 80c53 0 83 -28 83 -80zM258 -205h-74c-15 0 -21 9 -16 23l59 149l-216 557c-5 14 1 23 16 23h91
c11 0 19 -5 23 -16l147 -408l160 408c4 10 12 16 23 16h93c15 0 21 -9 15 -23l-298 -714c-4 -11 -12 -15 -23 -15z" />
    <glyph glyph-name="zacute" unicode="&#x17a;" horiz-adv-x="514" 
d="M455 680l-271 -62c-15 -3 -23 3 -26 14l-14 56c-3 13 3 22 13 25l273 70c12 3 21 -3 24 -15l14 -64c3 -13 -2 -22 -13 -24zM466 0h-423c-13 0 -20 7 -20 20v51c0 10 3 18 9 25l304 341h-279c-13 0 -20 7 -20 20v70c0 13 7 20 20 20h419c13 0 20 -7 20 -20v-51
c0 -10 -3 -18 -9 -25l-297 -341h276c13 0 20 -7 20 -20v-70c0 -13 -7 -20 -20 -20z" />
    <glyph glyph-name="zcaron" unicode="&#x17e;" horiz-adv-x="514" 
d="M290 628c-8 -3 -14 -4 -17 -4s-9 0 -17 4l-147 67c-11 5 -14 18 -9 30l18 41c5 12 16 18 38 11l118 -39l119 39c22 7 32 2 38 -11l18 -41c5 -12 2 -25 -9 -30zM466 0h-423c-13 0 -20 7 -20 20v51c0 10 3 18 9 25l304 341h-279c-13 0 -20 7 -20 20v70c0 13 7 20 20 20h419
c13 0 20 -7 20 -20v-51c0 -10 -3 -18 -9 -25l-297 -341h276c13 0 20 -7 20 -20v-70c0 -13 -7 -20 -20 -20z" />
    <glyph glyph-name="zdotaccent" unicode="&#x17c;" horiz-adv-x="514" 
d="M353 700c0 -51 -30 -80 -83 -80c-51 0 -83 29 -83 80c0 52 32 80 83 80c53 0 83 -28 83 -80zM466 0h-423c-13 0 -20 7 -20 20v51c0 10 3 18 9 25l304 341h-279c-13 0 -20 7 -20 20v70c0 13 7 20 20 20h419c13 0 20 -7 20 -20v-51c0 -10 -3 -18 -9 -25l-297 -341h276
c13 0 20 -7 20 -20v-70c0 -13 -7 -20 -20 -20z" />
    <glyph glyph-name="eth" unicode="&#xf0;" horiz-adv-x="671" 
d="M626 273c0 -161 -124 -289 -291 -289c-166 0 -290 128 -290 289c0 159 125 289 290 289c42 0 75 -9 103 -28c-25 35 -53 67 -82 96l-149 -33c-13 -3 -22 4 -22 18v33c0 12 7 19 18 22l87 19c-36 29 -71 53 -102 70c-17 9 -14 21 6 21h115c9 0 16 -2 24 -7
c23 -15 49 -34 76 -58l136 30c13 3 22 -4 22 -18v-33c0 -12 -7 -19 -18 -22l-80 -18c83 -93 157 -225 157 -381zM167 273c0 -101 70 -180 168 -180c100 0 169 79 169 180c0 100 -69 179 -169 179c-98 0 -168 -79 -168 -179z" />
    <glyph glyph-name="thorn" unicode="&#xfe;" horiz-adv-x="690" 
d="M177 -205h-82c-13 0 -20 7 -20 20v945c0 13 7 20 20 20h82c13 0 20 -7 20 -20v-269c44 46 105 71 175 71c156 0 273 -125 273 -288c0 -162 -118 -290 -274 -290c-67 0 -129 27 -174 77v-246c0 -13 -7 -20 -20 -20zM180 273c0 -100 73 -178 174 -178c98 0 168 77 168 179
s-70 177 -168 177c-101 0 -174 -75 -174 -178z" />
    <glyph glyph-name="zero.numr" horiz-adv-x="383" 
d="M322 574c0 -126 -55 -184 -140 -184c-86 0 -140 58 -140 184c0 124 54 183 140 183c85 0 140 -59 140 -183zM144 574c0 -64 13 -85 38 -85s38 21 38 85c0 63 -13 84 -38 84s-38 -21 -38 -84z" />
    <glyph glyph-name="one.numr" horiz-adv-x="272" 
d="M195 398h-93c-6 0 -9 3 -9 9v217l-43 -17c-9 -3 -13 0 -15 6l-18 66c-2 6 1 12 7 14l169 63c7 3 11 -1 11 -8v-341c0 -6 -3 -9 -9 -9z" />
    <glyph glyph-name="two.numr" horiz-adv-x="315" 
d="M277 398h-213c-16 0 -22 8 -22 20c0 9 4 16 11 25l84 94c24 28 31 49 31 70c0 32 -27 56 -62 56c-17 0 -33 -6 -44 -15c-6 -6 -12 -4 -14 2l-15 59c-1 7 -1 11 5 16c25 19 65 32 109 32c78 0 133 -49 133 -120c0 -36 -14 -68 -41 -101l-33 -40h71c6 0 9 -3 9 -9v-80
c0 -6 -3 -9 -9 -9z" />
    <glyph glyph-name="three.numr" horiz-adv-x="304" 
d="M301 508c0 -70 -66 -118 -162 -118c-32 0 -64 6 -86 15c-6 3 -8 8 -7 15l15 64c2 6 6 9 14 6c12 -4 29 -8 46 -8c44 0 72 13 72 35c0 18 -14 26 -37 26h-46c-6 0 -9 4 -9 10v59c0 6 3 10 9 10h46c20 0 31 8 31 21c0 19 -25 28 -59 28c-21 0 -43 -6 -55 -12
c-7 -3 -11 0 -12 7l-14 60c-1 6 1 12 7 14c24 10 62 17 94 17c85 0 140 -41 140 -99c0 -24 -10 -53 -33 -70c30 -18 46 -49 46 -80z" />
    <glyph glyph-name="four.numr" horiz-adv-x="369" 
d="M298 398h-81c-6 0 -9 3 -9 9v53h-165c-11 0 -17 7 -14 21l75 262c2 5 6 8 11 8h84c6 0 10 -5 8 -11l-61 -205h62v112c0 6 3 10 9 10h81c6 0 9 -4 9 -10v-112h18c6 0 9 -4 9 -10v-56c0 -6 -3 -9 -9 -9h-18v-53c0 -6 -3 -9 -9 -9z" />
    <glyph glyph-name="five.numr" horiz-adv-x="325" 
d="M300 517c0 -78 -67 -127 -161 -127c-31 0 -65 8 -85 17c-6 2 -8 6 -6 13l12 65c1 7 4 10 11 7c15 -7 34 -11 56 -11c39 0 65 16 65 40c0 22 -19 39 -66 39c-22 0 -40 -4 -52 -8s-18 2 -17 11l30 179c1 6 5 9 10 9h182c6 0 9 -4 9 -10v-78c0 -6 -3 -9 -9 -9h-122l-6 -33
c9 2 19 3 31 3c70 0 118 -45 118 -107z" />
    <glyph glyph-name="six.numr" horiz-adv-x="347" 
d="M289 424c-24 -21 -57 -34 -97 -34c-43 0 -79 15 -106 42c-30 28 -47 71 -47 126c0 68 22 116 54 148c35 35 83 51 130 51c40 0 64 -9 79 -16c5 -2 7 -6 6 -13l-11 -62c-1 -7 -6 -10 -13 -7c-13 4 -30 8 -51 8c-26 0 -52 -7 -68 -25c-11 -12 -18 -27 -21 -48l2 2
c13 15 39 27 71 27c34 0 62 -12 81 -31c20 -20 31 -47 31 -76c0 -37 -15 -69 -40 -92zM158 486c8 -7 20 -11 31 -11c14 0 25 5 33 12c8 8 13 18 13 29c0 10 -4 20 -11 28c-8 8 -20 13 -35 13c-14 0 -27 -6 -36 -16c-5 -7 -8 -15 -8 -24c0 -14 5 -24 13 -31z" />
    <glyph glyph-name="seven.numr" horiz-adv-x="322" 
d="M181 398h-95c-6 0 -9 5 -7 11l76 243h-106c-7 0 -10 3 -10 9v80c0 6 3 10 10 10h232c5 0 8 -2 8 -6v-2c0 -3 -1 -6 -3 -11l-94 -326c-2 -5 -5 -8 -11 -8z" />
    <glyph glyph-name="eight.numr" horiz-adv-x="340" 
d="M322 506c0 -67 -58 -116 -140 -116s-141 49 -141 116c0 33 18 63 47 82c-20 17 -32 40 -32 66c0 58 53 103 126 103s126 -45 126 -103c0 -26 -12 -49 -32 -66c29 -20 46 -49 46 -82zM146 649c0 -18 15 -29 36 -29s36 11 36 29s-15 29 -36 29s-36 -11 -36 -29zM140 510
c0 -21 17 -35 42 -35c24 0 42 14 42 35c0 20 -18 35 -42 35c-25 0 -42 -15 -42 -35z" />
    <glyph glyph-name="nine.numr" horiz-adv-x="347" 
d="M272 442c-36 -36 -84 -52 -130 -52c-41 0 -64 9 -79 16c-5 2 -7 7 -6 13l10 61c1 8 6 10 14 8c14 -5 30 -8 50 -8c25 0 49 6 65 22c13 12 21 29 24 53c-2 -3 -5 -6 -8 -9c-14 -12 -37 -20 -65 -20c-36 0 -64 13 -84 32c-18 20 -28 46 -28 74c0 34 13 65 35 87
c24 24 59 38 102 38c38 0 72 -12 98 -34c34 -28 54 -74 54 -134c0 -67 -20 -115 -52 -147zM139 606c7 -9 19 -15 35 -15c13 0 25 5 34 13c6 7 11 16 11 27c0 14 -5 23 -12 30c-9 8 -21 11 -32 11c-16 0 -29 -6 -36 -15c-6 -7 -10 -16 -10 -25c0 -10 3 -19 10 -26z" />
    <glyph glyph-name="zero.dnom" horiz-adv-x="383" 
d="M322 174c0 -126 -55 -184 -140 -184c-86 0 -140 58 -140 184c0 124 54 183 140 183c85 0 140 -59 140 -183zM144 174c0 -64 13 -85 38 -85s38 21 38 85c0 63 -13 84 -38 84s-38 -21 -38 -84z" />
    <glyph glyph-name="one.dnom" horiz-adv-x="272" 
d="M195 -2h-93c-6 0 -9 3 -9 9v217l-43 -17c-9 -3 -13 0 -15 6l-18 66c-2 6 1 12 7 14l169 63c7 3 11 -1 11 -8v-341c0 -6 -3 -9 -9 -9z" />
    <glyph glyph-name="two.dnom" horiz-adv-x="315" 
d="M277 -2h-213c-16 0 -22 8 -22 20c0 9 4 16 11 25l84 94c24 28 31 49 31 70c0 32 -27 56 -62 56c-17 0 -33 -6 -44 -15c-6 -6 -12 -4 -14 2l-15 59c-1 7 -1 11 5 16c25 19 65 32 109 32c78 0 133 -49 133 -120c0 -36 -14 -68 -41 -101l-33 -40h71c6 0 9 -3 9 -9v-80
c0 -6 -3 -9 -9 -9z" />
    <glyph glyph-name="three.dnom" horiz-adv-x="304" 
d="M301 108c0 -70 -66 -118 -162 -118c-32 0 -64 6 -86 15c-6 3 -8 8 -7 15l15 64c2 6 6 9 14 6c12 -4 29 -8 46 -8c44 0 72 13 72 35c0 18 -14 26 -37 26h-46c-6 0 -9 4 -9 10v59c0 6 3 10 9 10h46c20 0 31 8 31 21c0 19 -25 28 -59 28c-21 0 -43 -6 -55 -12
c-7 -3 -11 0 -12 7l-14 60c-1 6 1 12 7 14c24 10 62 17 94 17c85 0 140 -41 140 -99c0 -24 -10 -53 -33 -70c30 -18 46 -49 46 -80z" />
    <glyph glyph-name="four.dnom" horiz-adv-x="369" 
d="M298 -2h-81c-6 0 -9 3 -9 9v53h-165c-11 0 -17 7 -14 21l75 262c2 5 6 8 11 8h84c6 0 10 -5 8 -11l-61 -205h62v112c0 6 3 10 9 10h81c6 0 9 -4 9 -10v-112h18c6 0 9 -4 9 -10v-56c0 -6 -3 -9 -9 -9h-18v-53c0 -6 -3 -9 -9 -9z" />
    <glyph glyph-name="five.dnom" horiz-adv-x="325" 
d="M300 117c0 -78 -67 -127 -161 -127c-31 0 -65 8 -85 17c-6 2 -8 6 -6 13l12 65c1 7 4 10 11 7c15 -7 34 -11 56 -11c39 0 65 16 65 40c0 22 -19 39 -66 39c-22 0 -40 -4 -52 -8s-18 2 -17 11l30 179c1 6 5 9 10 9h182c6 0 9 -4 9 -10v-78c0 -6 -3 -9 -9 -9h-122l-6 -33
c9 2 19 3 31 3c70 0 118 -45 118 -107z" />
    <glyph glyph-name="six.dnom" horiz-adv-x="347" 
d="M289 24c-24 -21 -57 -34 -97 -34c-43 0 -79 15 -106 42c-30 28 -47 71 -47 126c0 68 22 116 54 148c35 35 83 51 130 51c40 0 64 -9 79 -16c5 -2 7 -6 6 -13l-11 -62c-1 -7 -6 -10 -13 -7c-13 4 -30 8 -51 8c-26 0 -52 -7 -68 -25c-11 -12 -18 -27 -21 -48l2 2
c13 15 39 27 71 27c34 0 62 -12 81 -31c20 -20 31 -47 31 -76c0 -37 -15 -69 -40 -92zM158 86c8 -7 20 -11 31 -11c14 0 25 5 33 12c8 8 13 18 13 29c0 10 -4 20 -11 28c-8 8 -20 13 -35 13c-14 0 -27 -6 -36 -16c-5 -7 -8 -15 -8 -24c0 -14 5 -24 13 -31z" />
    <glyph glyph-name="seven.dnom" horiz-adv-x="322" 
d="M181 -2h-95c-6 0 -9 5 -7 11l76 243h-106c-7 0 -10 3 -10 9v80c0 6 3 10 10 10h232c5 0 8 -2 8 -6v-2c0 -3 -1 -6 -3 -11l-94 -326c-2 -5 -5 -8 -11 -8z" />
    <glyph glyph-name="eight.dnom" horiz-adv-x="340" 
d="M322 106c0 -67 -58 -116 -140 -116s-141 49 -141 116c0 33 18 63 47 82c-20 17 -32 40 -32 66c0 58 53 103 126 103s126 -45 126 -103c0 -26 -12 -49 -32 -66c29 -20 46 -49 46 -82zM146 249c0 -18 15 -29 36 -29s36 11 36 29s-15 29 -36 29s-36 -11 -36 -29zM140 110
c0 -21 17 -35 42 -35c24 0 42 14 42 35c0 20 -18 35 -42 35c-25 0 -42 -15 -42 -35z" />
    <glyph glyph-name="nine.dnom" horiz-adv-x="347" 
d="M272 42c-36 -36 -84 -52 -130 -52c-41 0 -64 9 -79 16c-5 2 -7 7 -6 13l10 61c1 8 6 10 14 8c14 -5 30 -8 50 -8c25 0 49 6 65 22c13 12 21 29 24 53c-2 -3 -5 -6 -8 -9c-14 -12 -37 -20 -65 -20c-36 0 -64 13 -84 32c-18 20 -28 46 -28 74c0 34 13 65 35 87
c24 24 59 38 102 38c38 0 72 -12 98 -34c34 -28 54 -74 54 -134c0 -67 -20 -115 -52 -147zM139 206c7 -9 19 -15 35 -15c13 0 25 5 34 13c6 7 11 16 11 27c0 14 -5 23 -12 30c-9 8 -21 11 -32 11c-16 0 -29 -6 -36 -15c-6 -7 -10 -16 -10 -25c0 -10 3 -19 10 -26z" />
    <glyph glyph-name="onehalf" unicode="&#xbd;" horiz-adv-x="756" 
d="M154 0h-89c-16 0 -22 11 -13 24l459 713c6 9 14 13 24 13h89c16 0 22 -11 13 -24l-459 -713c-6 -9 -14 -13 -24 -13zM195 398h-71c-13 0 -20 7 -20 20v203l-27 -10c-14 -5 -23 1 -23 16v53c0 11 6 19 16 23l122 45c14 5 23 -2 23 -16v-314c0 -13 -7 -20 -20 -20zM668 -2
h-203c-10 0 -13 7 -13 19c0 13 2 18 13 31l75 88c25 30 41 51 41 78c0 35 -26 49 -60 49c-18 0 -35 -5 -49 -14c-13 -8 -21 -6 -21 10v51c0 10 3 18 12 24c21 14 57 24 97 23c78 -2 133 -49 133 -116c0 -38 -22 -74 -49 -107l-32 -38h56c13 0 20 -7 20 -20v-58
c0 -13 -7 -20 -20 -20z" />
    <glyph glyph-name="uni2153" unicode="&#x2153;" horiz-adv-x="742" 
d="M154 0h-89c-16 0 -22 11 -13 24l459 713c6 9 14 13 24 13h89c16 0 22 -11 13 -24l-459 -713c-6 -9 -14 -13 -24 -13zM199 398h-71c-13 0 -20 7 -20 20v203l-27 -10c-14 -5 -23 1 -23 16v53c0 11 6 19 16 23l122 45c14 5 23 -2 23 -16v-314c0 -13 -7 -20 -20 -20zM679 102
c0 -65 -55 -112 -145 -112c-21 0 -44 2 -63 7c-11 3 -16 11 -16 22v48c0 14 8 20 22 17c11 -2 24 -3 37 -3c36 0 59 14 59 34c0 17 -13 29 -36 29h-19c-13 0 -20 7 -20 20v37c0 13 7 20 20 20h18c20 0 31 9 31 24c0 16 -18 26 -48 26c-15 0 -30 -2 -42 -4
c-14 -3 -22 2 -22 16v45c0 11 5 19 17 22c19 4 44 7 65 7c81 0 128 -41 128 -96c0 -26 -10 -56 -34 -74c34 -19 48 -54 48 -85z" />
    <glyph glyph-name="onequarter" unicode="&#xbc;" horiz-adv-x="769" 
d="M154 0h-89c-16 0 -22 11 -13 24l459 713c6 9 14 13 24 13h89c16 0 22 -11 13 -24l-459 -713c-6 -9 -14 -13 -24 -13zM202 398h-71c-13 0 -20 7 -20 20v203l-27 -10c-14 -5 -23 1 -23 16v53c0 11 6 19 16 23l122 45c14 5 23 -2 23 -16v-314c0 -13 -7 -20 -20 -20zM657 0
h-61c-13 0 -20 7 -20 20v42h-166c-14 0 -21 9 -17 22l73 252c3 12 12 17 23 17h63c14 0 21 -10 17 -23l-56 -184h63v73c0 13 7 20 20 20h61c13 0 20 -7 20 -20v-73h9c13 0 20 -7 20 -20v-44c0 -13 -7 -20 -20 -20h-9v-42c0 -13 -7 -20 -20 -20z" />
    <glyph glyph-name="uni2155" unicode="&#x2155;" horiz-adv-x="736" 
d="M154 0h-89c-16 0 -22 11 -13 24l459 713c6 9 14 13 24 13h89c16 0 22 -11 13 -24l-459 -713c-6 -9 -14 -13 -24 -13zM189 398h-71c-13 0 -20 7 -20 20v203l-27 -10c-14 -5 -23 1 -23 16v53c0 11 6 19 16 23l122 45c14 5 23 -2 23 -16v-314c0 -13 -7 -20 -20 -20zM673 115
c0 -78 -66 -125 -161 -125c-24 0 -51 4 -70 10c-11 4 -15 12 -15 23v52c0 15 9 19 23 14s31 -8 50 -8c40 0 66 16 66 40c0 22 -20 39 -67 39c-18 0 -34 -3 -46 -6c-15 -5 -24 1 -21 17l28 162c2 12 9 18 21 18h160c13 0 20 -7 20 -20v-55c0 -13 -7 -20 -20 -20h-113l-7 -40
c10 2 21 4 34 4c71 0 118 -43 118 -105z" />
    <glyph glyph-name="uni2159" unicode="&#x2159;" horiz-adv-x="743" 
d="M154 0h-89c-16 0 -22 11 -13 24l459 713c6 9 14 13 24 13h89c16 0 22 -11 13 -24l-459 -713c-6 -9 -14 -13 -24 -13zM201 398h-71c-13 0 -20 7 -20 20v203l-27 -10c-14 -5 -23 1 -23 16v53c0 11 6 19 16 23l122 45c14 5 23 -2 23 -16v-314c0 -13 -7 -20 -20 -20zM680 116
c0 -71 -51 -126 -131 -126c-83 0 -145 61 -145 168c0 143 91 199 175 199c30 0 49 -5 63 -10c10 -4 14 -12 14 -23v-48c0 -14 -9 -21 -23 -16c-12 4 -28 7 -44 7c-42 0 -74 -17 -86 -71c15 16 38 27 70 27c68 0 107 -51 107 -107zM524 81c7 -4 15 -6 23 -6c27 0 43 19 43 41
c0 21 -15 41 -43 41c-22 0 -43 -16 -43 -40c0 -11 4 -20 8 -26c3 -4 6 -6 9 -8z" />
    <glyph glyph-name="uni2150" unicode="&#x2150;" horiz-adv-x="768" 
d="M154 0h-89c-16 0 -22 11 -13 24l459 713c6 9 14 13 24 13h89c16 0 22 -11 13 -24l-459 -713c-6 -9 -14 -13 -24 -13zM203 398h-71c-13 0 -20 7 -20 20v203l-27 -10c-14 -5 -23 1 -23 16v53c0 11 6 19 16 23l122 45c14 5 23 -2 23 -16v-314c0 -13 -7 -20 -20 -20zM590 -2
h-72c-14 0 -21 9 -17 23l75 231h-98c-13 0 -20 7 -20 20v59c0 13 7 20 20 20h210c14 0 20 -10 16 -23l-91 -313c-3 -12 -12 -17 -23 -17z" />
    <glyph glyph-name="oneeighth" unicode="&#x215b;" horiz-adv-x="735" 
d="M154 0h-89c-16 0 -22 11 -13 24l459 713c6 9 14 13 24 13h89c16 0 22 -11 13 -24l-459 -713c-6 -9 -14 -13 -24 -13zM200 398h-71c-13 0 -20 7 -20 20v203l-27 -10c-14 -5 -23 1 -23 16v53c0 11 6 19 16 23l122 45c14 5 23 -2 23 -16v-314c0 -13 -7 -20 -20 -20zM672 106
c0 -67 -57 -116 -136 -116s-136 49 -136 116c0 33 17 63 46 82c-20 17 -31 40 -31 66c0 58 50 103 121 103s122 -45 122 -103c0 -26 -12 -49 -31 -66c28 -20 45 -49 45 -82zM502 249c0 -18 14 -29 34 -29c21 0 34 11 34 29s-13 29 -34 29c-20 0 -34 -11 -34 -29zM496 110
c0 -21 16 -35 40 -35s41 14 41 35c0 20 -17 35 -41 35s-40 -15 -40 -35z" />
    <glyph glyph-name="uni2151" unicode="&#x2151;" horiz-adv-x="747" 
d="M154 0h-89c-16 0 -22 11 -13 24l459 713c6 9 14 13 24 13h89c16 0 22 -11 13 -24l-459 -713c-6 -9 -14 -13 -24 -13zM206 398h-71c-13 0 -20 7 -20 20v203l-27 -10c-14 -5 -23 1 -23 16v53c0 11 6 19 16 23l122 45c14 5 23 -2 23 -16v-314c0 -13 -7 -20 -20 -20zM684 189
c0 -143 -90 -199 -175 -199c-29 0 -49 5 -62 10c-10 4 -14 12 -14 23v48c0 14 9 20 23 16c12 -4 27 -7 43 -7c44 0 75 16 86 71c-15 -15 -37 -25 -69 -25c-68 0 -108 50 -108 106c0 70 51 125 131 125c83 0 145 -61 145 -168zM498 231c0 -20 15 -39 43 -39c22 0 42 15 42 40
c0 11 -3 19 -8 25c-2 3 -5 5 -8 7l-3 2c-7 4 -15 6 -23 6c-27 0 -43 -18 -43 -41z" />
    <glyph glyph-name="uni2154" unicode="&#x2154;" horiz-adv-x="723" 
d="M241 398h-203c-10 0 -13 7 -13 19c0 13 2 18 13 31l75 88c25 30 41 51 41 78c0 35 -26 49 -60 49c-18 0 -35 -5 -49 -14c-13 -8 -21 -6 -21 10v51c0 10 3 18 12 24c21 14 57 24 97 23c78 -2 133 -49 133 -116c0 -38 -22 -74 -49 -107l-32 -38h56c13 0 20 -7 20 -20v-58
c0 -13 -7 -20 -20 -20zM173 0h-89c-16 0 -22 11 -13 24l459 713c6 9 14 13 24 13h89c16 0 22 -11 13 -24l-459 -713c-6 -9 -14 -13 -24 -13zM690 102c0 -65 -55 -112 -145 -112c-21 0 -44 2 -63 7c-11 3 -16 11 -16 22v48c0 14 8 20 22 17c11 -2 24 -3 37 -3
c36 0 59 14 59 34c0 17 -13 29 -36 29h-19c-13 0 -20 7 -20 20v37c0 13 7 20 20 20h18c20 0 31 9 31 24c0 16 -18 26 -48 26c-15 0 -30 -2 -42 -4c-14 -3 -22 2 -22 16v45c0 11 5 19 17 22c19 4 44 7 65 7c81 0 128 -41 128 -96c0 -26 -10 -56 -34 -74c34 -19 48 -54 48 -85
z" />
    <glyph glyph-name="uni2156" unicode="&#x2156;" horiz-adv-x="709" 
d="M241 398h-203c-10 0 -13 7 -13 19c0 13 2 18 13 31l75 88c25 30 41 51 41 78c0 35 -26 49 -60 49c-18 0 -35 -5 -49 -14c-13 -8 -21 -6 -21 10v51c0 10 3 18 12 24c21 14 57 24 97 23c78 -2 133 -49 133 -116c0 -38 -22 -74 -49 -107l-32 -38h56c13 0 20 -7 20 -20v-58
c0 -13 -7 -20 -20 -20zM172 0h-89c-16 0 -22 11 -13 24l459 713c6 9 14 13 24 13h89c16 0 22 -11 13 -24l-459 -713c-6 -9 -14 -13 -24 -13zM676 115c0 -78 -66 -125 -161 -125c-24 0 -51 4 -70 10c-11 4 -15 12 -15 23v52c0 15 9 19 23 14s31 -8 50 -8c40 0 66 16 66 40
c0 22 -20 39 -67 39c-18 0 -34 -3 -46 -6c-15 -5 -24 1 -21 17l28 162c2 12 9 18 21 18h160c13 0 20 -7 20 -20v-55c0 -13 -7 -20 -20 -20h-113l-7 -40c10 2 21 4 34 4c71 0 118 -43 118 -105z" />
    <glyph glyph-name="threequarters" unicode="&#xbe;" horiz-adv-x="727" 
d="M266 502c0 -65 -55 -112 -145 -112c-21 0 -44 2 -63 7c-11 3 -16 11 -16 22v48c0 14 8 20 22 17c11 -2 24 -3 37 -3c36 0 59 14 59 34c0 17 -13 29 -36 29h-19c-13 0 -20 7 -20 20v37c0 13 7 20 20 20h18c20 0 31 9 31 24c0 16 -18 26 -48 26c-15 0 -30 -2 -42 -4
c-14 -3 -22 2 -22 16v45c0 11 5 19 17 22c19 4 44 7 65 7c81 0 128 -41 128 -96c0 -26 -10 -56 -34 -74c34 -19 48 -54 48 -85zM146 0h-89c-16 0 -22 11 -13 24l459 713c6 9 14 13 24 13h89c16 0 22 -11 13 -24l-459 -713c-6 -9 -14 -13 -24 -13zM638 0h-61
c-13 0 -20 7 -20 20v42h-166c-14 0 -21 9 -17 22l73 252c3 12 12 17 23 17h63c14 0 21 -10 17 -23l-56 -184h63v78c0 13 7 20 20 20h61c13 0 20 -7 20 -20v-78h9c13 0 20 -7 20 -20v-44c0 -13 -7 -20 -20 -20h-9v-42c0 -13 -7 -20 -20 -20z" />
    <glyph glyph-name="uni2157" unicode="&#x2157;" horiz-adv-x="685" 
d="M266 502c0 -65 -55 -112 -145 -112c-21 0 -44 2 -63 7c-11 3 -16 11 -16 22v48c0 14 8 20 22 17c11 -2 24 -3 37 -3c36 0 59 14 59 34c0 17 -13 29 -36 29h-19c-13 0 -20 7 -20 20v37c0 13 7 20 20 20h18c20 0 31 9 31 24c0 16 -18 26 -48 26c-15 0 -30 -1 -42 -4
c-14 -3 -22 2 -22 16v45c0 11 5 19 17 22c19 5 44 7 65 7c81 0 128 -41 128 -96c0 -26 -10 -56 -34 -74c34 -19 48 -54 48 -85zM146 0h-89c-16 0 -22 11 -13 24l459 713c6 9 14 13 24 13h89c16 0 22 -11 13 -24l-459 -713c-6 -9 -14 -13 -24 -13zM645 115
c0 -78 -66 -125 -161 -125c-24 0 -51 4 -70 10c-11 4 -15 12 -15 23v52c0 15 9 19 23 14s31 -8 50 -8c40 0 66 16 66 40c0 22 -20 39 -67 39c-18 0 -34 -3 -46 -6c-15 -5 -24 1 -21 17l28 162c2 12 9 18 21 18h160c13 0 20 -7 20 -20v-55c0 -13 -7 -20 -20 -20h-113l-7 -40
c10 2 21 4 34 4c71 0 118 -43 118 -105z" />
    <glyph glyph-name="uni2158" unicode="&#x2158;" horiz-adv-x="809" 
d="M289 398h-61c-13 0 -20 7 -20 20v42h-166c-14 0 -21 9 -17 22l73 252c3 12 12 17 23 17h63c14 0 21 -10 17 -23l-56 -184h63v94c0 13 7 20 20 20h61c13 0 20 -7 20 -20v-94h9c13 0 20 -7 20 -20v-44c0 -13 -7 -20 -20 -20h-9v-42c0 -13 -7 -20 -20 -20zM252 0h-89
c-16 0 -22 11 -13 24l459 713c6 9 14 13 24 13h89c16 0 22 -11 13 -24l-459 -713c-6 -9 -14 -13 -24 -13zM783 115c0 -78 -66 -125 -161 -125c-24 0 -51 3 -70 10c-11 4 -15 12 -15 23v52c0 15 9 19 23 14s31 -8 50 -8c40 0 66 16 66 40c0 22 -20 39 -67 39
c-18 0 -34 -2 -46 -6c-15 -5 -24 1 -21 17l28 162c2 12 9 18 21 18h160c13 0 20 -7 20 -20v-55c0 -13 -7 -20 -20 -20h-113l-7 -40c10 2 21 4 34 4c71 0 118 -43 118 -105z" />
    <glyph glyph-name="percent" unicode="%" horiz-adv-x="836" 
d="M349 574c0 -126 -74 -184 -160 -184s-159 58 -159 184c0 124 74 183 159 183c86 0 160 -59 160 -183zM227 0h-89c-16 0 -22 11 -13 24l459 713c6 9 14 13 24 13h89c16 0 22 -11 13 -24l-459 -713c-6 -9 -14 -13 -24 -13zM132 574c0 -67 31 -85 57 -85s57 18 57 85
c0 66 -31 84 -57 84s-57 -18 -57 -84zM806 174c0 -126 -74 -184 -160 -184s-159 58 -159 184c0 124 74 183 159 183c86 0 160 -59 160 -183zM589 174c0 -67 31 -85 57 -85s57 18 57 85c0 66 -31 84 -57 84s-57 -18 -57 -84z" />
    <glyph glyph-name="perthousand" unicode="&#x2030;" horiz-adv-x="1154" 
d="M323 574c0 -126 -61 -184 -147 -184s-146 58 -146 184c0 124 61 183 146 183c86 0 147 -59 147 -183zM199 0h-89c-16 0 -22 11 -13 24l459 713c6 9 14 13 24 13h89c16 0 22 -11 13 -24l-459 -713c-6 -9 -14 -13 -24 -13zM132 574c0 -66 18 -85 44 -85s44 19 44 85
c0 65 -18 84 -44 84s-44 -19 -44 -84zM750 174c0 -126 -61 -184 -147 -184s-146 58 -146 184c0 124 61 183 146 183c86 0 147 -59 147 -183zM1124 174c0 -126 -61 -184 -147 -184s-146 58 -146 184c0 124 61 183 146 183c86 0 147 -59 147 -183zM559 174
c0 -66 18 -85 44 -85s44 19 44 85c0 65 -18 84 -44 84s-44 -19 -44 -84zM933 174c0 -66 18 -85 44 -85s44 19 44 85c0 65 -18 84 -44 84s-44 -19 -44 -84z" />
    <glyph glyph-name="zero" unicode="0" 
d="M615 373c0 -269 -111 -389 -283 -389c-171 0 -283 120 -283 389c0 267 113 387 283 387c172 0 283 -120 283 -387zM178 373c0 -203 63 -272 154 -272c94 0 154 69 154 272c0 201 -60 270 -154 270c-91 0 -154 -69 -154 -270z" />
    <glyph glyph-name="one" unicode="1" horiz-adv-x="414" 
d="M299 0h-89c-13 0 -20 7 -20 20v562l-78 -32c-19 -8 -30 -4 -36 11l-27 63c-6 14 0 27 12 32l235 95c14 5 23 -1 23 -16v-715c0 -13 -7 -20 -20 -20z" />
    <glyph glyph-name="two" unicode="2" horiz-adv-x="610" 
d="M542 0h-475c-22 0 -25 9 -25 28c0 20 6 28 17 40l277 281c48 49 74 98 74 151c0 84 -69 139 -158 139c-50 0 -111 -22 -152 -55c-15 -12 -24 -7 -31 5l-34 63c-7 12 1 24 9 30c55 44 142 78 220 78c155 0 278 -106 278 -249c0 -85 -34 -155 -106 -230l-151 -158h257
c13 0 20 -7 20 -20v-83c0 -13 -7 -20 -20 -20z" />
    <glyph glyph-name="three" unicode="3" horiz-adv-x="634" 
d="M581 226c0 -142 -127 -242 -307 -242c-61 0 -138 10 -186 33c-10 5 -15 16 -10 29l26 66c5 13 15 18 35 11c34 -12 85 -18 129 -18c109 0 186 48 186 125c0 72 -51 120 -139 120h-128c-13 0 -20 7 -20 20v80c0 13 7 20 20 20h128c62 0 104 33 104 81c0 53 -66 88 -151 88
c-45 0 -96 -11 -127 -24c-19 -8 -31 -2 -35 11l-23 65c-5 14 0 26 11 31c49 23 124 38 187 38c155 0 274 -80 274 -195c0 -56 -27 -118 -91 -150c78 -35 117 -114 117 -189z" />
    <glyph glyph-name="four" unicode="4" 
d="M529 0h-89c-13 0 -20 7 -20 20v117h-335c-37 0 -55 24 -40 63l208 534c4 10 12 16 23 16h94c15 0 21 -9 16 -23l-184 -473h218v273c0 13 7 20 20 20h89c13 0 20 -7 20 -20v-273h64c13 0 20 -7 20 -20v-77c0 -13 -7 -20 -20 -20h-64v-117c0 -13 -7 -20 -20 -20z" />
    <glyph glyph-name="five" unicode="5" 
d="M601 268c0 -172 -132 -284 -330 -284c-67 0 -135 16 -179 41c-9 5 -12 15 -9 28l17 67c3 12 12 19 29 11c35 -16 82 -27 136 -27c126 0 202 59 202 162c0 88 -58 152 -188 152c-58 0 -107 -12 -142 -27c-28 -12 -45 3 -40 27l61 314c2 12 10 18 22 18h373
c13 0 20 -7 20 -20v-83c0 -13 -7 -20 -20 -20h-292l-23 -113c26 7 57 12 86 12c169 0 277 -110 277 -258z" />
    <glyph glyph-name="six" unicode="6" 
d="M520 51c-47 -42 -111 -67 -184 -67c-71 0 -139 26 -191 77c-58 57 -96 145 -96 266c0 159 48 272 119 342c61 61 140 91 219 91c82 0 129 -18 158 -35c9 -5 16 -17 12 -30l-21 -63c-4 -12 -13 -17 -29 -10c-24 11 -62 22 -106 22c-60 0 -111 -24 -151 -65
c-41 -43 -68 -106 -76 -182c9 22 22 43 40 60c36 37 90 62 153 62c65 0 122 -23 165 -61c52 -47 83 -115 83 -191c0 -86 -35 -163 -95 -216zM228 139c29 -26 68 -38 105 -38c47 0 86 17 114 44c29 28 45 67 45 109c0 40 -13 81 -41 111c-25 27 -62 44 -113 44
c-52 0 -99 -22 -128 -59c-20 -25 -31 -56 -31 -91c0 -55 20 -94 49 -120z" />
    <glyph glyph-name="seven" unicode="7" horiz-adv-x="590" 
d="M250 0h-96c-15 0 -22 9 -16 23l246 604h-340c-13 0 -20 7 -20 20v83c0 13 7 20 20 20h492c11 0 18 -4 18 -13v-7c0 -11 -4 -19 -10 -34l-271 -680c-4 -10 -12 -16 -23 -16z" />
    <glyph glyph-name="eight" unicode="8" 
d="M609 225c0 -135 -121 -241 -278 -241c-156 0 -276 106 -276 241c0 81 50 151 126 191c-55 34 -90 86 -90 147c0 110 105 197 240 197c137 0 242 -87 242 -197c0 -60 -35 -113 -90 -147c76 -40 126 -110 126 -191zM218 555c0 -51 50 -89 113 -89c65 0 115 38 115 89
s-50 88 -115 88c-63 0 -113 -38 -113 -88zM184 228c0 -73 64 -126 147 -126c85 0 149 53 149 126c0 71 -64 125 -149 125c-83 0 -147 -54 -147 -125z" />
    <glyph glyph-name="nine" unicode="9" 
d="M497 75c-61 -62 -140 -91 -220 -91c-82 0 -129 17 -157 33c-9 5 -16 17 -12 30l20 61c4 12 16 18 32 12c27 -11 64 -20 103 -20c57 0 106 21 144 57c45 44 75 111 83 194c-9 -21 -23 -41 -41 -57c-37 -33 -90 -55 -152 -55c-75 0 -139 29 -183 76c-41 43 -65 103 -65 169
c0 78 29 147 79 197c49 49 118 79 200 79c65 0 127 -21 177 -64c66 -56 110 -149 110 -279c0 -159 -47 -272 -118 -342zM210 393c25 -27 63 -44 116 -44c46 0 89 15 118 43c25 25 41 59 41 100c0 51 -17 87 -42 111c-30 28 -72 40 -112 40c-52 0 -94 -18 -122 -48
c-24 -26 -37 -60 -37 -98c0 -39 12 -77 38 -104z" />
    <glyph glyph-name="dollar" unicode="$" horiz-adv-x="654" 
d="M354 -109h-33c-13 0 -20 7 -20 20v73h-20c-61 0 -141 11 -199 45c-10 6 -14 13 -10 22l28 71c6 14 12 20 27 13c38 -18 90 -31 151 -31c8 0 16 0 23 1v237l-67 25c-87 33 -154 87 -154 182c0 105 90 181 221 204v59c0 13 7 20 20 20h33c13 0 20 -7 20 -20v-52h12
c58 0 114 -11 149 -25c11 -4 20 -12 15 -23l-32 -79c-4 -9 -12 -13 -24 -8c-22 9 -64 16 -106 16h-14v-200l65 -25c97 -38 155 -100 155 -196c0 -99 -79 -196 -220 -227v-82c0 -13 -7 -20 -20 -20zM291 474l10 -4v160c-50 -14 -83 -42 -83 -79c0 -38 22 -57 73 -77zM462 213
c0 47 -32 81 -88 101v-195c55 20 88 56 88 94z" />
    <glyph glyph-name="cent" unicode="&#xa2;" horiz-adv-x="615" 
d="M381 -109h-37c-13 0 -20 7 -20 20v74c-153 13 -264 136 -264 288c0 151 112 275 264 288v117c0 13 7 20 20 20h37c13 0 20 -7 20 -20v-120c61 -11 115 -41 155 -80c9 -9 8 -19 0 -28l-43 -49c-8 -10 -18 -10 -28 -1c-26 23 -52 39 -84 46v-348c33 8 59 24 85 48
c10 9 21 9 29 -1l42 -49c8 -9 9 -19 0 -28c-41 -40 -94 -69 -156 -80v-77c0 -13 -7 -20 -20 -20zM182 273c0 -92 58 -165 142 -178v355c-84 -13 -142 -86 -142 -177z" />
    <glyph glyph-name="sterling" unicode="&#xa3;" horiz-adv-x="542" 
d="M482 0h-402c-13 0 -20 7 -20 20v71c0 13 7 20 20 20h54v201h-43c-13 0 -20 7 -20 20v71c0 13 7 20 20 20h43v69c0 167 98 268 245 268c30 0 63 -5 87 -15c10 -4 14 -12 14 -23v-79c0 -14 -9 -20 -23 -15c-20 6 -40 9 -64 9c-80 0 -124 -57 -124 -149v-65h142
c13 0 20 -7 20 -20v-71c0 -13 -7 -20 -20 -20h-142v-201h213c13 0 20 -7 20 -20v-71c0 -13 -7 -20 -20 -20z" />
    <glyph glyph-name="florin" unicode="&#x192;" horiz-adv-x="417" 
d="M256 3c0 -134 -73 -218 -195 -218c-20 0 -40 2 -55 6c-11 3 -16 12 -16 23l1 68c0 15 9 19 23 17c9 -2 19 -3 30 -3c57 0 86 40 86 106v435h-83c-13 0 -20 7 -20 20v70c0 13 7 20 20 20h83v57c0 114 74 186 201 186c23 0 43 -2 60 -7c11 -3 16 -11 16 -22v-64
c0 -14 -8 -20 -22 -17c-11 2 -23 3 -38 3c-63 0 -91 -29 -91 -81v-55h131c13 0 20 -7 20 -20v-70c0 -13 -7 -20 -20 -20h-131v-434z" />
    <glyph glyph-name="yen" unicode="&#xa5;" horiz-adv-x="718" 
d="M406 0h-94c-13 0 -20 7 -20 20v126h-178c-13 0 -20 7 -20 20v67c0 13 7 20 20 20h159l-34 66h-125c-13 0 -20 7 -20 20v69c0 13 7 20 20 20h70l-151 298c-7 14 0 24 15 24h104c11 0 18 -4 23 -15l184 -384l187 384c5 10 12 15 23 15h101c15 0 22 -10 15 -24l-151 -298h70
c13 0 20 -7 20 -20v-69c0 -13 -7 -20 -20 -20h-125l-34 -66h159c13 0 20 -7 20 -20v-67c0 -13 -7 -20 -20 -20h-178v-126c0 -13 -7 -20 -20 -20z" />
    <glyph glyph-name="Euro" unicode="&#x20ac;" horiz-adv-x="636" 
d="M430 233h-172c12 -31 28 -56 47 -75c42 -42 97 -57 151 -57c30 0 62 5 87 14c14 5 23 0 23 -15v-76c0 -11 -4 -19 -15 -23c-29 -12 -66 -17 -97 -17c-89 0 -176 28 -240 91c-40 39 -71 91 -89 158h-65c-13 0 -20 7 -20 20v68c0 13 7 20 20 20h49c-1 10 -1 21 -1 32
s0 22 1 32h-49c-13 0 -20 7 -20 20v68c0 13 7 20 20 20h65c18 64 48 115 86 153c65 65 153 94 243 94c31 0 68 -5 97 -17c11 -4 15 -12 15 -23v-75c0 -15 -9 -20 -23 -15c-25 8 -57 13 -87 13c-54 0 -109 -14 -151 -56c-18 -19 -34 -43 -46 -74h171c13 0 20 -7 20 -20v-68
c0 -13 -7 -20 -20 -20h-192c-1 -10 -1 -21 -1 -32s0 -22 1 -32h192c13 0 20 -7 20 -20v-68c0 -13 -7 -20 -20 -20z" />
    <glyph glyph-name="plus" unicode="+" horiz-adv-x="594" 
d="M342 129h-89c-13 0 -20 7 -20 20v155h-153c-13 0 -20 7 -20 20v83c0 13 7 20 20 20h153v156c0 13 7 20 20 20h89c13 0 20 -7 20 -20v-156h152c13 0 20 -7 20 -20v-83c0 -13 -7 -20 -20 -20h-152v-155c0 -13 -7 -20 -20 -20z" />
    <glyph glyph-name="minus" unicode="&#x2212;" horiz-adv-x="494" 
d="M414 304h-334c-13 0 -20 7 -20 20v83c0 13 7 20 20 20h334c13 0 20 -7 20 -20v-83c0 -13 -7 -20 -20 -20z" />
    <glyph glyph-name="plusminus" unicode="&#xb1;" horiz-adv-x="494" 
d="M292 275h-89c-13 0 -20 7 -20 20v125h-123c-13 0 -20 7 -20 20v83c0 13 7 20 20 20h123v126c0 13 7 20 20 20h89c13 0 20 -7 20 -20v-126h122c13 0 20 -7 20 -20v-83c0 -13 -7 -20 -20 -20h-122v-125c0 -13 -7 -20 -20 -20zM434 86h-374c-13 0 -20 7 -20 20v81
c0 13 7 20 20 20h374c13 0 20 -7 20 -20v-81c0 -13 -7 -20 -20 -20z" />
    <glyph glyph-name="multiply" unicode="&#xd7;" horiz-adv-x="545" 
d="M139 156c-9 -9 -19 -9 -28 0l-47 46c-9 9 -9 18 0 28l134 135l-129 130c-9 9 -8 19 1 28l47 45c9 9 19 9 28 0l128 -128l127 128c9 9 19 9 28 0l47 -45c9 -9 10 -19 1 -28l-129 -130l134 -135c9 -10 9 -19 0 -28l-47 -46c-9 -9 -19 -9 -28 0l-133 134z" />
    <glyph glyph-name="equal" unicode="=" horiz-adv-x="494" 
d="M414 401h-334c-13 0 -20 7 -20 20v77c0 13 7 20 20 20h334c13 0 20 -7 20 -20v-77c0 -13 -7 -20 -20 -20zM414 220h-334c-13 0 -20 7 -20 20v77c0 13 7 20 20 20h334c13 0 20 -7 20 -20v-77c0 -13 -7 -20 -20 -20z" />
    <glyph glyph-name="notequal" unicode="&#x2260;" horiz-adv-x="494" 
d="M231 129h-59c-14 0 -21 9 -18 22l13 62h-87c-13 0 -20 7 -20 20v74c0 13 7 20 20 20h110l18 84h-128c-13 0 -20 7 -20 20v74c0 13 7 20 20 20h151l13 63c2 12 10 18 22 18h59c14 0 21 -9 18 -22l-12 -59h83c13 0 20 -7 20 -20v-74c0 -13 -7 -20 -20 -20h-107l-17 -84h124
c13 0 20 -7 20 -20v-74c0 -13 -7 -20 -20 -20h-147l-14 -66c-2 -12 -10 -18 -22 -18z" />
    <glyph glyph-name="divide" unicode="&#xf7;" horiz-adv-x="494" 
d="M330 534c0 -45 -30 -71 -83 -71c-51 0 -83 26 -83 71c0 48 32 73 83 73c53 0 83 -25 83 -73zM414 300h-334c-13 0 -20 7 -20 20v79c0 13 7 20 20 20h334c13 0 20 -7 20 -20v-79c0 -13 -7 -20 -20 -20zM330 183c0 -45 -30 -71 -83 -71c-51 0 -83 26 -83 71
c0 48 32 73 83 73c53 0 83 -25 83 -73z" />
    <glyph glyph-name="less" unicode="&#x3c;" horiz-adv-x="557" 
d="M492 182c0 -15 -9 -22 -23 -16l-398 154c-10 4 -16 12 -16 23v58c0 11 6 19 16 23l398 153c14 6 23 -1 23 -16v-53c0 -11 -6 -19 -16 -23l-298 -112l298 -112c10 -4 16 -12 16 -23v-56z" />
    <glyph glyph-name="greater" unicode="&#x3e;" horiz-adv-x="557" 
d="M486 320l-398 -154c-14 -6 -23 1 -23 16v56c0 11 6 19 16 23l298 112l-298 112c-10 4 -16 12 -16 23v53c0 15 9 22 23 16l398 -153c10 -4 16 -12 16 -23v-58c0 -11 -6 -19 -16 -23z" />
    <glyph glyph-name="lessequal" unicode="&#x2264;" horiz-adv-x="557" 
d="M492 238c0 -15 -9 -22 -23 -16l-398 154c-10 4 -16 12 -16 23v56c0 11 6 19 16 23l398 153c14 6 23 -1 23 -16v-52c0 -11 -6 -19 -16 -23l-298 -112l298 -112c10 -4 16 -12 16 -23v-55zM492 64c0 -15 -9 -22 -23 -16l-398 154c-10 4 -16 12 -16 23v53c0 15 9 21 23 16
l398 -152c10 -4 16 -12 16 -23v-55z" />
    <glyph glyph-name="greaterequal" unicode="&#x2265;" horiz-adv-x="557" 
d="M486 376l-398 -154c-14 -6 -23 1 -23 16v55c0 11 6 19 16 23l298 112l-298 112c-10 4 -16 12 -16 23v52c0 15 9 22 23 16l398 -153c10 -4 16 -12 16 -23v-56c0 -11 -6 -19 -16 -23zM486 202l-398 -154c-14 -6 -23 1 -23 16v55c0 11 6 19 16 23l398 152c14 5 23 -1 23 -16
v-53c0 -11 -6 -19 -16 -23z" />
    <glyph glyph-name="degree" unicode="&#xb0;" horiz-adv-x="504" 
d="M434 584c0 -122 -102 -175 -182 -175s-182 53 -182 175c0 124 102 176 182 176s182 -52 182 -176zM171 584c0 -52 36 -81 81 -81c44 0 81 29 81 81c0 55 -37 82 -81 82c-45 0 -81 -27 -81 -82z" />
    <glyph glyph-name="numbersign" unicode="#" horiz-adv-x="675" 
d="M228 0h-71c-13 0 -21 7 -20 21l13 183h-65c-13 0 -20 7 -20 20v64c0 13 7 20 20 20h72l9 130h-65c-13 0 -20 7 -20 20v64c0 13 7 20 20 20h72l13 189c1 12 8 19 20 19h71c13 0 21 -7 20 -21l-13 -187h133l13 189c1 12 8 19 20 19h71c13 0 21 -7 20 -21l-13 -187h62
c13 0 20 -7 20 -20v-64c0 -13 -7 -20 -20 -20h-69l-9 -130h62c13 0 20 -7 20 -20v-64c0 -13 -7 -20 -20 -20h-69l-13 -185c-1 -12 -8 -19 -20 -19h-71c-13 0 -21 7 -20 21l13 183h-133l-13 -185c-1 -12 -8 -19 -20 -19zM268 308h133l9 130h-133z" />
    <glyph glyph-name="zero.lf" 
d="M615 373c0 -269 -111 -389 -283 -389c-171 0 -283 120 -283 389c0 267 113 387 283 387c172 0 283 -120 283 -387zM178 373c0 -203 63 -272 154 -272c94 0 154 69 154 272c0 201 -60 270 -154 270c-91 0 -154 -69 -154 -270z" />
    <glyph glyph-name="one.lf" horiz-adv-x="414" 
d="M299 0h-89c-13 0 -20 7 -20 20v562l-78 -32c-19 -8 -30 -4 -36 11l-27 63c-6 14 0 27 12 32l235 95c14 5 23 -1 23 -16v-715c0 -13 -7 -20 -20 -20z" />
    <glyph glyph-name="two.lf" horiz-adv-x="634" 
d="M542 0h-475c-22 0 -25 9 -25 28c0 20 6 28 17 40l277 281c48 49 74 98 74 151c0 84 -69 139 -158 139c-50 0 -111 -22 -152 -55c-15 -12 -24 -7 -31 5l-34 63c-7 12 1 24 9 30c55 44 142 78 220 78c155 0 278 -106 278 -249c0 -85 -34 -155 -106 -230l-151 -158h257
c13 0 20 -7 20 -20v-83c0 -13 -7 -20 -20 -20z" />
    <glyph glyph-name="three.lf" horiz-adv-x="634" 
d="M581 226c0 -142 -127 -242 -307 -242c-61 0 -138 10 -186 33c-10 5 -15 16 -10 29l26 66c5 13 15 18 35 11c34 -12 85 -18 129 -18c109 0 186 48 186 125c0 72 -51 120 -139 120h-128c-13 0 -20 7 -20 20v80c0 13 7 20 20 20h128c62 0 104 33 104 81c0 53 -66 88 -151 88
c-45 0 -96 -11 -127 -24c-19 -8 -31 -2 -35 11l-23 65c-5 14 0 26 11 31c49 23 124 38 187 38c155 0 274 -80 274 -195c0 -56 -27 -118 -91 -150c78 -35 117 -114 117 -189z" />
    <glyph glyph-name="four.lf" 
d="M529 0h-89c-13 0 -20 7 -20 20v117h-335c-37 0 -55 24 -40 63l208 534c4 10 12 16 23 16h94c15 0 21 -9 16 -23l-184 -473h218v273c0 13 7 20 20 20h89c13 0 20 -7 20 -20v-273h64c13 0 20 -7 20 -20v-77c0 -13 -7 -20 -20 -20h-64v-117c0 -13 -7 -20 -20 -20z" />
    <glyph glyph-name="five.lf" 
d="M601 268c0 -172 -132 -284 -330 -284c-67 0 -135 16 -179 41c-9 5 -12 15 -9 28l17 67c3 12 12 19 29 11c35 -16 82 -27 136 -27c126 0 202 59 202 162c0 88 -58 152 -188 152c-58 0 -107 -12 -142 -27c-28 -12 -45 3 -40 27l61 314c2 12 10 18 22 18h373
c13 0 20 -7 20 -20v-83c0 -13 -7 -20 -20 -20h-292l-23 -113c26 7 57 12 86 12c169 0 277 -110 277 -258z" />
    <glyph glyph-name="six.lf" 
d="M520 51c-47 -42 -111 -67 -184 -67c-71 0 -139 26 -191 77c-58 57 -96 145 -96 266c0 159 48 272 119 342c61 61 140 91 219 91c82 0 129 -18 158 -35c9 -5 16 -17 12 -30l-21 -63c-4 -12 -13 -17 -29 -10c-24 11 -62 22 -106 22c-60 0 -111 -24 -151 -65
c-41 -43 -68 -106 -76 -182c9 22 22 43 40 60c36 37 90 62 153 62c65 0 122 -23 165 -61c52 -47 83 -115 83 -191c0 -86 -35 -163 -95 -216zM228 139c29 -26 68 -38 105 -38c47 0 86 17 114 44c29 28 45 67 45 109c0 40 -13 81 -41 111c-25 27 -62 44 -113 44
c-52 0 -99 -22 -128 -59c-20 -25 -31 -56 -31 -91c0 -55 20 -94 49 -120z" />
    <glyph glyph-name="seven.lf" horiz-adv-x="590" 
d="M250 0h-96c-15 0 -22 9 -16 23l246 604h-340c-13 0 -20 7 -20 20v83c0 13 7 20 20 20h492c11 0 18 -4 18 -13v-7c0 -11 -4 -19 -10 -34l-271 -680c-4 -10 -12 -16 -23 -16z" />
    <glyph glyph-name="eight.lf" 
d="M609 225c0 -135 -121 -241 -278 -241c-156 0 -276 106 -276 241c0 81 50 151 126 191c-55 34 -90 86 -90 147c0 110 105 197 240 197c137 0 242 -87 242 -197c0 -60 -35 -113 -90 -147c76 -40 126 -110 126 -191zM218 555c0 -51 50 -89 113 -89c65 0 115 38 115 89
s-50 88 -115 88c-63 0 -113 -38 -113 -88zM184 228c0 -73 64 -126 147 -126c85 0 149 53 149 126c0 71 -64 125 -149 125c-83 0 -147 -54 -147 -125z" />
    <glyph glyph-name="nine.lf" 
d="M497 75c-61 -62 -140 -91 -220 -91c-82 0 -129 17 -157 33c-9 5 -16 17 -12 30l20 61c4 12 16 18 32 12c27 -11 64 -20 103 -20c57 0 106 21 144 57c45 44 75 111 83 194c-9 -21 -23 -41 -41 -57c-37 -33 -90 -55 -152 -55c-75 0 -139 29 -183 76c-41 43 -65 103 -65 169
c0 78 29 147 79 197c49 49 118 79 200 79c65 0 127 -21 177 -64c66 -56 110 -149 110 -279c0 -159 -47 -272 -118 -342zM210 393c25 -27 63 -44 116 -44c46 0 89 15 118 43c25 25 41 59 41 100c0 51 -17 87 -42 111c-30 28 -72 40 -112 40c-52 0 -94 -18 -122 -48
c-24 -26 -37 -60 -37 -98c0 -39 12 -77 38 -104z" />
    <glyph glyph-name="dollar.lf" horiz-adv-x="654" 
d="M354 -109h-33c-13 0 -20 7 -20 20v73h-20c-61 0 -141 11 -199 45c-10 6 -14 13 -10 22l28 71c6 14 12 20 27 13c38 -18 90 -31 151 -31c8 0 16 0 23 1v237l-67 25c-87 33 -154 87 -154 182c0 105 90 181 221 204v59c0 13 7 20 20 20h33c13 0 20 -7 20 -20v-52h12
c58 0 114 -11 149 -25c11 -4 20 -12 15 -23l-32 -79c-4 -9 -12 -13 -24 -8c-22 9 -64 16 -106 16h-14v-200l65 -25c97 -38 155 -100 155 -196c0 -99 -79 -196 -220 -227v-82c0 -13 -7 -20 -20 -20zM291 474l10 -4v160c-50 -14 -83 -42 -83 -79c0 -38 22 -57 73 -77zM462 213
c0 47 -32 81 -88 101v-195c55 20 88 56 88 94z" />
    <glyph glyph-name="cent.lf" horiz-adv-x="556" 
d="M381 -109h-37c-13 0 -20 7 -20 20v74c-153 13 -264 136 -264 288c0 151 112 275 264 288v117c0 13 7 20 20 20h37c13 0 20 -7 20 -20v-120c61 -11 115 -41 155 -80c9 -9 8 -19 0 -28l-43 -49c-8 -10 -18 -10 -28 -1c-26 23 -52 39 -84 46v-348c33 8 59 24 85 48
c10 9 21 9 29 -1l42 -49c8 -9 9 -19 0 -28c-41 -40 -94 -69 -156 -80v-77c0 -13 -7 -20 -20 -20zM182 273c0 -92 58 -165 142 -178v355c-84 -13 -142 -86 -142 -177z" />
    <glyph glyph-name="sterling.lf" horiz-adv-x="542" 
d="M482 0h-402c-13 0 -20 7 -20 20v71c0 13 7 20 20 20h54v201h-43c-13 0 -20 7 -20 20v71c0 13 7 20 20 20h43v69c0 167 98 268 245 268c30 0 63 -5 87 -15c10 -4 14 -12 14 -23v-79c0 -14 -9 -20 -23 -15c-20 6 -40 9 -64 9c-80 0 -124 -57 -124 -149v-65h142
c13 0 20 -7 20 -20v-71c0 -13 -7 -20 -20 -20h-142v-201h213c13 0 20 -7 20 -20v-71c0 -13 -7 -20 -20 -20z" />
    <glyph glyph-name="florin.lf" horiz-adv-x="417" 
d="M256 3c0 -134 -73 -218 -195 -218c-20 0 -40 2 -55 6c-11 3 -16 12 -16 23l1 68c0 15 9 19 23 17c9 -2 19 -3 30 -3c57 0 86 40 86 106v435h-83c-13 0 -20 7 -20 20v70c0 13 7 20 20 20h83v57c0 114 74 186 201 186c23 0 43 -2 60 -7c11 -3 16 -11 16 -22v-64
c0 -14 -8 -20 -22 -17c-11 2 -23 3 -38 3c-63 0 -91 -29 -91 -81v-55h131c13 0 20 -7 20 -20v-70c0 -13 -7 -20 -20 -20h-131v-434z" />
    <glyph glyph-name="yen.lf" horiz-adv-x="718" 
d="M406 0h-94c-13 0 -20 7 -20 20v126h-178c-13 0 -20 7 -20 20v67c0 13 7 20 20 20h159l-34 66h-125c-13 0 -20 7 -20 20v69c0 13 7 20 20 20h70l-151 298c-7 14 0 24 15 24h104c11 0 18 -4 23 -15l184 -384l187 384c5 10 12 15 23 15h101c15 0 22 -10 15 -24l-151 -298h70
c13 0 20 -7 20 -20v-69c0 -13 -7 -20 -20 -20h-125l-34 -66h159c13 0 20 -7 20 -20v-67c0 -13 -7 -20 -20 -20h-178v-126c0 -13 -7 -20 -20 -20z" />
    <glyph glyph-name="Euro.lf" horiz-adv-x="636" 
d="M430 233h-172c12 -31 28 -56 47 -75c42 -42 97 -57 151 -57c30 0 62 5 87 14c14 5 23 0 23 -15v-76c0 -11 -4 -19 -15 -23c-29 -12 -66 -17 -97 -17c-89 0 -176 28 -240 91c-40 39 -71 91 -89 158h-65c-13 0 -20 7 -20 20v68c0 13 7 20 20 20h49c-1 10 -1 21 -1 32
s0 22 1 32h-49c-13 0 -20 7 -20 20v68c0 13 7 20 20 20h65c18 64 48 115 86 153c65 65 153 94 243 94c31 0 68 -5 97 -17c11 -4 15 -12 15 -23v-75c0 -15 -9 -20 -23 -15c-25 8 -57 13 -87 13c-54 0 -109 -14 -151 -56c-18 -19 -34 -43 -46 -74h171c13 0 20 -7 20 -20v-68
c0 -13 -7 -20 -20 -20h-192c-1 -10 -1 -21 -1 -32s0 -22 1 -32h192c13 0 20 -7 20 -20v-68c0 -13 -7 -20 -20 -20z" />
    <glyph glyph-name="zero.osf" 
d="M615 274c0 -178 -120 -290 -283 -290c-162 0 -283 112 -283 290c0 176 122 288 283 288c163 0 283 -112 283 -288zM177 274c0 -114 70 -175 155 -175c88 0 155 61 155 175c0 113 -67 173 -155 173c-85 0 -155 -60 -155 -173z" />
    <glyph glyph-name="one.osf" horiz-adv-x="414" 
d="M299 0h-89c-13 0 -20 7 -20 20v360l-85 -45c-18 -10 -32 -5 -37 8l-22 59c-6 15 -2 28 10 34l239 126c14 7 24 1 24 -14v-528c0 -13 -7 -20 -20 -20z" />
    <glyph glyph-name="two.osf" horiz-adv-x="614" 
d="M546 0h-475c-22 0 -25 9 -25 28c0 20 6 28 17 40l277 281c48 49 74 98 74 151c0 84 -69 139 -158 139c-50 0 -111 -22 -152 -55c-15 -12 -24 -7 -31 5l-34 63c-7 12 1 24 9 30c55 44 142 78 220 78c155 0 278 -106 278 -249c0 -85 -34 -155 -106 -230l-151 -158h257
c13 0 20 -7 20 -20v-83c0 -13 -7 -20 -20 -20z" />
    <glyph glyph-name="three.osf" horiz-adv-x="634" 
d="M581 27c0 -142 -127 -242 -307 -242c-61 0 -138 10 -186 33c-10 5 -15 16 -10 29l26 66c5 13 15 18 35 11c34 -12 85 -18 129 -18c109 0 186 48 186 125c0 72 -51 120 -139 120h-128c-13 0 -20 7 -20 20v80c0 13 7 20 20 20h128c62 0 104 33 104 81c0 53 -66 88 -151 88
c-45 0 -96 -11 -127 -24c-19 -8 -31 -2 -35 11l-23 65c-5 14 0 26 11 31c49 23 124 38 187 38c155 0 274 -80 274 -195c0 -56 -27 -118 -91 -150c78 -35 117 -114 117 -189z" />
    <glyph glyph-name="four.osf" 
d="M529 -205h-89c-13 0 -20 7 -20 20v185h-365c-19 0 -29 15 -21 36l193 495c4 10 12 16 23 16h94c15 0 21 -9 16 -23l-158 -407h218v183c0 13 7 20 20 20h89c13 0 20 -7 20 -20v-183h64c13 0 20 -7 20 -20v-77c0 -13 -7 -20 -20 -20h-64v-185c0 -13 -7 -20 -20 -20z" />
    <glyph glyph-name="five.osf" 
d="M601 69c0 -172 -132 -284 -330 -284c-67 0 -135 16 -179 41c-9 5 -12 15 -9 28l17 67c3 12 12 19 29 11c35 -16 82 -27 136 -27c126 0 202 59 202 162c0 88 -58 152 -188 152c-58 0 -107 -12 -142 -27c-28 -12 -45 3 -40 27l61 310c2 12 10 18 22 18h373
c13 0 20 -7 20 -20v-83c0 -13 -7 -20 -20 -20h-292l-22 -109c25 7 56 12 85 12c169 0 277 -110 277 -258z" />
    <glyph glyph-name="six.osf" 
d="M520 51c-47 -42 -111 -67 -184 -67c-71 0 -139 26 -191 77c-58 57 -96 145 -96 266c0 159 48 272 119 342c61 61 140 91 219 91c82 0 129 -18 158 -35c9 -5 16 -17 12 -30l-21 -63c-4 -12 -13 -17 -29 -10c-24 11 -62 22 -106 22c-60 0 -111 -24 -151 -65
c-41 -43 -68 -106 -76 -182c9 22 22 43 40 60c36 37 90 62 153 62c65 0 122 -23 165 -61c52 -47 83 -115 83 -191c0 -86 -35 -163 -95 -216zM228 139c29 -26 68 -38 105 -38c47 0 86 17 114 44c29 28 45 67 45 109c0 40 -13 81 -41 111c-25 27 -62 44 -113 44
c-52 0 -99 -22 -128 -59c-20 -25 -31 -56 -31 -91c0 -55 20 -94 49 -120z" />
    <glyph glyph-name="seven.osf" horiz-adv-x="590" 
d="M249 -205h-96c-15 0 -22 9 -16 23l247 606h-340c-13 0 -20 7 -20 20v83c0 13 7 20 20 20h492c11 0 18 -4 18 -13v-7c0 -11 -4 -19 -10 -34l-272 -682c-4 -10 -12 -16 -23 -16z" />
    <glyph glyph-name="eight.osf" 
d="M609 225c0 -135 -121 -241 -278 -241c-156 0 -276 106 -276 241c0 81 50 151 126 191c-55 34 -90 86 -90 147c0 110 105 197 240 197c137 0 242 -87 242 -197c0 -60 -35 -113 -90 -147c76 -40 126 -110 126 -191zM218 555c0 -51 50 -89 113 -89c65 0 115 38 115 89
s-50 88 -115 88c-63 0 -113 -38 -113 -88zM184 228c0 -73 64 -126 147 -126c85 0 149 53 149 126c0 71 -64 125 -149 125c-83 0 -147 -54 -147 -125z" />
    <glyph glyph-name="nine.osf" 
d="M497 -123c-61 -62 -140 -91 -220 -91c-82 0 -129 17 -157 33c-9 5 -16 17 -12 30l20 61c4 12 16 18 32 12c27 -11 64 -20 103 -20c57 0 106 21 144 57c45 44 75 111 83 194c-9 -21 -23 -41 -41 -57c-37 -33 -90 -55 -152 -55c-75 0 -139 29 -183 76
c-41 43 -65 103 -65 169c0 78 29 147 79 197c49 49 118 79 200 79c65 0 127 -21 177 -64c66 -56 110 -149 110 -279c0 -159 -47 -272 -118 -342zM210 195c25 -27 63 -44 116 -44c46 0 89 15 118 43c25 25 41 59 41 100c0 51 -17 87 -42 111c-30 28 -72 40 -112 40
c-52 0 -94 -18 -122 -48c-24 -26 -37 -60 -37 -98c0 -39 12 -77 38 -104z" />
    <glyph glyph-name="zero.tf" horiz-adv-x="699" 
d="M632 373c0 -269 -111 -389 -283 -389c-171 0 -283 120 -283 389c0 267 113 387 283 387c172 0 283 -120 283 -387zM195 373c0 -203 63 -272 154 -272c94 0 154 69 154 272c0 201 -60 270 -154 270c-91 0 -154 -69 -154 -270z" />
    <glyph glyph-name="one.tf" horiz-adv-x="699" 
d="M608 0h-507c-13 0 -20 7 -20 20v83c0 13 7 20 20 20h215v435l-139 -86c-27 -17 -47 -8 -57 9l-22 38c-12 21 -4 38 10 47l313 194c13 8 24 3 24 -13v-624h163c13 0 20 -7 20 -20v-83c0 -13 -7 -20 -20 -20z" />
    <glyph glyph-name="two.tf" horiz-adv-x="699" 
d="M605 0h-484c-22 0 -25 9 -25 28c0 20 6 28 17 40l286 281c49 49 74 98 74 151c0 84 -69 139 -159 139c-50 0 -107 -23 -151 -50c-18 -11 -31 -6 -39 9l-23 44c-9 17 -3 37 11 47c56 40 139 71 214 71c156 0 279 -106 279 -249c0 -85 -32 -156 -106 -230l-158 -158h264
c13 0 20 -7 20 -20v-83c0 -13 -7 -20 -20 -20z" />
    <glyph glyph-name="three.tf" horiz-adv-x="699" 
d="M626 232c0 -144 -132 -248 -315 -248c-82 0 -143 10 -200 37c-17 8 -23 25 -18 42l17 55c5 17 19 25 41 18c44 -14 92 -30 154 -30c111 0 193 52 193 129c0 72 -49 115 -137 115h-148c-13 0 -20 7 -20 20v80c0 13 7 20 20 20h148c62 0 102 33 102 81c0 54 -65 87 -152 87
c-55 0 -108 -14 -139 -28s-47 -2 -51 11l-20 61c-5 16 2 29 15 35c50 23 133 43 208 43c157 0 275 -81 275 -196c0 -56 -27 -117 -91 -149c78 -35 118 -108 118 -183z" />
    <glyph glyph-name="four.tf" horiz-adv-x="699" 
d="M552 0h-89c-13 0 -20 7 -20 20v117h-356c-25 0 -38 15 -26 46l215 551c4 10 12 16 23 16h94c15 0 21 -9 16 -23l-184 -473h218v273c0 13 7 20 20 20h89c13 0 20 -7 20 -20v-273h89c13 0 20 -7 20 -20v-77c0 -13 -7 -20 -20 -20h-89v-117c0 -13 -7 -20 -20 -20z" />
    <glyph glyph-name="five.tf" horiz-adv-x="699" 
d="M619 268c0 -172 -134 -284 -335 -284c-68 0 -137 18 -182 43c-9 5 -14 20 -8 38l15 44c5 15 18 26 40 17c35 -14 83 -22 137 -22c124 0 199 59 199 162c0 88 -58 152 -188 152c-58 0 -110 -12 -142 -26c-27 -12 -43 6 -40 24l61 316c2 12 10 18 22 18h373
c13 0 20 -7 20 -20v-83c0 -13 -7 -20 -20 -20h-292l-23 -113c26 7 57 12 86 12c169 0 277 -110 277 -258z" />
    <glyph glyph-name="six.tf" horiz-adv-x="699" 
d="M633 267c0 -154 -114 -283 -279 -283c-149 0 -287 113 -287 343c0 158 48 271 118 342c62 61 142 91 223 91c83 0 132 -18 160 -36c11 -7 17 -18 10 -35l-20 -48c-7 -16 -19 -24 -41 -15s-58 18 -98 18c-122 0 -212 -99 -227 -247c26 67 99 122 193 122
c145 0 248 -114 248 -252zM197 259c0 -111 81 -158 154 -158c97 0 159 71 159 153c0 75 -45 155 -154 155c-87 0 -159 -61 -159 -150z" />
    <glyph glyph-name="seven.tf" horiz-adv-x="699" 
d="M166 0c-15 0 -24 9 -16 23l340 604h-395c-13 0 -20 7 -20 20v83c0 13 7 20 20 20h565c11 0 18 -4 18 -13v-7c0 -11 -2 -19 -10 -34l-373 -680c-5 -10 -12 -16 -23 -16h-106z" />
    <glyph glyph-name="eight.tf" horiz-adv-x="699" 
d="M626 225c0 -135 -121 -241 -278 -241c-156 0 -276 106 -276 241c0 81 50 151 126 191c-55 34 -90 86 -90 147c0 110 105 197 240 197c137 0 242 -87 242 -197c0 -60 -35 -113 -90 -147c76 -40 126 -110 126 -191zM235 555c0 -51 50 -89 113 -89c65 0 115 38 115 89
s-50 88 -115 88c-63 0 -113 -38 -113 -88zM201 228c0 -73 64 -126 147 -126c85 0 149 53 149 126c0 71 -64 125 -149 125c-83 0 -147 -54 -147 -125z" />
    <glyph glyph-name="nine.tf" horiz-adv-x="699" 
d="M514 75c-61 -62 -140 -91 -220 -91c-74 0 -117 13 -142 26c-20 10 -29 24 -22 46l13 44c6 20 18 26 38 18c24 -10 59 -18 100 -18c124 0 212 100 226 250c-28 -63 -100 -111 -193 -111c-145 0 -248 107 -248 245c0 154 114 276 279 276c149 0 287 -113 287 -343
c0 -159 -48 -272 -118 -342zM189 497c0 -75 45 -148 154 -148c87 0 159 54 159 143c0 111 -81 151 -154 151c-97 0 -159 -64 -159 -146z" />
    <glyph glyph-name="zero.tosf" horiz-adv-x="699" 
d="M632 274c0 -178 -120 -290 -283 -290c-162 0 -283 112 -283 290c0 176 122 288 283 288c163 0 283 -112 283 -288zM194 274c0 -114 70 -175 155 -175c88 0 155 61 155 175c0 113 -67 173 -155 173c-85 0 -155 -60 -155 -173z" />
    <glyph glyph-name="one.tosf" horiz-adv-x="699" 
d="M603 0h-507c-13 0 -20 7 -20 20v83c0 13 7 20 20 20h218v263l-135 -53c-26 -10 -37 -4 -47 19l-22 52c-9 20 -2 36 16 43l294 115c14 5 23 -1 23 -16v-423h160c13 0 20 -7 20 -20v-83c0 -13 -7 -20 -20 -20z" />
    <glyph glyph-name="two.tosf" horiz-adv-x="699" 
d="M594 0h-484c-22 0 -25 9 -25 28c0 20 6 28 17 40l286 281c49 49 74 98 74 151c0 84 -69 139 -159 139c-56 0 -106 -20 -146 -46c-23 -15 -35 -7 -42 9l-20 49c-6 15 -3 29 10 39c51 39 126 70 210 70c156 0 279 -106 279 -249c0 -85 -32 -156 -106 -230l-158 -158h264
c13 0 20 -7 20 -20v-83c0 -13 -7 -20 -20 -20z" />
    <glyph glyph-name="three.tosf" horiz-adv-x="699" 
d="M615 28c0 -142 -127 -243 -307 -243c-60 0 -134 10 -184 32c-11 4 -16 12 -15 23l9 68c2 18 13 29 36 21c38 -13 98 -23 148 -23c109 0 186 49 186 126c0 72 -51 120 -139 120h-128c-13 0 -20 7 -20 20v80c0 13 7 20 20 20h128c62 0 104 33 104 81c0 53 -65 88 -151 88
c-52 0 -111 -13 -146 -26c-21 -8 -31 0 -33 18l-9 68c-1 11 4 19 14 23c47 23 124 38 187 38c155 0 274 -80 274 -195c0 -56 -27 -118 -91 -150c78 -35 117 -114 117 -189z" />
    <glyph glyph-name="four.tosf" horiz-adv-x="699" 
d="M552 -205h-89c-13 0 -20 7 -20 20v185h-357c-27 0 -37 16 -25 46l189 485c4 10 12 16 23 16h94c15 0 21 -9 16 -23l-158 -407h218v183c0 13 7 20 20 20h89c13 0 20 -7 20 -20v-183h64c13 0 20 -7 20 -20v-77c0 -13 -7 -20 -20 -20h-64v-185c0 -13 -7 -20 -20 -20z" />
    <glyph glyph-name="five.tosf" horiz-adv-x="699" 
d="M610 69c0 -172 -134 -284 -335 -284c-65 0 -131 14 -174 38c-8 5 -14 15 -11 28l17 62c4 16 16 25 35 15c30 -15 78 -23 132 -23c126 0 202 59 202 162c0 88 -58 152 -188 152c-60 0 -115 -14 -147 -28c-23 -10 -40 5 -36 27l63 311c2 12 10 18 22 18h372
c13 0 20 -7 20 -20v-83c0 -13 -7 -20 -20 -20h-292l-22 -109c25 7 56 12 85 12c169 0 277 -110 277 -258z" />
    <glyph glyph-name="six.tosf" horiz-adv-x="699" 
d="M354 -16c-149 0 -287 113 -287 343c0 159 48 273 120 343c61 61 139 90 218 90c83 0 129 -17 159 -35c12 -7 19 -21 15 -37l-13 -53c-5 -19 -16 -22 -32 -15c-26 12 -69 24 -115 24c-122 0 -212 -99 -227 -247c26 67 99 122 193 122c145 0 248 -114 248 -252
c0 -154 -114 -283 -279 -283zM351 101c97 0 159 71 159 153c0 75 -45 155 -154 155c-87 0 -159 -61 -159 -150c0 -111 81 -158 154 -158z" />
    <glyph glyph-name="seven.tosf" horiz-adv-x="699" 
d="M214 -205c-15 0 -22 9 -16 23l247 606h-340c-13 0 -20 7 -20 20v83c0 13 7 20 20 20h492c11 0 18 -4 18 -13v-7c0 -11 -4 -19 -10 -34l-272 -682c-4 -10 -12 -16 -23 -16h-96z" />
    <glyph glyph-name="eight.tosf" horiz-adv-x="699" 
d="M626 225c0 -135 -121 -241 -278 -241c-156 0 -276 106 -276 241c0 81 50 151 126 191c-55 34 -90 86 -90 147c0 110 105 197 240 197c137 0 242 -87 242 -197c0 -60 -35 -113 -90 -147c76 -40 126 -110 126 -191zM235 555c0 -51 50 -89 113 -89c65 0 115 38 115 89
s-50 88 -115 88c-63 0 -113 -38 -113 -88zM201 228c0 -73 64 -126 147 -126c85 0 149 53 149 126c0 71 -64 125 -149 125c-83 0 -147 -54 -147 -125z" />
    <glyph glyph-name="nine.tosf" horiz-adv-x="699" 
d="M515 -122c-62 -62 -141 -92 -221 -92c-81 0 -129 16 -156 32c-12 7 -17 17 -14 32l13 60c3 12 13 23 33 14c25 -11 67 -22 113 -22c123 0 210 100 224 250c-28 -63 -100 -111 -193 -111c-145 0 -248 107 -248 245c0 154 114 276 279 276c149 0 287 -113 287 -343
c0 -158 -47 -271 -117 -341zM189 299c0 -75 45 -148 154 -148c87 0 159 54 159 143c0 111 -81 151 -154 151c-97 0 -159 -64 -159 -146z" />
    <glyph glyph-name="zero.sups" horiz-adv-x="364" 
d="M322 606c0 -126 -55 -184 -140 -184c-86 0 -140 58 -140 184c0 124 54 183 140 183c85 0 140 -59 140 -183zM144 606c0 -64 13 -85 38 -85s38 21 38 85c0 63 -13 84 -38 84s-38 -21 -38 -84z" />
    <glyph glyph-name="one.sups" horiz-adv-x="265" 
d="M195 430h-93c-6 0 -9 3 -9 9v217l-43 -17c-9 -3 -13 0 -15 6l-18 66c-2 6 1 12 7 14l169 63c7 3 11 -1 11 -8v-341c0 -6 -3 -9 -9 -9z" />
    <glyph glyph-name="two.sups" horiz-adv-x="320" 
d="M277 430h-213c-16 0 -22 8 -22 20c0 9 4 16 11 25l84 94c24 28 31 49 31 70c0 32 -27 56 -62 56c-17 0 -33 -6 -44 -15c-6 -6 -12 -4 -14 2l-15 59c-1 7 -1 11 5 16c25 19 65 32 109 32c78 0 133 -49 133 -120c0 -36 -14 -68 -41 -101l-33 -40h71c6 0 9 -3 9 -9v-80
c0 -6 -3 -9 -9 -9z" />
    <glyph glyph-name="three.sups" horiz-adv-x="343" 
d="M301 540c0 -70 -66 -118 -162 -118c-32 0 -64 6 -86 15c-6 3 -8 8 -7 15l15 64c2 6 6 9 14 6c12 -4 29 -8 46 -8c44 0 72 13 72 35c0 18 -14 26 -37 26h-46c-6 0 -9 4 -9 10v59c0 6 3 10 9 10h46c20 0 31 8 31 21c0 19 -25 28 -59 28c-21 0 -43 -6 -55 -12
c-7 -3 -11 0 -12 7l-14 60c-1 6 1 12 7 14c24 10 62 17 94 17c85 0 140 -41 140 -99c0 -24 -10 -53 -33 -70c30 -18 46 -49 46 -80z" />
    <glyph glyph-name="four.sups" horiz-adv-x="362" 
d="M298 430h-81c-6 0 -9 3 -9 9v53h-165c-11 0 -17 7 -14 21l75 262c2 5 6 8 11 8h84c6 0 10 -5 8 -11l-61 -205h62v112c0 6 3 10 9 10h81c6 0 9 -4 9 -10v-112h18c6 0 9 -4 9 -10v-56c0 -6 -3 -9 -9 -9h-18v-53c0 -6 -3 -9 -9 -9z" />
    <glyph glyph-name="five.sups" horiz-adv-x="345" 
d="M300 549c0 -78 -67 -127 -161 -127c-31 0 -65 8 -85 17c-6 2 -8 6 -6 13l12 65c1 7 4 10 11 7c15 -7 34 -11 56 -11c39 0 65 16 65 40c0 22 -19 39 -66 39c-22 0 -40 -4 -52 -8s-18 2 -17 11l30 179c1 6 5 9 10 9h182c6 0 9 -4 9 -10v-78c0 -6 -3 -9 -9 -9h-122l-6 -33
c9 2 19 3 31 3c70 0 118 -45 118 -107z" />
    <glyph glyph-name="six.sups" horiz-adv-x="364" 
d="M289 456c-24 -21 -57 -34 -97 -34c-43 0 -79 15 -106 42c-30 28 -47 71 -47 126c0 68 22 116 54 148c35 35 83 51 130 51c40 0 64 -9 79 -16c5 -2 7 -6 6 -13l-11 -62c-1 -7 -6 -10 -13 -7c-13 4 -30 8 -51 8c-26 0 -52 -7 -68 -25c-11 -12 -18 -27 -21 -48l2 2
c13 15 39 27 71 27c34 0 62 -12 81 -31c20 -20 31 -47 31 -76c0 -37 -15 -69 -40 -92zM158 518c8 -7 20 -11 31 -11c14 0 25 5 33 12c8 8 13 18 13 29c0 10 -4 20 -11 28c-8 8 -20 13 -35 13c-14 0 -27 -6 -36 -16c-5 -7 -8 -15 -8 -24c0 -14 5 -24 13 -31z" />
    <glyph glyph-name="seven.sups" horiz-adv-x="319" 
d="M181 430h-95c-6 0 -9 5 -7 11l76 243h-106c-7 0 -10 3 -10 9v80c0 6 3 10 10 10h232c5 0 8 -2 8 -6v-2c0 -3 -1 -6 -3 -11l-94 -326c-2 -5 -5 -8 -11 -8z" />
    <glyph glyph-name="eight.sups" horiz-adv-x="364" 
d="M322 538c0 -67 -58 -116 -140 -116s-141 49 -141 116c0 33 18 63 47 82c-20 17 -32 40 -32 66c0 58 53 103 126 103s126 -45 126 -103c0 -26 -12 -49 -32 -66c29 -20 46 -49 46 -82zM146 681c0 -18 15 -29 36 -29s36 11 36 29s-15 29 -36 29s-36 -11 -36 -29zM140 542
c0 -21 17 -35 42 -35c24 0 42 14 42 35c0 20 -18 35 -42 35c-25 0 -42 -15 -42 -35z" />
    <glyph glyph-name="nine.sups" horiz-adv-x="364" 
d="M272 474c-36 -36 -84 -52 -130 -52c-41 0 -64 9 -79 16c-5 2 -7 7 -6 13l10 61c1 8 6 10 14 8c14 -5 30 -8 50 -8c25 0 49 6 65 22c13 12 21 29 24 53c-2 -3 -5 -6 -8 -9c-14 -12 -37 -20 -65 -20c-36 0 -64 13 -84 32c-18 20 -28 46 -28 74c0 34 13 65 35 87
c24 24 59 38 102 38c38 0 72 -12 98 -34c34 -28 54 -74 54 -134c0 -67 -20 -115 -52 -147zM139 638c7 -9 19 -15 35 -15c13 0 25 5 34 13c6 7 11 16 11 27c0 14 -5 23 -12 30c-9 8 -21 11 -32 11c-16 0 -29 -6 -36 -15c-6 -7 -10 -16 -10 -25c0 -10 3 -19 10 -26z" />
    <glyph glyph-name="period.sups" horiz-adv-x="240" 
d="M120 420c-39 0 -64 19 -64 53s25 52 64 52c40 0 64 -18 64 -52s-24 -53 -64 -53z" />
    <glyph glyph-name="comma.sups" horiz-adv-x="268" 
d="M108 313c-13 0 -19 7 -18 21l11 179c1 13 9 19 21 19h73c14 0 21 -9 17 -23l-50 -179c-3 -11 -11 -17 -22 -17h-32z" />
    <glyph glyph-name="hyphen.sups" horiz-adv-x="314" 
d="M54 573v56c0 12 8 20 20 20h166c12 0 20 -8 20 -20v-56c0 -12 -8 -20 -20 -20h-166c-12 0 -20 8 -20 20z" />
    <glyph glyph-name="parenleft.sups" horiz-adv-x="269" 
d="M47 603c0 139 59 244 91 280c10 11 18 15 33 15h61c7 0 12 -10 7 -15c-36 -39 -88 -149 -88 -280c0 -132 53 -242 88 -281c5 -5 0 -15 -7 -15h-61c-15 0 -23 4 -33 15c-31 35 -91 141 -91 281z" />
    <glyph glyph-name="parenright.sups" horiz-adv-x="269" 
d="M98 898c15 0 23 -4 33 -15c32 -37 91 -141 91 -280c0 -140 -60 -246 -91 -281c-10 -11 -18 -15 -33 -15h-61c-7 0 -12 10 -7 15c35 39 88 149 88 281c0 131 -53 241 -88 280c-5 5 0 15 7 15h61z" />
    <glyph glyph-name="plus.sups" horiz-adv-x="355" 
d="M137 538v66h-66c-12 0 -20 8 -20 20v41c0 12 8 20 20 20h66v66c0 12 8 20 20 20h42c12 0 20 -8 20 -20v-66h65c12 0 20 -8 20 -20v-41c0 -12 -8 -20 -20 -20h-65v-66c0 -12 -8 -20 -20 -20h-42c-12 0 -20 8 -20 20z" />
    <glyph glyph-name="minus.sups" horiz-adv-x="355" 
d="M51 624v41c0 12 8 20 20 20h213c12 0 20 -8 20 -20v-41c0 -12 -8 -20 -20 -20h-213c-12 0 -20 8 -20 20z" />
    <glyph glyph-name="multiply.sups" horiz-adv-x="323" 
d="M84 542l-25 26c-9 10 -9 19 0 28l49 49l-49 49c-9 9 -9 19 0 28l25 25c9 9 19 9 28 0l49 -49l49 49c9 9 19 9 28 0l26 -25c9 -9 10 -18 0 -28l-49 -49l49 -49c9 -9 9 -19 0 -28l-26 -26c-9 -9 -19 -10 -28 0l-49 49l-49 -49c-10 -10 -19 -10 -28 0z" />
    <glyph glyph-name="equal.sups" horiz-adv-x="355" 
d="M51 679v38c0 12 8 20 20 20h213c12 0 20 -8 20 -20v-38c0 -12 -8 -20 -20 -20h-213c-12 0 -20 8 -20 20zM51 566v38c0 12 8 20 20 20h213c12 0 20 -8 20 -20v-38c0 -12 -8 -20 -20 -20h-213c-12 0 -20 8 -20 20z" />
    <glyph glyph-name="divide.sups" horiz-adv-x="355" 
d="M178 711c-35 0 -57 17 -57 47s22 47 57 47s56 -17 56 -47s-21 -47 -56 -47zM51 623v40c0 12 8 20 20 20h213c12 0 20 -8 20 -20v-40c0 -12 -8 -20 -20 -20h-213c-12 0 -20 8 -20 20zM178 481c-35 0 -57 17 -57 46c0 31 22 47 57 47s56 -16 56 -47c0 -29 -21 -46 -56 -46z
" />
    <glyph glyph-name="a.sups" horiz-adv-x="435" 
d="M155 420c-71 0 -116 39 -116 99c0 30 12 56 32 76c29 30 76 47 131 48c21 0 44 -3 66 -8v2c0 42 -30 63 -86 63c-32 0 -67 -10 -90 -19c-8 -3 -13 -2 -16 7l-18 52c-3 8 0 14 6 17c31 14 76 29 140 29c116 0 179 -56 179 -164v-104c0 -26 4 -56 9 -74
c3 -9 -4 -14 -12 -14h-72c-12 0 -17 3 -21 10s-9 20 -13 34c-24 -30 -69 -54 -119 -54zM144 527c0 -21 15 -35 43 -35c41 0 82 30 82 69v13c-15 3 -29 5 -42 5c-32 0 -57 -9 -72 -24c-7 -8 -11 -17 -11 -28z" />
    <glyph glyph-name="b.sups" horiz-adv-x="467" 
d="M141 430h-73c-9 0 -13 4 -13 13v451c0 7 4 12 11 14l83 13c8 2 13 -2 13 -11v-169c26 31 61 45 102 45c95 0 163 -78 163 -183c0 -103 -69 -183 -164 -183c-43 0 -82 18 -108 56l-1 -35c-1 -8 -6 -11 -13 -11zM155 603c0 -47 34 -84 81 -84c46 0 79 37 79 84
c0 49 -33 83 -79 83c-47 0 -81 -34 -81 -83z" />
    <glyph glyph-name="d.sups" horiz-adv-x="463" 
d="M395 430h-74c-7 0 -11 3 -12 11l-1 31c-26 -35 -63 -52 -107 -52c-94 0 -161 79 -161 182c0 102 69 184 162 184c39 0 74 -15 99 -45v153c0 7 4 12 11 14l82 13c8 2 14 -2 14 -11v-467c0 -9 -5 -13 -13 -13zM151 602c0 -48 32 -84 78 -84s80 36 80 85c0 46 -34 85 -80 85
s-78 -39 -78 -86z" />
    <glyph glyph-name="e.sups" horiz-adv-x="426" 
d="M365 446c-33 -19 -77 -26 -125 -26c-121 0 -200 75 -200 184c0 101 75 182 178 182c97 0 168 -68 168 -171c0 -10 0 -18 -1 -25c-1 -8 -6 -12 -13 -12h-225c11 -44 48 -66 107 -66c36 0 64 6 86 15c8 4 14 1 16 -7l15 -57c2 -7 1 -13 -6 -17zM218 696
c-38 0 -65 -24 -73 -62h141c-2 38 -30 62 -68 62z" />
    <glyph glyph-name="f.sups" horiz-adv-x="284" 
d="M179 430h-92c-8 0 -13 4 -13 13v238h-39c-9 0 -13 5 -13 13v69c0 8 4 13 13 13h39v27c0 77 50 123 140 123c22 0 39 -2 52 -7c8 -2 10 -8 8 -15l-13 -57c-2 -7 -6 -10 -13 -9c-4 1 -8 1 -12 1c-31 0 -45 -15 -45 -41v-22h65c8 0 12 -5 12 -13v-69c0 -8 -4 -13 -12 -13
h-65v-238c0 -9 -4 -13 -12 -13z" />
    <glyph glyph-name="g.sups" horiz-adv-x="467" 
d="M412 466c0 -104 -66 -171 -197 -171c-58 0 -111 17 -147 44c-5 4 -7 10 -4 17l21 60c3 8 9 10 17 5c25 -17 64 -29 101 -29c73 0 109 34 109 76v18c-26 -31 -63 -46 -105 -46c-96 0 -167 75 -167 170c0 99 70 176 165 176c45 0 84 -17 110 -51l1 30c0 8 6 11 13 11h71
c8 0 12 -5 12 -13v-297zM152 611c0 -44 33 -79 79 -79s80 35 80 79c0 47 -34 81 -80 81s-79 -34 -79 -81z" />
    <glyph glyph-name="h.sups" horiz-adv-x="474" 
d="M162 430h-94c-9 0 -13 4 -13 13v451c0 7 4 12 11 13l89 14c8 2 13 -2 13 -11v-176c24 30 65 52 115 52c84 0 138 -54 138 -138v-205c0 -9 -4 -13 -12 -13h-94c-9 0 -13 4 -13 13v178c0 45 -22 71 -60 71c-40 0 -68 -30 -68 -76v-173c0 -9 -4 -13 -12 -13z" />
    <glyph glyph-name="i.sups" horiz-adv-x="230" 
d="M175 877c0 -35 -21 -55 -60 -55c-37 0 -60 20 -60 55c0 36 23 56 60 56c39 0 60 -20 60 -56zM160 430h-90c-8 0 -12 4 -12 13v320c0 8 4 13 12 13h90c8 0 13 -5 13 -13v-320c0 -9 -5 -13 -13 -13z" />
    <glyph glyph-name="j.sups" horiz-adv-x="244" 
d="M189 877c0 -35 -22 -55 -60 -55c-37 0 -60 20 -60 55c0 36 23 56 60 56c38 0 60 -20 60 -56zM188 464c0 -98 -61 -155 -123 -167c-7 -2 -12 2 -14 9l-20 77c-2 8 1 12 8 15c21 10 32 29 32 64v301c0 8 4 13 12 13h93c8 0 12 -5 12 -13v-299z" />
    <glyph glyph-name="k.sups" horiz-adv-x="413" 
d="M155 430h-87c-9 0 -13 4 -13 13v451c0 7 4 12 11 13l88 14c8 2 13 -2 13 -11v-255h31l68 112c3 6 8 9 15 9h97c10 0 14 -6 9 -15l-89 -144l93 -172c4 -9 0 -15 -9 -15h-102c-7 0 -12 3 -15 9l-67 127h-31v-123c0 -9 -4 -13 -12 -13z" />
    <glyph glyph-name="l.sups" horiz-adv-x="220" 
d="M155 430h-90c-8 0 -13 4 -13 13v450c0 8 5 12 12 14l90 14c8 2 14 -2 14 -11v-467c0 -9 -5 -13 -13 -13z" />
    <glyph glyph-name="m.sups" horiz-adv-x="703" 
d="M161 430h-94c-8 0 -13 4 -13 13v320c0 8 5 13 13 13h85c8 0 13 -4 13 -11l1 -46c19 36 64 67 118 67s95 -26 115 -70c21 38 67 70 123 70c78 0 129 -52 129 -137v-206c0 -9 -5 -13 -13 -13h-94c-9 0 -13 4 -13 13v183c0 41 -20 66 -55 66c-40 0 -64 -29 -64 -73v-176
c0 -9 -4 -13 -12 -13h-95c-8 0 -12 4 -12 13v183c0 41 -21 66 -56 66c-39 0 -63 -29 -63 -73v-176c0 -9 -5 -13 -13 -13z" />
    <glyph glyph-name="n.sups" horiz-adv-x="473" 
d="M161 430h-94c-8 0 -13 4 -13 13v320c0 8 5 13 13 13h85c7 0 13 -4 13 -12l1 -47c20 38 66 69 123 69c79 0 132 -52 132 -136v-207c0 -9 -5 -13 -13 -13h-94c-8 0 -13 4 -13 13v177c0 44 -22 71 -60 71c-39 0 -67 -30 -67 -76v-172c0 -9 -5 -13 -13 -13z" />
    <glyph glyph-name="o.sups" horiz-adv-x="459" 
d="M419 604c0 -105 -80 -184 -190 -184c-109 0 -189 79 -189 184c0 102 80 182 189 182c110 0 190 -80 190 -182zM151 604c0 -50 33 -86 78 -86c47 0 79 36 79 86c0 47 -32 84 -79 84c-45 0 -78 -37 -78 -84z" />
    <glyph glyph-name="p.sups" horiz-adv-x="467" 
d="M151 301h-83c-9 0 -13 4 -13 12v450c0 8 4 13 13 13h73c8 0 13 -4 14 -11l1 -32c26 36 64 53 108 53c95 0 163 -78 163 -183c0 -103 -69 -183 -164 -183c-39 0 -74 15 -100 45v-152c0 -8 -4 -12 -12 -12zM155 603c0 -47 34 -84 81 -84c46 0 79 37 79 84
c0 49 -33 83 -79 83c-47 0 -81 -34 -81 -83z" />
    <glyph glyph-name="q.sups" horiz-adv-x="467" 
d="M400 301h-84c-8 0 -12 4 -12 12v151c-25 -30 -60 -44 -100 -44c-94 0 -164 80 -164 183c0 104 68 183 163 183c44 0 83 -17 109 -54l1 33c0 7 6 11 13 11h74c8 0 12 -5 12 -13v-450c0 -8 -4 -12 -12 -12zM152 603c0 -48 33 -84 79 -84c47 0 81 36 81 83
c0 49 -34 84 -81 84c-46 0 -79 -35 -79 -83z" />
    <glyph glyph-name="r.sups" horiz-adv-x="332" 
d="M161 430h-94c-8 0 -13 4 -13 13v320c0 8 5 13 13 13h78c7 0 13 -4 13 -12l1 -63c15 53 58 85 110 85c13 0 25 -3 35 -7c8 -2 10 -8 8 -15l-19 -81c-2 -9 -8 -11 -16 -9c-7 2 -14 3 -23 3c-45 0 -80 -27 -80 -83v-151c0 -9 -5 -13 -13 -13z" />
    <glyph glyph-name="s.sups" horiz-adv-x="343" 
d="M306 533c0 -62 -55 -113 -150 -113c-44 0 -81 9 -104 24c-6 4 -7 10 -5 17l19 54c3 9 8 10 16 6c15 -7 36 -12 57 -12c38 0 54 16 54 31c0 13 -9 22 -32 32l-36 15c-49 20 -75 46 -75 92c0 61 57 107 148 107c35 0 67 -8 89 -20c7 -3 8 -9 6 -17l-19 -52
c-3 -8 -9 -10 -17 -7c-11 5 -24 8 -40 8c-31 0 -49 -11 -49 -27c0 -12 7 -18 27 -26l33 -14c54 -23 78 -49 78 -98z" />
    <glyph glyph-name="t.sups" horiz-adv-x="288" 
d="M251 428c-13 -4 -32 -8 -51 -8c-82 0 -131 52 -131 139v122h-34c-8 0 -13 5 -13 13v69c0 8 5 13 13 13h34v68c0 7 4 12 11 13l90 18c8 2 14 -2 14 -11v-88h57c8 0 13 -5 13 -13v-69c0 -8 -5 -13 -13 -13h-57v-117c0 -26 13 -41 40 -41c4 0 9 0 14 1c6 1 10 -1 11 -7
l10 -73c1 -7 -1 -13 -8 -16z" />
    <glyph glyph-name="u.sups" horiz-adv-x="462" 
d="M411 593c0 -107 -66 -173 -181 -173c-113 0 -179 66 -179 174v169c0 8 5 13 13 13h92c9 0 13 -5 13 -13v-178c0 -42 20 -70 61 -70c44 0 63 28 63 70v178c0 8 4 13 12 13h93c8 0 13 -5 13 -13v-170z" />
    <glyph glyph-name="v.sups" horiz-adv-x="415" 
d="M259 430h-103c-7 0 -12 3 -15 10l-119 321c-3 9 1 15 10 15h90c8 0 12 -4 15 -11l71 -230l71 230c2 7 7 11 14 11h90c9 0 13 -6 10 -15l-119 -321c-2 -7 -8 -10 -15 -10z" />
    <glyph glyph-name="w.sups" horiz-adv-x="607" 
d="M231 430h-74c-7 0 -12 3 -14 10l-121 321c-3 9 1 15 10 15h86c7 0 13 -3 15 -10l69 -192l59 159c3 7 8 10 15 10h57c7 0 12 -3 15 -10l58 -160l69 193c2 7 7 10 14 10h86c9 0 13 -6 10 -15l-120 -321c-3 -7 -8 -10 -15 -10h-73c-7 0 -12 3 -15 10l-58 160l-59 -160
c-3 -7 -7 -10 -14 -10z" />
    <glyph glyph-name="x.sups" horiz-adv-x="412" 
d="M134 430h-97c-10 0 -13 7 -8 15l114 164l-107 152c-6 8 -2 15 8 15h97c7 0 11 -3 15 -9l51 -85l50 85c3 6 8 9 15 9h95c11 0 15 -7 9 -15l-107 -151l114 -165c5 -8 2 -15 -8 -15h-99c-6 0 -11 3 -15 9l-56 94l-56 -94c-3 -6 -8 -9 -15 -9z" />
    <glyph glyph-name="y.sups" horiz-adv-x="414" 
d="M209 301h-77c-10 0 -14 6 -11 14l33 94l-133 352c-3 9 1 15 10 15h89c7 0 12 -4 14 -11l69 -218l77 218c2 7 7 11 14 11h88c9 0 13 -6 10 -15l-168 -450c-3 -8 -8 -10 -15 -10z" />
    <glyph glyph-name="z.sups" horiz-adv-x="372" 
d="M325 430h-284c-8 0 -12 4 -12 13v53c0 6 2 11 6 15l161 166h-146c-8 0 -12 4 -12 13v73c0 8 4 13 12 13h282c8 0 13 -5 13 -13v-53c0 -6 -2 -11 -6 -15l-154 -166h140c8 0 13 -4 13 -13v-73c0 -9 -5 -13 -13 -13z" />
    <glyph glyph-name="zero.subs" horiz-adv-x="383" 
d="M322 68c0 -126 -55 -184 -140 -184c-86 0 -140 58 -140 184c0 124 54 183 140 183c85 0 140 -59 140 -183zM144 68c0 -64 13 -85 38 -85s38 21 38 85c0 63 -13 84 -38 84s-38 -21 -38 -84z" />
    <glyph glyph-name="one.subs" horiz-adv-x="272" 
d="M195 -108h-93c-6 0 -9 3 -9 9v217l-43 -17c-9 -3 -13 0 -15 6l-18 66c-2 6 1 12 7 14l169 63c7 3 11 -1 11 -8v-341c0 -6 -3 -9 -9 -9z" />
    <glyph glyph-name="two.subs" horiz-adv-x="315" 
d="M277 -108h-213c-16 0 -22 8 -22 20c0 9 4 16 11 25l84 94c24 28 31 49 31 70c0 32 -27 56 -62 56c-17 0 -33 -6 -44 -15c-6 -6 -12 -4 -14 2l-15 59c-1 7 -1 11 5 16c25 19 65 32 109 32c78 0 133 -49 133 -120c0 -36 -14 -68 -41 -101l-33 -40h71c6 0 9 -3 9 -9v-80
c0 -6 -3 -9 -9 -9z" />
    <glyph glyph-name="three.subs" horiz-adv-x="304" 
d="M284 2c0 -70 -66 -118 -162 -118c-32 0 -64 6 -86 15c-6 3 -8 8 -7 15l15 64c2 6 6 9 14 6c12 -4 29 -8 46 -8c44 0 72 13 72 35c0 18 -14 26 -37 26h-46c-6 0 -9 4 -9 10v59c0 6 3 10 9 10h46c20 0 31 8 31 21c0 19 -25 28 -59 28c-21 0 -43 -6 -55 -12
c-7 -3 -11 0 -12 7l-14 60c-1 6 1 12 7 14c24 10 62 17 94 17c85 0 140 -41 140 -99c0 -24 -10 -53 -33 -70c30 -18 46 -49 46 -80z" />
    <glyph glyph-name="four.subs" horiz-adv-x="369" 
d="M298 -108h-81c-6 0 -9 3 -9 9v53h-165c-11 0 -17 7 -14 21l75 262c2 5 6 8 11 8h84c6 0 10 -5 8 -11l-61 -205h62v112c0 6 3 10 9 10h81c6 0 9 -4 9 -10v-112h18c6 0 9 -4 9 -10v-56c0 -6 -3 -9 -9 -9h-18v-53c0 -6 -3 -9 -9 -9z" />
    <glyph glyph-name="five.subs" horiz-adv-x="325" 
d="M300 11c0 -78 -67 -127 -161 -127c-31 0 -65 8 -85 17c-6 2 -8 6 -6 13l12 65c1 7 4 10 11 7c15 -7 34 -11 56 -11c39 0 65 16 65 40c0 22 -19 39 -66 39c-22 0 -40 -4 -52 -8s-18 2 -17 11l30 179c1 6 5 9 10 9h182c6 0 9 -4 9 -10v-78c0 -6 -3 -9 -9 -9h-122l-6 -33
c9 2 19 3 31 3c70 0 118 -45 118 -107z" />
    <glyph glyph-name="six.subs" horiz-adv-x="347" 
d="M289 -82c-24 -21 -57 -34 -97 -34c-43 0 -79 15 -106 42c-30 28 -47 71 -47 126c0 68 22 116 54 148c35 35 83 51 130 51c40 0 64 -9 79 -16c5 -2 7 -6 6 -13l-11 -62c-1 -7 -6 -10 -13 -7c-13 4 -30 8 -51 8c-26 0 -52 -7 -68 -25c-11 -12 -18 -27 -21 -48l2 2
c13 15 39 27 71 27c34 0 62 -12 81 -31c20 -20 31 -47 31 -76c0 -37 -15 -69 -40 -92zM158 -20c8 -7 20 -11 31 -11c14 0 25 5 33 12c8 8 13 18 13 29c0 10 -4 20 -11 28c-8 8 -20 13 -35 13c-14 0 -27 -6 -36 -16c-5 -7 -8 -15 -8 -24c0 -14 5 -24 13 -31z" />
    <glyph glyph-name="seven.subs" horiz-adv-x="322" 
d="M181 -108h-95c-6 0 -9 5 -7 11l76 243h-106c-7 0 -10 3 -10 9v80c0 6 3 10 10 10h232c5 0 8 -2 8 -6v-2c0 -3 -1 -6 -3 -11l-94 -326c-2 -5 -5 -8 -11 -8z" />
    <glyph glyph-name="eight.subs" horiz-adv-x="340" 
d="M322 0c0 -67 -58 -116 -140 -116s-141 49 -141 116c0 33 18 63 47 82c-20 17 -32 40 -32 66c0 58 53 103 126 103s126 -45 126 -103c0 -26 -12 -49 -32 -66c29 -20 46 -49 46 -82zM146 143c0 -18 15 -29 36 -29s36 11 36 29s-15 29 -36 29s-36 -11 -36 -29zM140 4
c0 -21 17 -35 42 -35c24 0 42 14 42 35c0 20 -18 35 -42 35c-25 0 -42 -15 -42 -35z" />
    <glyph glyph-name="nine.subs" horiz-adv-x="347" 
d="M272 -64c-36 -36 -84 -52 -130 -52c-41 0 -64 9 -79 16c-5 2 -7 7 -6 13l10 61c1 8 6 10 14 8c14 -5 30 -8 50 -8c25 0 49 6 65 22c13 12 21 29 24 53c-2 -3 -5 -6 -8 -9c-14 -12 -37 -20 -65 -20c-36 0 -64 13 -84 32c-18 20 -28 46 -28 74c0 34 13 65 35 87
c24 24 59 38 102 38c38 0 72 -12 98 -34c34 -28 54 -74 54 -134c0 -67 -20 -115 -52 -147zM139 100c7 -9 19 -15 35 -15c13 0 25 5 34 13c6 7 11 16 11 27c0 14 -5 23 -12 30c-9 8 -21 11 -32 11c-16 0 -29 -6 -36 -15c-6 -7 -10 -16 -10 -25c0 -10 3 -19 10 -26z" />
    <glyph glyph-name="period.subs" horiz-adv-x="240" 
d="M120 -118c-39 0 -64 19 -64 53s25 52 64 52c40 0 64 -18 64 -52s-24 -53 -64 -53z" />
    <glyph glyph-name="comma.subs" horiz-adv-x="268" 
d="M108 -225c-13 0 -19 7 -18 21l11 179c1 13 9 19 21 19h73c14 0 21 -9 17 -23l-50 -179c-3 -11 -11 -17 -22 -17h-32z" />
    <glyph glyph-name="hyphen.subs" horiz-adv-x="314" 
d="M54 35v56c0 12 8 20 20 20h166c12 0 20 -8 20 -20v-56c0 -12 -8 -20 -20 -20h-166c-12 0 -20 8 -20 20z" />
    <glyph glyph-name="parenleft.subs" horiz-adv-x="269" 
d="M47 65c0 139 59 244 91 280c10 11 18 15 33 15h61c7 0 12 -10 7 -15c-36 -39 -88 -149 -88 -280c0 -132 53 -242 88 -281c5 -5 0 -15 -7 -15h-61c-15 0 -23 4 -33 15c-31 35 -91 141 -91 281z" />
    <glyph glyph-name="parenright.subs" horiz-adv-x="269" 
d="M98 360c15 0 23 -4 33 -15c32 -37 91 -141 91 -280c0 -140 -60 -246 -91 -281c-10 -11 -18 -15 -33 -15h-61c-7 0 -12 10 -7 15c35 39 88 149 88 281c0 131 -53 241 -88 280c-5 5 0 15 7 15h61z" />
    <glyph glyph-name="plus.subs" horiz-adv-x="355" 
d="M51 86v41c0 12 8 20 20 20h66v66c0 12 8 20 20 20h42c12 0 20 -8 20 -20v-66h65c12 0 20 -8 20 -20v-41c0 -12 -8 -20 -20 -20h-65v-66c0 -12 -8 -20 -20 -20h-42c-12 0 -20 8 -20 20v66h-66c-12 0 -20 8 -20 20z" />
    <glyph glyph-name="minus.subs" horiz-adv-x="355" 
d="M51 86v41c0 12 8 20 20 20h213c12 0 20 -8 20 -20v-41c0 -12 -8 -20 -20 -20h-213c-12 0 -20 8 -20 20z" />
    <glyph glyph-name="multiply.subs" horiz-adv-x="323" 
d="M84 4l-25 26c-9 10 -9 19 0 28l49 49l-49 49c-9 9 -9 19 0 28l25 25c9 9 19 9 28 0l49 -49l49 49c9 9 19 9 28 0l26 -25c9 -9 10 -18 0 -28l-49 -49l49 -49c9 -9 9 -19 0 -28l-26 -26c-9 -9 -19 -10 -28 0l-49 49l-49 -49c-10 -10 -19 -10 -28 0z" />
    <glyph glyph-name="equal.subs" horiz-adv-x="355" 
d="M51 141v38c0 12 8 20 20 20h213c12 0 20 -8 20 -20v-38c0 -12 -8 -20 -20 -20h-213c-12 0 -20 8 -20 20zM51 28v38c0 12 8 20 20 20h213c12 0 20 -8 20 -20v-38c0 -12 -8 -20 -20 -20h-213c-12 0 -20 8 -20 20z" />
    <glyph glyph-name="divide.subs" horiz-adv-x="355" 
d="M178 173c-35 0 -57 17 -57 47s22 47 57 47s56 -17 56 -47s-21 -47 -56 -47zM51 85v40c0 12 8 20 20 20h213c12 0 20 -8 20 -20v-40c0 -12 -8 -20 -20 -20h-213c-12 0 -20 8 -20 20zM178 -57c-35 0 -57 17 -57 46c0 31 22 47 57 47s56 -16 56 -47c0 -29 -21 -46 -56 -46z
" />
    <glyph glyph-name="a.subs" horiz-adv-x="449" 
d="M155 -114c-71 0 -116 39 -116 99c0 30 12 56 32 76c29 30 76 47 131 48c21 0 44 -3 66 -8v2c0 42 -30 63 -86 63c-32 0 -67 -10 -90 -19c-8 -3 -13 -2 -16 7l-18 52c-3 8 0 14 6 17c31 14 76 29 140 29c116 0 179 -56 179 -164v-104c0 -26 4 -56 9 -74
c3 -9 -4 -14 -12 -14h-72c-12 0 -17 3 -21 10s-9 20 -13 34c-24 -30 -69 -54 -119 -54zM144 -7c0 -21 15 -35 43 -35c41 0 82 30 82 69v13c-15 3 -29 5 -42 5c-32 0 -57 -9 -72 -24c-7 -8 -11 -17 -11 -28z" />
    <glyph glyph-name="b.subs" horiz-adv-x="474" 
d="M141 -104h-73c-9 0 -13 4 -13 13v451c0 7 4 12 11 14l83 13c8 2 13 -2 13 -11v-169c26 31 61 45 102 45c95 0 163 -78 163 -183c0 -103 -69 -183 -164 -183c-43 0 -82 18 -108 56l-1 -35c-1 -8 -6 -11 -13 -11zM155 69c0 -47 34 -84 81 -84c46 0 79 37 79 84
c0 49 -33 83 -79 83c-47 0 -81 -34 -81 -83z" />
    <glyph glyph-name="c.subs" horiz-adv-x="370" 
d="M363 -60c-33 -33 -79 -54 -134 -54c-109 0 -189 79 -189 184c0 102 80 182 189 182c54 0 100 -22 133 -54c6 -6 5 -12 0 -18l-48 -50c-5 -6 -11 -6 -17 0c-18 15 -36 24 -64 24c-48 0 -82 -37 -82 -84c0 -50 34 -86 82 -86c29 0 47 8 64 25c7 5 13 5 18 -1l48 -50
c6 -6 6 -12 0 -18z" />
    <glyph glyph-name="d.subs" horiz-adv-x="475" 
d="M395 -104h-74c-7 0 -11 3 -12 11l-1 31c-26 -35 -63 -52 -107 -52c-94 0 -161 79 -161 182c0 102 69 184 162 184c39 0 74 -15 99 -45v153c0 7 4 12 11 14l82 13c8 2 14 -2 14 -11v-467c0 -9 -5 -13 -13 -13zM151 68c0 -48 32 -84 78 -84s80 36 80 85c0 46 -34 85 -80 85
s-78 -39 -78 -86z" />
    <glyph glyph-name="e.subs" horiz-adv-x="435" 
d="M365 -88c-33 -19 -77 -26 -125 -26c-121 0 -200 75 -200 184c0 101 75 182 178 182c97 0 168 -68 168 -171c0 -10 0 -18 -1 -25c-1 -8 -6 -12 -13 -12h-225c11 -44 48 -66 107 -66c36 0 64 6 86 15c8 4 14 1 16 -7l15 -57c2 -7 1 -13 -6 -17zM218 162
c-38 0 -65 -24 -73 -62h141c-2 38 -30 62 -68 62z" />
    <glyph glyph-name="f.subs" horiz-adv-x="272" 
d="M179 -104h-92c-8 0 -13 4 -13 13v238h-39c-9 0 -13 5 -13 13v69c0 8 4 13 13 13h39v27c0 77 50 123 140 123c22 0 39 -2 52 -7c8 -2 10 -8 8 -15l-13 -57c-2 -7 -6 -10 -13 -9c-4 1 -8 1 -12 1c-31 0 -45 -15 -45 -41v-22h65c8 0 12 -5 12 -13v-69c0 -8 -4 -13 -12 -13
h-65v-238c0 -9 -4 -13 -12 -13z" />
    <glyph glyph-name="g.subs" horiz-adv-x="475" 
d="M412 -68c0 -104 -66 -171 -197 -171c-58 0 -111 17 -147 44c-5 4 -7 10 -4 17l21 60c3 8 9 10 17 5c25 -17 64 -29 101 -29c73 0 109 34 109 76v18c-26 -31 -63 -46 -105 -46c-96 0 -167 75 -167 170c0 99 70 176 165 176c45 0 84 -17 110 -51l1 30c0 8 6 11 13 11h71
c8 0 12 -5 12 -13v-297zM152 77c0 -44 33 -79 79 -79s80 35 80 79c0 47 -34 81 -80 81s-79 -34 -79 -81z" />
    <glyph glyph-name="h.subs" horiz-adv-x="489" 
d="M162 -104h-94c-9 0 -13 4 -13 13v451c0 7 4 12 11 13l89 14c8 2 13 -2 13 -11v-176c24 30 65 52 115 52c84 0 138 -54 138 -138v-205c0 -9 -4 -13 -12 -13h-94c-9 0 -13 4 -13 13v178c0 45 -22 71 -60 71c-40 0 -68 -30 -68 -76v-173c0 -9 -4 -13 -12 -13z" />
    <glyph glyph-name="i.subs" horiz-adv-x="241" 
d="M175 343c0 -35 -21 -55 -60 -55c-37 0 -60 20 -60 55c0 36 23 56 60 56c39 0 60 -20 60 -56zM160 -104h-90c-8 0 -12 4 -12 13v320c0 8 4 13 12 13h90c8 0 13 -5 13 -13v-320c0 -9 -5 -13 -13 -13z" />
    <glyph glyph-name="j.subs" horiz-adv-x="249" 
d="M189 343c0 -35 -22 -55 -60 -55c-37 0 -60 20 -60 55c0 36 23 56 60 56c38 0 60 -20 60 -56zM188 -70c0 -98 -61 -155 -123 -167c-7 -2 -12 2 -14 9l-20 77c-2 8 1 12 8 15c21 10 32 29 32 64v301c0 8 4 13 12 13h93c8 0 12 -5 12 -13v-299z" />
    <glyph glyph-name="k.subs" horiz-adv-x="450" 
d="M155 -104h-87c-9 0 -13 4 -13 13v451c0 7 4 12 11 13l88 14c8 2 13 -2 13 -11v-255h31l68 112c3 6 8 9 15 9h97c10 0 14 -6 9 -15l-89 -144l93 -172c4 -9 0 -15 -9 -15h-102c-7 0 -12 3 -15 9l-67 127h-31v-123c0 -9 -4 -13 -12 -13z" />
    <glyph glyph-name="l.subs" horiz-adv-x="251" 
d="M155 -104h-90c-8 0 -13 4 -13 13v450c0 8 5 12 12 14l90 14c8 2 14 -2 14 -11v-467c0 -9 -5 -13 -13 -13z" />
    <glyph glyph-name="m.subs" horiz-adv-x="716" 
d="M161 -104h-94c-8 0 -13 4 -13 13v320c0 8 5 13 13 13h85c8 0 13 -4 13 -11l1 -46c19 36 64 67 118 67s95 -26 115 -70c21 38 67 70 123 70c78 0 129 -52 129 -137v-206c0 -9 -5 -13 -13 -13h-94c-9 0 -13 4 -13 13v183c0 41 -20 66 -55 66c-40 0 -64 -29 -64 -73v-176
c0 -9 -4 -13 -12 -13h-95c-8 0 -12 4 -12 13v183c0 41 -21 66 -56 66c-39 0 -63 -29 -63 -73v-176c0 -9 -5 -13 -13 -13z" />
    <glyph glyph-name="n.subs" horiz-adv-x="488" 
d="M161 -104h-94c-8 0 -13 4 -13 13v320c0 8 5 13 13 13h85c7 0 13 -4 13 -12l1 -47c20 38 66 69 123 69c79 0 132 -52 132 -136v-207c0 -9 -5 -13 -13 -13h-94c-8 0 -13 4 -13 13v177c0 44 -22 71 -60 71c-39 0 -67 -30 -67 -76v-172c0 -9 -5 -13 -13 -13z" />
    <glyph glyph-name="o.subs" horiz-adv-x="467" 
d="M419 70c0 -105 -80 -184 -190 -184c-109 0 -189 79 -189 184c0 102 80 182 189 182c110 0 190 -80 190 -182zM151 70c0 -50 33 -86 78 -86c47 0 79 36 79 86c0 47 -32 84 -79 84c-45 0 -78 -37 -78 -84z" />
    <glyph glyph-name="p.subs" horiz-adv-x="475" 
d="M151 -233h-83c-9 0 -13 4 -13 12v450c0 8 4 13 13 13h73c8 0 13 -4 14 -11l1 -32c26 36 64 53 108 53c95 0 163 -78 163 -183c0 -103 -69 -183 -164 -183c-39 0 -74 15 -100 45v-152c0 -8 -4 -12 -12 -12zM155 69c0 -47 34 -84 81 -84c46 0 79 37 79 84
c0 49 -33 83 -79 83c-47 0 -81 -34 -81 -83z" />
    <glyph glyph-name="q.subs" horiz-adv-x="475" 
d="M400 -233h-84c-8 0 -12 4 -12 12v151c-25 -30 -60 -44 -100 -44c-94 0 -164 80 -164 183c0 104 68 183 163 183c44 0 83 -17 109 -54l1 33c0 7 6 11 13 11h74c8 0 12 -5 12 -13v-450c0 -8 -4 -12 -12 -12zM152 69c0 -48 33 -84 79 -84c47 0 81 36 81 83
c0 49 -34 84 -81 84c-46 0 -79 -35 -79 -83z" />
    <glyph glyph-name="r.subs" horiz-adv-x="332" 
d="M161 -104h-94c-8 0 -13 4 -13 13v320c0 8 5 13 13 13h78c7 0 13 -4 13 -12l1 -63c15 53 58 85 110 85c13 0 25 -3 35 -7c8 -2 10 -8 8 -15l-19 -81c-2 -9 -8 -11 -16 -9c-7 2 -14 3 -23 3c-45 0 -80 -27 -80 -83v-151c0 -9 -5 -13 -13 -13z" />
    <glyph glyph-name="s.subs" horiz-adv-x="350" 
d="M306 -1c0 -62 -55 -113 -150 -113c-44 0 -81 9 -104 24c-6 4 -7 10 -5 17l19 54c3 9 8 10 16 6c15 -7 36 -12 57 -12c38 0 54 16 54 31c0 13 -9 22 -32 32l-36 15c-49 20 -75 46 -75 92c0 61 57 107 148 107c35 0 67 -8 89 -20c7 -3 8 -9 6 -17l-19 -52
c-3 -8 -9 -10 -17 -7c-11 5 -24 8 -40 8c-31 0 -49 -11 -49 -27c0 -12 7 -18 27 -26l33 -14c54 -23 78 -49 78 -98z" />
    <glyph glyph-name="t.subs" horiz-adv-x="285" 
d="M251 -106c-13 -4 -32 -8 -51 -8c-82 0 -131 52 -131 139v122h-34c-8 0 -13 5 -13 13v69c0 8 5 13 13 13h34v68c0 7 4 12 11 13l90 18c8 2 14 -2 14 -11v-88h57c8 0 13 -5 13 -13v-69c0 -8 -5 -13 -13 -13h-57v-117c0 -26 13 -41 40 -41c4 0 9 0 14 1c6 1 10 -1 11 -7
l10 -73c1 -7 -1 -13 -8 -16z" />
    <glyph glyph-name="u.subs" horiz-adv-x="476" 
d="M411 59c0 -107 -66 -173 -181 -173c-113 0 -179 66 -179 174v169c0 8 5 13 13 13h92c9 0 13 -5 13 -13v-178c0 -42 20 -70 61 -70c44 0 63 28 63 70v178c0 8 4 13 12 13h93c8 0 13 -5 13 -13v-170z" />
    <glyph glyph-name="v.subs" horiz-adv-x="403" 
d="M259 -104h-103c-7 0 -12 3 -15 10l-119 321c-3 9 1 15 10 15h90c8 0 12 -4 15 -11l71 -230l71 230c2 7 7 11 14 11h90c9 0 13 -6 10 -15l-119 -321c-2 -7 -8 -10 -15 -10z" />
    <glyph glyph-name="w.subs" horiz-adv-x="605" 
d="M231 -104h-74c-7 0 -12 3 -14 10l-121 321c-3 9 1 15 10 15h86c7 0 13 -3 15 -10l69 -192l59 159c3 7 8 10 15 10h57c7 0 12 -3 15 -10l58 -160l69 193c2 7 7 10 14 10h86c9 0 13 -6 10 -15l-120 -321c-3 -7 -8 -10 -15 -10h-73c-7 0 -12 3 -15 10l-58 160l-59 -160
c-3 -7 -7 -10 -14 -10z" />
    <glyph glyph-name="x.subs" horiz-adv-x="406" 
d="M134 -104h-97c-10 0 -13 7 -8 15l114 164l-107 152c-6 8 -2 15 8 15h97c7 0 11 -3 15 -9l51 -85l50 85c3 6 8 9 15 9h95c11 0 15 -7 9 -15l-107 -151l114 -165c5 -8 2 -15 -8 -15h-99c-6 0 -11 3 -15 9l-56 94l-56 -94c-3 -6 -8 -9 -15 -9z" />
    <glyph glyph-name="y.subs" horiz-adv-x="403" 
d="M209 -233h-77c-10 0 -14 6 -11 14l33 94l-133 352c-3 9 1 15 10 15h89c7 0 12 -4 14 -11l69 -218l77 218c2 7 7 11 14 11h88c9 0 13 -6 10 -15l-168 -450c-3 -8 -8 -10 -15 -10z" />
    <glyph glyph-name="z.subs" horiz-adv-x="371" 
d="M325 -104h-284c-8 0 -12 4 -12 13v53c0 6 2 11 6 15l161 166h-146c-8 0 -12 4 -12 13v73c0 8 4 13 12 13h282c8 0 13 -5 13 -13v-53c0 -6 -2 -11 -6 -15l-154 -166h140c8 0 13 -4 13 -13v-73c0 -9 -5 -13 -13 -13z" />
    <glyph glyph-name="ampersand" unicode="&#x26;" horiz-adv-x="741" 
d="M570 11l-60 66c-74 -64 -157 -93 -239 -93c-85 0 -148 29 -187 73c-29 33 -44 74 -44 116c0 63 25 129 119 187l61 37l-8 9c-56 62 -76 116 -76 168c0 49 20 93 53 126c37 37 91 60 151 60c58 0 104 -20 136 -50c35 -33 53 -78 53 -124c0 -82 -52 -152 -136 -206
l121 -136c23 34 43 74 58 116c3 12 11 17 22 17h74c14 0 21 -9 17 -23c-27 -77 -60 -141 -98 -193l121 -136c11 -13 6 -25 -11 -25h-102c-10 0 -18 4 -25 11zM301 483l20 -23c55 35 88 67 88 117c0 19 -7 37 -20 50c-12 12 -30 20 -52 20s-42 -9 -57 -23
c-13 -14 -22 -33 -22 -55c0 -28 14 -53 43 -86zM184 126c19 -20 49 -34 90 -34c57 0 114 24 163 66l-146 161l-46 -28c-60 -36 -82 -70 -82 -108c0 -21 7 -41 21 -57z" />
    <glyph glyph-name="at" unicode="@" horiz-adv-x="1144" 
d="M670 -200c-35 -11 -76 -15 -119 -15c-291 0 -496 206 -496 479c0 287 236 496 519 496c285 0 515 -181 515 -468c0 -203 -109 -290 -209 -290c-81 0 -128 37 -146 90c-40 -57 -100 -90 -172 -90c-154 0 -272 114 -272 267c0 148 116 266 268 266c60 0 113 -22 153 -62v28
c0 13 7 20 20 20h74c13 0 20 -7 20 -20v-310c0 -48 24 -75 57 -75c38 0 84 49 84 170c0 227 -175 364 -392 364c-212 0 -397 -164 -397 -386c0 -209 151 -369 374 -369c41 0 82 5 113 13c14 3 22 -3 22 -17v-69c0 -11 -5 -19 -16 -22zM416 267c0 -91 60 -153 150 -153
s148 76 148 159c0 78 -56 140 -146 140c-89 0 -152 -63 -152 -146z" />
    <glyph glyph-name="ordfeminine" unicode="&#xaa;" horiz-adv-x="449" 
d="M155 420c-71 0 -116 39 -116 99c0 30 12 56 32 76c29 30 76 47 131 48c21 0 44 -3 66 -8v2c0 42 -30 63 -86 63c-32 0 -67 -10 -90 -19c-8 -3 -13 -2 -16 7l-18 52c-3 8 0 14 6 17c31 14 76 29 140 29c116 0 179 -56 179 -164v-104c0 -26 4 -56 9 -74
c3 -9 -4 -14 -12 -14h-72c-12 0 -17 3 -21 10s-9 20 -13 34c-24 -30 -69 -54 -119 -54zM144 527c0 -21 15 -35 43 -35c41 0 82 30 82 69v13c-15 3 -29 5 -42 5c-32 0 -57 -9 -72 -24c-7 -8 -11 -17 -11 -28zM361 186h-271c-11 0 -20 9 -20 20v83c0 11 9 20 20 20h271
c11 0 20 -9 20 -20v-83c0 -11 -9 -20 -20 -20z" />
    <glyph glyph-name="ordmasculine" unicode="&#xba;" horiz-adv-x="467" 
d="M419 604c0 -105 -80 -184 -190 -184c-109 0 -189 79 -189 184c0 102 80 182 189 182c110 0 190 -80 190 -182zM151 604c0 -50 33 -86 78 -86c47 0 79 36 79 86c0 47 -32 84 -79 84c-45 0 -78 -37 -78 -84zM366 189h-271c-11 0 -20 9 -20 20v83c0 11 9 20 20 20h271
c11 0 20 -9 20 -20v-83c0 -11 -9 -20 -20 -20z" />
    <glyph glyph-name="uni2116" unicode="&#x2116;" horiz-adv-x="1330" 
d="M1259 604c0 -105 -80 -184 -190 -184c-109 0 -189 79 -189 184c0 102 80 182 189 182c110 0 190 -80 190 -182zM193 0h-87c-13 0 -20 7 -20 20v710c0 13 7 20 20 20h45c10 0 18 -4 25 -11l450 -499v490c0 13 7 20 20 20h88c13 0 20 -7 20 -20v-710c0 -13 -7 -20 -20 -20
h-45c-10 0 -18 4 -25 11l-451 507v-498c0 -13 -7 -20 -20 -20zM991 604c0 -50 33 -86 78 -86c47 0 79 36 79 86c0 47 -32 84 -79 84c-45 0 -78 -37 -78 -84zM1201 179h-271c-11 0 -20 9 -20 20v83c0 11 9 20 20 20h271c11 0 20 -9 20 -20v-83c0 -11 -9 -20 -20 -20z" />
    <glyph glyph-name="guilsinglleft" unicode="&#x2039;" horiz-adv-x="323" 
d="M280 42h-75c-10 0 -18 3 -25 11l-149 178c-8 10 -8 18 0 28l149 179c6 8 15 11 25 11h75c17 0 22 -11 11 -25l-149 -178l150 -179c11 -14 5 -25 -12 -25z" />
    <glyph glyph-name="guilsinglright" unicode="&#x203a;" horiz-adv-x="323" 
d="M118 42h-75c-17 0 -23 11 -12 25l150 179l-149 178c-11 14 -6 25 11 25h75c10 0 19 -3 25 -11l149 -179c8 -10 8 -18 0 -28l-149 -178c-7 -8 -15 -11 -25 -11z" />
    <glyph glyph-name="guillemotleft" unicode="&#xab;" horiz-adv-x="548" 
d="M488 42h-75c-10 0 -18 3 -25 11l-149 178c-8 10 -8 18 0 28l149 179c6 8 15 11 25 11h75c17 0 22 -11 11 -25l-149 -178l150 -179c11 -14 5 -25 -12 -25zM280 42h-75c-10 0 -18 3 -25 11l-149 178c-8 10 -8 18 0 28l149 179c6 8 15 11 25 11h75c17 0 22 -11 11 -25
l-149 -178l150 -179c11 -14 5 -25 -12 -25z" />
    <glyph glyph-name="guillemotright" unicode="&#xbb;" horiz-adv-x="548" 
d="M326 42h-75c-17 0 -23 11 -12 25l150 179l-149 178c-11 14 -6 25 11 25h75c10 0 19 -3 25 -11l149 -179c8 -10 8 -18 0 -28l-149 -178c-7 -8 -15 -11 -25 -11zM118 42h-75c-17 0 -23 11 -12 25l150 179l-149 178c-11 14 -6 25 11 25h75c10 0 19 -3 25 -11l149 -179
c8 -10 8 -18 0 -28l-149 -178c-7 -8 -15 -11 -25 -11z" />
    <glyph glyph-name="hyphen" unicode="-" horiz-adv-x="451" 
d="M361 225h-271c-11 0 -20 9 -20 20v83c0 11 9 20 20 20h271c11 0 20 -9 20 -20v-83c0 -11 -9 -20 -20 -20z" />
    <glyph glyph-name="endash" unicode="&#x2013;" 
d="M564 225h-464c-13 0 -20 7 -20 20v83c0 13 7 20 20 20h464c13 0 20 -7 20 -20v-83c0 -13 -7 -20 -20 -20z" />
    <glyph glyph-name="emdash" unicode="&#x2014;" horiz-adv-x="1269" 
d="M1009 225h-749c-13 0 -20 7 -20 20v83c0 13 7 20 20 20h749c13 0 20 -7 20 -20v-83c0 -13 -7 -20 -20 -20z" />
    <glyph glyph-name="underscore" unicode="_" horiz-adv-x="526" 
d="M436 -123h-346c-13 0 -20 7 -20 20v83c0 13 7 20 20 20h346c13 0 20 -7 20 -20v-83c0 -13 -7 -20 -20 -20z" />
    <glyph glyph-name="bar" unicode="|" horiz-adv-x="474" 
d="M284 -205h-94c-13 0 -20 7 -20 20v915c0 13 7 20 20 20h94c13 0 20 -7 20 -20v-915c0 -13 -7 -20 -20 -20z" />
    <glyph glyph-name="brokenbar" unicode="&#xa6;" horiz-adv-x="475" 
d="M280 354h-85c-13 0 -20 7 -20 20l-5 356c0 13 7 20 20 20h95c13 0 20 -7 20 -20l-5 -356c0 -13 -7 -20 -20 -20zM285 -205h-95c-13 0 -20 7 -20 20l5 361c0 13 7 20 20 20h85c13 0 20 -7 20 -20l5 -361c0 -13 -7 -20 -20 -20z" />
    </font>
</defs>
</svg>
