<?xml version="1.0" standalone="no"?>
<!DOCTYPE svg PUBLIC "-//W3C//DTD SVG 1.1//EN" "http://www.w3.org/Graphics/SVG/1.1/DTD/svg11.dtd" >
<svg xmlns="http://www.w3.org/2000/svg" xmlns:xlink="http://www.w3.org/1999/xlink" version="1.1">
<metadata>
Created by FontForge 20170924 at Thu Nov 30 14:37:28 2017
 By www-data
Copyright c 2018 by Natura&#38;Co. All rights reserved.
</metadata>
<defs>
<font id="NaturaAndCo-Light" horiz-adv-x="699" >
  <font-face 
    font-family="NaturaAndCo"
    font-weight="300"
    font-stretch="normal"
    units-per-em="1000"
    panose-1="2 11 6 1 2 2 1 1 1 4"
    ascent="795"
    descent="-205"
    x-height="543"
    cap-height="750"
    bbox="-115 -244 1289 1061"
    underline-thickness="0"
    underline-position="0"
    stemh="45"
    stemv="42"
    unicode-range="U+0020-FB02"
  />
<missing-glyph horiz-adv-x="500" 
d="M50 -205v985h400v-985h-400zM100 -155h300v885h-300v-885z" />
    <glyph glyph-name="fi" unicode="fi" horiz-adv-x="586" 
d="M162 0h-26c-5 0 -8 3 -8 8v498h-116c-4 0 -8 3 -8 8v21c0 5 4 8 8 8h116v94c0 102 60 154 163 154c26 0 49 -3 67 -10c5 -2 6 -5 5 -10l-6 -18c-1 -5 -5 -8 -10 -6c-14 6 -32 8 -52 8c-80 0 -125 -38 -125 -118v-94h166c5 0 8 -3 8 -8v-21c0 -5 -3 -8 -8 -8h-166v-498
c0 -5 -3 -8 -8 -8zM492 729c0 -21 -11 -32 -31 -32s-31 11 -31 32s11 31 31 31s31 -10 31 -31zM473 0h-25c-5 0 -8 3 -8 8v527c0 5 3 8 8 8h25c5 0 9 -3 9 -8v-527c0 -5 -4 -8 -9 -8z" />
    <glyph glyph-name="fl" unicode="fl" horiz-adv-x="543" 
d="M162 0h-26c-5 0 -8 3 -8 8v498h-116c-4 0 -8 3 -8 8v21c0 5 4 8 8 8h116v94c0 102 60 154 163 154c26 0 49 -3 67 -10c5 -2 6 -5 5 -10l-6 -18c-1 -5 -5 -8 -10 -6c-14 6 -32 8 -52 8c-80 0 -125 -38 -125 -118v-94h166c5 0 8 -3 8 -8v-21c0 -5 -3 -8 -8 -8h-166v-498
c0 -5 -3 -8 -8 -8zM452 0h-26c-5 0 -8 3 -8 8v756c0 5 2 8 7 9l25 7c5 2 10 -1 10 -7v-765c0 -5 -4 -8 -8 -8z" />
    <glyph glyph-name="f_f" unicode="ff" horiz-adv-x="630" 
d="M477 0h-26c-5 0 -8 3 -8 8v498h-90c-5 0 -9 3 -9 8v21c0 5 4 8 9 8h90v94c0 102 60 154 163 154c26 0 49 -4 66 -10c6 -2 7 -5 6 -10l-6 -18c-2 -5 -5 -7 -11 -6c-14 5 -31 8 -51 8c-80 0 -125 -38 -125 -118v-94h166c5 0 8 -3 8 -8v-21c0 -5 -3 -8 -8 -8h-166v-498
c0 -5 -3 -8 -8 -8zM163 0h-26c-4 0 -8 3 -8 8v498h-115c-5 0 -8 3 -8 8v21c0 5 3 8 8 8h115v83c0 101 60 154 163 154c26 0 49 -4 67 -11c5 -2 7 -5 5 -10l-6 -17c-1 -6 -5 -8 -10 -6c-15 4 -32 7 -51 7c-80 0 -125 -38 -125 -118v-82h99c5 0 8 -3 8 -8v-21
c0 -5 -3 -8 -8 -8h-99v-498c0 -5 -4 -8 -9 -8z" />
    <glyph glyph-name="f_f_i" unicode="ffi" horiz-adv-x="944" 
d="M477 0h-26c-5 0 -8 3 -8 8v498h-95c-4 0 -8 3 -8 8v21c0 5 4 8 8 8h95v94c0 102 60 154 163 154c26 0 49 -4 66 -10c6 -2 7 -5 6 -10l-6 -18c-2 -5 -5 -7 -11 -6c-14 5 -31 8 -51 8c-80 0 -125 -38 -125 -118v-94h166c5 0 8 -3 8 -8v-21c0 -5 -3 -8 -8 -8h-166v-498
c0 -5 -3 -8 -8 -8zM163 0h-26c-4 0 -8 3 -8 8v498h-115c-5 0 -8 3 -8 8v21c0 5 3 8 8 8h115v83c0 101 60 154 163 154c26 0 49 -4 67 -11c5 -2 7 -5 5 -10l-6 -17c-1 -6 -5 -8 -10 -6c-15 4 -32 7 -51 7c-80 0 -125 -38 -125 -118v-82h106c5 0 8 -3 8 -8v-21
c0 -5 -3 -8 -8 -8h-106v-498c0 -5 -4 -8 -9 -8zM818 729c0 -21 -11 -32 -31 -32s-31 11 -31 32s11 31 31 31s31 -10 31 -31zM800 0h-26c-4 0 -8 3 -8 8v527c0 5 4 8 8 8h26c5 0 8 -3 8 -8v-527c0 -5 -3 -8 -8 -8z" />
    <glyph glyph-name="f_f_l" unicode="ffl" horiz-adv-x="894" 
d="M477 0h-26c-5 0 -8 3 -8 8v498h-86c-5 0 -9 3 -9 8v21c0 5 4 8 9 8h86v94c0 102 60 154 163 154c26 0 49 -4 66 -10c6 -2 7 -5 6 -10l-6 -18c-2 -5 -5 -7 -11 -6c-14 5 -31 8 -51 8c-80 0 -125 -38 -125 -118v-94h166c5 0 8 -3 8 -8v-21c0 -5 -3 -8 -8 -8h-166v-498
c0 -5 -3 -8 -8 -8zM774 0h-25c-5 0 -8 3 -8 8v756c0 5 2 8 7 9l25 7c5 2 10 -1 10 -7v-765c0 -5 -4 -8 -9 -8zM163 0h-26c-4 0 -8 3 -8 8v498h-115c-5 0 -8 3 -8 8v21c0 5 3 8 8 8h115v83c0 101 60 154 163 154c26 0 49 -4 67 -11c5 -2 7 -5 5 -10l-6 -17
c-1 -6 -5 -8 -10 -6c-15 4 -32 7 -51 7c-80 0 -125 -38 -125 -118v-82h94c5 0 8 -3 8 -8v-21c0 -5 -3 -8 -8 -8h-94v-498c0 -5 -4 -8 -9 -8z" />
    <glyph glyph-name="f_b" unicode="fb" horiz-adv-x="1047" 
d="M162 0h-26c-5 0 -8 3 -8 8v498h-116c-4 0 -8 3 -8 8v21c0 5 4 8 8 8h116v94c0 102 60 154 163 154c26 0 49 -3 67 -10c5 -2 6 -5 5 -10l-6 -18c-1 -5 -5 -8 -10 -6c-14 6 -32 8 -52 8c-80 0 -125 -38 -125 -118v-94h166c5 0 8 -3 8 -8v-21c0 -5 -3 -8 -8 -8h-166v-498
c0 -5 -3 -8 -8 -8zM470 0h-22c-5 0 -8 3 -8 8v757c0 4 2 7 7 8l23 7c5 2 10 -1 10 -7v-367c42 94 131 150 242 150c158 0 274 -117 274 -283s-116 -286 -274 -286c-112 0 -203 61 -245 160v-139c0 -5 -3 -8 -7 -8zM476 272c0 -145 104 -247 242 -247c136 0 237 102 237 248
s-101 245 -237 245c-138 0 -242 -99 -242 -246z" />
    <glyph glyph-name="f_f_b" unicode="ffb" horiz-adv-x="1356" 
d="M477 0h-26c-5 0 -8 3 -8 8v498h-96c-5 0 -8 3 -8 8v21c0 5 3 8 8 8h96v94c0 102 60 154 163 154c26 0 49 -4 66 -10c6 -2 7 -5 6 -10l-6 -18c-2 -5 -5 -7 -11 -6c-14 5 -31 8 -51 8c-80 0 -125 -38 -125 -118v-94h166c5 0 8 -3 8 -8v-21c0 -5 -3 -8 -8 -8h-166v-498
c0 -5 -3 -8 -8 -8zM762 0h-21c-5 0 -8 3 -8 8v757c0 4 2 7 6 8l24 7c5 2 9 -1 9 -7v-369c42 95 131 152 243 152c157 0 274 -117 274 -283s-117 -286 -274 -286c-112 0 -203 61 -245 160v-139c0 -5 -4 -8 -8 -8zM163 0h-26c-4 0 -8 3 -8 8v498h-115c-5 0 -8 3 -8 8v21
c0 5 3 8 8 8h115v83c0 101 60 154 163 154c26 0 49 -4 67 -11c5 -2 7 -5 5 -10l-6 -17c-1 -6 -5 -8 -10 -6c-15 4 -32 7 -51 7c-80 0 -125 -38 -125 -118v-82h112c5 0 8 -3 8 -8v-21c0 -5 -3 -8 -8 -8h-112v-498c0 -5 -4 -8 -9 -8zM769 272c0 -145 103 -247 241 -247
c137 0 238 102 238 248s-101 245 -238 245c-138 0 -241 -99 -241 -246z" />
    <glyph glyph-name="f_h" unicode="fh" horiz-adv-x="989" 
d="M162 0h-26c-5 0 -8 3 -8 8v498h-116c-4 0 -8 3 -8 8v21c0 5 4 8 8 8h116v94c0 102 60 154 163 154c26 0 49 -3 67 -10c5 -2 6 -5 5 -10l-6 -18c-1 -5 -5 -8 -10 -6c-14 6 -32 8 -52 8c-80 0 -125 -38 -125 -118v-94h166c5 0 8 -3 8 -8v-21c0 -5 -3 -8 -8 -8h-166v-498
c0 -5 -3 -8 -8 -8zM452 0h-26c-5 0 -8 3 -8 8v757c0 4 2 7 7 8l24 7c5 2 9 -1 9 -7v-382c24 88 102 165 222 165c141 0 232 -96 232 -256v-292c0 -5 -3 -8 -8 -8h-25c-5 0 -8 3 -8 8v285c0 140 -75 227 -197 227c-123 0 -214 -95 -214 -245v-267c0 -5 -4 -8 -8 -8z" />
    <glyph glyph-name="f_f_h" unicode="ffh" horiz-adv-x="1338" 
d="M477 0h-26c-5 0 -8 3 -8 8v498h-92c-5 0 -8 3 -8 8v21c0 5 3 8 8 8h92v94c0 102 60 154 163 154c26 0 49 -4 66 -10c6 -2 7 -5 6 -10l-6 -18c-2 -5 -5 -7 -11 -6c-14 5 -31 8 -51 8c-80 0 -125 -38 -125 -118v-94h166c5 0 8 -3 8 -8v-21c0 -5 -3 -8 -8 -8h-166v-498
c0 -5 -3 -8 -8 -8zM163 0h-26c-4 0 -8 3 -8 8v498h-115c-5 0 -8 3 -8 8v21c0 5 3 8 8 8h115v83c0 101 60 154 163 154c26 0 49 -4 67 -11c5 -2 7 -5 5 -10l-6 -17c-1 -6 -5 -8 -10 -6c-15 4 -32 7 -51 7c-80 0 -125 -38 -125 -118v-82h108c5 0 8 -3 8 -8v-21
c0 -5 -3 -8 -8 -8h-108v-498c0 -5 -4 -8 -9 -8zM774 0h-25c-5 0 -8 3 -8 8v755c0 5 2 7 7 9l24 7c5 1 9 -1 9 -7v-381c24 88 102 165 222 165c141 0 232 -96 232 -256v-292c0 -5 -3 -8 -8 -8h-25c-5 0 -8 3 -8 8v285c0 140 -75 227 -197 227c-123 0 -214 -95 -214 -245v-267
c0 -5 -4 -8 -9 -8z" />
    <glyph glyph-name="f_k" unicode="fk" horiz-adv-x="831" 
d="M162 0h-26c-5 0 -8 3 -8 8v498h-116c-4 0 -8 3 -8 8v21c0 5 4 8 8 8h116v94c0 102 60 154 163 154c26 0 49 -3 67 -10c5 -2 6 -5 5 -10l-6 -18c-1 -5 -5 -8 -10 -6c-14 6 -32 8 -52 8c-80 0 -125 -38 -125 -118v-94h166c5 0 8 -3 8 -8v-21c0 -5 -3 -8 -8 -8h-166v-498
c0 -5 -3 -8 -8 -8zM449 0h-23c-5 0 -8 3 -8 8v757c0 4 2 7 7 8l22 7c5 2 10 -1 10 -7v-453h69l235 219c3 3 6 4 10 4h28c7 0 10 -4 5 -10l-244 -229l262 -294c4 -6 2 -10 -5 -10h-30c-4 0 -8 2 -10 5l-251 279h-69v-276c0 -5 -3 -8 -8 -8z" />
    <glyph glyph-name="f_f_k" unicode="ffk" horiz-adv-x="1160" 
d="M477 0h-26c-5 0 -8 3 -8 8v498h-97c-5 0 -8 3 -8 8v21c0 5 3 8 8 8h97v94c0 102 60 154 163 154c26 0 49 -4 66 -10c6 -2 7 -5 6 -10l-6 -18c-2 -5 -5 -7 -11 -6c-14 5 -31 8 -51 8c-80 0 -125 -38 -125 -118v-94h166c5 0 8 -3 8 -8v-21c0 -5 -3 -8 -8 -8h-166v-498
c0 -5 -3 -8 -8 -8zM163 0h-26c-4 0 -8 3 -8 8v498h-115c-5 0 -8 3 -8 8v21c0 5 3 8 8 8h115v83c0 101 60 154 163 154c26 0 49 -4 67 -11c5 -2 7 -5 5 -10l-6 -17c-1 -6 -5 -8 -10 -6c-15 4 -32 7 -51 7c-80 0 -125 -38 -125 -118v-82h101c5 0 8 -3 8 -8v-21
c0 -5 -3 -8 -8 -8h-101v-498c0 -5 -4 -8 -9 -8zM771 0h-22c-5 0 -8 3 -8 8v755c0 5 2 7 6 9l23 7c5 1 9 -1 9 -7v-452h62l228 219c3 3 5 4 10 4h28c7 0 10 -4 5 -10l-237 -229l255 -294c4 -6 1 -10 -5 -10h-31c-4 0 -7 2 -10 5l-242 279h-63v-276c0 -5 -3 -8 -8 -8z" />
    <glyph glyph-name="f_j" unicode="fj" horiz-adv-x="630" 
d="M163 0h-26c-4 0 -8 3 -8 8v498h-115c-5 0 -8 3 -8 8v21c0 5 3 8 8 8h115v94c0 102 60 154 163 154c26 0 50 -3 67 -10c5 -2 7 -5 5 -10l-6 -18c-1 -5 -5 -8 -10 -6c-14 6 -32 8 -51 8c-80 0 -125 -38 -125 -118v-94h165c5 0 9 -3 9 -8v-21c0 -5 -4 -8 -9 -8h-165v-498
c0 -5 -4 -8 -9 -8zM505 729c0 -21 -11 -32 -31 -32s-32 11 -32 32s12 31 32 31s31 -10 31 -31zM494 -33c0 -111 -50 -162 -109 -181c-6 -2 -9 0 -11 5l-7 22c-1 6 1 8 6 10c46 17 80 55 80 145v567c0 5 3 8 8 8h25c5 0 8 -3 8 -8v-568z" />
    <glyph glyph-name="f_f_j" unicode="ffj" horiz-adv-x="943" 
d="M477 0h-26c-5 0 -8 3 -8 8v498h-91c-5 0 -9 3 -9 8v21c0 5 4 8 9 8h91v94c0 102 60 154 163 154c26 0 49 -4 66 -10c6 -2 7 -5 6 -10l-6 -18c-2 -5 -5 -7 -11 -6c-14 5 -31 8 -51 8c-80 0 -125 -38 -125 -118v-94h166c5 0 8 -3 8 -8v-21c0 -5 -3 -8 -8 -8h-166v-498
c0 -5 -3 -8 -8 -8zM163 0h-26c-4 0 -8 3 -8 8v498h-115c-5 0 -8 3 -8 8v21c0 5 3 8 8 8h115v83c0 101 60 154 163 154c26 0 49 -4 67 -11c5 -2 7 -5 5 -10l-6 -17c-1 -6 -5 -8 -10 -6c-15 4 -32 7 -51 7c-80 0 -125 -38 -125 -118v-82h108c5 0 9 -3 9 -8v-21
c0 -5 -4 -8 -9 -8h-108v-498c0 -5 -4 -8 -9 -8zM818 729c0 -21 -10 -32 -31 -32c-20 0 -31 11 -31 32s11 31 31 31c21 0 31 -10 31 -31zM808 -33c0 -111 -50 -161 -110 -181c-5 -2 -9 0 -10 5l-7 22c-1 6 0 8 6 10c45 17 79 55 79 145v567c0 5 4 8 8 8h26c5 0 8 -3 8 -8
v-568z" />
    <glyph glyph-name="f_idieresis" unicode="f&#xef;" horiz-adv-x="628" 
d="M163 0h-26c-4 0 -8 3 -8 8v498h-115c-5 0 -8 3 -8 8v21c0 5 3 8 8 8h115v81c0 108 72 159 179 159c50 0 89 -16 112 -30c3 -1 7 -5 5 -11l-6 -19c-2 -6 -5 -9 -11 -6c-17 13 -52 29 -96 29c-87 0 -140 -39 -140 -125v-78h165c5 0 9 -3 9 -8v-21c0 -5 -4 -8 -9 -8h-165
v-498c0 -5 -4 -8 -9 -8zM582 729c0 -21 -11 -32 -31 -32s-32 11 -32 32s12 31 32 31s31 -10 31 -31zM486 0h-25c-5 0 -8 3 -8 8v527c0 5 3 8 8 8h25c5 0 8 -3 8 -8v-527c0 -5 -3 -8 -8 -8z" />
    <glyph glyph-name=".notdef" horiz-adv-x="500" 
d="M50 -205v985h400v-985h-400zM100 -155h300v885h-300v-885z" />
    <glyph glyph-name="space" unicode=" " horiz-adv-x="243" 
 />
    <glyph glyph-name="A" unicode="A" horiz-adv-x="717" 
d="M75 0h-32c-6 0 -8 5 -6 10l299 741c2 5 5 6 9 6h27c4 0 7 -1 9 -6l299 -741c2 -5 0 -10 -6 -10h-32c-4 0 -7 1 -9 6l-100 253h-349l-100 -253c-2 -5 -5 -6 -9 -6zM199 297h319l-159 403z" />
    <glyph glyph-name="B" unicode="B" horiz-adv-x="664" 
d="M365 0h-273c-5 0 -8 3 -8 8v734c0 5 3 8 8 8h252c139 0 203 -78 203 -171c0 -66 -36 -131 -109 -155c114 -20 178 -104 178 -206c0 -116 -78 -218 -251 -218zM344 711h-219v-276h221c112 0 159 68 159 140c0 71 -47 136 -161 136zM368 397h-243v-358h239
c146 0 210 86 210 179c0 94 -58 179 -206 179z" />
    <glyph glyph-name="C" unicode="C" horiz-adv-x="799" 
d="M756 156c-69 -102 -185 -169 -322 -169c-221 0 -391 172 -391 390c0 216 170 384 391 384c135 0 251 -64 321 -163c3 -4 3 -7 -1 -11l-17 -16c-4 -4 -8 -3 -11 1c-62 90 -167 150 -292 150c-197 0 -348 -152 -348 -345c0 -196 151 -350 348 -350c125 0 231 61 294 154
c2 5 7 5 11 2l16 -16c3 -4 4 -7 1 -11z" />
    <glyph glyph-name="D" unicode="D" horiz-adv-x="752" 
d="M328 0h-236c-5 0 -8 3 -8 8v734c0 5 3 8 8 8h235c249 0 382 -152 382 -375c0 -224 -134 -375 -381 -375zM326 711h-201v-672h202c234 0 339 145 339 336c0 189 -105 336 -340 336z" />
    <glyph glyph-name="E" unicode="E" horiz-adv-x="605" 
d="M546 0h-454c-5 0 -8 3 -8 8v734c0 5 3 8 8 8h441c5 0 8 -3 8 -8v-24c0 -4 -3 -8 -8 -8h-408v-286h385c5 0 8 -4 8 -8v-24c0 -5 -3 -8 -8 -8h-385v-344h421c5 0 8 -4 8 -8v-24c0 -5 -3 -8 -8 -8z" />
    <glyph glyph-name="F" unicode="F" horiz-adv-x="549" 
d="M118 0h-26c-5 0 -8 3 -8 8v734c0 5 3 8 8 8h404c5 0 8 -3 8 -8v-24c0 -4 -3 -8 -8 -8h-370v-286h347c5 0 9 -4 9 -8v-24c0 -5 -4 -8 -9 -8h-347v-376c0 -5 -3 -8 -8 -8z" />
    <glyph glyph-name="G" unicode="G" horiz-adv-x="846" 
d="M777 0h-24c-5 0 -8 3 -8 8v181c-43 -117 -160 -202 -316 -202c-221 0 -386 167 -386 388s170 386 387 386c205 0 313 -129 349 -254c2 -6 1 -9 -3 -12l-19 -12c-5 -2 -9 0 -11 5c-35 117 -130 234 -315 234c-194 0 -345 -147 -345 -347s147 -348 348 -348
c187 0 311 126 311 276v30h-326c-5 0 -8 4 -8 9v21c0 5 3 8 8 8h358c5 0 8 -3 8 -8v-355c0 -5 -3 -8 -8 -8z" />
    <glyph glyph-name="H" unicode="H" horiz-adv-x="802" 
d="M118 0h-26c-5 0 -8 3 -8 8v734c0 5 3 8 8 8h26c5 0 8 -3 8 -8v-320h550v320c0 5 3 8 8 8h26c5 0 8 -3 8 -8v-734c0 -5 -3 -8 -8 -8h-26c-5 0 -8 3 -8 8v374h-550v-374c0 -5 -3 -8 -8 -8z" />
    <glyph glyph-name="I" unicode="I" horiz-adv-x="222" 
d="M124 0h-26c-5 0 -8 3 -8 8v734c0 5 3 8 8 8h26c5 0 8 -3 8 -8v-734c0 -5 -3 -8 -8 -8z" />
    <glyph glyph-name="J" unicode="J" horiz-adv-x="446" 
d="M370 233c0 -158 -86 -246 -220 -246c-44 0 -85 10 -118 27c-4 2 -6 5 -4 10l5 22c2 5 5 7 10 5c28 -16 64 -24 103 -24c115 0 182 78 182 207v508c0 5 3 8 8 8h26c5 0 8 -3 8 -8v-509z" />
    <glyph glyph-name="K" unicode="K" horiz-adv-x="608" 
d="M118 0h-26c-5 0 -8 3 -8 8v734c0 5 3 8 8 8h26c5 0 8 -3 8 -8v-318h97l300 322c2 3 6 4 10 4h32c7 0 9 -5 4 -10l-309 -334l322 -396c5 -5 2 -10 -4 -10h-34c-4 0 -7 1 -10 4l-309 380h-99v-376c0 -5 -3 -8 -8 -8z" />
    <glyph glyph-name="L" unicode="L" horiz-adv-x="549" 
d="M503 0h-411c-5 0 -8 3 -8 8v734c0 5 3 8 8 8h26c5 0 8 -3 8 -8v-702h377c5 0 8 -4 8 -8v-24c0 -5 -3 -8 -8 -8z" />
    <glyph glyph-name="M" unicode="M" horiz-adv-x="1002" 
d="M85 0h-26c-5 0 -8 3 -8 9l128 737c1 6 5 8 9 8h20c4 0 7 -2 9 -6l285 -618l283 618c2 4 5 6 9 6h20c4 0 9 -2 9 -8l128 -737c0 -6 -3 -9 -8 -9h-26c-4 0 -9 2 -9 8l-113 665l-273 -595c-2 -5 -5 -7 -9 -7h-22c-4 0 -7 2 -9 7l-274 595l-114 -665c0 -6 -5 -8 -9 -8z" />
    <glyph glyph-name="N" unicode="N" horiz-adv-x="780" 
d="M117 0h-25c-5 0 -8 3 -8 8v737c0 5 3 8 8 8h15c4 0 7 -1 11 -6l536 -669v664c0 5 3 8 8 8h26c5 0 8 -3 8 -8v-736c0 -5 -3 -8 -8 -8h-15c-4 0 -7 1 -10 4l-537 674v-668c0 -5 -4 -8 -9 -8z" />
    <glyph glyph-name="O" unicode="O" horiz-adv-x="867" 
d="M824 377c0 -218 -168 -390 -390 -390c-221 0 -391 172 -391 390c0 216 170 384 391 384c222 0 390 -168 390 -384zM86 377c0 -196 151 -350 348 -350c196 0 348 154 348 350c0 193 -152 345 -348 345c-197 0 -348 -152 -348 -345z" />
    <glyph glyph-name="P" unicode="P" horiz-adv-x="657" 
d="M118 0h-26c-5 0 -8 3 -8 8v734c0 5 3 8 8 8h279c167 0 251 -92 251 -214c0 -123 -83 -217 -250 -217h-246v-311c0 -5 -3 -8 -8 -8zM372 711h-246v-353h245c146 0 207 80 207 178c0 96 -61 175 -206 175z" />
    <glyph glyph-name="Q" unicode="Q" horiz-adv-x="873" 
d="M833 7c-2 -4 -7 -5 -11 -2l-115 91c-70 -68 -165 -109 -273 -109c-221 0 -391 172 -391 390c0 216 170 384 391 384c222 0 390 -168 390 -384c0 -97 -34 -186 -91 -254l111 -88c4 -2 4 -7 1 -11zM86 377c0 -196 151 -350 348 -350c94 0 178 36 240 94l-237 187
c-4 3 -4 7 -1 11l12 19c2 4 7 4 11 2l241 -191c51 61 82 140 82 228c0 193 -152 345 -348 345c-197 0 -348 -152 -348 -345z" />
    <glyph glyph-name="R" unicode="R" horiz-adv-x="700" 
d="M118 0h-26c-5 0 -8 3 -8 8v734c0 5 3 8 8 8h303c167 0 250 -91 250 -213c0 -100 -55 -181 -166 -207l145 -320c2 -5 0 -10 -6 -10h-30c-4 0 -7 2 -9 6l-143 317c-13 -1 -26 -2 -40 -2h-270v-313c0 -5 -3 -8 -8 -8zM395 711h-269v-351h269c145 0 207 80 207 177
c0 95 -62 174 -207 174z" />
    <glyph glyph-name="S" unicode="S" horiz-adv-x="518" 
d="M476 191c0 -114 -89 -204 -245 -204c-69 0 -136 19 -174 45c-4 2 -5 6 -3 11l7 19c3 6 7 7 12 3c31 -20 95 -39 155 -39c133 0 206 71 206 164c0 71 -45 125 -126 168l-95 51c-81 42 -135 90 -135 171c0 103 93 181 237 181c53 0 107 -15 136 -29c4 -2 4 -6 2 -12l-8 -19
c-2 -5 -6 -6 -11 -4c-25 13 -74 26 -118 26c-119 0 -195 -62 -195 -143c0 -65 47 -101 113 -137l95 -51c93 -48 147 -114 147 -201z" />
    <glyph glyph-name="T" unicode="T" horiz-adv-x="612" 
d="M319 0h-26c-5 0 -9 3 -9 8v702h-247c-5 0 -8 4 -8 8v24c0 5 3 8 8 8h538c5 0 8 -3 8 -8v-24c0 -4 -3 -8 -8 -8h-248v-702c0 -5 -4 -8 -8 -8z" />
    <glyph glyph-name="U" unicode="U" horiz-adv-x="782" 
d="M706 319c0 -208 -124 -332 -315 -332s-315 124 -315 332v423c0 5 4 8 8 8h26c5 0 9 -3 9 -8v-425c0 -178 103 -290 272 -290s272 112 272 290v425c0 5 4 8 8 8h26c5 0 9 -3 9 -8v-423z" />
    <glyph glyph-name="V" unicode="V" horiz-adv-x="703" 
d="M365 -9h-27c-4 0 -7 2 -9 6l-300 743c-2 5 1 10 7 10h31c4 0 7 -2 9 -6l276 -697l276 697c2 4 5 6 9 6h31c6 0 8 -5 6 -10l-300 -743c-2 -4 -5 -6 -9 -6z" />
    <glyph glyph-name="W" unicode="W" horiz-adv-x="1150" 
d="M363 -9h-22c-4 0 -7 2 -9 6l-303 743c-2 5 0 10 6 10h31c4 0 7 -2 8 -6l276 -690l206 561c1 5 4 6 8 6h27c4 0 7 -1 8 -6l201 -561l276 690c2 4 5 6 9 6h29c6 0 9 -5 6 -10l-302 -743c-2 -4 -5 -6 -9 -6h-22c-4 0 -7 1 -9 6l-201 558l-205 -558c-2 -5 -5 -6 -9 -6z" />
    <glyph glyph-name="X" unicode="X" horiz-adv-x="722" 
d="M78 0h-33c-7 0 -9 5 -5 10l294 376l-277 354c-4 5 -2 10 4 10h33c4 0 7 -1 10 -5l257 -329l257 329c3 4 6 5 10 5h33c7 0 9 -5 5 -10l-279 -354l295 -376c4 -5 2 -10 -4 -10h-33c-4 0 -8 1 -10 5l-274 352l-273 -352c-3 -4 -6 -5 -10 -5z" />
    <glyph glyph-name="Y" unicode="Y" horiz-adv-x="698" 
d="M362 0h-26c-5 0 -9 3 -9 8v221l-298 511c-3 5 0 10 6 10h30c4 0 8 -2 10 -6l274 -470l275 470c2 4 6 6 10 6h29c6 0 9 -5 6 -10l-299 -511v-221c0 -5 -3 -8 -8 -8z" />
    <glyph glyph-name="Z" unicode="Z" horiz-adv-x="620" 
d="M577 0h-525c-5 0 -9 3 -9 8v21c0 4 2 7 4 10l467 671h-439c-5 0 -8 4 -8 8v24c0 5 3 8 8 8h485c5 0 8 -3 8 -8v-21c0 -4 -1 -7 -4 -10l-466 -671h479c4 0 8 -4 8 -8v-24c0 -5 -4 -8 -8 -8z" />
    <glyph glyph-name="Agrave" unicode="&#xc0;" horiz-adv-x="717" 
d="M475 820c-1 -5 -5 -8 -11 -6l-277 93c-5 1 -7 4 -7 10l4 19c1 6 5 8 10 7l278 -96c5 -1 7 -4 6 -10zM75 0h-32c-6 0 -8 5 -6 10l299 741c2 5 5 6 9 6h27c4 0 7 -1 9 -6l299 -741c2 -5 0 -10 -6 -10h-32c-4 0 -7 1 -9 6l-100 253h-349l-100 -253c-2 -5 -5 -6 -9 -6z
M199 297h319l-159 403z" />
    <glyph glyph-name="Aacute" unicode="&#xc1;" horiz-adv-x="717" 
d="M565 909l-277 -93c-6 -2 -10 1 -11 6l-3 17c-1 6 1 9 6 10l278 95c6 2 9 0 10 -6l4 -19c1 -6 -2 -9 -7 -10zM75 0h-32c-6 0 -8 5 -6 10l299 741c2 5 5 6 9 6h27c4 0 7 -1 9 -6l299 -741c2 -5 0 -10 -6 -10h-32c-4 0 -7 1 -9 6l-100 253h-349l-100 -253c-2 -5 -5 -6 -9 -6
zM199 297h319l-159 403z" />
    <glyph glyph-name="Acircumflex" unicode="&#xc2;" horiz-adv-x="717" 
d="M240 822c-8 -3 -12 -1 -15 4l-6 13c-2 5 -1 9 3 12l133 101c2 2 5 3 8 3c2 0 5 -2 8 -3l130 -101c4 -3 6 -7 4 -12l-7 -13c-3 -5 -7 -7 -15 -3l-121 89zM75 0h-32c-6 0 -8 5 -6 10l299 741c2 5 5 6 9 6h27c4 0 7 -1 9 -6l299 -741c2 -5 0 -10 -6 -10h-32c-4 0 -7 1 -9 6
l-100 253h-349l-100 -253c-2 -5 -5 -6 -9 -6zM199 297h319l-159 403z" />
    <glyph glyph-name="Atilde" unicode="&#xc3;" horiz-adv-x="717" 
d="M484 857c-13 -7 -30 -12 -50 -12c-30 0 -52 8 -74 16s-44 16 -74 16c-24 0 -42 -5 -55 -12c-11 -5 -18 -11 -21 -15c-5 -3 -9 -1 -9 5v25c0 3 1 7 4 10c3 2 10 9 22 14c14 7 33 13 59 13c31 0 55 -8 78 -17c20 -7 42 -15 70 -15c19 0 34 5 47 11c13 7 22 16 26 21
c6 4 9 2 9 -4v-25c0 -3 0 -7 -3 -10c-4 -4 -14 -13 -29 -21zM75 0h-32c-6 0 -8 5 -6 10l299 741c2 5 5 6 9 6h27c4 0 7 -1 9 -6l299 -741c2 -5 0 -10 -6 -10h-32c-4 0 -7 1 -9 6l-100 253h-349l-100 -253c-2 -5 -5 -6 -9 -6zM199 297h319l-159 403z" />
    <glyph glyph-name="Adieresis" unicode="&#xc4;" horiz-adv-x="717" 
d="M477 910c0 -21 -11 -31 -31 -31s-31 10 -31 31s11 32 31 32s31 -11 31 -32zM308 910c0 -21 -11 -31 -31 -31s-32 10 -32 31s12 32 32 32s31 -11 31 -32zM75 0h-32c-6 0 -8 5 -6 10l299 741c2 5 5 6 9 6h27c4 0 7 -1 9 -6l299 -741c2 -5 0 -10 -6 -10h-32c-4 0 -7 1 -9 6
l-100 253h-349l-100 -253c-2 -5 -5 -6 -9 -6zM199 297h319l-159 403z" />
    <glyph glyph-name="Amacron" unicode="&#x100;" horiz-adv-x="717" 
d="M510 882h-301c-5 0 -8 3 -8 8v21c0 4 3 8 8 8h301c5 0 8 -4 8 -8v-21c0 -5 -3 -8 -8 -8zM75 0h-32c-6 0 -8 5 -6 10l299 741c2 5 5 6 9 6h27c4 0 7 -1 9 -6l299 -741c2 -5 0 -10 -6 -10h-32c-4 0 -7 1 -9 6l-100 253h-349l-100 -253c-2 -5 -5 -6 -9 -6zM199 297h319
l-159 403z" />
    <glyph glyph-name="Abreve" unicode="&#x102;" horiz-adv-x="717" 
d="M369 813h-20c-76 0 -129 43 -129 113v4c0 4 3 6 7 6h23c4 0 7 -2 7 -7v-3c0 -52 41 -83 94 -83h15c53 0 95 31 95 83v3c0 5 3 7 8 7h22c5 0 7 -2 7 -6v-4c0 -70 -53 -113 -129 -113zM75 0h-32c-6 0 -8 5 -6 10l299 741c2 5 5 6 9 6h27c4 0 7 -1 9 -6l299 -741
c2 -5 0 -10 -6 -10h-32c-4 0 -7 1 -9 6l-100 253h-349l-100 -253c-2 -5 -5 -6 -9 -6zM199 297h319l-159 403z" />
    <glyph glyph-name="Aring" unicode="&#xc5;" horiz-adv-x="717" 
d="M464 890c0 -56 -43 -88 -105 -88c-63 0 -104 32 -104 88c0 54 42 86 104 86s105 -32 105 -86zM281 889c0 -40 30 -62 78 -62s79 22 79 62c0 42 -31 62 -79 62s-78 -20 -78 -62zM75 0h-32c-6 0 -8 5 -6 10l299 741c2 5 5 6 9 6h27c4 0 7 -1 9 -6l299 -741
c2 -5 0 -10 -6 -10h-32c-4 0 -7 1 -9 6l-100 253h-349l-100 -253c-2 -5 -5 -6 -9 -6zM199 297h319l-159 403z" />
    <glyph glyph-name="Aringacute" unicode="&#x1fa;" horiz-adv-x="717" 
d="M464 890c0 -56 -43 -88 -105 -88c-63 0 -104 32 -104 88c0 54 42 86 104 86h2l59 79c3 4 6 6 11 6h33c6 0 8 -4 4 -9l-74 -80c43 -10 70 -39 70 -82zM281 889c0 -40 30 -62 78 -62s79 22 79 62c0 42 -31 62 -79 62s-78 -20 -78 -62zM75 0h-32c-6 0 -8 5 -6 10l299 741
c2 5 5 6 9 6h27c4 0 7 -1 9 -6l299 -741c2 -5 0 -10 -6 -10h-32c-4 0 -7 1 -9 6l-100 253h-349l-100 -253c-2 -5 -5 -6 -9 -6zM199 297h319l-159 403z" />
    <glyph glyph-name="Aogonek" unicode="&#x104;" horiz-adv-x="717" 
d="M75 0h-32c-6 0 -8 5 -6 10l299 741c2 5 5 6 9 6h27c4 0 7 -1 9 -6l299 -741c2 -5 0 -10 -6 -10c-33 -8 -114 -32 -153 -73c-15 -16 -25 -33 -25 -54c0 -36 34 -55 81 -55c19 0 44 6 60 12c6 2 8 1 8 -5v-18c0 -5 -3 -8 -8 -11c-11 -4 -44 -12 -67 -12
c-67 0 -113 28 -113 80c0 28 12 51 32 71c41 42 108 65 142 75l-98 249h-349l-100 -253c-2 -5 -5 -6 -9 -6zM199 297h319l-159 403z" />
    <glyph glyph-name="AE" unicode="&#xc6;" horiz-adv-x="950" 
d="M43 0c-6 0 -8 5 -6 10l299 734c2 4 5 6 10 6h533c5 0 7 -3 7 -7v-26c0 -5 -2 -8 -7 -8h-486l117 -285h346c5 0 7 -2 7 -7v-26c0 -5 -2 -8 -7 -8h-330l141 -342h225c5 0 7 -3 7 -8v-26c0 -4 -2 -7 -7 -7h-250c-5 0 -8 3 -9 7l-102 252h-345l-102 -253c-2 -4 -5 -6 -9 -6
h-32zM358 693l-158 -396h317z" />
    <glyph glyph-name="AEacute" unicode="&#x1fc;" horiz-adv-x="950" 
d="M788 894l-277 -88c-6 -1 -8 2 -10 7l-2 19c-2 5 2 8 7 9l278 89c5 2 8 -1 9 -6l3 -20c1 -6 -3 -9 -8 -10zM43 0c-6 0 -8 5 -6 10l299 734c2 4 5 6 10 6h533c5 0 7 -3 7 -7v-26c0 -5 -2 -8 -7 -8h-486l117 -285h346c5 0 7 -2 7 -7v-26c0 -5 -2 -8 -7 -8h-330l141 -342h225
c5 0 7 -3 7 -8v-26c0 -4 -2 -7 -7 -7h-250c-5 0 -8 3 -9 7l-102 252h-345l-102 -253c-2 -4 -5 -6 -9 -6h-32zM358 693l-158 -396h317z" />
    <glyph glyph-name="Cacute" unicode="&#x106;" horiz-adv-x="795" 
d="M611 909l-277 -93c-6 -2 -10 1 -11 6l-3 17c-1 6 1 9 6 10l278 95c6 2 9 0 10 -6l4 -19c1 -6 -2 -9 -7 -10zM756 156c-69 -102 -185 -169 -322 -169c-221 0 -391 172 -391 390c0 216 170 384 391 384c135 0 251 -64 321 -163c3 -4 3 -7 -1 -11l-17 -16c-4 -4 -8 -3 -11 1
c-62 90 -167 150 -292 150c-197 0 -348 -152 -348 -345c0 -196 151 -350 348 -350c125 0 231 61 294 154c2 5 7 5 11 2l16 -16c3 -4 4 -7 1 -11z" />
    <glyph glyph-name="Ccircumflex" unicode="&#x108;" horiz-adv-x="799" 
d="M314 822c-8 -3 -12 -1 -15 4l-6 13c-2 5 -1 9 3 12l133 101c2 2 5 3 8 3c2 0 5 -2 8 -3l130 -101c4 -3 6 -7 4 -12l-7 -13c-3 -5 -7 -7 -15 -3l-121 89zM756 156c-69 -102 -185 -169 -322 -169c-221 0 -391 172 -391 390c0 216 170 384 391 384c135 0 251 -64 321 -163
c3 -4 3 -7 -1 -11l-17 -16c-4 -4 -8 -3 -11 1c-62 90 -167 150 -292 150c-197 0 -348 -152 -348 -345c0 -196 151 -350 348 -350c125 0 231 61 294 154c2 5 7 5 11 2l16 -16c3 -4 4 -7 1 -11z" />
    <glyph glyph-name="Ccaron" unicode="&#x10c;" horiz-adv-x="795" 
d="M441 813c-3 -2 -6 -4 -8 -4c-3 0 -6 2 -8 4l-133 101c-4 2 -5 7 -3 12l6 14c2 4 5 7 13 4l124 -92l123 91c7 3 11 1 13 -3l7 -14c2 -5 0 -10 -4 -12zM756 156c-69 -102 -185 -169 -322 -169c-221 0 -391 172 -391 390c0 216 170 384 391 384c135 0 251 -64 321 -163
c3 -4 3 -7 -1 -11l-17 -16c-4 -4 -8 -3 -11 1c-62 90 -167 150 -292 150c-197 0 -348 -152 -348 -345c0 -196 151 -350 348 -350c125 0 231 61 294 154c2 5 7 5 11 2l16 -16c3 -4 4 -7 1 -11z" />
    <glyph glyph-name="Cdotaccent" unicode="&#x10a;" horiz-adv-x="795" 
d="M460 918c0 -20 -10 -31 -31 -31c-20 0 -31 11 -31 31c0 22 11 32 31 32c21 0 31 -10 31 -32zM756 156c-69 -102 -185 -169 -322 -169c-221 0 -391 172 -391 390c0 216 170 384 391 384c135 0 251 -64 321 -163c3 -4 3 -7 -1 -11l-17 -16c-4 -4 -8 -3 -11 1
c-62 90 -167 150 -292 150c-197 0 -348 -152 -348 -345c0 -196 151 -350 348 -350c125 0 231 61 294 154c2 5 7 5 11 2l16 -16c3 -4 4 -7 1 -11z" />
    <glyph glyph-name="Ccedilla" unicode="&#xc7;" horiz-adv-x="795" 
d="M507 -118c0 -63 -52 -98 -119 -98c-24 0 -51 5 -66 14c-5 2 -8 6 -6 12l4 14c1 5 3 7 9 5c12 -7 34 -11 51 -11c50 0 91 25 91 73c0 41 -25 74 -51 96c-214 7 -377 177 -377 390c0 216 170 384 391 384c135 0 251 -64 321 -163c3 -4 3 -7 -1 -11l-17 -16
c-4 -4 -8 -3 -11 1c-62 90 -167 150 -292 150c-197 0 -348 -152 -348 -345c0 -196 151 -350 348 -350c125 0 231 61 294 154c2 5 7 5 11 2l16 -16c3 -4 4 -7 1 -11c-66 -97 -174 -163 -303 -169c25 -22 54 -59 54 -105z" />
    <glyph glyph-name="Dcaron" unicode="&#x10e;" horiz-adv-x="752" 
d="M358 813c-3 -2 -6 -4 -8 -4c-3 0 -6 2 -8 4l-133 101c-4 2 -5 7 -3 12l6 14c2 4 5 7 13 4l124 -92l123 91c7 3 11 1 13 -3l7 -14c2 -5 0 -10 -4 -12zM328 0h-236c-5 0 -8 3 -8 8v734c0 5 3 8 8 8h235c249 0 382 -152 382 -375c0 -224 -134 -375 -381 -375zM326 711h-201
v-672h202c234 0 339 145 339 336c0 189 -105 336 -340 336z" />
    <glyph glyph-name="Dcroat" unicode="&#x110;" horiz-adv-x="752" 
d="M328 0h-236c-5 0 -8 3 -8 8v345h-64c-4 0 -7 4 -7 8v26c0 3 3 7 7 7h64v348c0 5 3 8 8 8h235c249 0 382 -152 382 -375c0 -224 -134 -375 -381 -375zM362 353h-237v-314h202c234 0 339 145 339 336c0 189 -105 336 -340 336h-201v-317h237c4 0 7 -4 7 -7v-26
c0 -4 -3 -8 -7 -8z" />
    <glyph glyph-name="Eth" unicode="&#xd0;" horiz-adv-x="752" 
d="M328 0h-236c-5 0 -8 3 -8 8v345h-64c-4 0 -7 4 -7 8v26c0 3 3 7 7 7h64v348c0 5 3 8 8 8h235c249 0 382 -152 382 -375c0 -224 -134 -375 -381 -375zM362 353h-237v-314h202c234 0 339 145 339 336c0 189 -105 336 -340 336h-201v-317h237c4 0 7 -4 7 -7v-26
c0 -4 -3 -8 -7 -8z" />
    <glyph glyph-name="Egrave" unicode="&#xc8;" horiz-adv-x="605" 
d="M441 820c-1 -5 -5 -8 -11 -6l-277 93c-5 1 -7 4 -7 10l4 19c1 6 5 8 10 7l278 -96c5 -1 7 -4 6 -10zM546 0h-454c-5 0 -8 3 -8 8v734c0 5 3 8 8 8h441c5 0 8 -3 8 -8v-24c0 -4 -3 -8 -8 -8h-408v-286h385c5 0 8 -4 8 -8v-24c0 -5 -3 -8 -8 -8h-385v-344h421
c5 0 8 -4 8 -8v-24c0 -5 -3 -8 -8 -8z" />
    <glyph glyph-name="Eacute" unicode="&#xc9;" horiz-adv-x="605" 
d="M493 909l-277 -93c-6 -2 -10 1 -11 6l-3 17c-1 6 1 9 6 10l278 95c6 2 9 0 10 -6l4 -19c1 -6 -2 -9 -7 -10zM546 0h-454c-5 0 -8 3 -8 8v734c0 5 3 8 8 8h441c5 0 8 -3 8 -8v-24c0 -4 -3 -8 -8 -8h-408v-286h385c5 0 8 -4 8 -8v-24c0 -5 -3 -8 -8 -8h-385v-344h421
c5 0 8 -4 8 -8v-24c0 -5 -3 -8 -8 -8z" />
    <glyph glyph-name="Ecircumflex" unicode="&#xca;" horiz-adv-x="605" 
d="M198 822c-8 -3 -12 -1 -15 4l-6 13c-2 5 -1 9 3 12l133 101c2 2 5 3 8 3c2 0 5 -2 8 -3l130 -101c4 -3 6 -7 4 -12l-7 -13c-3 -5 -7 -7 -15 -3l-121 89zM546 0h-454c-5 0 -8 3 -8 8v734c0 5 3 8 8 8h441c5 0 8 -3 8 -8v-24c0 -4 -3 -8 -8 -8h-408v-286h385c5 0 8 -4 8 -8
v-24c0 -5 -3 -8 -8 -8h-385v-344h421c5 0 8 -4 8 -8v-24c0 -5 -3 -8 -8 -8z" />
    <glyph glyph-name="Ecaron" unicode="&#x11a;" horiz-adv-x="605" 
d="M321 813c-3 -2 -6 -4 -8 -4c-3 0 -6 2 -8 4l-133 101c-4 2 -5 7 -3 12l6 14c2 4 5 7 13 4l124 -92l123 91c7 3 11 1 13 -3l7 -14c2 -5 0 -10 -4 -12zM546 0h-454c-5 0 -8 3 -8 8v734c0 5 3 8 8 8h441c5 0 8 -3 8 -8v-24c0 -4 -3 -8 -8 -8h-408v-286h385c5 0 8 -4 8 -8
v-24c0 -5 -3 -8 -8 -8h-385v-344h421c5 0 8 -4 8 -8v-24c0 -5 -3 -8 -8 -8z" />
    <glyph glyph-name="Edieresis" unicode="&#xcb;" horiz-adv-x="605" 
d="M423 910c0 -21 -11 -31 -31 -31s-31 10 -31 31s11 32 31 32s31 -11 31 -32zM254 910c0 -21 -11 -31 -31 -31s-32 10 -32 31s12 32 32 32s31 -11 31 -32zM546 0h-454c-5 0 -8 3 -8 8v734c0 5 3 8 8 8h441c5 0 8 -3 8 -8v-24c0 -4 -3 -8 -8 -8h-408v-286h385c5 0 8 -4 8 -8
v-24c0 -5 -3 -8 -8 -8h-385v-344h421c5 0 8 -4 8 -8v-24c0 -5 -3 -8 -8 -8z" />
    <glyph glyph-name="Emacron" unicode="&#x112;" horiz-adv-x="605" 
d="M470 882h-301c-5 0 -8 3 -8 8v21c0 4 3 8 8 8h301c5 0 8 -4 8 -8v-21c0 -5 -3 -8 -8 -8zM546 0h-454c-5 0 -8 3 -8 8v734c0 5 3 8 8 8h441c5 0 8 -3 8 -8v-24c0 -4 -3 -8 -8 -8h-408v-286h385c5 0 8 -4 8 -8v-24c0 -5 -3 -8 -8 -8h-385v-344h421c5 0 8 -4 8 -8v-24
c0 -5 -3 -8 -8 -8z" />
    <glyph glyph-name="Ebreve" unicode="&#x114;" horiz-adv-x="605" 
d="M320 813h-20c-76 0 -129 43 -129 113v4c0 4 3 6 7 6h23c4 0 7 -2 7 -7v-3c0 -52 41 -83 94 -83h15c53 0 95 31 95 83v3c0 5 3 7 8 7h22c5 0 7 -2 7 -6v-4c0 -70 -53 -113 -129 -113zM546 0h-454c-5 0 -8 3 -8 8v734c0 5 3 8 8 8h441c5 0 8 -3 8 -8v-24c0 -4 -3 -8 -8 -8
h-408v-286h385c5 0 8 -4 8 -8v-24c0 -5 -3 -8 -8 -8h-385v-344h421c5 0 8 -4 8 -8v-24c0 -5 -3 -8 -8 -8z" />
    <glyph glyph-name="Edotaccent" unicode="&#x116;" horiz-adv-x="605" 
d="M346 918c0 -20 -10 -31 -31 -31c-20 0 -31 11 -31 31c0 22 11 32 31 32c21 0 31 -10 31 -32zM546 0h-454c-5 0 -8 3 -8 8v734c0 5 3 8 8 8h441c5 0 8 -3 8 -8v-24c0 -4 -3 -8 -8 -8h-408v-286h385c5 0 8 -4 8 -8v-24c0 -5 -3 -8 -8 -8h-385v-344h421c5 0 8 -4 8 -8v-24
c0 -5 -3 -8 -8 -8z" />
    <glyph glyph-name="Eogonek" unicode="&#x118;" horiz-adv-x="605" 
d="M477 -203c-16 -7 -46 -13 -69 -13c-67 0 -114 28 -114 79c0 28 13 52 33 71c34 34 87 55 126 66h-361c-5 0 -8 3 -8 8v734c0 5 3 8 8 8h441c5 0 8 -3 8 -8v-24c0 -4 -3 -8 -8 -8h-408v-286h385c5 0 8 -4 8 -8v-24c0 -5 -3 -8 -8 -8h-385v-344h421c5 0 8 -4 8 -8v-24
c0 -5 -3 -8 -8 -8h-24c-35 -8 -121 -33 -164 -75c-15 -15 -24 -32 -24 -52c0 -36 33 -55 81 -55c19 0 44 4 60 12c5 3 8 1 8 -5v-18c0 -5 -2 -8 -6 -10z" />
    <glyph glyph-name="Gcircumflex" unicode="&#x11c;" horiz-adv-x="846" 
d="M307 822c-8 -3 -12 -1 -15 4l-6 13c-2 5 -1 9 3 12l133 101c2 2 5 3 8 3c2 0 5 -2 8 -3l130 -101c4 -3 6 -7 4 -12l-7 -13c-3 -5 -7 -7 -15 -3l-121 89zM777 0h-24c-5 0 -8 3 -8 8v181c-43 -117 -160 -202 -316 -202c-221 0 -386 167 -386 388s170 386 387 386
c205 0 313 -129 349 -254c2 -6 1 -9 -3 -12l-19 -12c-5 -2 -9 0 -11 5c-35 117 -130 234 -315 234c-194 0 -345 -147 -345 -347s147 -348 348 -348c187 0 311 126 311 276v30h-326c-5 0 -8 4 -8 9v21c0 5 3 8 8 8h358c5 0 8 -3 8 -8v-355c0 -5 -3 -8 -8 -8z" />
    <glyph glyph-name="Gbreve" unicode="&#x11e;" horiz-adv-x="846" 
d="M438 813h-20c-76 0 -129 43 -129 113v4c0 4 3 6 7 6h23c4 0 7 -2 7 -7v-3c0 -52 41 -83 94 -83h15c53 0 95 31 95 83v3c0 5 3 7 8 7h22c5 0 7 -2 7 -6v-4c0 -70 -53 -113 -129 -113zM777 0h-24c-5 0 -8 3 -8 8v181c-43 -117 -160 -202 -316 -202
c-221 0 -386 167 -386 388s170 386 387 386c205 0 313 -129 349 -254c2 -6 1 -9 -3 -12l-19 -12c-5 -2 -9 0 -11 5c-35 117 -130 234 -315 234c-194 0 -345 -147 -345 -347s147 -348 348 -348c187 0 311 126 311 276v30h-326c-5 0 -8 4 -8 9v21c0 5 3 8 8 8h358
c5 0 8 -3 8 -8v-355c0 -5 -3 -8 -8 -8z" />
    <glyph glyph-name="Gdotaccent" unicode="&#x120;" horiz-adv-x="846" 
d="M459 918c0 -20 -10 -31 -31 -31c-20 0 -31 11 -31 31c0 22 11 32 31 32c21 0 31 -10 31 -32zM777 0h-24c-5 0 -8 3 -8 8v181c-43 -117 -160 -202 -316 -202c-221 0 -386 167 -386 388s170 386 387 386c205 0 313 -129 349 -254c2 -6 1 -9 -3 -12l-19 -12
c-5 -2 -9 0 -11 5c-35 117 -130 234 -315 234c-194 0 -345 -147 -345 -347s147 -348 348 -348c187 0 311 126 311 276v30h-326c-5 0 -8 4 -8 9v21c0 5 3 8 8 8h358c5 0 8 -3 8 -8v-355c0 -5 -3 -8 -8 -8z" />
    <glyph glyph-name="Gcommaaccent" unicode="&#x122;" horiz-adv-x="846" 
d="M777 0h-24c-5 0 -8 3 -8 8v181c-43 -117 -160 -202 -316 -202c-221 0 -386 167 -386 388s170 386 387 386c205 0 313 -129 349 -254c2 -6 1 -9 -3 -12l-19 -12c-5 -2 -9 0 -11 5c-35 117 -130 234 -315 234c-194 0 -345 -147 -345 -347s147 -348 348 -348
c187 0 311 126 311 276v30h-326c-5 0 -8 4 -8 9v21c0 5 3 8 8 8h358c5 0 8 -3 8 -8v-355c0 -5 -3 -8 -8 -8zM385 -205c-7 0 -9 5 -6 11l60 118c2 4 6 6 10 6h30c7 0 9 -5 5 -11l-64 -118c-2 -4 -6 -6 -10 -6h-25z" />
    <glyph glyph-name="Hcircumflex" unicode="&#x124;" horiz-adv-x="802" 
d="M281 822c-8 -3 -12 -1 -15 4l-6 13c-2 5 -1 9 3 12l133 101c2 2 5 3 8 3c2 0 5 -2 8 -3l130 -101c4 -3 6 -7 4 -12l-7 -13c-3 -5 -7 -7 -15 -3l-121 89zM118 0h-26c-5 0 -8 3 -8 8v734c0 5 3 8 8 8h26c5 0 8 -3 8 -8v-320h550v320c0 5 3 8 8 8h26c5 0 8 -3 8 -8v-734
c0 -5 -3 -8 -8 -8h-26c-5 0 -8 3 -8 8v374h-550v-374c0 -5 -3 -8 -8 -8z" />
    <glyph glyph-name="Hbar" unicode="&#x126;" horiz-adv-x="802" 
d="M118 0h-26c-5 0 -8 3 -8 8v558h-59c-5 0 -8 3 -8 8v20c0 5 3 7 8 7h59v141c0 5 3 8 8 8h26c5 0 8 -3 8 -8v-141h550v141c0 5 3 8 8 8h26c5 0 8 -3 8 -8v-141h59c5 0 7 -2 7 -7v-20c0 -5 -2 -8 -7 -8h-59v-558c0 -5 -3 -8 -8 -8h-26c-5 0 -8 3 -8 8v374h-550v-374
c0 -5 -3 -8 -8 -8zM126 422h550v144h-550v-144z" />
    <glyph glyph-name="Igrave" unicode="&#xcc;" horiz-adv-x="222" 
d="M-19 881l4 21c1 6 5 7 10 6l185 -68c4 -2 6 -6 5 -10l-3 -19c-1 -5 -6 -6 -11 -5l-185 66c-4 2 -6 5 -5 9zM124 0h-26c-5 0 -8 3 -8 8v734c0 5 3 8 8 8h26c5 0 8 -3 8 -8v-734c0 -5 -3 -8 -8 -8z" />
    <glyph glyph-name="Iacute" unicode="&#xcd;" horiz-adv-x="222" 
d="M58 811l-4 19c-1 4 1 8 5 9l176 62c5 1 9 0 10 -6l4 -21c1 -4 -1 -8 -5 -9l-176 -59c-5 -2 -10 0 -10 5zM124 0h-26c-5 0 -8 3 -8 8v734c0 5 3 8 8 8h26c5 0 8 -3 8 -8v-734c0 -5 -3 -8 -8 -8z" />
    <glyph glyph-name="Icircumflex" unicode="&#xce;" horiz-adv-x="222" 
d="M9 812c-8 -5 -13 -1 -15 5l-4 12c-2 7 1 11 6 15l109 98c3 2 5 3 8 3c2 0 4 -1 7 -3l106 -98c5 -4 7 -8 6 -14l-5 -12c-2 -7 -6 -11 -15 -5l-100 88zM124 0h-26c-5 0 -8 3 -8 8v734c0 5 3 8 8 8h26c5 0 8 -3 8 -8v-734c0 -5 -3 -8 -8 -8z" />
    <glyph glyph-name="Itilde" unicode="&#x128;" horiz-adv-x="222" 
d="M236 857c-13 -7 -30 -12 -50 -12c-30 0 -52 8 -74 16s-44 16 -74 16c-24 0 -42 -5 -55 -12c-11 -5 -18 -11 -21 -15c-5 -3 -9 -1 -9 5v25c0 3 1 7 4 10c3 2 10 9 22 14c14 7 33 13 59 13c31 0 55 -8 78 -17c20 -7 42 -15 70 -15c19 0 34 5 47 11c13 7 22 16 26 21
c6 4 9 2 9 -4v-25c0 -3 0 -7 -3 -10c-4 -4 -14 -13 -29 -21zM124 0h-26c-5 0 -8 3 -8 8v734c0 5 3 8 8 8h26c5 0 8 -3 8 -8v-734c0 -5 -3 -8 -8 -8z" />
    <glyph glyph-name="Idieresis" unicode="&#xcf;" horiz-adv-x="222" 
d="M227 910c0 -21 -11 -31 -31 -31s-31 10 -31 31s11 32 31 32s31 -11 31 -32zM58 910c0 -21 -11 -31 -31 -31s-32 10 -32 31s12 32 32 32s31 -11 31 -32zM124 0h-26c-5 0 -8 3 -8 8v734c0 5 3 8 8 8h26c5 0 8 -3 8 -8v-734c0 -5 -3 -8 -8 -8z" />
    <glyph glyph-name="Imacron" unicode="&#x12a;" horiz-adv-x="222" 
d="M262 882h-301c-5 0 -8 3 -8 8v21c0 4 3 8 8 8h301c5 0 8 -4 8 -8v-21c0 -5 -3 -8 -8 -8zM124 0h-26c-5 0 -8 3 -8 8v734c0 5 3 8 8 8h26c5 0 8 -3 8 -8v-734c0 -5 -3 -8 -8 -8z" />
    <glyph glyph-name="Ibreve" unicode="&#x12c;" horiz-adv-x="222" 
d="M121 813h-20c-76 0 -129 43 -129 113v4c0 4 3 6 7 6h23c4 0 7 -2 7 -7v-3c0 -52 41 -83 94 -83h15c53 0 95 31 95 83v3c0 5 3 7 8 7h22c5 0 7 -2 7 -6v-4c0 -70 -53 -113 -129 -113zM124 0h-26c-5 0 -8 3 -8 8v734c0 5 3 8 8 8h26c5 0 8 -3 8 -8v-734c0 -5 -3 -8 -8 -8z
" />
    <glyph glyph-name="Idotaccent" unicode="&#x130;" horiz-adv-x="222" 
d="M142 918c0 -20 -10 -31 -31 -31c-20 0 -31 11 -31 31c0 22 11 32 31 32c21 0 31 -10 31 -32zM124 0h-26c-5 0 -8 3 -8 8v734c0 5 3 8 8 8h26c5 0 8 -3 8 -8v-734c0 -5 -3 -8 -8 -8z" />
    <glyph glyph-name="Iogonek" unicode="&#x12e;" horiz-adv-x="223" 
d="M45 -216c-66 0 -114 28 -114 80c0 27 13 50 31 70c35 39 95 62 128 72v737c0 4 3 7 7 7h29c5 0 7 -3 7 -7v-736c0 -4 -2 -7 -7 -7h-1c-29 -10 -92 -32 -130 -72c-15 -16 -25 -34 -25 -55c0 -36 35 -55 82 -55c20 0 43 6 60 12c6 2 9 1 9 -5v-18c0 -5 -3 -8 -9 -11
c-10 -4 -43 -12 -67 -12z" />
    <glyph glyph-name="Jcircumflex" unicode="&#x134;" horiz-adv-x="433" 
d="M225 822c-8 -3 -12 -1 -15 4l-6 13c-2 5 -1 9 3 12l133 101c2 2 5 3 8 3c2 0 5 -2 8 -3l130 -101c4 -3 6 -7 4 -12l-7 -13c-3 -5 -7 -7 -15 -3l-121 89zM370 233c0 -158 -86 -246 -220 -246c-44 0 -85 10 -118 27c-4 2 -6 5 -4 10l5 22c2 5 5 7 10 5
c28 -16 64 -24 103 -24c115 0 182 78 182 207v508c0 5 3 8 8 8h26c5 0 8 -3 8 -8v-509z" />
    <glyph glyph-name="Kcommaaccent" unicode="&#x136;" horiz-adv-x="608" 
d="M118 0h-26c-5 0 -8 3 -8 8v734c0 5 3 8 8 8h26c5 0 8 -3 8 -8v-318h97l300 322c2 3 6 4 10 4h32c7 0 9 -5 4 -10l-309 -334l322 -396c5 -5 2 -10 -4 -10h-34c-4 0 -7 1 -10 4l-309 380h-99v-376c0 -5 -3 -8 -8 -8zM251 -205c-7 0 -9 5 -6 11l60 118c2 4 6 6 10 6h30
c7 0 9 -5 5 -11l-64 -118c-2 -4 -6 -6 -10 -6h-25z" />
    <glyph glyph-name="Lacute" unicode="&#x139;" horiz-adv-x="549" 
d="M92 812l-2 20c-1 4 1 7 6 8l220 69c5 1 9 0 10 -6l2 -21c0 -5 -2 -8 -6 -9l-220 -67c-5 -1 -9 1 -10 6zM503 0h-411c-5 0 -8 3 -8 8v734c0 5 3 8 8 8h26c5 0 8 -3 8 -8v-702h377c5 0 8 -4 8 -8v-24c0 -5 -3 -8 -8 -8z" />
    <glyph glyph-name="Lcaron" unicode="&#x13d;" horiz-adv-x="550" 
d="M331 606l82 164c3 7 7 10 13 10h27c6 0 9 -4 6 -10l-90 -164c-3 -7 -7 -10 -13 -10h-19c-5 0 -9 4 -6 10zM503 0h-411c-5 0 -8 3 -8 8v734c0 5 3 8 8 8h26c5 0 8 -3 8 -8v-702h377c5 0 8 -4 8 -8v-24c0 -5 -3 -8 -8 -8z" />
    <glyph glyph-name="Lcommaaccent" unicode="&#x13b;" horiz-adv-x="549" 
d="M503 0h-411c-5 0 -8 3 -8 8v734c0 5 3 8 8 8h26c5 0 8 -3 8 -8v-702h377c5 0 8 -4 8 -8v-24c0 -5 -3 -8 -8 -8zM244 -205c-7 0 -9 5 -6 11l60 118c2 4 6 6 10 6h30c7 0 9 -5 5 -11l-64 -118c-2 -4 -6 -6 -10 -6h-25z" />
    <glyph glyph-name="Lslash" unicode="&#x141;" horiz-adv-x="549" 
d="M13 365v21c0 5 1 8 8 12l63 42v302c0 5 3 8 8 8h26c5 0 8 -3 8 -8v-275l124 82c5 4 10 1 10 -6v-21c0 -5 -1 -8 -7 -12l-127 -84v-386h377c5 0 8 -4 8 -8v-24c0 -5 -3 -8 -8 -8h-411c-5 0 -8 3 -8 8v391l-60 -40c-6 -3 -11 0 -11 6z" />
    <glyph glyph-name="Ldot" unicode="&#x13f;" horiz-adv-x="549" 
d="M503 0h-411c-5 0 -8 3 -8 8v734c0 5 3 8 8 8h26c5 0 8 -3 8 -8v-702h377c5 0 8 -4 8 -8v-24c0 -5 -3 -8 -8 -8zM421 391c0 -21 -11 -31 -31 -31s-32 10 -32 31c0 22 12 32 32 32s31 -10 31 -32z" />
    <glyph glyph-name="Nacute" unicode="&#x143;" horiz-adv-x="780" 
d="M592 909l-277 -93c-6 -2 -10 1 -11 6l-3 17c-1 6 1 9 6 10l278 95c6 2 9 0 10 -6l4 -19c1 -6 -2 -9 -7 -10zM117 0h-25c-5 0 -8 3 -8 8v737c0 5 3 8 8 8h15c4 0 7 -1 11 -6l536 -669v664c0 5 3 8 8 8h26c5 0 8 -3 8 -8v-736c0 -5 -3 -8 -8 -8h-15c-4 0 -7 1 -10 4
l-537 674v-668c0 -5 -4 -8 -9 -8z" />
    <glyph glyph-name="Ncaron" unicode="&#x147;" horiz-adv-x="780" 
d="M415 813c-3 -2 -6 -4 -8 -4c-3 0 -6 2 -8 4l-133 101c-4 2 -5 7 -3 12l6 14c2 4 5 7 13 4l124 -92l123 91c7 3 11 1 13 -3l7 -14c2 -5 0 -10 -4 -12zM117 0h-25c-5 0 -8 3 -8 8v737c0 5 3 8 8 8h15c4 0 7 -1 11 -6l536 -669v664c0 5 3 8 8 8h26c5 0 8 -3 8 -8v-736
c0 -5 -3 -8 -8 -8h-15c-4 0 -7 1 -10 4l-537 674v-668c0 -5 -4 -8 -9 -8z" />
    <glyph glyph-name="Ntilde" unicode="&#xd1;" horiz-adv-x="780" 
d="M519 857c-13 -7 -30 -12 -50 -12c-30 0 -52 8 -74 16s-44 16 -74 16c-24 0 -42 -5 -55 -12c-11 -5 -18 -11 -21 -15c-5 -3 -9 -1 -9 5v25c0 3 1 7 4 10c3 2 10 9 22 14c14 7 33 13 59 13c31 0 55 -8 78 -17c20 -7 42 -15 70 -15c19 0 34 5 47 11c13 7 22 16 26 21
c6 4 9 2 9 -4v-25c0 -3 0 -7 -3 -10c-4 -4 -14 -13 -29 -21zM117 0h-25c-5 0 -8 3 -8 8v737c0 5 3 8 8 8h15c4 0 7 -1 11 -6l536 -669v664c0 5 3 8 8 8h26c5 0 8 -3 8 -8v-736c0 -5 -3 -8 -8 -8h-15c-4 0 -7 1 -10 4l-537 674v-668c0 -5 -4 -8 -9 -8z" />
    <glyph glyph-name="Ncommaaccent" unicode="&#x145;" horiz-adv-x="780" 
d="M117 0h-25c-5 0 -8 3 -8 8v737c0 5 3 8 8 8h15c4 0 7 -1 11 -6l536 -669v664c0 5 3 8 8 8h26c5 0 8 -3 8 -8v-736c0 -5 -3 -8 -8 -8h-15c-4 0 -7 1 -10 4l-537 674v-668c0 -5 -4 -8 -9 -8zM354 -205c-7 0 -9 5 -6 11l60 118c2 4 6 6 10 6h30c7 0 9 -5 5 -11l-64 -118
c-2 -4 -6 -6 -10 -6h-25z" />
    <glyph glyph-name="Eng" unicode="&#x14a;" horiz-adv-x="780" 
d="M662 750h26c5 0 8 -3 8 -8v-732c0 -150 -90 -227 -217 -227c-44 0 -88 10 -121 30c-4 2 -6 5 -5 10l6 21c2 5 5 7 10 5c31 -20 70 -26 106 -26c107 0 178 66 179 187v3l-528 664v-669c0 -5 -4 -8 -9 -8h-25c-5 0 -8 3 -8 8v737c0 5 3 8 8 8h15c4 0 7 -1 11 -6l536 -671
v666c0 5 3 8 8 8z" />
    <glyph glyph-name="Ograve" unicode="&#xd2;" horiz-adv-x="867" 
d="M568 820c-1 -5 -5 -8 -11 -6l-277 93c-5 1 -7 4 -7 10l4 19c1 6 5 8 10 7l278 -96c5 -1 7 -4 6 -10zM824 377c0 -218 -168 -390 -390 -390c-221 0 -391 172 -391 390c0 216 170 384 391 384c222 0 390 -168 390 -384zM86 377c0 -196 151 -350 348 -350
c196 0 348 154 348 350c0 193 -152 345 -348 345c-197 0 -348 -152 -348 -345z" />
    <glyph glyph-name="Oacute" unicode="&#xd3;" horiz-adv-x="867" 
d="M629 909l-277 -93c-6 -2 -10 1 -11 6l-3 17c-1 6 1 9 6 10l278 95c6 2 9 0 10 -6l4 -19c1 -6 -2 -9 -7 -10zM824 377c0 -218 -168 -390 -390 -390c-221 0 -391 172 -391 390c0 216 170 384 391 384c222 0 390 -168 390 -384zM86 377c0 -196 151 -350 348 -350
c196 0 348 154 348 350c0 193 -152 345 -348 345c-197 0 -348 -152 -348 -345z" />
    <glyph glyph-name="Ocircumflex" unicode="&#xd4;" horiz-adv-x="867" 
d="M314 822c-8 -3 -12 -1 -15 4l-6 13c-2 5 -1 9 3 12l133 101c2 2 5 3 8 3c2 0 5 -2 8 -3l130 -101c4 -3 6 -7 4 -12l-7 -13c-3 -5 -7 -7 -15 -3l-121 89zM824 377c0 -218 -168 -390 -390 -390c-221 0 -391 172 -391 390c0 216 170 384 391 384c222 0 390 -168 390 -384z
M86 377c0 -196 151 -350 348 -350c196 0 348 154 348 350c0 193 -152 345 -348 345c-197 0 -348 -152 -348 -345z" />
    <glyph glyph-name="Otilde" unicode="&#xd5;" horiz-adv-x="867" 
d="M559 857c-13 -7 -30 -12 -50 -12c-30 0 -52 8 -74 16s-44 16 -74 16c-24 0 -42 -5 -55 -12c-11 -5 -18 -11 -21 -15c-5 -3 -9 -1 -9 5v25c0 3 1 7 4 10c3 2 10 9 22 14c14 7 33 13 59 13c31 0 55 -8 78 -17c20 -7 42 -15 70 -15c19 0 34 5 47 11c13 7 22 16 26 21
c6 4 9 2 9 -4v-25c0 -3 0 -7 -3 -10c-4 -4 -14 -13 -29 -21zM824 377c0 -218 -168 -390 -390 -390c-221 0 -391 172 -391 390c0 216 170 384 391 384c222 0 390 -168 390 -384zM86 377c0 -196 151 -350 348 -350c196 0 348 154 348 350c0 193 -152 345 -348 345
c-197 0 -348 -152 -348 -345z" />
    <glyph glyph-name="Odieresis" unicode="&#xd6;" horiz-adv-x="867" 
d="M549 910c0 -21 -11 -31 -31 -31s-31 10 -31 31s11 32 31 32s31 -11 31 -32zM380 910c0 -21 -11 -31 -31 -31s-32 10 -32 31s12 32 32 32s31 -11 31 -32zM824 377c0 -218 -168 -390 -390 -390c-221 0 -391 172 -391 390c0 216 170 384 391 384c222 0 390 -168 390 -384z
M86 377c0 -196 151 -350 348 -350c196 0 348 154 348 350c0 193 -152 345 -348 345c-197 0 -348 -152 -348 -345z" />
    <glyph glyph-name="Omacron" unicode="&#x14c;" horiz-adv-x="867" 
d="M584 882h-301c-5 0 -8 3 -8 8v21c0 4 3 8 8 8h301c5 0 8 -4 8 -8v-21c0 -5 -3 -8 -8 -8zM824 377c0 -218 -168 -390 -390 -390c-221 0 -391 172 -391 390c0 216 170 384 391 384c222 0 390 -168 390 -384zM86 377c0 -196 151 -350 348 -350c196 0 348 154 348 350
c0 193 -152 345 -348 345c-197 0 -348 -152 -348 -345z" />
    <glyph glyph-name="Obreve" unicode="&#x14e;" horiz-adv-x="867" 
d="M444 813h-20c-76 0 -129 43 -129 113v4c0 4 3 6 7 6h23c4 0 7 -2 7 -7v-3c0 -52 41 -83 94 -83h15c53 0 95 31 95 83v3c0 5 3 7 8 7h22c5 0 7 -2 7 -6v-4c0 -70 -53 -113 -129 -113zM824 377c0 -218 -168 -390 -390 -390c-221 0 -391 172 -391 390c0 216 170 384 391 384
c222 0 390 -168 390 -384zM86 377c0 -196 151 -350 348 -350c196 0 348 154 348 350c0 193 -152 345 -348 345c-197 0 -348 -152 -348 -345z" />
    <glyph glyph-name="Ohungarumlaut" unicode="&#x150;" horiz-adv-x="867" 
d="M490 824h-18c-7 0 -11 4 -6 11l98 127c4 6 8 10 14 10h20c7 0 10 -5 6 -11l-100 -127c-5 -7 -8 -10 -14 -10zM354 824h-19c-7 0 -10 4 -6 11l98 127c4 6 8 10 14 10h20c7 0 10 -5 6 -11l-99 -127c-5 -7 -8 -10 -14 -10zM824 377c0 -218 -168 -390 -390 -390
c-221 0 -391 172 -391 390c0 216 170 384 391 384c222 0 390 -168 390 -384zM86 377c0 -196 151 -350 348 -350c196 0 348 154 348 350c0 193 -152 345 -348 345c-197 0 -348 -152 -348 -345z" />
    <glyph glyph-name="Oslash" unicode="&#xd8;" horiz-adv-x="867" 
d="M105 -2l71 83c-82 71 -133 177 -133 296c0 216 170 384 391 384c96 0 181 -31 248 -84l57 67c5 5 8 9 14 9h24c7 0 10 -5 5 -11l-74 -88c72 -69 116 -167 116 -277c0 -218 -168 -390 -390 -390c-87 0 -167 27 -231 73l-56 -66c-5 -5 -8 -7 -13 -7h-23c-8 0 -11 4 -6 11z
M86 377c0 -106 44 -200 117 -264l452 532c-59 48 -136 77 -221 77c-197 0 -348 -152 -348 -345zM782 377c0 97 -38 183 -101 246l-451 -532c56 -40 127 -64 204 -64c196 0 348 154 348 350z" />
    <glyph glyph-name="Oslashacute" unicode="&#x1fe;" horiz-adv-x="867" 
d="M653 909l-277 -93c-6 -2 -10 1 -11 6l-3 17c-1 6 1 9 6 10l278 95c6 2 9 0 10 -6l4 -19c1 -6 -2 -9 -7 -10zM105 -2l71 83c-82 71 -133 177 -133 296c0 216 170 384 391 384c96 0 181 -31 248 -84l57 67c5 5 8 9 14 9h24c7 0 10 -5 5 -11l-74 -88
c72 -69 116 -167 116 -277c0 -218 -168 -390 -390 -390c-87 0 -167 27 -231 73l-56 -66c-5 -5 -8 -7 -13 -7h-23c-8 0 -11 4 -6 11zM86 377c0 -106 44 -200 117 -264l452 532c-59 48 -136 77 -221 77c-197 0 -348 -152 -348 -345zM782 377c0 97 -38 183 -101 246l-451 -532
c56 -40 127 -64 204 -64c196 0 348 154 348 350z" />
    <glyph glyph-name="OE" unicode="&#x152;" horiz-adv-x="877" 
d="M476 40h342c5 0 8 -4 8 -8v-24c0 -5 -3 -8 -8 -8h-384c-221 0 -391 159 -391 377c0 216 170 373 391 373h371c5 0 8 -3 8 -8v-24c0 -4 -3 -8 -8 -8h-329v-286h306c5 0 8 -4 8 -8v-24c0 -5 -3 -8 -8 -8h-306v-344zM87 377c0 -195 151 -337 347 -337v671
c-196 -1 -347 -141 -347 -334z" />
    <glyph glyph-name="Racute" unicode="&#x154;" horiz-adv-x="700" 
d="M525 909l-277 -93c-6 -2 -10 1 -11 6l-3 17c-1 6 1 9 6 10l278 95c6 2 9 0 10 -6l4 -19c1 -6 -2 -9 -7 -10zM118 0h-26c-5 0 -8 3 -8 8v734c0 5 3 8 8 8h303c167 0 250 -91 250 -213c0 -100 -55 -181 -166 -207l145 -320c2 -5 0 -10 -6 -10h-30c-4 0 -7 2 -9 6l-143 317
c-13 -1 -26 -2 -40 -2h-270v-313c0 -5 -3 -8 -8 -8zM395 711h-269v-351h269c145 0 207 80 207 177c0 95 -62 174 -207 174z" />
    <glyph glyph-name="Rcaron" unicode="&#x158;" horiz-adv-x="700" 
d="M351 813c-3 -2 -6 -4 -8 -4c-3 0 -6 2 -8 4l-133 101c-4 2 -5 7 -3 12l6 14c2 4 5 7 13 4l124 -92l123 91c7 3 11 1 13 -3l7 -14c2 -5 0 -10 -4 -12zM118 0h-26c-5 0 -8 3 -8 8v734c0 5 3 8 8 8h303c167 0 250 -91 250 -213c0 -100 -55 -181 -166 -207l145 -320
c2 -5 0 -10 -6 -10h-30c-4 0 -7 2 -9 6l-143 317c-13 -1 -26 -2 -40 -2h-270v-313c0 -5 -3 -8 -8 -8zM395 711h-269v-351h269c145 0 207 80 207 177c0 95 -62 174 -207 174z" />
    <glyph glyph-name="Rcommaaccent" unicode="&#x156;" horiz-adv-x="700" 
d="M118 0h-26c-5 0 -8 3 -8 8v734c0 5 3 8 8 8h303c167 0 250 -91 250 -213c0 -100 -55 -181 -166 -207l145 -320c2 -5 0 -10 -6 -10h-30c-4 0 -7 2 -9 6l-143 317c-13 -1 -26 -2 -40 -2h-270v-313c0 -5 -3 -8 -8 -8zM395 711h-269v-351h269c145 0 207 80 207 177
c0 95 -62 174 -207 174zM280 -205c-7 0 -9 5 -6 11l60 118c2 4 6 6 10 6h30c7 0 9 -5 5 -11l-64 -118c-2 -4 -6 -6 -10 -6h-25z" />
    <glyph glyph-name="Thorn" unicode="&#xde;" horiz-adv-x="655" 
d="M84 8v734c0 5 3 8 8 8h27c5 0 8 -3 8 -8v-106h195c205 0 297 -105 297 -255c0 -149 -92 -254 -297 -254h-195v-119c0 -5 -3 -8 -8 -8h-27c-5 0 -8 3 -8 8zM319 596h-192v-429h192c187 0 255 93 255 214c0 122 -68 215 -255 215z" />
    <glyph glyph-name="Sacute" unicode="&#x15a;" horiz-adv-x="520" 
d="M449 909l-277 -93c-6 -2 -10 1 -11 6l-3 17c-1 6 1 9 6 10l278 95c6 2 9 0 10 -6l4 -19c1 -6 -2 -9 -7 -10zM476 191c0 -114 -89 -204 -245 -204c-69 0 -136 19 -174 45c-4 2 -5 6 -3 11l7 19c3 6 7 7 12 3c31 -20 95 -39 155 -39c133 0 206 71 206 164
c0 71 -45 125 -126 168l-95 51c-81 42 -135 90 -135 171c0 103 93 181 237 181c53 0 107 -15 136 -29c4 -2 4 -6 2 -12l-8 -19c-2 -5 -6 -6 -11 -4c-25 13 -74 26 -118 26c-119 0 -195 -62 -195 -143c0 -65 47 -101 113 -137l95 -51c93 -48 147 -114 147 -201z" />
    <glyph glyph-name="Scircumflex" unicode="&#x15c;" horiz-adv-x="518" 
d="M165 822c-8 -3 -12 -1 -15 4l-6 13c-2 5 -1 9 3 12l133 101c2 2 5 3 8 3c2 0 5 -2 8 -3l130 -101c4 -3 6 -7 4 -12l-7 -13c-3 -5 -7 -7 -15 -3l-121 89zM476 191c0 -114 -89 -204 -245 -204c-69 0 -136 19 -174 45c-4 2 -5 6 -3 11l7 19c3 6 7 7 12 3
c31 -20 95 -39 155 -39c133 0 206 71 206 164c0 71 -45 125 -126 168l-95 51c-81 42 -135 90 -135 171c0 103 93 181 237 181c53 0 107 -15 136 -29c4 -2 4 -6 2 -12l-8 -19c-2 -5 -6 -6 -11 -4c-25 13 -74 26 -118 26c-119 0 -195 -62 -195 -143c0 -65 47 -101 113 -137
l95 -51c93 -48 147 -114 147 -201z" />
    <glyph glyph-name="Scaron" unicode="&#x160;" horiz-adv-x="518" 
d="M294 813c-3 -2 -6 -4 -8 -4c-3 0 -6 2 -8 4l-133 101c-4 2 -5 7 -3 12l6 14c2 4 5 7 13 4l124 -92l123 91c7 3 11 1 13 -3l7 -14c2 -5 0 -10 -4 -12zM476 191c0 -114 -89 -204 -245 -204c-69 0 -136 19 -174 45c-4 2 -5 6 -3 11l7 19c3 6 7 7 12 3c31 -20 95 -39 155 -39
c133 0 206 71 206 164c0 71 -45 125 -126 168l-95 51c-81 42 -135 90 -135 171c0 103 93 181 237 181c53 0 107 -15 136 -29c4 -2 4 -6 2 -12l-8 -19c-2 -5 -6 -6 -11 -4c-25 13 -74 26 -118 26c-119 0 -195 -62 -195 -143c0 -65 47 -101 113 -137l95 -51
c93 -48 147 -114 147 -201z" />
    <glyph glyph-name="Scedilla" unicode="&#x15e;" horiz-adv-x="518" 
d="M357 -118c0 -63 -52 -98 -119 -98c-24 0 -51 5 -66 14c-5 2 -8 6 -6 12l4 14c1 5 3 7 9 5c12 -7 34 -11 51 -11c50 0 91 25 91 73c0 42 -27 76 -53 98c-12 -1 -24 -2 -37 -2c-69 0 -136 19 -174 45c-4 2 -5 6 -3 11l7 19c3 6 7 7 12 3c31 -20 95 -39 155 -39
c133 0 206 71 206 164c0 71 -45 125 -126 168l-95 51c-81 42 -135 90 -135 171c0 103 93 181 237 181c53 0 107 -15 136 -29c4 -2 4 -6 2 -12l-8 -19c-2 -5 -6 -6 -11 -4c-25 13 -74 26 -118 26c-119 0 -195 -62 -195 -143c0 -65 47 -101 113 -137l95 -51
c93 -48 147 -114 147 -201c0 -97 -64 -176 -179 -198c26 -21 60 -61 60 -111z" />
    <glyph glyph-name="Scommaaccent" unicode="&#x218;" horiz-adv-x="518" 
d="M476 191c0 -114 -89 -204 -245 -204c-69 0 -136 19 -174 45c-4 2 -5 6 -3 11l7 19c3 6 7 7 12 3c31 -20 95 -39 155 -39c133 0 206 71 206 164c0 71 -45 125 -126 168l-95 51c-81 42 -135 90 -135 171c0 103 93 181 237 181c53 0 107 -15 136 -29c4 -2 4 -6 2 -12l-8 -19
c-2 -5 -6 -6 -11 -4c-25 13 -74 26 -118 26c-119 0 -195 -62 -195 -143c0 -65 47 -101 113 -137l95 -51c93 -48 147 -114 147 -201zM217 -205c-7 0 -9 5 -6 11l60 118c2 4 6 6 10 6h30c7 0 9 -5 5 -11l-64 -118c-2 -4 -6 -6 -10 -6h-25z" />
    <glyph glyph-name="uni1E9E" unicode="&#x1e9e;" horiz-adv-x="719" 
d="M98 8v520c0 146 111 222 244 222h301c3 0 6 -2 6 -5v-3c0 -3 -1 -4 -3 -8l-236 -328h56c115 0 215 -73 215 -198c0 -115 -90 -221 -240 -221c-59 0 -117 15 -147 34c-4 2 -4 6 -4 10v25c0 6 3 9 9 5c30 -19 83 -34 139 -34c125 0 199 83 199 179c0 109 -85 164 -182 164
h-101c-6 0 -9 5 -5 11l234 328h-239c-116 0 -204 -66 -204 -186v-515c0 -5 -3 -8 -8 -8h-26c-5 0 -8 3 -8 8z" />
    <glyph glyph-name="Tcaron" unicode="&#x164;" horiz-adv-x="612" 
d="M316 813c-3 -2 -6 -4 -8 -4c-3 0 -6 2 -8 4l-133 101c-4 2 -5 7 -3 12l6 14c2 4 5 7 13 4l124 -92l123 91c7 3 11 1 13 -3l7 -14c2 -5 0 -10 -4 -12zM319 0h-26c-5 0 -9 3 -9 8v702h-247c-5 0 -8 4 -8 8v24c0 5 3 8 8 8h538c5 0 8 -3 8 -8v-24c0 -4 -3 -8 -8 -8h-248
v-702c0 -5 -4 -8 -8 -8z" />
    <glyph glyph-name="uni021A" unicode="&#x21a;" horiz-adv-x="612" 
d="M319 0h-26c-5 0 -9 3 -9 8v702h-247c-5 0 -8 4 -8 8v24c0 5 3 8 8 8h538c5 0 8 -3 8 -8v-24c0 -4 -3 -8 -8 -8h-248v-702c0 -5 -4 -8 -8 -8zM236 -205c-7 0 -9 5 -6 11l60 118c2 4 6 6 10 6h30c7 0 9 -5 5 -11l-64 -118c-2 -4 -6 -6 -10 -6h-25z" />
    <glyph glyph-name="Tbar" unicode="&#x166;" horiz-adv-x="612" 
d="M319 0h-26c-5 0 -9 3 -9 8v371h-132c-5 0 -8 3 -8 8v18c0 5 3 8 8 8h132v297h-247c-5 0 -8 4 -8 8v24c0 5 3 8 8 8h538c5 0 8 -3 8 -8v-24c0 -4 -3 -8 -8 -8h-248v-297h132c5 0 8 -3 8 -8v-18c0 -5 -3 -8 -8 -8h-132v-371c0 -5 -4 -8 -8 -8z" />
    <glyph glyph-name="uni0162" unicode="&#x162;" horiz-adv-x="547" 
d="M259 0c-4 0 -8 3 -8 9v700h-214c-5 0 -8 4 -8 8v25c0 5 3 8 8 8h473c5 0 8 -3 8 -8v-25c0 -4 -3 -8 -8 -8h-215v-702v-2c31 -22 74 -66 74 -122c0 -63 -54 -99 -121 -99c-23 0 -51 5 -65 14c-5 2 -7 5 -7 10v16c0 5 3 8 9 5c13 -7 36 -11 54 -11c50 0 92 24 92 72
c0 51 -45 94 -72 110z" />
    <glyph glyph-name="Ugrave" unicode="&#xd9;" horiz-adv-x="782" 
d="M514 820c-1 -5 -5 -8 -11 -6l-277 93c-5 1 -7 4 -7 10l4 19c1 6 5 8 10 7l278 -96c5 -1 7 -4 6 -10zM706 319c0 -208 -124 -332 -315 -332s-315 124 -315 332v423c0 5 4 8 8 8h26c5 0 9 -3 9 -8v-425c0 -178 103 -290 272 -290s272 112 272 290v425c0 5 4 8 8 8h26
c5 0 9 -3 9 -8v-423z" />
    <glyph glyph-name="Uacute" unicode="&#xda;" horiz-adv-x="782" 
d="M585 909l-277 -93c-6 -2 -10 1 -11 6l-3 17c-1 6 1 9 6 10l278 95c6 2 9 0 10 -6l4 -19c1 -6 -2 -9 -7 -10zM706 319c0 -208 -124 -332 -315 -332s-315 124 -315 332v423c0 5 4 8 8 8h26c5 0 9 -3 9 -8v-425c0 -178 103 -290 272 -290s272 112 272 290v425c0 5 4 8 8 8
h26c5 0 9 -3 9 -8v-423z" />
    <glyph glyph-name="Ucircumflex" unicode="&#xdb;" horiz-adv-x="782" 
d="M271 822c-8 -3 -12 -1 -15 4l-6 13c-2 5 -1 9 3 12l133 101c2 2 5 3 8 3c2 0 5 -2 8 -3l130 -101c4 -3 6 -7 4 -12l-7 -13c-3 -5 -7 -7 -15 -3l-121 89zM706 319c0 -208 -124 -332 -315 -332s-315 124 -315 332v423c0 5 4 8 8 8h26c5 0 9 -3 9 -8v-425
c0 -178 103 -290 272 -290s272 112 272 290v425c0 5 4 8 8 8h26c5 0 9 -3 9 -8v-423z" />
    <glyph glyph-name="Utilde" unicode="&#x168;" horiz-adv-x="782" 
d="M516 857c-13 -7 -30 -12 -50 -12c-30 0 -52 8 -74 16s-44 16 -74 16c-24 0 -42 -5 -55 -12c-11 -5 -18 -11 -21 -15c-5 -3 -9 -1 -9 5v25c0 3 1 7 4 10c3 2 10 9 22 14c14 7 33 13 59 13c31 0 55 -8 78 -17c20 -7 42 -15 70 -15c19 0 34 5 47 11c13 7 22 16 26 21
c6 4 9 2 9 -4v-25c0 -3 0 -7 -3 -10c-4 -4 -14 -13 -29 -21zM706 319c0 -208 -124 -332 -315 -332s-315 124 -315 332v423c0 5 4 8 8 8h26c5 0 9 -3 9 -8v-425c0 -178 103 -290 272 -290s272 112 272 290v425c0 5 4 8 8 8h26c5 0 9 -3 9 -8v-423z" />
    <glyph glyph-name="Udieresis" unicode="&#xdc;" horiz-adv-x="782" 
d="M507 910c0 -21 -11 -31 -31 -31s-31 10 -31 31s11 32 31 32s31 -11 31 -32zM338 910c0 -21 -11 -31 -31 -31s-32 10 -32 31s12 32 32 32s31 -11 31 -32zM706 319c0 -208 -124 -332 -315 -332s-315 124 -315 332v423c0 5 4 8 8 8h26c5 0 9 -3 9 -8v-425
c0 -178 103 -290 272 -290s272 112 272 290v425c0 5 4 8 8 8h26c5 0 9 -3 9 -8v-423z" />
    <glyph glyph-name="Umacron" unicode="&#x16a;" horiz-adv-x="782" 
d="M542 882h-301c-5 0 -8 3 -8 8v21c0 4 3 8 8 8h301c5 0 8 -4 8 -8v-21c0 -5 -3 -8 -8 -8zM706 319c0 -208 -124 -332 -315 -332s-315 124 -315 332v423c0 5 4 8 8 8h26c5 0 9 -3 9 -8v-425c0 -178 103 -290 272 -290s272 112 272 290v425c0 5 4 8 8 8h26c5 0 9 -3 9 -8
v-423z" />
    <glyph glyph-name="Ubreve" unicode="&#x16c;" horiz-adv-x="782" 
d="M401 813h-20c-76 0 -129 43 -129 113v4c0 4 3 6 7 6h23c4 0 7 -2 7 -7v-3c0 -52 41 -83 94 -83h15c53 0 95 31 95 83v3c0 5 3 7 8 7h22c5 0 7 -2 7 -6v-4c0 -70 -53 -113 -129 -113zM706 319c0 -208 -124 -332 -315 -332s-315 124 -315 332v423c0 5 4 8 8 8h26
c5 0 9 -3 9 -8v-425c0 -178 103 -290 272 -290s272 112 272 290v425c0 5 4 8 8 8h26c5 0 9 -3 9 -8v-423z" />
    <glyph glyph-name="Uring" unicode="&#x16e;" horiz-adv-x="782" 
d="M496 890c0 -56 -43 -88 -105 -88c-63 0 -104 32 -104 88c0 54 42 86 104 86s105 -32 105 -86zM313 889c0 -40 30 -62 78 -62s79 22 79 62c0 42 -31 62 -79 62s-78 -20 -78 -62zM706 319c0 -208 -124 -332 -315 -332s-315 124 -315 332v423c0 5 4 8 8 8h26c5 0 9 -3 9 -8
v-425c0 -178 103 -290 272 -290s272 112 272 290v425c0 5 4 8 8 8h26c5 0 9 -3 9 -8v-423z" />
    <glyph glyph-name="Uhungarumlaut" unicode="&#x170;" horiz-adv-x="782" 
d="M438 824h-18c-7 0 -11 4 -6 11l98 127c4 6 8 10 14 10h20c7 0 10 -5 6 -11l-100 -127c-5 -7 -8 -10 -14 -10zM302 824h-19c-7 0 -10 4 -6 11l98 127c4 6 8 10 14 10h20c7 0 10 -5 6 -11l-99 -127c-5 -7 -8 -10 -14 -10zM706 319c0 -208 -124 -332 -315 -332
s-315 124 -315 332v423c0 5 4 8 8 8h26c5 0 9 -3 9 -8v-425c0 -178 103 -290 272 -290s272 112 272 290v425c0 5 4 8 8 8h26c5 0 9 -3 9 -8v-423z" />
    <glyph glyph-name="Uogonek" unicode="&#x172;" horiz-adv-x="782" 
d="M418 -216c-67 0 -113 28 -113 80c0 26 14 49 34 70c22 22 52 40 79 54c-9 -1 -18 -1 -27 -1c-191 0 -315 124 -315 332v423c0 5 4 8 8 8h26c5 0 9 -3 9 -8v-425c0 -178 103 -290 272 -290s272 112 272 290v425c0 5 4 8 8 8h26c5 0 9 -3 9 -8v-423
c0 -173 -86 -288 -224 -322c-36 -16 -81 -39 -110 -68c-17 -17 -28 -36 -28 -56c0 -36 34 -55 81 -55c18 0 40 4 56 11c8 3 11 1 12 -4l2 -15c2 -6 -3 -10 -8 -13c-11 -5 -44 -13 -69 -13z" />
    <glyph glyph-name="Wgrave" unicode="&#x1e80;" horiz-adv-x="1150" 
d="M686 820c-1 -5 -5 -8 -11 -6l-277 93c-5 1 -7 4 -7 10l4 19c1 6 5 8 10 7l278 -96c5 -1 7 -4 6 -10zM363 -9h-22c-4 0 -7 2 -9 6l-303 743c-2 5 0 10 6 10h31c4 0 7 -2 8 -6l276 -690l206 561c1 5 4 6 8 6h27c4 0 7 -1 8 -6l201 -561l276 690c2 4 5 6 9 6h29
c6 0 9 -5 6 -10l-302 -743c-2 -4 -5 -6 -9 -6h-22c-4 0 -7 1 -9 6l-201 558l-205 -558c-2 -5 -5 -6 -9 -6z" />
    <glyph glyph-name="Wacute" unicode="&#x1e82;" horiz-adv-x="1150" 
d="M779 909l-277 -93c-6 -2 -10 1 -11 6l-3 17c-1 6 1 9 6 10l278 95c6 2 9 0 10 -6l4 -19c1 -6 -2 -9 -7 -10zM363 -9h-22c-4 0 -7 2 -9 6l-303 743c-2 5 0 10 6 10h31c4 0 7 -2 8 -6l276 -690l206 561c1 5 4 6 8 6h27c4 0 7 -1 8 -6l201 -561l276 690c2 4 5 6 9 6h29
c6 0 9 -5 6 -10l-302 -743c-2 -4 -5 -6 -9 -6h-22c-4 0 -7 1 -9 6l-201 558l-205 -558c-2 -5 -5 -6 -9 -6z" />
    <glyph glyph-name="Wcircumflex" unicode="&#x174;" horiz-adv-x="1150" 
d="M455 822c-8 -3 -12 -1 -15 4l-6 13c-2 5 -1 9 3 12l133 101c2 2 5 3 8 3c2 0 5 -2 8 -3l130 -101c4 -3 6 -7 4 -12l-7 -13c-3 -5 -7 -7 -15 -3l-121 89zM363 -9h-22c-4 0 -7 2 -9 6l-303 743c-2 5 0 10 6 10h31c4 0 7 -2 8 -6l276 -690l206 561c1 5 4 6 8 6h27
c4 0 7 -1 8 -6l201 -561l276 690c2 4 5 6 9 6h29c6 0 9 -5 6 -10l-302 -743c-2 -4 -5 -6 -9 -6h-22c-4 0 -7 1 -9 6l-201 558l-205 -558c-2 -5 -5 -6 -9 -6z" />
    <glyph glyph-name="Wdieresis" unicode="&#x1e84;" horiz-adv-x="1150" 
d="M692 910c0 -21 -11 -31 -31 -31s-31 10 -31 31s11 32 31 32s31 -11 31 -32zM523 910c0 -21 -11 -31 -31 -31s-32 10 -32 31s12 32 32 32s31 -11 31 -32zM363 -9h-22c-4 0 -7 2 -9 6l-303 743c-2 5 0 10 6 10h31c4 0 7 -2 8 -6l276 -690l206 561c1 5 4 6 8 6h27
c4 0 7 -1 8 -6l201 -561l276 690c2 4 5 6 9 6h29c6 0 9 -5 6 -10l-302 -743c-2 -4 -5 -6 -9 -6h-22c-4 0 -7 1 -9 6l-201 558l-205 -558c-2 -5 -5 -6 -9 -6z" />
    <glyph glyph-name="Ygrave" unicode="&#x1ef2;" horiz-adv-x="698" 
d="M459 820c-1 -5 -5 -8 -11 -6l-277 93c-5 1 -7 4 -7 10l4 19c1 6 5 8 10 7l278 -96c5 -1 7 -4 6 -10zM362 0h-26c-5 0 -9 3 -9 8v221l-298 511c-3 5 0 10 6 10h30c4 0 8 -2 10 -6l274 -470l275 470c2 4 6 6 10 6h29c6 0 9 -5 6 -10l-299 -511v-221c0 -5 -3 -8 -8 -8z" />
    <glyph glyph-name="Yacute" unicode="&#xdd;" horiz-adv-x="698" 
d="M546 909l-277 -93c-6 -2 -10 1 -11 6l-3 17c-1 6 1 9 6 10l278 95c6 2 9 0 10 -6l4 -19c1 -6 -2 -9 -7 -10zM362 0h-26c-5 0 -9 3 -9 8v221l-298 511c-3 5 0 10 6 10h30c4 0 8 -2 10 -6l274 -470l275 470c2 4 6 6 10 6h29c6 0 9 -5 6 -10l-299 -511v-221
c0 -5 -3 -8 -8 -8z" />
    <glyph glyph-name="Ycircumflex" unicode="&#x176;" horiz-adv-x="698" 
d="M229 822c-8 -3 -12 -1 -15 4l-6 13c-2 5 -1 9 3 12l133 101c2 2 5 3 8 3c2 0 5 -2 8 -3l130 -101c4 -3 6 -7 4 -12l-7 -13c-3 -5 -7 -7 -15 -3l-121 89zM362 0h-26c-5 0 -9 3 -9 8v221l-298 511c-3 5 0 10 6 10h30c4 0 8 -2 10 -6l274 -470l275 470c2 4 6 6 10 6h29
c6 0 9 -5 6 -10l-299 -511v-221c0 -5 -3 -8 -8 -8z" />
    <glyph glyph-name="Ydieresis" unicode="&#x178;" horiz-adv-x="698" 
d="M466 910c0 -21 -11 -31 -31 -31s-31 10 -31 31s11 32 31 32s31 -11 31 -32zM297 910c0 -21 -11 -31 -31 -31s-32 10 -32 31s12 32 32 32s31 -11 31 -32zM362 0h-26c-5 0 -9 3 -9 8v221l-298 511c-3 5 0 10 6 10h30c4 0 8 -2 10 -6l274 -470l275 470c2 4 6 6 10 6h29
c6 0 9 -5 6 -10l-299 -511v-221c0 -5 -3 -8 -8 -8z" />
    <glyph glyph-name="Zacute" unicode="&#x179;" horiz-adv-x="620" 
d="M517 909l-277 -93c-6 -2 -10 1 -11 6l-3 17c-1 6 1 9 6 10l278 95c6 2 9 0 10 -6l4 -19c1 -6 -2 -9 -7 -10zM577 0h-525c-5 0 -9 3 -9 8v21c0 4 2 7 4 10l467 671h-439c-5 0 -8 4 -8 8v24c0 5 3 8 8 8h485c5 0 8 -3 8 -8v-21c0 -4 -1 -7 -4 -10l-466 -671h479
c4 0 8 -4 8 -8v-24c0 -5 -4 -8 -8 -8z" />
    <glyph glyph-name="Zcaron" unicode="&#x17d;" horiz-adv-x="620" 
d="M342 813c-3 -2 -6 -4 -8 -4c-3 0 -6 2 -8 4l-133 101c-4 2 -5 7 -3 12l6 14c2 4 5 7 13 4l124 -92l123 91c7 3 11 1 13 -3l7 -14c2 -5 0 -10 -4 -12zM577 0h-525c-5 0 -9 3 -9 8v21c0 4 2 7 4 10l467 671h-439c-5 0 -8 4 -8 8v24c0 5 3 8 8 8h485c5 0 8 -3 8 -8v-21
c0 -4 -1 -7 -4 -10l-466 -671h479c4 0 8 -4 8 -8v-24c0 -5 -4 -8 -8 -8z" />
    <glyph glyph-name="Zdotaccent" unicode="&#x17b;" horiz-adv-x="620" 
d="M353 918c0 -20 -10 -31 -31 -31c-20 0 -31 11 -31 31c0 22 11 32 31 32c21 0 31 -10 31 -32zM577 0h-525c-5 0 -9 3 -9 8v21c0 4 2 7 4 10l467 671h-439c-5 0 -8 4 -8 8v24c0 5 3 8 8 8h485c5 0 8 -3 8 -8v-21c0 -4 -1 -7 -4 -10l-466 -671h479c4 0 8 -4 8 -8v-24
c0 -5 -4 -8 -8 -8z" />
    <glyph glyph-name="a" unicode="a" horiz-adv-x="596" 
d="M233 -13c-107 0 -179 61 -179 150c0 45 17 82 46 111c52 53 144 79 244 79c44 0 89 -4 133 -15v48c0 103 -71 158 -191 158c-72 0 -134 -19 -170 -36c-6 -2 -10 0 -12 4l-6 18c-2 5 -2 10 4 13c41 19 102 39 187 39c146 0 230 -71 230 -201v-177c0 -68 7 -136 13 -169
c1 -5 -3 -9 -8 -9h-18c-7 0 -11 2 -12 6c-6 26 -15 80 -17 141c-30 -86 -127 -160 -244 -160zM95 140c0 -69 58 -117 142 -117c133 0 240 98 240 217v41c-41 11 -86 16 -130 16c-87 0 -169 -22 -215 -69c-23 -23 -37 -53 -37 -88z" />
    <glyph glyph-name="b" unicode="b" horiz-adv-x="690" 
d="M113 0h-22c-5 0 -8 3 -8 8v757c0 4 2 7 7 8l23 7c5 2 10 -1 10 -7v-367c42 94 131 150 242 150c158 0 274 -117 274 -283s-116 -286 -274 -286c-112 0 -203 61 -245 160v-139c0 -5 -3 -8 -7 -8zM119 272c0 -145 104 -247 242 -247c136 0 237 102 237 248
s-101 245 -237 245c-138 0 -242 -99 -242 -246z" />
    <glyph glyph-name="c" unicode="c" horiz-adv-x="600" 
d="M552 78c-51 -57 -126 -91 -216 -91c-163 0 -285 118 -285 284c0 165 122 285 285 285c90 0 166 -35 217 -91c3 -4 3 -8 -1 -12l-13 -15c-4 -4 -8 -4 -12 0c-46 51 -111 81 -191 81c-138 0 -245 -104 -245 -248c0 -146 106 -247 245 -247c80 0 145 29 191 80c4 4 9 4 12 0
l13 -15c2 -3 3 -8 0 -11z" />
    <glyph glyph-name="d" unicode="d" horiz-adv-x="680" 
d="M597 0h-22c-4 0 -7 3 -7 8v137c-41 -98 -131 -158 -244 -158c-157 0 -273 118 -273 284c0 165 116 285 273 285c110 0 199 -58 241 -152v361c0 4 2 7 7 8l23 7c5 2 10 -1 10 -7v-765c0 -5 -4 -8 -8 -8zM91 271c0 -146 101 -247 237 -247c138 0 241 101 241 247
c0 145 -103 248 -241 248c-136 0 -237 -103 -237 -248z" />
    <glyph glyph-name="e" unicode="e" horiz-adv-x="616" 
d="M544 29c-49 -27 -119 -42 -187 -42c-191 0 -306 112 -306 291c0 162 118 278 270 278c159 0 251 -116 251 -265v-12c-1 -9 -6 -13 -14 -13h-467c6 -152 104 -241 268 -241c66 0 129 15 170 37c6 2 10 1 12 -5l6 -17c2 -5 1 -9 -3 -11zM320 520c-122 0 -219 -88 -228 -220
h441c-3 124 -76 220 -213 220z" />
    <glyph glyph-name="f" unicode="f" horiz-adv-x="327" 
d="M162 0h-26c-5 0 -8 3 -8 8v498h-116c-4 0 -8 3 -8 8v21c0 5 4 8 8 8h116v94c0 102 60 154 163 154c26 0 49 -3 67 -10c5 -2 6 -5 5 -10l-6 -18c-1 -5 -5 -8 -10 -6c-14 6 -32 8 -52 8c-80 0 -125 -38 -125 -118v-94h166c5 0 8 -3 8 -8v-21c0 -5 -3 -8 -8 -8h-166v-498
c0 -5 -3 -8 -8 -8z" />
    <glyph glyph-name="g" unicode="g" horiz-adv-x="690" 
d="M607 47c0 -160 -89 -263 -278 -263c-100 0 -180 32 -228 67c-4 3 -5 6 -3 11l8 19c3 5 6 6 12 3c48 -34 120 -63 211 -63c169 0 240 94 240 225v97c-42 -97 -132 -156 -244 -156c-158 0 -274 118 -274 283s119 286 274 286c113 0 203 -58 244 -155v135c0 5 5 7 9 7h21
c5 0 8 -3 8 -8v-488zM92 270c0 -145 101 -245 238 -245s240 101 240 246c0 147 -102 247 -240 247c-134 0 -238 -103 -238 -248z" />
    <glyph glyph-name="h" unicode="h" horiz-adv-x="654" 
d="M117 0h-26c-5 0 -8 3 -8 8v757c0 4 2 7 7 8l24 7c5 2 9 -1 9 -7v-382c24 88 102 165 222 165c141 0 232 -96 232 -256v-292c0 -5 -3 -8 -8 -8h-25c-5 0 -8 3 -8 8v285c0 140 -75 227 -197 227c-123 0 -214 -95 -214 -245v-267c0 -5 -4 -8 -8 -8z" />
    <glyph glyph-name="i" unicode="i" horiz-adv-x="252" 
d="M157 729c0 -21 -11 -32 -31 -32s-31 11 -31 32s11 31 31 31s31 -10 31 -31zM138 0h-25c-5 0 -8 3 -8 8v527c0 5 3 8 8 8h25c5 0 9 -3 9 -8v-527c0 -5 -4 -8 -9 -8z" />
    <glyph glyph-name="j" unicode="j" horiz-adv-x="269" 
d="M176 729c0 -21 -11 -32 -32 -32c-20 0 -31 11 -31 32s11 31 31 31c21 0 32 -10 32 -31zM165 -33c0 -111 -50 -161 -110 -181c-5 -2 -9 0 -10 5l-7 22c-1 6 0 8 6 10c45 17 79 55 79 145v567c0 5 4 8 9 8h25c5 0 8 -3 8 -8v-568z" />
    <glyph glyph-name="k" unicode="k" horiz-adv-x="511" 
d="M114 0h-23c-5 0 -8 3 -8 8v757c0 4 2 7 7 8l22 7c5 2 10 -1 10 -7v-453h69l235 219c3 3 6 4 10 4h28c7 0 10 -4 5 -10l-244 -229l262 -294c4 -6 2 -10 -5 -10h-30c-4 0 -8 2 -10 5l-251 279h-69v-276c0 -5 -3 -8 -8 -8z" />
    <glyph glyph-name="l" unicode="l" horiz-adv-x="208" 
d="M117 0h-26c-5 0 -8 3 -8 8v756c0 5 2 8 7 9l25 7c5 2 10 -1 10 -7v-765c0 -5 -4 -8 -8 -8z" />
    <glyph glyph-name="m" unicode="m" horiz-adv-x="1056" 
d="M117 0h-26c-5 0 -8 3 -8 8v527c0 5 3 8 8 8h24c5 0 8 -3 8 -7v-129c22 77 97 149 208 149c108 0 186 -59 212 -159c23 80 98 159 214 159c135 0 222 -89 222 -238v-310c0 -5 -4 -8 -8 -8h-26c-5 0 -8 3 -8 8v305c0 128 -71 207 -186 207c-114 0 -199 -90 -199 -226v-286
c0 -5 -3 -8 -8 -8h-25c-5 0 -8 3 -8 8v305c0 127 -72 207 -186 207c-117 0 -200 -89 -200 -226v-286c0 -5 -4 -8 -8 -8z" />
    <glyph glyph-name="n" unicode="n" horiz-adv-x="654" 
d="M117 0h-26c-5 0 -8 3 -8 8v527c0 5 3 8 8 8h24c4 0 8 -3 8 -7v-145c24 88 102 165 222 165c141 0 232 -96 232 -256v-292c0 -5 -3 -8 -8 -8h-25c-5 0 -8 3 -8 8v285c0 140 -75 227 -197 227c-123 0 -214 -95 -214 -245v-267c0 -5 -4 -8 -8 -8z" />
    <glyph glyph-name="o" unicode="o" horiz-adv-x="674" 
d="M623 271c0 -166 -120 -284 -287 -284c-163 0 -285 118 -285 284c0 165 122 285 285 285c168 0 287 -120 287 -285zM91 271c0 -146 106 -247 245 -247c143 0 247 101 247 247c0 145 -104 248 -247 248c-138 0 -245 -104 -245 -248z" />
    <glyph glyph-name="p" unicode="p" horiz-adv-x="690" 
d="M115 -205h-24c-5 0 -8 3 -8 8v732c0 5 3 8 8 8h21c4 0 9 -2 9 -7v-135c42 97 132 155 244 155c158 0 274 -117 274 -283s-116 -286 -274 -286c-109 0 -199 58 -242 153v-337c0 -5 -3 -8 -8 -8zM119 272c0 -145 104 -247 242 -247c136 0 237 102 237 248
s-101 245 -237 245c-138 0 -242 -99 -242 -246z" />
    <glyph glyph-name="q" unicode="q" horiz-adv-x="690" 
d="M599 -205h-24c-5 0 -8 3 -8 8v336c-43 -95 -132 -152 -242 -152c-158 0 -274 119 -274 285c0 167 116 284 274 284c112 0 202 -59 244 -155v135c0 5 5 7 9 7h21c5 0 8 -3 8 -8v-732c0 -5 -3 -8 -8 -8zM92 272c0 -146 101 -247 237 -247c138 0 242 101 242 246
c0 147 -104 247 -242 247c-136 0 -237 -100 -237 -246z" />
    <glyph glyph-name="r" unicode="r" horiz-adv-x="414" 
d="M117 0h-26c-5 0 -8 3 -8 8v527c0 5 3 8 8 8h24c4 0 8 -2 8 -7v-119c22 71 89 139 192 139c29 0 61 -5 83 -16c5 -1 6 -4 4 -9l-6 -24c-1 -5 -5 -7 -10 -6c-21 11 -49 15 -77 15c-104 0 -184 -79 -184 -211v-297c0 -5 -4 -8 -8 -8z" />
    <glyph glyph-name="s" unicode="s" horiz-adv-x="479" 
d="M420 146c0 -89 -73 -159 -203 -159c-61 0 -115 15 -145 34c-4 2 -5 5 -4 11l8 19c2 5 4 6 10 3c27 -17 76 -30 128 -30c106 0 166 50 166 120c0 60 -38 93 -110 120l-69 27c-71 28 -117 64 -117 131c0 77 76 134 187 134c41 0 85 -11 116 -27c4 -2 5 -6 3 -11l-7 -18
c-2 -5 -6 -6 -11 -4c-26 13 -63 23 -101 23c-86 0 -145 -38 -145 -97c0 -52 35 -76 94 -99l67 -26c86 -34 133 -77 133 -151z" />
    <glyph glyph-name="t" unicode="t" horiz-adv-x="374" 
d="M350 5c-21 -11 -53 -18 -84 -18c-95 0 -151 59 -151 163v356h-101c-5 0 -8 3 -8 8v21c0 5 3 8 8 8h101v154c0 4 2 7 7 8l25 7c5 1 10 -1 10 -7v-162h189c5 0 8 -3 8 -8v-21c0 -5 -3 -8 -8 -8h-189v-356c0 -81 43 -124 112 -124c25 0 52 6 71 16c6 1 9 1 10 -5l5 -21
c1 -6 0 -9 -5 -11z" />
    <glyph glyph-name="u" unicode="u" horiz-adv-x="638" 
d="M561 241c0 -159 -96 -254 -242 -254c-145 0 -242 95 -242 255v293c0 5 3 8 8 8h25c5 0 8 -3 8 -8v-296c0 -131 78 -214 201 -214c124 0 200 82 200 214v296c0 5 4 8 9 8h25c5 0 8 -3 8 -8v-294z" />
    <glyph glyph-name="v" unicode="v" horiz-adv-x="558" 
d="M289 -9h-20c-5 0 -8 2 -11 8l-229 535c-2 5 1 9 6 9h28c5 0 8 -2 10 -6l206 -495l206 495c2 4 5 6 10 6h28c5 0 8 -4 6 -9l-229 -535c-2 -5 -5 -8 -11 -8z" />
    <glyph glyph-name="w" unicode="w" horiz-adv-x="926" 
d="M287 -9h-19c-4 0 -7 2 -9 6l-230 537c-2 5 1 9 7 9h26c5 0 8 -1 9 -6l207 -486l168 415c2 5 4 6 9 6h17c5 0 8 -1 9 -6l168 -418l206 489c2 5 5 6 9 6h27c6 0 8 -4 6 -9l-230 -537c-2 -4 -5 -6 -10 -6h-18c-4 0 -7 2 -9 6l-167 418l-167 -418c-2 -4 -5 -6 -9 -6z" />
    <glyph glyph-name="x" unicode="x" horiz-adv-x="573" 
d="M74 0h-30c-6 0 -9 4 -5 10l223 268l-211 255c-4 5 -2 10 4 10h31c4 0 7 -1 10 -4l190 -234l191 234c2 4 6 4 10 4h30c7 0 9 -5 5 -10l-212 -255l223 -268c4 -6 2 -10 -4 -10h-31c-4 0 -8 1 -10 5l-202 246l-202 -246c-2 -4 -5 -5 -10 -5z" />
    <glyph glyph-name="y" unicode="y" horiz-adv-x="588" 
d="M219 -205h-22c-7 0 -9 5 -7 10l78 177l-251 552c-2 5 0 9 6 9h28c5 0 7 -2 9 -6l230 -508l225 508c1 4 4 6 9 6h28c6 0 9 -4 6 -9l-330 -733c-1 -4 -4 -6 -9 -6z" />
    <glyph glyph-name="z" unicode="z" horiz-adv-x="490" 
d="M455 0h-421c-5 0 -8 3 -8 8v16c0 4 1 8 4 11l376 471h-348c-4 0 -8 3 -8 8v21c0 5 4 8 8 8h395c5 0 8 -3 8 -8v-15c0 -4 -1 -8 -4 -10l-374 -473h372c5 0 8 -3 8 -8v-21c0 -5 -3 -8 -8 -8z" />
    <glyph glyph-name="agrave" unicode="&#xe0;" horiz-adv-x="596" 
d="M444 635c-1 -6 -5 -8 -11 -6l-278 94c-4 1 -6 4 -6 9l4 19c1 6 5 8 10 6l279 -95c4 -2 6 -5 5 -10zM233 -13c-107 0 -179 61 -179 150c0 45 17 82 46 111c52 53 144 79 244 79c44 0 89 -4 133 -15v48c0 103 -71 158 -191 158c-72 0 -134 -19 -170 -36c-6 -2 -10 0 -12 4
l-6 18c-2 5 -2 10 4 13c41 19 102 39 187 39c146 0 230 -71 230 -201v-177c0 -68 7 -136 13 -169c1 -5 -3 -9 -8 -9h-18c-7 0 -11 2 -12 6c-6 26 -15 80 -17 141c-30 -86 -127 -160 -244 -160zM95 140c0 -69 58 -117 142 -117c133 0 240 98 240 217v41
c-41 11 -86 16 -130 16c-87 0 -169 -22 -215 -69c-23 -23 -37 -53 -37 -88z" />
    <glyph glyph-name="aacute" unicode="&#xe1;" horiz-adv-x="610" 
d="M485 723l-278 -94c-6 -2 -10 1 -11 6l-3 17c-1 5 1 8 5 10l279 95c5 2 9 0 10 -6l4 -19c1 -5 -1 -8 -6 -9zM233 -13c-107 0 -179 61 -179 150c0 45 17 82 46 111c52 53 144 79 244 79c44 0 89 -4 133 -15v48c0 103 -71 158 -191 158c-72 0 -134 -19 -170 -36
c-6 -2 -10 0 -12 4l-6 18c-2 5 -2 10 4 13c41 19 102 39 187 39c146 0 230 -71 230 -201v-177c0 -68 7 -136 13 -169c1 -5 -3 -9 -8 -9h-18c-7 0 -11 2 -12 6c-6 26 -15 80 -17 141c-30 -86 -127 -160 -244 -160zM95 140c0 -69 58 -117 142 -117c133 0 240 98 240 217v41
c-41 11 -86 16 -130 16c-87 0 -169 -22 -215 -69c-23 -23 -37 -53 -37 -88z" />
    <glyph glyph-name="acircumflex" unicode="&#xe2;" horiz-adv-x="596" 
d="M180 634c-8 -4 -12 -1 -15 3l-6 14c-3 5 -1 9 3 11l133 102c2 1 5 3 8 3c2 0 5 -2 8 -3l130 -102c4 -2 6 -6 4 -11l-7 -14c-3 -4 -7 -6 -15 -2l-121 89zM233 -13c-107 0 -179 61 -179 150c0 45 17 82 46 111c52 53 144 79 244 79c44 0 89 -4 133 -15v48
c0 103 -71 158 -191 158c-72 0 -134 -19 -170 -36c-6 -2 -10 0 -12 4l-6 18c-2 5 -2 10 4 13c41 19 102 39 187 39c146 0 230 -71 230 -201v-177c0 -68 7 -136 13 -169c1 -5 -3 -9 -8 -9h-18c-7 0 -11 2 -12 6c-6 26 -15 80 -17 141c-30 -86 -127 -160 -244 -160zM95 140
c0 -69 58 -117 142 -117c133 0 240 98 240 217v41c-41 11 -86 16 -130 16c-87 0 -169 -22 -215 -69c-23 -23 -37 -53 -37 -88z" />
    <glyph glyph-name="atilde" unicode="&#xe3;" horiz-adv-x="596" 
d="M439 657c-13 -6 -30 -12 -50 -12c-30 0 -52 8 -74 16s-44 16 -74 16c-22 0 -39 -4 -52 -10c-14 -6 -21 -12 -27 -17c-3 -2 -6 -1 -6 3v24c0 6 1 10 5 14c3 3 10 9 22 14c14 7 32 13 58 13c31 0 55 -9 78 -18c20 -7 42 -15 70 -15c19 0 34 5 46 11c16 7 25 16 30 22
c3 3 6 1 6 -2v-25c0 -6 -1 -11 -6 -15c-5 -6 -13 -13 -26 -19zM233 -13c-107 0 -179 61 -179 150c0 45 17 82 46 111c52 53 144 79 244 79c44 0 89 -4 133 -15v48c0 103 -71 158 -191 158c-72 0 -134 -19 -170 -36c-6 -2 -10 0 -12 4l-6 18c-2 5 -2 10 4 13
c41 19 102 39 187 39c146 0 230 -71 230 -201v-177c0 -68 7 -136 13 -169c1 -5 -3 -9 -8 -9h-18c-7 0 -11 2 -12 6c-6 26 -15 80 -17 141c-30 -86 -127 -160 -244 -160zM95 140c0 -69 58 -117 142 -117c133 0 240 98 240 217v41c-41 11 -86 16 -130 16
c-87 0 -169 -22 -215 -69c-23 -23 -37 -53 -37 -88z" />
    <glyph glyph-name="adieresis" unicode="&#xe4;" horiz-adv-x="596" 
d="M423 690c0 -21 -10 -32 -31 -32c-20 0 -31 11 -31 32s11 31 31 31c21 0 31 -10 31 -31zM254 690c0 -21 -11 -32 -31 -32s-31 11 -31 32s11 31 31 31s31 -10 31 -31zM233 -13c-107 0 -179 61 -179 150c0 45 17 82 46 111c52 53 144 79 244 79c44 0 89 -4 133 -15v48
c0 103 -71 158 -191 158c-72 0 -134 -19 -170 -36c-6 -2 -10 0 -12 4l-6 18c-2 5 -2 10 4 13c41 19 102 39 187 39c146 0 230 -71 230 -201v-177c0 -68 7 -136 13 -169c1 -5 -3 -9 -8 -9h-18c-7 0 -11 2 -12 6c-6 26 -15 80 -17 141c-30 -86 -127 -160 -244 -160zM95 140
c0 -69 58 -117 142 -117c133 0 240 98 240 217v41c-41 11 -86 16 -130 16c-87 0 -169 -22 -215 -69c-23 -23 -37 -53 -37 -88z" />
    <glyph glyph-name="amacron" unicode="&#x101;" horiz-adv-x="596" 
d="M463 704h-301c-5 0 -8 3 -8 8v21c0 5 3 8 8 8h301c5 0 8 -3 8 -8v-21c0 -5 -3 -8 -8 -8zM233 -13c-107 0 -179 61 -179 150c0 45 17 82 46 111c52 53 144 79 244 79c44 0 89 -4 133 -15v48c0 103 -71 158 -191 158c-72 0 -134 -19 -170 -36c-6 -2 -10 0 -12 4l-6 18
c-2 5 -2 10 4 13c41 19 102 39 187 39c146 0 230 -71 230 -201v-177c0 -68 7 -136 13 -169c1 -5 -3 -9 -8 -9h-18c-7 0 -11 2 -12 6c-6 26 -15 80 -17 141c-30 -86 -127 -160 -244 -160zM95 140c0 -69 58 -117 142 -117c133 0 240 98 240 217v41c-41 11 -86 16 -130 16
c-87 0 -169 -22 -215 -69c-23 -23 -37 -53 -37 -88z" />
    <glyph glyph-name="abreve" unicode="&#x103;" horiz-adv-x="596" 
d="M312 633h-21c-76 0 -129 43 -129 116v22c0 5 3 8 8 8h21c5 0 8 -3 8 -8v-23c0 -54 42 -86 95 -86h14c52 0 95 32 95 86v23c0 5 4 8 9 8h20c5 0 9 -3 9 -8v-22c0 -72 -54 -116 -129 -116zM233 -13c-107 0 -179 61 -179 150c0 45 17 82 46 111c52 53 144 79 244 79
c44 0 89 -4 133 -15v48c0 103 -71 158 -191 158c-72 0 -134 -19 -170 -36c-6 -2 -10 0 -12 4l-6 18c-2 5 -2 10 4 13c41 19 102 39 187 39c146 0 230 -71 230 -201v-177c0 -68 7 -136 13 -169c1 -5 -3 -9 -8 -9h-18c-7 0 -11 2 -12 6c-6 26 -15 80 -17 141
c-30 -86 -127 -160 -244 -160zM95 140c0 -69 58 -117 142 -117c133 0 240 98 240 217v41c-41 11 -86 16 -130 16c-87 0 -169 -22 -215 -69c-23 -23 -37 -53 -37 -88z" />
    <glyph glyph-name="aring" unicode="&#xe5;" horiz-adv-x="596" 
d="M410 720c0 -56 -44 -88 -106 -88c-63 0 -104 32 -104 88c0 54 42 86 104 86s106 -32 106 -86zM224 719c0 -41 31 -63 80 -63c50 0 81 22 81 63c0 43 -31 64 -81 64c-49 0 -80 -21 -80 -64zM233 -13c-107 0 -179 61 -179 150c0 45 17 82 46 111c52 53 144 79 244 79
c44 0 89 -4 133 -15v48c0 103 -71 158 -191 158c-72 0 -134 -19 -170 -36c-6 -2 -10 0 -12 4l-6 18c-2 5 -2 10 4 13c41 19 102 39 187 39c146 0 230 -71 230 -201v-177c0 -68 7 -136 13 -169c1 -5 -3 -9 -8 -9h-18c-7 0 -11 2 -12 6c-6 26 -15 80 -17 141
c-30 -86 -127 -160 -244 -160zM95 140c0 -69 58 -117 142 -117c133 0 240 98 240 217v41c-41 11 -86 16 -130 16c-87 0 -169 -22 -215 -69c-23 -23 -37 -53 -37 -88z" />
    <glyph glyph-name="aringacute" unicode="&#x1fb;" horiz-adv-x="596" 
d="M407 720c0 -56 -44 -88 -106 -88c-63 0 -104 32 -104 88c0 54 42 86 104 86h5l61 82c4 5 7 6 12 6h33c7 0 9 -5 4 -10l-76 -83c40 -10 67 -39 67 -81zM221 719c0 -41 31 -63 80 -63c50 0 81 22 81 63c0 43 -31 64 -81 64c-49 0 -80 -21 -80 -64zM233 -13
c-107 0 -179 61 -179 150c0 45 17 82 46 111c52 53 144 79 244 79c44 0 89 -4 133 -15v48c0 103 -71 158 -191 158c-72 0 -134 -19 -170 -36c-6 -2 -10 0 -12 4l-6 18c-2 5 -2 10 4 13c41 19 102 39 187 39c146 0 230 -71 230 -201v-177c0 -68 7 -136 13 -169
c1 -5 -3 -9 -8 -9h-18c-7 0 -11 2 -12 6c-6 26 -15 80 -17 141c-30 -86 -127 -160 -244 -160zM95 140c0 -69 58 -117 142 -117c133 0 240 98 240 217v41c-41 11 -86 16 -130 16c-87 0 -169 -22 -215 -69c-23 -23 -37 -53 -37 -88z" />
    <glyph glyph-name="aogonek" unicode="&#x105;" horiz-adv-x="596" 
d="M233 -13c-107 0 -179 61 -179 150c0 45 17 82 46 111c52 53 144 79 244 79c44 0 89 -4 133 -15v48c0 103 -71 158 -191 158c-72 0 -134 -19 -170 -36c-6 -2 -10 0 -12 4l-6 18c-2 5 -2 10 4 13c41 19 102 39 187 39c146 0 230 -71 230 -201v-177c0 -68 7 -136 13 -169
c2 -5 -3 -9 -8 -9h-1c-32 -8 -107 -35 -145 -72c-16 -16 -27 -35 -27 -55c0 -37 34 -56 81 -56c19 0 43 4 60 12c6 3 8 1 8 -4v-18c0 -6 -3 -9 -8 -11c-11 -5 -38 -13 -67 -13c-67 0 -113 29 -113 80c0 28 13 50 33 70c39 39 111 66 148 76c-6 26 -14 79 -16 138
c-30 -86 -127 -160 -244 -160zM95 140c0 -69 58 -117 142 -117c133 0 240 98 240 217v41c-41 11 -86 16 -130 16c-87 0 -169 -22 -215 -69c-23 -23 -37 -53 -37 -88z" />
    <glyph glyph-name="ae" unicode="&#xe6;" horiz-adv-x="1045" 
d="M233 -13c-107 0 -179 61 -179 150c0 45 17 82 46 111c52 53 144 79 244 79c44 0 89 -4 133 -15v48c0 103 -71 158 -191 158c-72 0 -134 -19 -170 -36c-6 -2 -10 0 -12 4l-6 18c-2 5 -2 10 4 13c41 19 102 39 187 39c122 0 201 -50 223 -142c46 87 135 142 239 142
c158 0 251 -118 251 -265c0 -4 0 -9 -1 -12c0 -9 -5 -13 -14 -13h-467c6 -152 105 -241 269 -241c65 0 126 14 170 37c5 2 9 1 11 -5l6 -17c2 -5 1 -9 -3 -11c-49 -27 -118 -42 -186 -42c-126 0 -219 48 -268 132v-111c0 -5 -4 -8 -8 -8h-21c-5 0 -8 3 -9 8l-4 139
c-30 -86 -126 -160 -244 -160zM750 520c-123 0 -220 -88 -229 -220h442c-3 124 -77 220 -213 220zM95 140c0 -69 58 -117 142 -117c133 0 240 98 240 217v41c-41 11 -86 16 -130 16c-87 0 -169 -22 -215 -69c-23 -23 -37 -53 -37 -88z" />
    <glyph glyph-name="aeacute" unicode="&#x1fd;" horiz-adv-x="1045" 
d="M727 723l-278 -94c-6 -2 -10 1 -11 6l-3 17c-1 5 1 8 5 10l279 95c5 2 9 0 10 -6l4 -19c1 -5 -1 -8 -6 -9zM233 -13c-107 0 -179 61 -179 150c0 45 17 82 46 111c52 53 144 79 244 79c44 0 89 -4 133 -15v48c0 103 -71 158 -191 158c-72 0 -134 -19 -170 -36
c-6 -2 -10 0 -12 4l-6 18c-2 5 -2 10 4 13c41 19 102 39 187 39c122 0 201 -50 223 -142c46 87 135 142 239 142c158 0 251 -118 251 -265c0 -4 0 -9 -1 -12c0 -9 -5 -13 -14 -13h-467c6 -152 105 -241 269 -241c65 0 126 14 170 37c5 2 9 1 11 -5l6 -17c2 -5 1 -9 -3 -11
c-49 -27 -118 -42 -186 -42c-126 0 -219 48 -268 132v-111c0 -5 -4 -8 -8 -8h-21c-5 0 -8 3 -9 8l-4 139c-30 -86 -126 -160 -244 -160zM750 520c-123 0 -220 -88 -229 -220h442c-3 124 -77 220 -213 220zM95 140c0 -69 58 -117 142 -117c133 0 240 98 240 217v41
c-41 11 -86 16 -130 16c-87 0 -169 -22 -215 -69c-23 -23 -37 -53 -37 -88z" />
    <glyph glyph-name="cacute" unicode="&#x107;" horiz-adv-x="600" 
d="M489 722l-254 -91c-5 -2 -9 1 -10 7l-2 18c-1 5 2 8 6 9l254 92c5 2 9 0 10 -6l2 -20c1 -5 -2 -7 -6 -9zM552 78c-51 -57 -126 -91 -216 -91c-163 0 -285 118 -285 284c0 165 122 285 285 285c90 0 166 -35 217 -91c3 -4 3 -8 -1 -12l-13 -15c-4 -4 -8 -4 -12 0
c-46 51 -111 81 -191 81c-138 0 -245 -104 -245 -248c0 -146 106 -247 245 -247c80 0 145 29 191 80c4 4 9 4 12 0l13 -15c2 -3 3 -8 0 -11z" />
    <glyph glyph-name="ccircumflex" unicode="&#x109;" horiz-adv-x="600" 
d="M209 634c-8 -4 -12 -1 -15 3l-6 14c-3 5 -1 9 3 11l133 102c2 1 5 3 8 3c2 0 5 -2 8 -3l130 -102c4 -2 6 -6 4 -11l-7 -14c-3 -4 -7 -6 -15 -2l-121 89zM552 78c-51 -57 -126 -91 -216 -91c-163 0 -285 118 -285 284c0 165 122 285 285 285c90 0 166 -35 217 -91
c3 -4 3 -8 -1 -12l-13 -15c-4 -4 -8 -4 -12 0c-46 51 -111 81 -191 81c-138 0 -245 -104 -245 -248c0 -146 106 -247 245 -247c80 0 145 29 191 80c4 4 9 4 12 0l13 -15c2 -3 3 -8 0 -11z" />
    <glyph glyph-name="ccaron" unicode="&#x10d;" horiz-adv-x="600" 
d="M341 632c-3 -2 -6 -3 -8 -3c-3 0 -6 1 -8 3l-133 101c-4 3 -6 7 -3 12l6 14c2 4 6 8 13 4l124 -92l123 91c7 4 11 1 13 -3l7 -14c2 -5 0 -9 -4 -12zM552 78c-51 -57 -126 -91 -216 -91c-163 0 -285 118 -285 284c0 165 122 285 285 285c90 0 166 -35 217 -91
c3 -4 3 -8 -1 -12l-13 -15c-4 -4 -8 -4 -12 0c-46 51 -111 81 -191 81c-138 0 -245 -104 -245 -248c0 -146 106 -247 245 -247c80 0 145 29 191 80c4 4 9 4 12 0l13 -15c2 -3 3 -8 0 -11z" />
    <glyph glyph-name="cdotaccent" unicode="&#x10b;" horiz-adv-x="600" 
d="M365 695c0 -21 -10 -32 -31 -32c-20 0 -31 11 -31 32s11 31 31 31c21 0 31 -10 31 -31zM552 78c-51 -57 -126 -91 -216 -91c-163 0 -285 118 -285 284c0 165 122 285 285 285c90 0 166 -35 217 -91c3 -4 3 -8 -1 -12l-13 -15c-4 -4 -8 -4 -12 0c-46 51 -111 81 -191 81
c-138 0 -245 -104 -245 -248c0 -146 106 -247 245 -247c80 0 145 29 191 80c4 4 9 4 12 0l13 -15c2 -3 3 -8 0 -11z" />
    <glyph glyph-name="ccedilla" unicode="&#xe7;" horiz-adv-x="600" 
d="M415 -119c0 -63 -52 -98 -119 -98c-24 0 -51 5 -66 14c-5 2 -8 6 -6 12l4 14c1 5 3 7 9 5c12 -7 34 -11 51 -11c50 0 91 25 91 73c0 42 -26 75 -52 97c-158 4 -276 121 -276 284c0 165 122 285 285 285c90 0 166 -35 217 -91c3 -4 3 -8 -1 -12l-13 -15c-4 -4 -8 -4 -12 0
c-46 51 -111 81 -191 81c-138 0 -245 -104 -245 -248c0 -146 106 -247 245 -247c80 0 145 29 191 80c4 4 9 4 12 0l13 -15c2 -3 3 -8 0 -11c-47 -52 -113 -85 -193 -90c26 -22 56 -60 56 -107z" />
    <glyph glyph-name="dcaron" unicode="&#x10f;" horiz-adv-x="808" 
d="M597 0h-22c-4 0 -7 3 -7 8v137c-41 -98 -131 -158 -244 -158c-157 0 -273 118 -273 284c0 165 116 285 273 285c110 0 199 -58 241 -152v361c0 4 2 7 7 8l23 7c5 2 10 -1 10 -7v-765c0 -5 -4 -8 -8 -8zM705 596h-20c-6 0 -8 5 -6 9l85 168c1 5 5 7 9 7h28c6 0 9 -5 6 -10
l-92 -168c-2 -4 -6 -6 -10 -6zM91 271c0 -146 101 -247 237 -247c138 0 241 101 241 247c0 145 -103 248 -241 248c-136 0 -237 -103 -237 -248z" />
    <glyph glyph-name="dcroat" unicode="&#x111;" horiz-adv-x="680" 
d="M597 0h-22c-4 0 -7 3 -7 8v137c-41 -98 -131 -158 -244 -158c-157 0 -273 118 -273 284c0 165 116 285 273 285c110 0 199 -58 241 -152v220h-231c-4 0 -8 3 -8 8v15c0 5 4 8 8 8h231v110c0 4 2 7 7 8l23 7c5 2 10 -1 10 -7v-118h62c4 0 8 -3 8 -8v-15c0 -5 -4 -8 -8 -8
h-62v-616c0 -5 -4 -8 -8 -8zM91 271c0 -146 101 -247 237 -247c138 0 241 101 241 247c0 145 -103 248 -241 248c-136 0 -237 -103 -237 -248z" />
    <glyph glyph-name="egrave" unicode="&#xe8;" horiz-adv-x="616" 
d="M451 635c-1 -6 -5 -8 -11 -6l-278 94c-4 1 -6 4 -6 9l4 19c1 6 5 8 10 6l279 -95c4 -2 6 -5 5 -10zM544 29c-49 -27 -119 -42 -187 -42c-191 0 -306 112 -306 291c0 162 118 278 270 278c159 0 251 -116 251 -265v-12c-1 -9 -6 -13 -14 -13h-467
c6 -152 104 -241 268 -241c66 0 129 15 170 37c6 2 10 1 12 -5l6 -17c2 -5 1 -9 -3 -11zM320 520c-122 0 -219 -88 -228 -220h441c-3 124 -76 220 -213 220z" />
    <glyph glyph-name="eacute" unicode="&#xe9;" horiz-adv-x="616" 
d="M522 723l-278 -94c-6 -2 -10 1 -11 6l-3 17c-1 5 1 8 5 10l279 95c5 2 9 0 10 -6l4 -19c1 -5 -1 -8 -6 -9zM544 29c-49 -27 -119 -42 -187 -42c-191 0 -306 112 -306 291c0 162 118 278 270 278c159 0 251 -116 251 -265v-12c-1 -9 -6 -13 -14 -13h-467
c6 -152 104 -241 268 -241c66 0 129 15 170 37c6 2 10 1 12 -5l6 -17c2 -5 1 -9 -3 -11zM320 520c-122 0 -219 -88 -228 -220h441c-3 124 -76 220 -213 220z" />
    <glyph glyph-name="ecircumflex" unicode="&#xea;" horiz-adv-x="616" 
d="M208 634c-8 -4 -12 -1 -15 3l-6 14c-3 5 -1 9 3 11l133 102c2 1 5 3 8 3c2 0 5 -2 8 -3l130 -102c4 -2 6 -6 4 -11l-7 -14c-3 -4 -7 -6 -15 -2l-121 89zM544 29c-49 -27 -119 -42 -187 -42c-191 0 -306 112 -306 291c0 162 118 278 270 278c159 0 251 -116 251 -265v-12
c-1 -9 -6 -13 -14 -13h-467c6 -152 104 -241 268 -241c66 0 129 15 170 37c6 2 10 1 12 -5l6 -17c2 -5 1 -9 -3 -11zM320 520c-122 0 -219 -88 -228 -220h441c-3 124 -76 220 -213 220z" />
    <glyph glyph-name="ecaron" unicode="&#x11b;" horiz-adv-x="616" 
d="M337 632c-3 -2 -6 -3 -8 -3c-3 0 -6 1 -8 3l-133 101c-4 3 -6 7 -3 12l6 14c2 4 6 8 13 4l124 -92l123 91c7 4 11 1 13 -3l7 -14c2 -5 0 -9 -4 -12zM544 29c-49 -27 -119 -42 -187 -42c-191 0 -306 112 -306 291c0 162 118 278 270 278c159 0 251 -116 251 -265v-12
c-1 -9 -6 -13 -14 -13h-467c6 -152 104 -241 268 -241c66 0 129 15 170 37c6 2 10 1 12 -5l6 -17c2 -5 1 -9 -3 -11zM320 520c-122 0 -219 -88 -228 -220h441c-3 124 -76 220 -213 220z" />
    <glyph glyph-name="edieresis" unicode="&#xeb;" horiz-adv-x="616" 
d="M440 690c0 -21 -10 -32 -31 -32c-20 0 -31 11 -31 32s11 31 31 31c21 0 31 -10 31 -31zM271 690c0 -21 -11 -32 -31 -32s-31 11 -31 32s11 31 31 31s31 -10 31 -31zM544 29c-49 -27 -119 -42 -187 -42c-191 0 -306 112 -306 291c0 162 118 278 270 278
c159 0 251 -116 251 -265v-12c-1 -9 -6 -13 -14 -13h-467c6 -152 104 -241 268 -241c66 0 129 15 170 37c6 2 10 1 12 -5l6 -17c2 -5 1 -9 -3 -11zM320 520c-122 0 -219 -88 -228 -220h441c-3 124 -76 220 -213 220z" />
    <glyph glyph-name="emacron" unicode="&#x113;" horiz-adv-x="616" 
d="M475 704h-301c-5 0 -8 3 -8 8v21c0 5 3 8 8 8h301c5 0 8 -3 8 -8v-21c0 -5 -3 -8 -8 -8zM544 29c-49 -27 -119 -42 -187 -42c-191 0 -306 112 -306 291c0 162 118 278 270 278c159 0 251 -116 251 -265v-12c-1 -9 -6 -13 -14 -13h-467c6 -152 104 -241 268 -241
c66 0 129 15 170 37c6 2 10 1 12 -5l6 -17c2 -5 1 -9 -3 -11zM320 520c-122 0 -219 -88 -228 -220h441c-3 124 -76 220 -213 220z" />
    <glyph glyph-name="ebreve" unicode="&#x115;" horiz-adv-x="616" 
d="M328 633h-21c-76 0 -129 43 -129 116v22c0 5 3 8 8 8h21c5 0 8 -3 8 -8v-23c0 -54 42 -86 95 -86h14c52 0 95 32 95 86v23c0 5 4 8 9 8h20c5 0 9 -3 9 -8v-22c0 -72 -54 -116 -129 -116zM544 29c-49 -27 -119 -42 -187 -42c-191 0 -306 112 -306 291
c0 162 118 278 270 278c159 0 251 -116 251 -265v-12c-1 -9 -6 -13 -14 -13h-467c6 -152 104 -241 268 -241c66 0 129 15 170 37c6 2 10 1 12 -5l6 -17c2 -5 1 -9 -3 -11zM320 520c-122 0 -219 -88 -228 -220h441c-3 124 -76 220 -213 220z" />
    <glyph glyph-name="edotaccent" unicode="&#x117;" horiz-adv-x="616" 
d="M348 695c0 -21 -10 -32 -31 -32c-20 0 -31 11 -31 32s11 31 31 31c21 0 31 -10 31 -31zM544 29c-49 -27 -119 -42 -187 -42c-191 0 -306 112 -306 291c0 162 118 278 270 278c159 0 251 -116 251 -265v-12c-1 -9 -6 -13 -14 -13h-467c6 -152 104 -241 268 -241
c66 0 129 15 170 37c6 2 10 1 12 -5l6 -17c2 -5 1 -9 -3 -11zM320 520c-122 0 -219 -88 -228 -220h441c-3 124 -76 220 -213 220z" />
    <glyph glyph-name="eogonek" unicode="&#x119;" horiz-adv-x="616" 
d="M504 -202c-17 -8 -46 -14 -70 -14c-67 0 -113 28 -113 79c0 28 15 53 37 75s51 41 78 56c-26 -5 -53 -7 -79 -7c-191 0 -306 112 -306 291c0 162 118 278 270 278c158 0 251 -116 251 -264v-13c-1 -9 -6 -13 -14 -13h-467c6 -152 104 -241 268 -241c66 0 129 15 170 37
c6 2 10 1 12 -5l6 -17c2 -5 1 -9 -3 -11c-23 -14 -105 -47 -152 -93c-19 -20 -32 -41 -32 -63c0 -36 34 -55 81 -55c19 0 44 4 59 11c6 3 9 2 9 -5v-17c0 -5 -1 -7 -5 -9zM320 520c-122 0 -219 -88 -228 -220h441c-3 124 -76 220 -213 220z" />
    <glyph glyph-name="gcircumflex" unicode="&#x11d;" horiz-adv-x="690" 
d="M222 634c-8 -4 -12 -1 -15 3l-6 14c-3 5 -1 9 3 11l133 102c2 1 5 3 8 3c2 0 5 -2 8 -3l130 -102c4 -2 6 -6 4 -11l-7 -14c-3 -4 -7 -6 -15 -2l-121 89zM607 47c0 -160 -89 -263 -278 -263c-100 0 -180 32 -228 67c-4 3 -5 6 -3 11l8 19c3 5 6 6 12 3
c48 -34 120 -63 211 -63c169 0 240 94 240 225v97c-42 -97 -132 -156 -244 -156c-158 0 -274 118 -274 283s119 286 274 286c113 0 203 -58 244 -155v135c0 5 5 7 9 7h21c5 0 8 -3 8 -8v-488zM92 270c0 -145 101 -245 238 -245s240 101 240 246c0 147 -102 247 -240 247
c-134 0 -238 -103 -238 -248z" />
    <glyph glyph-name="gbreve" unicode="&#x11f;" horiz-adv-x="690" 
d="M353 633h-21c-76 0 -129 43 -129 116v22c0 5 3 8 8 8h21c5 0 8 -3 8 -8v-23c0 -54 42 -86 95 -86h14c52 0 95 32 95 86v23c0 5 4 8 9 8h20c5 0 9 -3 9 -8v-22c0 -72 -54 -116 -129 -116zM607 47c0 -160 -89 -263 -278 -263c-100 0 -180 32 -228 67c-4 3 -5 6 -3 11l8 19
c3 5 6 6 12 3c48 -34 120 -63 211 -63c169 0 240 94 240 225v97c-42 -97 -132 -156 -244 -156c-158 0 -274 118 -274 283s119 286 274 286c113 0 203 -58 244 -155v135c0 5 5 7 9 7h21c5 0 8 -3 8 -8v-488zM92 270c0 -145 101 -245 238 -245s240 101 240 246
c0 147 -102 247 -240 247c-134 0 -238 -103 -238 -248z" />
    <glyph glyph-name="gdotaccent" unicode="&#x121;" horiz-adv-x="690" 
d="M373 695c0 -21 -10 -32 -31 -32c-20 0 -31 11 -31 32s11 31 31 31c21 0 31 -10 31 -31zM607 47c0 -160 -89 -263 -278 -263c-100 0 -180 32 -228 67c-4 3 -5 6 -3 11l8 19c3 5 6 6 12 3c48 -34 120 -63 211 -63c169 0 240 94 240 225v97c-42 -97 -132 -156 -244 -156
c-158 0 -274 118 -274 283s119 286 274 286c113 0 203 -58 244 -155v135c0 5 5 7 9 7h21c5 0 8 -3 8 -8v-488zM92 270c0 -145 101 -245 238 -245s240 101 240 246c0 147 -102 247 -240 247c-134 0 -238 -103 -238 -248z" />
    <glyph glyph-name="gcommaaccent" unicode="&#x123;" horiz-adv-x="690" 
d="M348 654h-29c-6 0 -9 5 -5 10l65 120c2 3 6 5 10 5h24c6 0 8 -3 5 -9l-60 -120c-2 -4 -5 -6 -10 -6zM607 47c0 -160 -89 -263 -278 -263c-100 0 -180 32 -228 67c-4 3 -5 6 -3 11l8 19c3 5 6 6 12 3c48 -34 120 -63 211 -63c169 0 240 94 240 225v97
c-42 -97 -132 -156 -244 -156c-158 0 -274 118 -274 283s119 286 274 286c113 0 203 -58 244 -155v135c0 5 5 7 9 7h21c5 0 8 -3 8 -8v-488zM92 270c0 -145 101 -245 238 -245s240 101 240 246c0 147 -102 247 -240 247c-134 0 -238 -103 -238 -248z" />
    <glyph glyph-name="hcircumflex" unicode="&#x125;" horiz-adv-x="654" 
d="M-15 783c-8 -3 -12 -1 -15 4l-6 13c-2 5 -1 9 3 12l133 101c2 2 5 3 8 3c2 0 5 -2 8 -3l130 -101c4 -3 6 -7 4 -12l-7 -13c-3 -5 -7 -7 -15 -3l-121 89zM117 0h-26c-5 0 -8 3 -8 8v757c0 4 2 7 7 8l24 7c5 2 9 -1 9 -7v-382c24 88 102 165 222 165
c141 0 232 -96 232 -256v-292c0 -5 -3 -8 -8 -8h-25c-5 0 -8 3 -8 8v285c0 140 -75 227 -197 227c-123 0 -214 -95 -214 -245v-267c0 -5 -4 -8 -8 -8z" />
    <glyph glyph-name="hbar" unicode="&#x127;" horiz-adv-x="654" 
d="M117 0h-26c-5 0 -8 3 -8 8v616h-62c-5 0 -9 3 -9 8v15c0 5 4 8 9 8h62v110c0 4 2 7 7 8l24 7c5 2 9 -1 9 -7v-118h230c5 0 8 -3 8 -8v-15c0 -5 -3 -8 -8 -8h-230v-233c24 88 102 165 222 165c141 0 232 -96 232 -256v-292c0 -5 -3 -8 -8 -8h-25c-5 0 -8 3 -8 8v285
c0 140 -75 227 -197 227c-123 0 -214 -95 -214 -245v-267c0 -5 -4 -8 -8 -8z" />
    <glyph glyph-name="igrave" unicode="&#xec;" horiz-adv-x="250" 
d="M192 642c-1 -5 -5 -8 -10 -6l-184 88c-4 1 -6 4 -5 9l4 20c0 5 5 7 9 6l184 -90c4 -2 6 -5 6 -10zM138 0h-25c-5 0 -8 3 -8 8v527c0 5 3 8 8 8h25c5 0 8 -3 8 -8v-527c0 -5 -3 -8 -8 -8z" />
    <glyph glyph-name="iacute" unicode="&#xed;" horiz-adv-x="250" 
d="M283 721l-197 -93c-6 -2 -10 1 -11 6l-3 17c-1 5 1 8 5 10l198 95c4 2 9 -1 9 -6l4 -20c1 -5 -1 -7 -5 -9zM138 0h-25c-5 0 -8 3 -8 8v527c0 5 3 8 8 8h25c5 0 8 -3 8 -8v-527c0 -5 -3 -8 -8 -8z" />
    <glyph glyph-name="icircumflex" unicode="&#xee;" horiz-adv-x="250" 
d="M8 632c-6 -5 -10 0 -11 5l-3 18c0 4 2 7 5 10l121 99c2 1 3 2 6 2s5 -1 7 -2l117 -99c4 -3 6 -6 5 -10l-3 -17c-1 -6 -5 -9 -12 -5l-114 91zM138 0h-25c-5 0 -8 3 -8 8v527c0 5 3 8 8 8h25c5 0 8 -3 8 -8v-527c0 -5 -3 -8 -8 -8z" />
    <glyph glyph-name="itilde" unicode="&#x129;" horiz-adv-x="250" 
d="M238 696c-12 -7 -27 -12 -46 -12c-26 0 -46 8 -65 16c-21 8 -41 16 -67 16c-21 0 -37 -5 -48 -11c-9 -4 -14 -10 -18 -14c-3 -3 -10 -3 -10 4v23c0 4 1 8 5 12c2 2 8 8 18 14c13 7 30 13 53 13c28 0 49 -10 69 -18c19 -7 38 -15 63 -15c17 0 31 5 42 11s19 13 23 18
c5 5 9 4 9 -3v-23c0 -3 0 -7 -5 -12c-3 -3 -10 -11 -23 -19zM138 0h-25c-5 0 -8 3 -8 8v527c0 5 3 8 8 8h25c5 0 8 -3 8 -8v-527c0 -5 -3 -8 -8 -8z" />
    <glyph glyph-name="idieresis" unicode="&#xef;" horiz-adv-x="250" 
d="M234 732c0 -18 -10 -28 -29 -28c-18 0 -28 10 -28 28c0 19 10 28 28 28c19 0 29 -9 29 -28zM74 732c0 -18 -10 -28 -29 -28c-18 0 -28 10 -28 28c0 19 10 28 28 28c19 0 29 -9 29 -28zM138 0h-25c-5 0 -8 3 -8 8v527c0 5 3 8 8 8h25c5 0 8 -3 8 -8v-527c0 -5 -3 -8 -8 -8
z" />
    <glyph glyph-name="imacron" unicode="&#x12b;" horiz-adv-x="250" 
d="M247 703h-244c-5 0 -8 4 -8 8v22c0 4 3 8 8 8h244c5 0 8 -4 8 -8v-22c0 -4 -3 -8 -8 -8zM138 0h-25c-5 0 -8 3 -8 8v527c0 5 3 8 8 8h25c5 0 8 -3 8 -8v-527c0 -5 -3 -8 -8 -8z" />
    <glyph glyph-name="ibreve" unicode="&#x12d;" horiz-adv-x="250" 
d="M131 627h-13c-75 0 -130 45 -130 118v26c0 5 3 8 8 8h21c5 0 8 -3 8 -8v-28c0 -54 42 -85 95 -85h9c52 0 95 31 95 85v28c0 5 4 8 9 8h20c5 0 9 -3 9 -8v-26c0 -73 -56 -118 -131 -118zM138 0h-25c-5 0 -8 3 -8 8v527c0 5 3 8 8 8h25c5 0 8 -3 8 -8v-527
c0 -5 -3 -8 -8 -8z" />
    <glyph glyph-name="iogonek" unicode="&#x12f;" horiz-adv-x="249" 
d="M56 -216c-66 0 -111 29 -111 80c0 30 14 55 34 76c36 35 91 55 125 66v529c0 5 4 8 8 8h26c5 0 8 -3 8 -8v-526c0 -5 -2 -8 -8 -10c-23 -7 -88 -27 -125 -65c-17 -17 -29 -37 -29 -61c0 -36 34 -55 82 -55c19 0 44 3 58 12c6 3 10 1 10 -5v-18c0 -4 -2 -7 -6 -8
c-17 -8 -47 -15 -72 -15z" />
    <glyph glyph-name="dotlessi" unicode="&#x131;" horiz-adv-x="249" 
d="M137 0h-25c-5 0 -8 3 -8 8v527c0 5 3 8 8 8h25c5 0 8 -3 8 -8v-527c0 -5 -3 -8 -8 -8z" />
    <glyph glyph-name="jcircumflex" unicode="&#x135;" horiz-adv-x="269" 
d="M25 631c-6 -4 -10 0 -11 6l-3 18c0 4 2 7 6 10l120 99c2 1 4 2 6 2c3 0 5 -1 7 -2l118 -99c3 -3 5 -6 5 -10l-4 -18c-1 -5 -5 -8 -11 -4l-115 91zM165 -33c0 -111 -50 -162 -110 -181c-5 -2 -9 0 -10 5l-7 22c-1 6 0 8 6 10c45 17 79 55 79 145v567c0 5 4 8 9 8h25
c5 0 8 -3 8 -8v-568z" />
    <glyph glyph-name="dotlessj" unicode="&#xf6be;" horiz-adv-x="269" 
d="M165 -33c0 -111 -50 -162 -110 -181c-5 -2 -9 0 -10 5l-7 22c-1 6 0 8 6 10c45 17 79 55 79 145v567c0 5 4 8 9 8h25c5 0 8 -3 8 -8v-568z" />
    <glyph glyph-name="kcommaaccent" unicode="&#x137;" horiz-adv-x="496" 
d="M114 0h-23c-5 0 -8 3 -8 8v757c0 4 2 7 7 8l22 7c5 2 10 -1 10 -7v-453h69l235 219c3 3 6 4 10 4h28c7 0 10 -4 5 -10l-244 -229l262 -294c4 -6 2 -10 -5 -10h-30c-4 0 -8 2 -10 5l-251 279h-69v-276c0 -5 -3 -8 -8 -8zM212 -205c-7 0 -9 5 -6 11l60 118c2 4 6 6 10 6h30
c7 0 9 -5 5 -11l-64 -118c-2 -4 -6 -6 -10 -6h-25z" />
    <glyph glyph-name="lacute" unicode="&#x13a;" horiz-adv-x="208" 
d="M227 896l-154 -83c-5 -3 -9 1 -9 6l-2 20c0 4 2 8 6 9l155 85c5 2 9 -1 10 -7l1 -21c0 -4 -2 -8 -7 -9zM117 0h-26c-5 0 -8 3 -8 8v756c0 5 2 8 7 9l25 7c5 2 10 -1 10 -7v-765c0 -5 -4 -8 -8 -8z" />
    <glyph glyph-name="lcaron" unicode="&#x13e;" horiz-adv-x="316" 
d="M117 0h-26c-5 0 -8 3 -8 8v756c0 5 2 8 7 9l25 7c5 2 10 -1 10 -7v-765c0 -5 -4 -8 -8 -8zM214 596h-20c-6 0 -9 5 -7 9l85 168c2 5 6 7 10 7h27c7 0 9 -5 7 -10l-92 -168c-2 -4 -6 -6 -10 -6z" />
    <glyph glyph-name="lcommaaccent" unicode="&#x13c;" horiz-adv-x="208" 
d="M117 0h-26c-5 0 -8 3 -8 8v756c0 5 2 8 7 9l25 7c5 2 10 -1 10 -7v-765c0 -5 -4 -8 -8 -8zM41 -205c-7 0 -9 5 -6 11l60 118c2 4 6 6 10 6h30c7 0 9 -5 5 -11l-64 -118c-2 -4 -6 -6 -10 -6h-25z" />
    <glyph glyph-name="lslash" unicode="&#x142;" horiz-adv-x="208" 
d="M117 0h-26c-5 0 -8 3 -8 8v415l-87 -58c-5 -3 -10 -1 -10 5v22c0 5 1 7 5 10l92 62v300c0 5 2 8 7 9l25 7c5 2 10 -1 10 -7v-281l87 58c5 3 10 1 10 -5v-22c0 -4 -1 -7 -5 -10l-92 -62v-443c0 -5 -4 -8 -8 -8z" />
    <glyph glyph-name="ldot" unicode="&#x140;" horiz-adv-x="280" 
d="M117 0h-26c-5 0 -8 3 -8 8v756c0 5 2 8 7 9l25 7c5 2 10 -1 10 -7v-765c0 -5 -4 -8 -8 -8zM276 371c0 -21 -10 -31 -31 -31c-20 0 -31 10 -31 31s11 32 31 32c21 0 31 -11 31 -32z" />
    <glyph glyph-name="nacute" unicode="&#x144;" horiz-adv-x="654" 
d="M513 723l-278 -94c-6 -2 -10 1 -11 6l-3 17c-1 5 1 8 5 10l279 95c5 2 9 0 10 -6l4 -19c1 -5 -1 -8 -6 -9zM117 0h-26c-5 0 -8 3 -8 8v527c0 5 3 8 8 8h24c4 0 8 -3 8 -7v-145c24 88 102 165 222 165c141 0 232 -96 232 -256v-292c0 -5 -3 -8 -8 -8h-25c-5 0 -8 3 -8 8
v285c0 140 -75 227 -197 227c-123 0 -214 -95 -214 -245v-267c0 -5 -4 -8 -8 -8z" />
    <glyph glyph-name="ncaron" unicode="&#x148;" horiz-adv-x="654" 
d="M342 632c-3 -2 -6 -3 -8 -3c-3 0 -6 1 -8 3l-133 101c-4 3 -6 7 -3 12l6 14c2 4 6 8 13 4l124 -92l123 91c7 4 11 1 13 -3l7 -14c2 -5 0 -9 -4 -12zM117 0h-26c-5 0 -8 3 -8 8v527c0 5 3 8 8 8h24c4 0 8 -3 8 -7v-145c24 88 102 165 222 165c141 0 232 -96 232 -256v-292
c0 -5 -3 -8 -8 -8h-25c-5 0 -8 3 -8 8v285c0 140 -75 227 -197 227c-123 0 -214 -95 -214 -245v-267c0 -5 -4 -8 -8 -8z" />
    <glyph glyph-name="ntilde" unicode="&#xf1;" horiz-adv-x="654" 
d="M458 657c-13 -6 -30 -12 -50 -12c-30 0 -52 8 -74 16s-44 16 -74 16c-22 0 -39 -4 -52 -10c-14 -6 -21 -12 -27 -17c-3 -2 -6 -1 -6 3v24c0 6 1 10 5 14c3 3 10 9 22 14c14 7 32 13 58 13c31 0 55 -9 78 -18c20 -7 42 -15 70 -15c19 0 34 5 46 11c16 7 25 16 30 22
c3 3 6 1 6 -2v-25c0 -6 -1 -11 -6 -15c-5 -6 -13 -13 -26 -19zM117 0h-26c-5 0 -8 3 -8 8v527c0 5 3 8 8 8h24c4 0 8 -3 8 -7v-145c24 88 102 165 222 165c141 0 232 -96 232 -256v-292c0 -5 -3 -8 -8 -8h-25c-5 0 -8 3 -8 8v285c0 140 -75 227 -197 227
c-123 0 -214 -95 -214 -245v-267c0 -5 -4 -8 -8 -8z" />
    <glyph glyph-name="ncommaaccent" unicode="&#x146;" horiz-adv-x="654" 
d="M117 0h-26c-5 0 -8 3 -8 8v527c0 5 3 8 8 8h24c4 0 8 -3 8 -7v-145c24 88 102 165 222 165c141 0 232 -96 232 -256v-292c0 -5 -3 -8 -8 -8h-25c-5 0 -8 3 -8 8v285c0 140 -75 227 -197 227c-123 0 -214 -95 -214 -245v-267c0 -5 -4 -8 -8 -8zM281 -205c-7 0 -9 5 -6 11
l60 118c2 4 6 6 10 6h30c7 0 9 -5 5 -11l-64 -118c-2 -4 -6 -6 -10 -6h-25z" />
    <glyph glyph-name="eng" unicode="&#x14b;" horiz-adv-x="654" 
d="M467 -214c-5 -2 -9 0 -10 5l-6 20c-2 5 0 8 5 10c46 17 80 57 80 147v325c0 140 -75 227 -197 227c-123 0 -214 -95 -214 -245v-267c0 -5 -4 -8 -8 -8h-26c-5 0 -8 3 -8 8v527c0 5 3 8 8 8h24c4 0 8 -3 8 -7v-145c24 88 102 165 222 165c141 0 232 -96 232 -256v-333
c0 -111 -49 -162 -110 -181z" />
    <glyph glyph-name="ograve" unicode="&#xf2;" horiz-adv-x="674" 
d="M474 635c-1 -6 -5 -8 -11 -6l-278 94c-4 1 -6 4 -6 9l4 19c1 6 5 8 10 6l279 -95c4 -2 6 -5 5 -10zM623 271c0 -166 -120 -284 -287 -284c-163 0 -285 118 -285 284c0 165 122 285 285 285c168 0 287 -120 287 -285zM91 271c0 -146 106 -247 245 -247
c143 0 247 101 247 247c0 145 -104 248 -247 248c-138 0 -245 -104 -245 -248z" />
    <glyph glyph-name="oacute" unicode="&#xf3;" horiz-adv-x="674" 
d="M518 723l-278 -94c-6 -2 -10 1 -11 6l-3 17c-1 5 1 8 5 10l279 95c5 2 9 0 10 -6l4 -19c1 -5 -1 -8 -6 -9zM623 271c0 -166 -120 -284 -287 -284c-163 0 -285 118 -285 284c0 165 122 285 285 285c168 0 287 -120 287 -285zM91 271c0 -146 106 -247 245 -247
c143 0 247 101 247 247c0 145 -104 248 -247 248c-138 0 -245 -104 -245 -248z" />
    <glyph glyph-name="ocircumflex" unicode="&#xf4;" horiz-adv-x="674" 
d="M215 634c-8 -4 -12 -1 -15 3l-6 14c-3 5 -1 9 3 11l133 102c2 1 5 3 8 3c2 0 5 -2 8 -3l130 -102c4 -2 6 -6 4 -11l-7 -14c-3 -4 -7 -6 -15 -2l-121 89zM623 271c0 -166 -120 -284 -287 -284c-163 0 -285 118 -285 284c0 165 122 285 285 285c168 0 287 -120 287 -285z
M91 271c0 -146 106 -247 245 -247c143 0 247 101 247 247c0 145 -104 248 -247 248c-138 0 -245 -104 -245 -248z" />
    <glyph glyph-name="otilde" unicode="&#xf5;" horiz-adv-x="674" 
d="M462 657c-13 -6 -30 -12 -50 -12c-30 0 -52 8 -74 16s-44 16 -74 16c-22 0 -39 -4 -52 -10c-14 -6 -21 -12 -27 -17c-3 -2 -6 -1 -6 3v24c0 6 1 10 5 14c3 3 10 9 22 14c14 7 32 13 58 13c31 0 55 -9 78 -18c20 -7 42 -15 70 -15c19 0 34 5 46 11c16 7 25 16 30 22
c3 3 6 1 6 -2v-25c0 -6 -1 -11 -6 -15c-5 -6 -13 -13 -26 -19zM623 271c0 -166 -120 -284 -287 -284c-163 0 -285 118 -285 284c0 165 122 285 285 285c168 0 287 -120 287 -285zM91 271c0 -146 106 -247 245 -247c143 0 247 101 247 247c0 145 -104 248 -247 248
c-138 0 -245 -104 -245 -248z" />
    <glyph glyph-name="odieresis" unicode="&#xf6;" horiz-adv-x="674" 
d="M452 690c0 -21 -10 -32 -31 -32c-20 0 -31 11 -31 32s11 31 31 31c21 0 31 -10 31 -31zM283 690c0 -21 -11 -32 -31 -32s-31 11 -31 32s11 31 31 31s31 -10 31 -31zM623 271c0 -166 -120 -284 -287 -284c-163 0 -285 118 -285 284c0 165 122 285 285 285
c168 0 287 -120 287 -285zM91 271c0 -146 106 -247 245 -247c143 0 247 101 247 247c0 145 -104 248 -247 248c-138 0 -245 -104 -245 -248z" />
    <glyph glyph-name="omacron" unicode="&#x14d;" horiz-adv-x="674" 
d="M488 704h-301c-5 0 -8 3 -8 8v21c0 5 3 8 8 8h301c5 0 8 -3 8 -8v-21c0 -5 -3 -8 -8 -8zM623 271c0 -166 -120 -284 -287 -284c-163 0 -285 118 -285 284c0 165 122 285 285 285c168 0 287 -120 287 -285zM91 271c0 -146 106 -247 245 -247c143 0 247 101 247 247
c0 145 -104 248 -247 248c-138 0 -245 -104 -245 -248z" />
    <glyph glyph-name="obreve" unicode="&#x14f;" horiz-adv-x="674" 
d="M348 633h-21c-76 0 -129 43 -129 116v22c0 5 3 8 8 8h21c5 0 8 -3 8 -8v-23c0 -54 42 -86 95 -86h14c52 0 95 32 95 86v23c0 5 4 8 9 8h20c5 0 9 -3 9 -8v-22c0 -72 -54 -116 -129 -116zM623 271c0 -166 -120 -284 -287 -284c-163 0 -285 118 -285 284
c0 165 122 285 285 285c168 0 287 -120 287 -285zM91 271c0 -146 106 -247 245 -247c143 0 247 101 247 247c0 145 -104 248 -247 248c-138 0 -245 -104 -245 -248z" />
    <glyph glyph-name="ohungarumlaut" unicode="&#x151;" horiz-adv-x="674" 
d="M395 633h-20c-6 0 -9 5 -5 10l101 132c3 4 6 5 11 5h22c6 0 8 -4 5 -10l-103 -131c-3 -5 -6 -6 -11 -6zM260 633h-21c-6 0 -8 5 -5 10l101 131c3 5 6 6 11 6h22c6 0 8 -4 5 -10l-103 -131c-2 -4 -6 -6 -10 -6zM623 271c0 -166 -120 -284 -287 -284
c-163 0 -285 118 -285 284c0 165 122 285 285 285c168 0 287 -120 287 -285zM91 271c0 -146 106 -247 245 -247c143 0 247 101 247 247c0 145 -104 248 -247 248c-138 0 -245 -104 -245 -248z" />
    <glyph glyph-name="oslash" unicode="&#xf8;" horiz-adv-x="674" 
d="M109 -13h-17c-6 0 -8 5 -4 10l52 62c-55 51 -89 125 -89 212c0 165 122 285 285 285c69 0 129 -20 177 -55l42 50c3 4 7 5 11 5h17c6 0 8 -5 4 -10l-53 -63c56 -51 89 -125 89 -212c0 -166 -120 -284 -287 -284c-67 0 -127 20 -174 55l-42 -50c-4 -4 -7 -5 -11 -5z
M91 271c0 -75 28 -138 74 -182l323 382c-41 31 -93 48 -152 48c-138 0 -245 -104 -245 -248zM583 271c0 75 -28 138 -74 182l-322 -382c41 -30 92 -47 149 -47c143 0 247 101 247 247z" />
    <glyph glyph-name="oslashacute" unicode="&#x1ff;" horiz-adv-x="674" 
d="M514 723l-278 -94c-6 -2 -10 1 -11 6l-3 17c-1 5 1 8 5 10l279 95c5 2 9 0 10 -6l4 -19c1 -5 -1 -8 -6 -9zM109 -13h-17c-6 0 -8 5 -4 10l52 62c-55 51 -89 125 -89 212c0 165 122 285 285 285c69 0 129 -20 177 -55l42 50c3 4 7 5 11 5h17c6 0 8 -5 4 -10l-53 -63
c56 -51 89 -125 89 -212c0 -166 -120 -284 -287 -284c-67 0 -127 20 -174 55l-42 -50c-4 -4 -7 -5 -11 -5zM91 271c0 -75 28 -138 74 -182l323 382c-41 31 -93 48 -152 48c-138 0 -245 -104 -245 -248zM583 271c0 75 -28 138 -74 182l-322 -382c41 -30 92 -47 149 -47
c143 0 247 101 247 247z" />
    <glyph glyph-name="oe" unicode="&#x153;" horiz-adv-x="1149" 
d="M1077 29c-49 -27 -119 -42 -187 -42c-146 0 -247 65 -287 175c-40 -106 -139 -175 -267 -175c-163 0 -285 118 -285 284c0 165 122 285 285 285c127 0 226 -69 266 -174c39 106 135 174 252 174c159 0 252 -116 252 -265c0 -4 -1 -9 -1 -12c-1 -9 -5 -13 -14 -13h-467
c5 -152 104 -241 269 -241c65 0 127 15 170 37c5 2 9 1 11 -5l6 -17c2 -5 1 -9 -3 -11zM853 520c-122 0 -219 -88 -228 -220h442c-3 124 -77 220 -214 220zM91 271c0 -146 106 -247 245 -247c143 0 247 101 247 247c0 145 -104 248 -247 248c-138 0 -245 -104 -245 -248z
" />
    <glyph glyph-name="racute" unicode="&#x155;" horiz-adv-x="414" 
d="M372 720l-176 -88c-5 -2 -10 0 -11 6l-4 18c0 5 2 8 6 10l179 90c6 2 10 0 10 -6l2 -20c0 -4 -2 -8 -6 -10zM117 0h-26c-5 0 -8 3 -8 8v527c0 5 3 8 8 8h24c4 0 8 -2 8 -7v-119c22 71 89 139 192 139c29 0 61 -5 83 -16c5 -1 6 -4 4 -9l-6 -24c-1 -5 -5 -7 -10 -6
c-21 11 -49 15 -77 15c-104 0 -184 -79 -184 -211v-297c0 -5 -4 -8 -8 -8z" />
    <glyph glyph-name="rcommaaccent" unicode="&#x157;" horiz-adv-x="414" 
d="M117 0h-26c-5 0 -8 3 -8 8v527c0 5 3 8 8 8h24c4 0 8 -2 8 -7v-119c22 71 89 139 192 139c29 0 61 -5 83 -16c5 -1 6 -4 4 -9l-6 -24c-1 -5 -5 -7 -10 -6c-21 11 -49 15 -77 15c-104 0 -184 -79 -184 -211v-297c0 -5 -4 -8 -8 -8zM64 -205c-7 0 -9 5 -6 11l60 118
c2 4 6 6 10 6h30c7 0 9 -5 5 -11l-64 -118c-2 -4 -6 -6 -10 -6h-25z" />
    <glyph glyph-name="rcaron" unicode="&#x159;" horiz-adv-x="420" 
d="M262 634c-3 -2 -6 -3 -8 -3c-3 0 -6 1 -8 3l-133 101c-4 3 -6 7 -3 12l6 14c2 4 6 8 13 4l124 -92l123 91c7 4 11 1 13 -3l7 -14c2 -5 0 -9 -4 -12zM117 0h-26c-5 0 -8 3 -8 8v527c0 5 3 8 8 8h24c4 0 8 -2 8 -7v-119c22 71 89 139 192 139c29 0 61 -5 83 -16
c5 -1 6 -4 4 -9l-6 -24c-1 -5 -5 -7 -10 -6c-21 11 -49 15 -77 15c-104 0 -184 -79 -184 -211v-297c0 -5 -4 -8 -8 -8z" />
    <glyph glyph-name="sacute" unicode="&#x15b;" horiz-adv-x="479" 
d="M374 721l-202 -93c-6 -2 -9 1 -9 7v20c0 4 2 7 6 9l202 93c6 3 10 0 10 -6v-21c0 -5 -2 -7 -7 -9zM420 146c0 -89 -73 -159 -203 -159c-61 0 -115 15 -145 34c-4 2 -5 5 -4 11l8 19c2 5 4 6 10 3c27 -17 76 -30 128 -30c106 0 166 50 166 120c0 60 -38 93 -110 120
l-69 27c-71 28 -117 64 -117 131c0 77 76 134 187 134c41 0 85 -11 116 -27c4 -2 5 -6 3 -11l-7 -18c-2 -5 -6 -6 -11 -4c-26 13 -63 23 -101 23c-86 0 -145 -38 -145 -97c0 -52 35 -76 94 -99l67 -26c86 -34 133 -77 133 -151z" />
    <glyph glyph-name="scircumflex" unicode="&#x15d;" horiz-adv-x="479" 
d="M130 634c-8 -4 -12 -1 -15 3l-6 14c-3 5 -1 9 3 11l133 102c2 1 5 3 8 3c2 0 5 -2 8 -3l130 -102c4 -2 6 -6 4 -11l-7 -14c-3 -4 -7 -6 -15 -2l-121 89zM420 146c0 -89 -73 -159 -203 -159c-61 0 -115 15 -145 34c-4 2 -5 5 -4 11l8 19c2 5 4 6 10 3
c27 -17 76 -30 128 -30c106 0 166 50 166 120c0 60 -38 93 -110 120l-69 27c-71 28 -117 64 -117 131c0 77 76 134 187 134c41 0 85 -11 116 -27c4 -2 5 -6 3 -11l-7 -18c-2 -5 -6 -6 -11 -4c-26 13 -63 23 -101 23c-86 0 -145 -38 -145 -97c0 -52 35 -76 94 -99l67 -26
c86 -34 133 -77 133 -151z" />
    <glyph glyph-name="scaron" unicode="&#x161;" horiz-adv-x="479" 
d="M260 632c-3 -2 -6 -3 -8 -3c-3 0 -6 1 -8 3l-133 101c-4 3 -6 7 -3 12l6 14c2 4 6 8 13 4l124 -92l123 91c7 4 11 1 13 -3l7 -14c2 -5 0 -9 -4 -12zM420 146c0 -89 -73 -159 -203 -159c-61 0 -115 15 -145 34c-4 2 -5 5 -4 11l8 19c2 5 4 6 10 3c27 -17 76 -30 128 -30
c106 0 166 50 166 120c0 60 -38 93 -110 120l-69 27c-71 28 -117 64 -117 131c0 77 76 134 187 134c41 0 85 -11 116 -27c4 -2 5 -6 3 -11l-7 -18c-2 -5 -6 -6 -11 -4c-26 13 -63 23 -101 23c-86 0 -145 -38 -145 -97c0 -52 35 -76 94 -99l67 -26c86 -34 133 -77 133 -151z
" />
    <glyph glyph-name="scedilla" unicode="&#x15f;" horiz-adv-x="479" 
d="M336 -118c0 -63 -52 -98 -119 -98c-24 0 -51 5 -66 14c-5 2 -8 6 -6 12l4 14c1 5 3 7 9 5c12 -7 34 -11 51 -11c50 0 91 25 91 73c0 42 -26 75 -52 97c-10 -1 -20 -1 -31 -1c-61 0 -115 15 -145 34c-4 2 -5 5 -4 11l8 19c2 5 4 6 10 3c27 -17 76 -30 128 -30
c106 0 166 50 166 120c0 60 -38 93 -110 120l-69 27c-71 28 -117 64 -117 131c0 77 76 134 187 134c41 0 85 -11 116 -27c4 -2 5 -6 3 -11l-7 -18c-2 -5 -6 -6 -11 -4c-26 13 -63 23 -101 23c-86 0 -145 -38 -145 -97c0 -52 35 -76 94 -99l67 -26c86 -34 133 -77 133 -151
s-51 -136 -144 -154c27 -21 60 -60 60 -110z" />
    <glyph glyph-name="scommaaccent" unicode="&#x219;" horiz-adv-x="479" 
d="M420 146c0 -89 -73 -159 -203 -159c-61 0 -115 15 -145 34c-4 2 -5 5 -4 11l8 19c2 5 4 6 10 3c27 -17 76 -30 128 -30c106 0 166 50 166 120c0 60 -38 93 -110 120l-69 27c-71 28 -117 64 -117 131c0 77 76 134 187 134c41 0 85 -11 116 -27c4 -2 5 -6 3 -11l-7 -18
c-2 -5 -6 -6 -11 -4c-26 13 -63 23 -101 23c-86 0 -145 -38 -145 -97c0 -52 35 -76 94 -99l67 -26c86 -34 133 -77 133 -151zM192 -205c-7 0 -9 5 -6 11l60 118c2 4 6 6 10 6h30c7 0 9 -5 5 -11l-64 -118c-2 -4 -6 -6 -10 -6h-25z" />
    <glyph glyph-name="germandbls" unicode="&#xdf;" horiz-adv-x="678" 
d="M167 -36c0 -114 -58 -180 -158 -180c-31 0 -61 6 -81 17c-4 1 -6 5 -6 9v21c0 6 4 9 10 7c19 -11 46 -17 72 -17c75 0 121 50 121 143v606c0 146 121 221 254 221c118 0 203 -59 203 -139c0 -66 -38 -99 -101 -121l-59 -20c-46 -14 -81 -42 -81 -89c0 -50 35 -75 91 -97
l77 -31c84 -33 127 -76 127 -148c0 -89 -73 -159 -204 -159c-59 0 -113 15 -142 34c-4 2 -5 6 -5 10v21c0 7 4 10 10 6c29 -19 80 -34 136 -34c106 0 166 50 166 121c0 60 -38 91 -109 119l-77 30c-67 27 -110 61 -110 126c0 60 43 99 102 120l54 17c56 18 84 41 84 92
c0 62 -69 105 -161 105c-116 0 -213 -65 -213 -184v-606z" />
    <glyph glyph-name="tcaron" unicode="&#x165;" horiz-adv-x="410" 
d="M309 622h-20c-6 0 -9 5 -7 9l84 163c1 5 5 7 9 7h28c6 0 9 -5 6 -10l-91 -163c-2 -4 -5 -6 -9 -6zM350 5c-21 -11 -53 -18 -84 -18c-95 0 -151 59 -151 163v356h-101c-5 0 -8 3 -8 8v21c0 5 3 8 8 8h101v154c0 4 2 7 7 8l25 7c5 1 10 -1 10 -7v-162h189c5 0 8 -3 8 -8
v-21c0 -5 -3 -8 -8 -8h-189v-356c0 -81 43 -124 112 -124c25 0 52 6 71 16c6 1 9 1 10 -5l5 -21c1 -6 0 -9 -5 -11z" />
    <glyph glyph-name="uni021B" unicode="&#x21b;" horiz-adv-x="374" 
d="M350 5c-21 -11 -53 -18 -84 -18c-95 0 -151 59 -151 163v356h-101c-5 0 -8 3 -8 8v21c0 5 3 8 8 8h101v154c0 4 2 7 7 8l25 7c5 1 10 -1 10 -7v-162h189c5 0 8 -3 8 -8v-21c0 -5 -3 -8 -8 -8h-189v-356c0 -81 43 -124 112 -124c25 0 52 6 71 16c6 1 9 1 10 -5l5 -21
c1 -6 0 -9 -5 -11zM167 -205c-7 0 -9 5 -6 11l60 118c2 4 6 6 10 6h30c7 0 9 -5 5 -11l-64 -118c-2 -4 -6 -6 -10 -6h-25z" />
    <glyph glyph-name="tbar" unicode="&#x167;" horiz-adv-x="374" 
d="M350 5c-21 -11 -53 -18 -84 -18c-95 0 -151 59 -151 163v153h-80c-5 0 -8 3 -8 8v18c0 5 3 8 8 8h80v169h-101c-5 0 -8 3 -8 8v21c0 5 3 8 8 8h101v154c0 4 2 7 7 8l25 7c5 1 10 -1 10 -7v-162h189c5 0 8 -3 8 -8v-21c0 -5 -3 -8 -8 -8h-189v-169h169c5 0 8 -3 8 -8v-18
c0 -5 -3 -8 -8 -8h-169v-153c0 -81 43 -124 112 -124c25 0 52 6 71 16c6 1 9 1 10 -5l5 -21c1 -6 0 -9 -5 -11z" />
    <glyph glyph-name="uni0163" unicode="&#x163;" horiz-adv-x="374" 
d="M306 -117c0 -63 -53 -99 -120 -99c-24 0 -50 5 -67 14c-4 2 -5 5 -5 9v16c0 5 3 8 9 6c13 -8 35 -11 53 -11c50 0 92 25 92 74c0 40 -17 73 -35 98c-75 12 -118 69 -118 160v356h-101c-5 0 -8 3 -8 8v21c0 5 3 8 8 8h101v154c0 4 2 7 7 8l25 7c5 1 10 -1 10 -7v-162h189
c5 0 8 -3 8 -8v-21c0 -5 -3 -8 -8 -8h-189v-356c0 -81 43 -124 112 -124c25 0 52 6 71 16c6 1 9 1 10 -5l5 -21c1 -6 0 -9 -5 -11c-21 -11 -53 -18 -81 -18c19 -26 37 -60 37 -104z" />
    <glyph glyph-name="ugrave" unicode="&#xf9;" horiz-adv-x="638" 
d="M438 635c-1 -6 -5 -8 -11 -6l-278 94c-4 1 -6 4 -6 9l4 19c1 6 5 8 10 6l279 -95c4 -2 6 -5 5 -10zM561 241c0 -159 -96 -254 -242 -254c-145 0 -242 95 -242 255v293c0 5 3 8 8 8h25c5 0 8 -3 8 -8v-296c0 -131 78 -214 201 -214c124 0 200 82 200 214v296c0 5 4 8 9 8
h25c5 0 8 -3 8 -8v-294z" />
    <glyph glyph-name="uacute" unicode="&#xfa;" horiz-adv-x="638" 
d="M506 723l-278 -94c-6 -2 -10 1 -11 6l-3 17c-1 5 1 8 5 10l279 95c5 2 9 0 10 -6l4 -19c1 -5 -1 -8 -6 -9zM561 241c0 -159 -96 -254 -242 -254c-145 0 -242 95 -242 255v293c0 5 3 8 8 8h25c5 0 8 -3 8 -8v-296c0 -131 78 -214 201 -214c124 0 200 82 200 214v296
c0 5 4 8 9 8h25c5 0 8 -3 8 -8v-294z" />
    <glyph glyph-name="ucircumflex" unicode="&#xfb;" horiz-adv-x="638" 
d="M197 634c-8 -4 -12 -1 -15 3l-6 14c-3 5 -1 9 3 11l133 102c2 1 5 3 8 3c2 0 5 -2 8 -3l130 -102c4 -2 6 -6 4 -11l-7 -14c-3 -4 -7 -6 -15 -2l-121 89zM561 241c0 -159 -96 -254 -242 -254c-145 0 -242 95 -242 255v293c0 5 3 8 8 8h25c5 0 8 -3 8 -8v-296
c0 -131 78 -214 201 -214c124 0 200 82 200 214v296c0 5 4 8 9 8h25c5 0 8 -3 8 -8v-294z" />
    <glyph glyph-name="utilde" unicode="&#x169;" horiz-adv-x="638" 
d="M444 657c-13 -6 -30 -12 -50 -12c-30 0 -52 8 -74 16s-44 16 -74 16c-22 0 -39 -4 -52 -10c-14 -6 -21 -12 -27 -17c-3 -2 -6 -1 -6 3v24c0 6 1 10 5 14c3 3 10 9 22 14c14 7 32 13 58 13c31 0 55 -9 78 -18c20 -7 42 -15 70 -15c19 0 34 5 46 11c16 7 25 16 30 22
c3 3 6 1 6 -2v-25c0 -6 -1 -11 -6 -15c-5 -6 -13 -13 -26 -19zM561 241c0 -159 -96 -254 -242 -254c-145 0 -242 95 -242 255v293c0 5 3 8 8 8h25c5 0 8 -3 8 -8v-296c0 -131 78 -214 201 -214c124 0 200 82 200 214v296c0 5 4 8 9 8h25c5 0 8 -3 8 -8v-294z" />
    <glyph glyph-name="udieresis" unicode="&#xfc;" horiz-adv-x="638" 
d="M434 690c0 -21 -10 -32 -31 -32c-20 0 -31 11 -31 32s11 31 31 31c21 0 31 -10 31 -31zM265 690c0 -21 -11 -32 -31 -32s-31 11 -31 32s11 31 31 31s31 -10 31 -31zM561 241c0 -159 -96 -254 -242 -254c-145 0 -242 95 -242 255v293c0 5 3 8 8 8h25c5 0 8 -3 8 -8v-296
c0 -131 78 -214 201 -214c124 0 200 82 200 214v296c0 5 4 8 9 8h25c5 0 8 -3 8 -8v-294z" />
    <glyph glyph-name="umacron" unicode="&#x16b;" horiz-adv-x="638" 
d="M470 704h-301c-5 0 -8 3 -8 8v21c0 5 3 8 8 8h301c5 0 8 -3 8 -8v-21c0 -5 -3 -8 -8 -8zM561 241c0 -159 -96 -254 -242 -254c-145 0 -242 95 -242 255v293c0 5 3 8 8 8h25c5 0 8 -3 8 -8v-296c0 -131 78 -214 201 -214c124 0 200 82 200 214v296c0 5 4 8 9 8h25
c5 0 8 -3 8 -8v-294z" />
    <glyph glyph-name="ubreve" unicode="&#x16d;" horiz-adv-x="638" 
d="M330 633h-21c-76 0 -129 43 -129 116v22c0 5 3 8 8 8h21c5 0 8 -3 8 -8v-23c0 -54 42 -86 95 -86h14c52 0 95 32 95 86v23c0 5 4 8 9 8h20c5 0 9 -3 9 -8v-22c0 -72 -54 -116 -129 -116zM561 241c0 -159 -96 -254 -242 -254c-145 0 -242 95 -242 255v293c0 5 3 8 8 8h25
c5 0 8 -3 8 -8v-296c0 -131 78 -214 201 -214c124 0 200 82 200 214v296c0 5 4 8 9 8h25c5 0 8 -3 8 -8v-294z" />
    <glyph glyph-name="uring" unicode="&#x16f;" horiz-adv-x="638" 
d="M425 720c0 -56 -44 -88 -106 -88c-63 0 -104 32 -104 88c0 54 42 86 104 86s106 -32 106 -86zM239 719c0 -41 31 -63 80 -63c50 0 81 22 81 63c0 43 -31 64 -81 64c-49 0 -80 -21 -80 -64zM561 241c0 -159 -96 -254 -242 -254c-145 0 -242 95 -242 255v293c0 5 3 8 8 8
h25c5 0 8 -3 8 -8v-296c0 -131 78 -214 201 -214c124 0 200 82 200 214v296c0 5 4 8 9 8h25c5 0 8 -3 8 -8v-294z" />
    <glyph glyph-name="uhungarumlaut" unicode="&#x171;" horiz-adv-x="638" 
d="M372 633h-20c-6 0 -9 5 -5 10l101 132c3 4 6 5 11 5h22c6 0 8 -4 5 -10l-103 -131c-3 -5 -6 -6 -11 -6zM237 633h-21c-6 0 -8 5 -5 10l101 131c3 5 6 6 11 6h22c6 0 8 -4 5 -10l-103 -131c-2 -4 -6 -6 -10 -6zM561 241c0 -159 -96 -254 -242 -254
c-145 0 -242 95 -242 255v293c0 5 3 8 8 8h25c5 0 8 -3 8 -8v-296c0 -131 78 -214 201 -214c124 0 200 82 200 214v296c0 5 4 8 9 8h25c5 0 8 -3 8 -8v-294z" />
    <glyph glyph-name="uogonek" unicode="&#x173;" horiz-adv-x="638" 
d="M400 -202c-17 -8 -46 -14 -70 -14c-66 0 -113 28 -113 79c0 28 14 51 35 72s50 39 76 52h-9c-145 0 -242 95 -242 255v293c0 5 3 8 8 8h25c5 0 8 -3 8 -8v-296c0 -131 78 -214 201 -214c124 0 200 82 200 214v296c0 5 4 8 9 8h25c5 0 8 -3 8 -8v-294
c0 -131 -65 -219 -171 -246c-31 -14 -77 -38 -105 -66c-17 -17 -29 -36 -29 -56c0 -36 34 -55 81 -55c19 0 45 3 59 11c6 3 10 2 10 -5v-17c0 -5 -2 -8 -6 -9z" />
    <glyph glyph-name="wgrave" unicode="&#x1e81;" horiz-adv-x="926" 
d="M580 635c-1 -6 -5 -8 -11 -6l-278 94c-4 1 -6 4 -6 9l4 19c1 6 5 8 10 6l279 -95c4 -2 6 -5 5 -10zM287 -9h-19c-4 0 -7 2 -9 6l-230 537c-2 5 1 9 7 9h26c5 0 8 -1 9 -6l207 -486l168 415c2 5 4 6 9 6h17c5 0 8 -1 9 -6l168 -418l206 489c2 5 5 6 9 6h27c6 0 8 -4 6 -9
l-230 -537c-2 -4 -5 -6 -10 -6h-18c-4 0 -7 2 -9 6l-167 418l-167 -418c-2 -4 -5 -6 -9 -6z" />
    <glyph glyph-name="wacute" unicode="&#x1e83;" horiz-adv-x="926" 
d="M668 723l-278 -94c-6 -2 -10 1 -11 6l-3 17c-1 5 1 8 5 10l279 95c5 2 9 0 10 -6l4 -19c1 -5 -1 -8 -6 -9zM287 -9h-19c-4 0 -7 2 -9 6l-230 537c-2 5 1 9 7 9h26c5 0 8 -1 9 -6l207 -486l168 415c2 5 4 6 9 6h17c5 0 8 -1 9 -6l168 -418l206 489c2 5 5 6 9 6h27
c6 0 8 -4 6 -9l-230 -537c-2 -4 -5 -6 -10 -6h-18c-4 0 -7 2 -9 6l-167 418l-167 -418c-2 -4 -5 -6 -9 -6z" />
    <glyph glyph-name="wcircumflex" unicode="&#x175;" horiz-adv-x="926" 
d="M342 634c-8 -4 -12 -1 -15 3l-6 14c-3 5 -1 9 3 11l133 102c2 1 5 3 8 3c2 0 5 -2 8 -3l130 -102c4 -2 6 -6 4 -11l-7 -14c-3 -4 -7 -6 -15 -2l-121 89zM287 -9h-19c-4 0 -7 2 -9 6l-230 537c-2 5 1 9 7 9h26c5 0 8 -1 9 -6l207 -486l168 415c2 5 4 6 9 6h17
c5 0 8 -1 9 -6l168 -418l206 489c2 5 5 6 9 6h27c6 0 8 -4 6 -9l-230 -537c-2 -4 -5 -6 -10 -6h-18c-4 0 -7 2 -9 6l-167 418l-167 -418c-2 -4 -5 -6 -9 -6z" />
    <glyph glyph-name="wdieresis" unicode="&#x1e85;" horiz-adv-x="926" 
d="M579 690c0 -21 -10 -32 -31 -32c-20 0 -31 11 -31 32s11 31 31 31c21 0 31 -10 31 -31zM410 690c0 -21 -11 -32 -31 -32s-31 11 -31 32s11 31 31 31s31 -10 31 -31zM287 -9h-19c-4 0 -7 2 -9 6l-230 537c-2 5 1 9 7 9h26c5 0 8 -1 9 -6l207 -486l168 415c2 5 4 6 9 6h17
c5 0 8 -1 9 -6l168 -418l206 489c2 5 5 6 9 6h27c6 0 8 -4 6 -9l-230 -537c-2 -4 -5 -6 -10 -6h-18c-4 0 -7 2 -9 6l-167 418l-167 -418c-2 -4 -5 -6 -9 -6z" />
    <glyph glyph-name="ygrave" unicode="&#x1ef3;" horiz-adv-x="588" 
d="M388 635c-1 -6 -5 -8 -11 -6l-278 94c-4 1 -6 4 -6 9l4 19c1 6 5 8 10 6l279 -95c4 -2 6 -5 5 -10zM219 -205h-22c-7 0 -9 5 -7 10l78 177l-251 552c-2 5 0 9 6 9h28c5 0 7 -2 9 -6l230 -508l225 508c1 4 4 6 9 6h28c6 0 9 -4 6 -9l-330 -733c-1 -4 -4 -6 -9 -6z" />
    <glyph glyph-name="yacute" unicode="&#xfd;" horiz-adv-x="588" 
d="M492 723l-278 -94c-6 -2 -10 1 -11 6l-3 17c-1 5 1 8 5 10l279 95c5 2 9 0 10 -6l4 -19c1 -5 -1 -8 -6 -9zM219 -205h-22c-7 0 -9 5 -7 10l78 177l-251 552c-2 5 0 9 6 9h28c5 0 7 -2 9 -6l230 -508l225 508c1 4 4 6 9 6h28c6 0 9 -4 6 -9l-330 -733c-1 -4 -4 -6 -9 -6z
" />
    <glyph glyph-name="ycircumflex" unicode="&#x177;" horiz-adv-x="588" 
d="M178 634c-8 -4 -12 -1 -15 3l-6 14c-3 5 -1 9 3 11l133 102c2 1 5 3 8 3c2 0 5 -2 8 -3l130 -102c4 -2 6 -6 4 -11l-7 -14c-3 -4 -7 -6 -15 -2l-121 89zM219 -205h-22c-7 0 -9 5 -7 10l78 177l-251 552c-2 5 0 9 6 9h28c5 0 7 -2 9 -6l230 -508l225 508c1 4 4 6 9 6h28
c6 0 9 -4 6 -9l-330 -733c-1 -4 -4 -6 -9 -6z" />
    <glyph glyph-name="ydieresis" unicode="&#xff;" horiz-adv-x="588" 
d="M411 690c0 -21 -10 -32 -31 -32c-20 0 -31 11 -31 32s11 31 31 31c21 0 31 -10 31 -31zM242 690c0 -21 -11 -32 -31 -32s-31 11 -31 32s11 31 31 31s31 -10 31 -31zM219 -205h-22c-7 0 -9 5 -7 10l78 177l-251 552c-2 5 0 9 6 9h28c5 0 7 -2 9 -6l230 -508l225 508
c1 4 4 6 9 6h28c6 0 9 -4 6 -9l-330 -733c-1 -4 -4 -6 -9 -6z" />
    <glyph glyph-name="zacute" unicode="&#x17a;" horiz-adv-x="490" 
d="M441 723l-278 -94c-6 -2 -10 1 -11 6l-3 17c-1 5 1 8 5 10l279 95c5 2 9 0 10 -6l4 -19c1 -5 -1 -8 -6 -9zM455 0h-421c-5 0 -8 3 -8 8v16c0 4 1 8 4 11l376 471h-348c-4 0 -8 3 -8 8v21c0 5 4 8 8 8h395c5 0 8 -3 8 -8v-15c0 -4 -1 -8 -4 -10l-374 -473h372
c5 0 8 -3 8 -8v-21c0 -5 -3 -8 -8 -8z" />
    <glyph glyph-name="zcaron" unicode="&#x17e;" horiz-adv-x="490" 
d="M264 632c-3 -2 -6 -3 -8 -3c-3 0 -6 1 -8 3l-133 101c-4 3 -6 7 -3 12l6 14c2 4 6 8 13 4l124 -92l123 91c7 4 11 1 13 -3l7 -14c2 -5 0 -9 -4 -12zM455 0h-421c-5 0 -8 3 -8 8v16c0 4 1 8 4 11l376 471h-348c-4 0 -8 3 -8 8v21c0 5 4 8 8 8h395c5 0 8 -3 8 -8v-15
c0 -4 -1 -8 -4 -10l-374 -473h372c5 0 8 -3 8 -8v-21c0 -5 -3 -8 -8 -8z" />
    <glyph glyph-name="zdotaccent" unicode="&#x17c;" horiz-adv-x="490" 
d="M287 695c0 -21 -10 -32 -31 -32c-20 0 -31 11 -31 32s11 31 31 31c21 0 31 -10 31 -31zM455 0h-421c-5 0 -8 3 -8 8v16c0 4 1 8 4 11l376 471h-348c-4 0 -8 3 -8 8v21c0 5 4 8 8 8h395c5 0 8 -3 8 -8v-15c0 -4 -1 -8 -4 -10l-374 -473h372c5 0 8 -3 8 -8v-21
c0 -5 -3 -8 -8 -8z" />
    <glyph glyph-name="eth" unicode="&#xf0;" horiz-adv-x="674" 
d="M623 271c0 -166 -120 -284 -287 -284c-163 0 -285 118 -285 284c0 165 122 285 285 285c74 0 139 -23 193 -78c-40 68 -89 126 -138 175l-147 -35c-6 -2 -9 2 -9 7v11c0 5 2 8 7 10l125 29c-44 42 -87 74 -119 96c-7 4 -5 9 2 9h38c3 0 7 -1 9 -3c29 -21 69 -52 111 -92
l142 33c6 2 9 -1 9 -7v-11c0 -5 -2 -8 -7 -9l-121 -29c95 -97 192 -236 192 -391zM91 271c0 -146 106 -247 245 -247c143 0 247 101 247 247c0 145 -104 248 -247 248c-138 0 -245 -104 -245 -248z" />
    <glyph glyph-name="thorn" unicode="&#xfe;" horiz-adv-x="690" 
d="M116 -202h-25c-5 0 -8 3 -8 8v969c0 5 3 8 8 8h25c4 0 8 -3 8 -8v-364c43 93 131 148 241 148c158 0 274 -117 274 -284c0 -165 -116 -285 -274 -285c-108 0 -198 57 -241 151v-335c0 -5 -4 -8 -8 -8zM119 275c0 -145 104 -247 242 -247c136 0 237 102 237 247
c0 147 -101 246 -237 246c-138 0 -242 -99 -242 -246z" />
    <glyph glyph-name="zero.numr" horiz-adv-x="349" 
d="M302 577c0 -126 -56 -182 -130 -182c-72 0 -129 56 -129 182s57 183 129 183c75 0 130 -57 130 -183zM80 577c0 -105 42 -145 92 -145c52 0 93 40 93 145s-41 147 -93 147c-49 0 -92 -42 -92 -147z" />
    <glyph glyph-name="one.numr" horiz-adv-x="236" 
d="M149 402h-30c-3 0 -5 2 -5 5v297l-71 -49c-3 -3 -6 -2 -7 1l-7 22c-2 3 -1 6 3 7l116 74c4 2 6 0 6 -3v-349c0 -3 -2 -5 -5 -5z" />
    <glyph glyph-name="two.numr" horiz-adv-x="285" 
d="M264 402h-224c-7 0 -8 3 -8 8c0 4 1 7 4 10l134 134c35 34 51 60 51 97c0 41 -36 75 -85 75c-37 0 -64 -18 -81 -33c-3 -4 -5 -4 -7 0l-6 19c-2 4 -1 7 2 9c19 17 56 39 104 39c65 0 113 -44 113 -101c0 -44 -19 -74 -56 -111l-108 -110h167c3 0 5 -2 5 -5v-26
c0 -3 -2 -5 -5 -5z" />
    <glyph glyph-name="three.numr" horiz-adv-x="288" 
d="M268 505c0 -64 -56 -110 -136 -110c-33 0 -65 6 -88 15c-2 2 -3 5 -2 8l5 21c1 3 3 5 7 2c19 -7 46 -11 72 -11c60 0 104 32 104 78c0 44 -36 72 -87 72h-46c-3 0 -4 2 -4 5v21c0 3 1 5 4 5h46c40 0 67 26 67 59s-32 58 -79 58c-28 0 -55 -7 -71 -17c-4 -2 -7 -1 -8 3
l-5 20c-2 3 0 6 3 7c21 12 53 19 86 19c66 0 111 -37 111 -85c0 -35 -21 -64 -53 -77c43 -12 74 -47 74 -93z" />
    <glyph glyph-name="four.numr" horiz-adv-x="355" 
d="M261 402h-27c-3 0 -5 2 -5 5v73h-185c-6 0 -10 4 -8 12l109 259c1 2 3 4 5 4h29c3 0 5 -3 4 -6l-102 -239h148v143c0 3 2 5 5 5h27c3 0 5 -2 5 -5v-143h46c3 0 5 -2 5 -5v-20c0 -3 -2 -5 -5 -5h-46v-73c0 -3 -2 -5 -5 -5z" />
    <glyph glyph-name="five.numr" horiz-adv-x="311" 
d="M293 522c0 -76 -60 -127 -151 -127c-39 0 -69 10 -89 20c-3 2 -4 4 -4 8l6 21c0 3 2 5 6 3c21 -11 44 -18 78 -18c71 0 114 38 114 94c0 44 -28 81 -95 81c-41 0 -74 -19 -87 -27c-6 -4 -10 0 -9 5l30 167c1 4 4 6 6 6h175c2 0 5 -3 5 -6v-25c0 -3 -3 -5 -5 -5h-153
l-21 -110c16 9 43 21 76 21c76 0 118 -48 118 -108z" />
    <glyph glyph-name="six.numr" horiz-adv-x="335" 
d="M265 427c-21 -20 -50 -32 -83 -32c-36 0 -66 13 -89 35c-30 28 -47 73 -47 128c0 73 22 125 55 158c30 30 69 44 108 44c34 0 56 -7 69 -14c2 -1 4 -3 3 -7l-5 -19c-1 -4 -3 -5 -7 -4c-13 7 -32 11 -57 11c-31 0 -62 -11 -85 -35c-26 -27 -44 -70 -44 -129
c0 -8 1 -16 2 -25c1 27 11 49 27 66c19 19 47 33 81 33c33 0 60 -12 79 -30c22 -21 35 -51 35 -84c0 -38 -16 -73 -42 -96zM119 451c16 -15 38 -23 61 -23c24 0 46 9 61 23c19 18 31 43 31 71c0 25 -9 49 -27 65c-13 14 -34 23 -61 23c-28 0 -52 -11 -68 -29
c-15 -17 -24 -39 -24 -62v-7l2 -5h-1c2 -24 12 -42 26 -56z" />
    <glyph glyph-name="seven.numr" horiz-adv-x="313" 
d="M123 402h-31c-4 0 -5 3 -4 6l134 311h-192c-3 0 -4 1 -4 5v25c0 3 1 6 4 6h238c3 0 5 -2 5 -4v-1c0 -2 -1 -4 -2 -7l-142 -337c-1 -2 -3 -4 -6 -4z" />
    <glyph glyph-name="eight.numr" horiz-adv-x="331" 
d="M300 503c0 -62 -54 -108 -128 -108c-72 0 -127 46 -127 108c0 43 29 78 72 94c-30 16 -50 43 -50 74c0 49 46 89 105 89c61 0 106 -40 106 -89c0 -31 -20 -58 -50 -74c44 -16 72 -51 72 -94zM101 669c0 -33 31 -60 71 -60c41 0 72 27 72 60c0 34 -31 60 -72 60
c-40 0 -71 -26 -71 -60zM81 504c0 -45 40 -76 91 -76c53 0 91 31 91 76c0 44 -38 76 -91 76c-51 0 -91 -33 -91 -76z" />
    <glyph glyph-name="nine.numr" horiz-adv-x="335" 
d="M245 440c-30 -31 -70 -45 -108 -45c-35 0 -56 7 -69 14c-3 2 -4 4 -3 7l4 20c1 3 3 5 8 3c13 -6 32 -10 56 -10c31 0 62 11 84 33c28 28 45 71 45 131c0 8 -1 16 -2 25c-1 -27 -13 -49 -31 -66c-19 -16 -45 -27 -76 -27c-36 0 -64 12 -84 32s-30 48 -30 78
c0 36 13 67 36 90c22 22 53 35 89 35c33 0 61 -10 84 -30c32 -28 52 -74 52 -132c0 -73 -23 -125 -55 -158zM97 576c14 -15 36 -25 64 -25c26 0 48 10 65 24c16 17 27 40 27 65v5l-2 5h1c-2 24 -12 43 -26 56c-17 14 -39 22 -61 22c-27 0 -49 -10 -65 -26
c-17 -17 -27 -40 -27 -66c0 -23 9 -45 24 -60z" />
    <glyph glyph-name="zero.dnom" horiz-adv-x="349" 
d="M302 174c0 -126 -56 -182 -130 -182c-72 0 -129 56 -129 182s57 183 129 183c75 0 130 -57 130 -183zM80 174c0 -105 42 -145 92 -145c52 0 93 40 93 145s-41 147 -93 147c-49 0 -92 -42 -92 -147z" />
    <glyph glyph-name="one.dnom" horiz-adv-x="236" 
d="M149 -1h-30c-3 0 -5 2 -5 5v297l-71 -49c-3 -3 -6 -2 -7 1l-7 22c-2 3 -1 6 3 7l116 74c4 2 6 0 6 -3v-349c0 -3 -2 -5 -5 -5z" />
    <glyph glyph-name="two.dnom" horiz-adv-x="285" 
d="M264 -1h-224c-7 0 -8 3 -8 8c0 4 1 7 4 10l134 134c35 34 51 60 51 97c0 41 -36 75 -85 75c-37 0 -64 -18 -81 -33c-3 -4 -5 -4 -7 0l-6 19c-2 4 -1 7 2 9c19 17 56 39 104 39c65 0 113 -44 113 -101c0 -44 -19 -74 -56 -111l-108 -110h167c3 0 5 -2 5 -5v-26
c0 -3 -2 -5 -5 -5z" />
    <glyph glyph-name="three.dnom" horiz-adv-x="288" 
d="M268 102c0 -64 -56 -110 -136 -110c-33 0 -65 6 -88 15c-2 2 -3 5 -2 8l5 21c1 3 3 5 7 2c19 -7 46 -11 72 -11c60 0 104 32 104 78c0 44 -36 72 -87 72h-46c-3 0 -4 2 -4 5v21c0 3 1 5 4 5h46c40 0 67 26 67 59s-32 58 -79 58c-28 0 -55 -7 -71 -17c-4 -2 -7 -1 -8 3
l-5 20c-2 3 0 6 3 7c21 12 53 19 86 19c66 0 111 -37 111 -85c0 -35 -21 -64 -53 -77c43 -12 74 -47 74 -93z" />
    <glyph glyph-name="four.dnom" horiz-adv-x="355" 
d="M261 -1h-27c-3 0 -5 2 -5 5v73h-185c-6 0 -10 4 -8 12l109 259c1 2 3 4 5 4h29c3 0 5 -3 4 -6l-102 -239h148v143c0 3 2 5 5 5h27c3 0 5 -2 5 -5v-143h46c3 0 5 -2 5 -5v-20c0 -3 -2 -5 -5 -5h-46v-73c0 -3 -2 -5 -5 -5z" />
    <glyph glyph-name="five.dnom" horiz-adv-x="311" 
d="M293 119c0 -76 -60 -127 -151 -127c-39 0 -69 10 -89 20c-3 2 -4 4 -4 8l6 21c0 3 2 5 6 3c21 -11 44 -18 78 -18c71 0 114 38 114 94c0 44 -28 81 -95 81c-41 0 -74 -19 -87 -27c-6 -4 -10 0 -9 5l30 167c1 4 4 6 6 6h175c2 0 5 -3 5 -6v-25c0 -3 -3 -5 -5 -5h-153
l-21 -110c16 9 43 21 76 21c76 0 118 -48 118 -108z" />
    <glyph glyph-name="six.dnom" horiz-adv-x="335" 
d="M265 24c-21 -20 -50 -32 -83 -32c-36 0 -66 13 -89 35c-30 28 -47 73 -47 128c0 73 22 125 55 158c30 30 69 44 108 44c34 0 56 -7 69 -14c2 -1 4 -3 3 -7l-5 -19c-1 -4 -3 -5 -7 -4c-13 7 -32 11 -57 11c-31 0 -62 -11 -85 -35c-26 -27 -44 -70 -44 -129
c0 -8 1 -16 2 -25c1 27 11 49 27 66c19 19 47 33 81 33c33 0 60 -12 79 -30c22 -21 35 -51 35 -84c0 -38 -16 -73 -42 -96zM119 48c16 -15 38 -23 61 -23c24 0 46 9 61 23c19 18 31 43 31 71c0 25 -9 49 -27 65c-13 14 -34 23 -61 23c-28 0 -52 -11 -68 -29
c-15 -17 -24 -39 -24 -62v-7l2 -5h-1c2 -24 12 -42 26 -56z" />
    <glyph glyph-name="seven.dnom" horiz-adv-x="313" 
d="M123 -1h-31c-4 0 -5 3 -4 6l134 311h-192c-3 0 -4 1 -4 5v25c0 3 1 6 4 6h238c3 0 5 -2 5 -4v-1c0 -2 -1 -4 -2 -7l-142 -337c-1 -2 -3 -4 -6 -4z" />
    <glyph glyph-name="eight.dnom" horiz-adv-x="331" 
d="M300 100c0 -62 -54 -108 -128 -108c-72 0 -127 46 -127 108c0 43 29 78 72 94c-30 16 -50 43 -50 74c0 49 46 89 105 89c61 0 106 -40 106 -89c0 -31 -20 -58 -50 -74c44 -16 72 -51 72 -94zM101 266c0 -33 31 -60 71 -60c41 0 72 27 72 60c0 34 -31 60 -72 60
c-40 0 -71 -26 -71 -60zM81 101c0 -45 40 -76 91 -76c53 0 91 31 91 76c0 44 -38 76 -91 76c-51 0 -91 -33 -91 -76z" />
    <glyph glyph-name="nine.dnom" horiz-adv-x="335" 
d="M245 37c-30 -31 -70 -45 -108 -45c-35 0 -56 7 -69 14c-3 2 -4 4 -3 7l4 20c1 3 3 5 8 3c13 -6 32 -10 56 -10c31 0 62 11 84 33c28 28 45 71 45 131c0 8 -1 16 -2 25c-1 -27 -13 -49 -31 -66c-19 -16 -45 -27 -76 -27c-36 0 -64 12 -84 32s-30 48 -30 78
c0 36 13 67 36 90c22 22 53 35 89 35c33 0 61 -10 84 -30c32 -28 52 -74 52 -132c0 -73 -23 -125 -55 -158zM97 173c14 -15 36 -25 64 -25c26 0 48 10 65 24c16 17 27 40 27 65v5l-2 5h1c-2 24 -12 43 -26 56c-17 14 -39 22 -61 22c-27 0 -49 -10 -65 -26
c-17 -17 -27 -40 -27 -66c0 -23 9 -45 24 -60z" />
    <glyph glyph-name="onehalf" unicode="&#xbd;" horiz-adv-x="687" 
d="M162 402h-21c-5 0 -8 4 -8 9v288l-69 -49c-5 -3 -10 -1 -10 5v18c0 4 2 7 6 9l101 67c5 3 10 1 10 -5v-333c0 -5 -4 -9 -9 -9zM101 0h-26c-7 0 -9 5 -6 10l441 734c3 4 6 6 10 6h26c7 0 9 -5 6 -10l-441 -734c-3 -4 -6 -6 -10 -6zM611 -1h-202c-4 0 -7 2 -7 8
c0 4 2 7 5 11l116 129c34 38 53 62 53 99c0 42 -31 72 -79 72c-35 0 -61 -16 -75 -28c-5 -5 -9 -3 -9 4v16c0 4 2 8 5 10c14 12 46 31 89 31c64 0 107 -43 107 -97c0 -42 -22 -72 -55 -111l-98 -110h150c5 0 8 -3 8 -8v-18c0 -5 -3 -8 -8 -8z" />
    <glyph glyph-name="uni2153" unicode="&#x2153;" horiz-adv-x="672" 
d="M163 402h-21c-5 0 -8 4 -8 9v288l-69 -49c-5 -3 -10 -1 -10 5v18c0 4 2 7 6 9l101 67c5 3 10 1 10 -5v-333c0 -5 -4 -9 -9 -9zM89 0h-26c-7 0 -9 5 -6 10l441 734c3 4 6 6 10 6h26c7 0 9 -5 6 -10l-441 -734c-3 -4 -6 -6 -10 -6zM606 99c0 -62 -54 -107 -131 -107
c-29 0 -57 3 -78 12c-4 2 -6 5 -6 9v16c0 6 3 9 9 7c19 -10 44 -11 70 -11c57 0 99 32 99 77c0 44 -36 73 -86 73h-36c-5 0 -8 3 -8 8v13c0 5 3 8 8 8h36c38 0 65 26 65 59c0 32 -29 57 -74 57c-27 0 -52 -5 -69 -14c-6 -3 -9 0 -9 6v15c0 4 2 7 6 9c20 8 47 15 76 15
c64 0 106 -36 106 -83c0 -34 -21 -63 -52 -76c43 -13 74 -48 74 -93z" />
    <glyph glyph-name="onequarter" unicode="&#xbc;" horiz-adv-x="676" 
d="M164 402h-21c-5 0 -8 4 -8 9v288l-70 -49c-5 -3 -9 -1 -9 5v18c0 4 1 7 5 9l102 67c5 3 9 1 9 -5v-333c0 -5 -3 -9 -8 -9zM87 0h-26c-6 0 -8 5 -5 10l441 734c2 4 6 6 10 6h26c6 0 9 -5 5 -10l-441 -734c-2 -4 -6 -6 -10 -6zM550 -1h-20c-5 0 -8 4 -8 8v70h-183
c-7 0 -10 4 -7 11l105 252c2 4 5 6 9 6h21c6 0 8 -4 6 -9l-97 -230h146v141c0 5 3 8 8 8h20c4 0 8 -3 8 -8v-141h44c4 0 8 -3 8 -8v-14c0 -5 -4 -8 -8 -8h-44v-70c0 -4 -4 -8 -8 -8z" />
    <glyph glyph-name="uni2155" unicode="&#x2155;" horiz-adv-x="700" 
d="M161 402h-22c-4 0 -8 4 -8 9v288l-69 -49c-5 -3 -10 -1 -10 5v18c0 4 2 7 6 9l101 67c5 3 10 1 10 -5v-333c0 -5 -3 -9 -8 -9zM104 0h-26c-7 0 -9 5 -6 10l441 734c3 4 6 6 10 6h26c7 0 9 -5 6 -10l-441 -734c-3 -4 -6 -6 -10 -6zM633 116c0 -75 -57 -124 -146 -124
c-36 0 -65 9 -82 18c-4 1 -6 5 -6 9v17c0 6 4 8 10 5c18 -10 42 -16 75 -16c69 0 112 37 112 92c0 45 -29 81 -94 81c-37 0 -68 -17 -81 -25c-7 -5 -13 -1 -11 8l29 157c1 5 5 8 9 8h162c5 0 8 -3 8 -8v-18c0 -4 -3 -8 -8 -8h-145l-21 -112c14 8 42 21 75 21
c74 0 114 -45 114 -105z" />
    <glyph glyph-name="uni2159" unicode="&#x2159;" horiz-adv-x="683" 
d="M164 402h-21c-5 0 -9 4 -9 9v288l-69 -49c-5 -3 -9 -1 -9 5v18c0 4 1 7 5 9l101 67c6 3 10 1 10 -5v-333c0 -5 -3 -9 -8 -9zM90 0h-26c-6 0 -8 5 -5 10l441 734c2 4 6 6 10 6h26c6 0 9 -5 5 -10l-441 -734c-2 -4 -6 -6 -10 -6zM616 118c0 -69 -49 -126 -121 -126
c-77 0 -131 63 -131 159c0 140 79 200 158 200c30 0 52 -3 62 -11c4 -2 6 -5 6 -9v-16c0 -6 -4 -9 -10 -6c-12 7 -31 11 -55 11c-67 0 -128 -51 -128 -174v-9c8 52 49 93 109 93c70 0 110 -52 110 -112zM425 57h-1c17 -21 41 -34 70 -34c54 0 90 44 90 94
c0 45 -29 87 -87 87c-51 0 -90 -42 -90 -89c1 -27 8 -46 18 -58z" />
    <glyph glyph-name="uni2150" unicode="&#x2150;" horiz-adv-x="726" 
d="M164 402h-21c-5 0 -8 4 -8 9v288l-69 -49c-5 -3 -10 -1 -10 5v18c0 4 2 7 6 9l101 67c5 3 10 1 10 -5v-333c0 -5 -4 -9 -9 -9zM97 0h-26c-6 0 -9 5 -6 10l442 734c2 4 5 6 9 6h27c6 0 8 -5 5 -10l-441 -734c-2 -4 -6 -6 -10 -6zM510 -1h-23c-6 0 -9 4 -7 9l132 303h-187
c-4 0 -8 4 -8 8v19c0 5 4 8 8 8h226c7 0 10 -5 7 -11l-139 -330c-2 -4 -5 -6 -9 -6z" />
    <glyph glyph-name="oneeighth" unicode="&#x215b;" horiz-adv-x="702" 
d="M164 402h-22c-5 0 -8 4 -8 9v288l-69 -49c-5 -3 -10 -1 -10 5v18c0 4 2 7 6 9l101 67c5 3 10 1 10 -5v-333c0 -5 -3 -9 -8 -9zM107 0h-26c-6 0 -8 5 -5 10l441 734c2 4 6 6 10 6h26c6 0 9 -5 5 -10l-441 -734c-2 -4 -6 -6 -10 -6zM635 98c0 -61 -52 -106 -123 -106
s-124 45 -124 106c0 42 28 77 71 93c-31 15 -50 42 -50 73c0 48 45 87 103 87s102 -39 102 -87c0 -31 -19 -58 -49 -73c42 -16 70 -51 70 -93zM441 262c0 -33 31 -60 71 -60c41 0 70 27 70 60c0 34 -29 60 -70 60c-40 0 -71 -27 -71 -60zM422 99c0 -45 39 -76 90 -76
s89 31 89 76c0 44 -38 76 -89 76s-90 -32 -90 -76z" />
    <glyph glyph-name="uni2151" unicode="&#x2151;" horiz-adv-x="695" 
d="M165 402h-21c-5 0 -8 4 -8 9v288l-69 -49c-6 -3 -10 -1 -10 5v18c0 4 1 7 5 9l102 67c5 3 9 1 9 -5v-333c0 -5 -3 -9 -8 -9zM98 0h-26c-7 0 -9 5 -6 10l441 734c3 4 6 6 10 6h26c7 0 9 -5 6 -10l-441 -734c-3 -4 -6 -6 -10 -6zM628 192c0 -139 -78 -200 -158 -200
c-29 0 -49 6 -62 12c-4 1 -5 4 -5 9v16c0 6 3 8 9 5c9 -4 30 -10 55 -10c69 0 129 50 129 173c0 6 0 12 -1 17c-6 -53 -46 -94 -109 -94c-70 0 -109 51 -109 109c0 68 49 122 121 122c77 0 130 -62 130 -159zM409 229c0 -42 28 -84 85 -84c52 0 90 40 90 88
c0 27 -6 42 -17 55h1c-17 21 -41 33 -70 33c-53 0 -89 -42 -89 -92z" />
    <glyph glyph-name="uni2154" unicode="&#x2154;" horiz-adv-x="672" 
d="M234 402h-202c-5 0 -7 3 -7 8s1 7 5 11l116 130c33 38 52 62 52 99c0 41 -31 72 -79 72c-34 0 -60 -16 -74 -29c-6 -4 -9 -2 -9 5v16c0 4 1 7 4 10c15 12 46 31 89 31c65 -1 107 -43 107 -98c0 -41 -21 -71 -55 -110l-97 -110h150c4 0 8 -4 8 -8v-18c0 -5 -4 -9 -8 -9z
M128 0h-26c-7 0 -9 5 -6 10l441 734c3 4 6 6 10 6h26c7 0 9 -5 6 -10l-441 -734c-3 -4 -6 -6 -10 -6zM634 99c0 -62 -53 -107 -130 -107c-29 0 -59 4 -78 12c-5 2 -7 5 -7 9v16c0 6 4 9 10 7c15 -7 44 -11 69 -11c58 0 99 32 99 77c0 44 -36 73 -85 73h-36c-5 0 -8 3 -8 8
v13c0 5 3 8 8 8h35c39 0 66 26 66 59c0 32 -30 57 -74 57c-27 0 -53 -5 -69 -14c-6 -3 -9 0 -9 6v15c0 4 2 7 6 9c20 8 46 15 76 15c63 0 105 -36 105 -83c0 -34 -20 -63 -51 -76c43 -13 73 -48 73 -93z" />
    <glyph glyph-name="uni2156" unicode="&#x2156;" horiz-adv-x="688" 
d="M234 402h-202c-5 0 -7 3 -7 8s1 7 5 11l116 130c33 38 52 62 52 99c0 41 -31 72 -79 72c-34 0 -60 -16 -74 -29c-6 -4 -9 -2 -9 5v16c0 4 1 7 4 10c15 12 46 31 89 31c65 -1 107 -43 107 -98c0 -41 -21 -71 -55 -110l-97 -110h150c4 0 8 -4 8 -8v-18c0 -5 -4 -9 -8 -9z
M135 0h-26c-6 0 -9 5 -6 10l442 734c2 4 5 6 9 6h27c6 0 8 -5 5 -10l-441 -734c-2 -4 -6 -6 -10 -6zM650 116c0 -75 -57 -124 -146 -124c-36 0 -64 10 -82 18c-4 1 -6 5 -6 9v17c0 6 4 8 10 5c17 -9 42 -16 75 -16c69 0 112 37 112 92c0 45 -28 81 -94 81
c-36 0 -68 -17 -81 -25c-7 -5 -13 -1 -11 8l29 157c1 5 5 8 9 8h162c5 0 8 -3 8 -8v-18c0 -4 -3 -8 -8 -8h-145l-20 -112c15 9 42 21 74 21c74 0 114 -45 114 -105z" />
    <glyph glyph-name="threequarters" unicode="&#xbe;" horiz-adv-x="719" 
d="M249 503c0 -62 -54 -107 -130 -107c-30 0 -59 4 -79 12c-4 2 -6 4 -6 9v16c0 6 3 9 9 7c16 -8 43 -12 70 -12c57 0 99 33 99 78c0 44 -36 73 -86 73h-36c-5 0 -8 3 -8 8v13c0 4 3 8 8 8h36c38 0 66 26 66 58c0 33 -30 58 -75 58c-27 0 -52 -5 -69 -15c-5 -2 -9 1 -9 7v14
c0 5 2 8 7 10c19 8 46 15 76 15c63 0 105 -37 105 -84c0 -34 -21 -63 -52 -76c43 -13 74 -47 74 -92zM139 0h-26c-7 0 -9 5 -6 10l441 734c2 4 6 6 10 6h26c7 0 9 -5 6 -10l-441 -734c-3 -4 -6 -6 -10 -6zM619 -1h-20c-5 0 -8 4 -8 8v70h-183c-7 0 -10 4 -7 11l105 252
c2 4 5 6 9 6h21c6 0 8 -4 7 -9l-98 -230h146v142c0 5 3 8 8 8h20c5 0 8 -3 8 -8v-142h44c5 0 8 -3 8 -8v-14c0 -5 -3 -8 -8 -8h-44v-70c0 -4 -3 -8 -8 -8z" />
    <glyph glyph-name="uni2157" unicode="&#x2157;" horiz-adv-x="673" 
d="M249 503c0 -62 -54 -107 -130 -107c-30 0 -59 4 -79 12c-4 2 -6 4 -6 9v16c0 6 3 9 9 7c16 -8 43 -12 70 -12c57 0 99 33 99 78c0 44 -36 73 -86 73h-36c-5 0 -8 3 -8 8v13c0 4 3 8 8 8h36c38 0 66 26 66 58c0 33 -30 58 -75 58c-27 0 -52 -5 -69 -15c-5 -2 -9 1 -9 7v14
c0 5 2 8 7 10c19 8 46 15 76 15c63 0 105 -37 105 -84c0 -34 -21 -63 -52 -76c43 -13 74 -47 74 -92zM118 0h-26c-7 0 -9 5 -6 10l441 734c3 4 6 6 10 6h26c7 0 9 -5 6 -10l-441 -734c-3 -4 -6 -6 -10 -6zM633 116c0 -75 -57 -124 -146 -124c-36 0 -64 10 -82 18
c-4 1 -6 5 -6 9v17c0 6 4 8 10 5c16 -10 42 -16 75 -16c69 0 112 37 112 92c0 45 -28 81 -94 81c-36 0 -68 -17 -81 -25c-7 -5 -13 -1 -11 8l29 157c1 5 5 8 10 8h161c5 0 8 -3 8 -8v-18c0 -4 -3 -8 -8 -8h-145l-20 -112c15 9 42 21 74 21c75 0 114 -45 114 -105z" />
    <glyph glyph-name="uni2158" unicode="&#x2158;" horiz-adv-x="753" 
d="M193 0h-26c-6 0 -8 5 -5 10l441 734c2 4 6 6 10 6h26c6 0 9 -5 6 -10l-442 -734c-2 -4 -5 -6 -10 -6zM259 402h-19c-5 0 -8 4 -8 9v69h-183c-7 0 -10 5 -8 11l106 252c1 4 4 7 9 7h21c5 0 8 -5 6 -10l-98 -229h147v146c0 4 3 8 8 8h19c5 0 9 -4 9 -8v-146h43
c5 0 8 -4 8 -8v-15c0 -5 -3 -8 -8 -8h-43v-69c0 -5 -4 -9 -9 -9zM720 116c0 -75 -57 -124 -146 -124c-36 0 -64 10 -82 18c-4 1 -6 5 -6 9v17c0 6 4 8 10 5c16 -10 42 -16 75 -16c69 0 112 37 112 92c0 45 -28 81 -94 81c-37 0 -68 -17 -81 -25c-7 -5 -13 -1 -11 8l29 157
c1 5 5 8 9 8h162c5 0 8 -3 8 -8v-18c0 -4 -3 -8 -8 -8h-145l-21 -112c14 8 42 21 75 21c74 0 114 -45 114 -105z" />
    <glyph glyph-name="percent" unicode="%" horiz-adv-x="768" 
d="M317 575c0 -125 -60 -179 -132 -179s-133 54 -133 179c0 124 61 180 133 180c73 0 132 -56 132 -180zM171 0h-26c-6 0 -8 5 -5 10l441 734c2 4 6 6 10 6h26c6 0 9 -5 6 -10l-442 -734c-2 -4 -5 -6 -10 -6zM88 575c0 -105 46 -145 97 -145s96 40 96 145s-45 146 -96 146
c-50 0 -97 -41 -97 -146zM716 172c0 -125 -60 -180 -133 -180c-72 0 -132 55 -132 180c0 124 60 179 132 179c73 0 133 -55 133 -179zM486 172c0 -106 47 -145 97 -145c51 0 96 39 96 145c0 104 -45 145 -96 145c-50 0 -97 -41 -97 -145z" />
    <glyph glyph-name="perthousand" unicode="&#x2030;" horiz-adv-x="1095" 
d="M310 575c0 -125 -56 -179 -129 -179c-72 0 -129 54 -129 179c0 124 58 180 129 180c74 0 129 -56 129 -180zM164 0h-26c-6 0 -9 5 -5 10l441 734c2 4 6 6 10 6h26c6 0 8 -5 5 -10l-441 -734c-2 -4 -6 -6 -10 -6zM88 575c0 -105 43 -145 93 -145c51 0 93 40 93 145
s-42 146 -93 146c-50 0 -93 -41 -93 -146zM701 172c0 -125 -56 -180 -129 -180c-72 0 -129 55 -129 180c0 124 57 179 129 179c73 0 129 -55 129 -179zM1043 172c0 -125 -56 -180 -129 -180c-72 0 -129 55 -129 180c0 124 57 179 129 179c73 0 129 -55 129 -179zM478 172
c0 -105 43 -145 94 -145s93 40 93 145c0 104 -42 145 -93 145c-50 0 -94 -41 -94 -145zM820 172c0 -105 44 -145 94 -145c51 0 93 40 93 145c0 104 -42 145 -93 145c-50 0 -94 -41 -94 -145z" />
    <glyph glyph-name="zero" unicode="0" horiz-adv-x="651" 
d="M594 373c0 -270 -117 -386 -269 -386c-149 0 -269 116 -269 386c0 269 121 388 269 388c153 0 269 -118 269 -388zM98 373c0 -249 105 -347 227 -347c125 0 227 98 227 347s-102 349 -227 349c-121 0 -227 -101 -227 -349z" />
    <glyph glyph-name="one" unicode="1" horiz-adv-x="372" 
d="M254 0h-26c-5 0 -8 3 -8 8v685l-161 -126c-7 -4 -11 -3 -15 3l-8 18c-4 5 -2 10 4 14l212 156c5 4 10 1 10 -5v-745c0 -5 -3 -8 -8 -8z" />
    <glyph glyph-name="two" unicode="2" horiz-adv-x="578" 
d="M521 0h-487c-8 0 -9 4 -9 10c0 7 2 10 7 15l317 309c77 76 118 132 118 218c0 93 -81 169 -193 169c-88 0 -155 -44 -194 -80c-7 -6 -9 -5 -14 1l-10 17c-4 6 -1 11 4 15c37 35 116 87 217 87c133 0 233 -92 233 -206c0 -97 -44 -161 -127 -243l-277 -271h415
c4 0 8 -4 8 -8v-25c0 -5 -4 -8 -8 -8z" />
    <glyph glyph-name="three" unicode="3" horiz-adv-x="575" 
d="M520 216c0 -133 -116 -229 -278 -229c-69 0 -137 11 -186 32c-4 2 -6 7 -4 12l8 20c1 5 5 7 13 4c43 -20 107 -28 168 -28c135 0 237 79 237 190c0 109 -89 181 -213 181h-100c-5 0 -8 3 -8 8v24c0 5 3 8 8 8h100c94 0 162 64 162 144c0 78 -75 139 -180 139
c-62 0 -122 -15 -159 -37c-8 -4 -13 -2 -15 3l-8 20c-3 5 1 10 6 13c43 26 107 41 179 41c128 0 221 -77 221 -175c0 -80 -52 -141 -127 -166c98 -22 176 -98 176 -204z" />
    <glyph glyph-name="four" unicode="4" horiz-adv-x="645" 
d="M496 0h-26c-4 0 -8 3 -8 8v166h-402c-12 0 -18 8 -13 22l249 548c2 4 5 6 9 6h29c6 0 8 -5 6 -10l-239 -527h361v322c0 5 4 8 8 8h26c5 0 9 -3 9 -8v-322h113c5 0 8 -3 8 -8v-23c0 -5 -3 -8 -8 -8h-113v-166c0 -5 -4 -8 -9 -8z" />
    <glyph glyph-name="five" unicode="5" horiz-adv-x="651" 
d="M583 257c0 -161 -122 -271 -314 -271c-88 0 -147 22 -192 46c-4 2 -6 6 -4 11l6 21c1 4 5 7 11 3c47 -25 100 -41 178 -41c168 0 272 93 272 230c0 109 -68 198 -222 198c-97 0 -173 -46 -202 -67c-11 -6 -19 0 -17 10l65 342c1 8 5 11 12 11h365c5 0 8 -3 8 -8v-25
c0 -4 -3 -8 -8 -8h-341l-51 -272c33 22 99 54 180 54c169 0 254 -104 254 -234z" />
    <glyph glyph-name="six" unicode="6" horiz-adv-x="651" 
d="M510 52c-44 -41 -102 -65 -169 -65c-69 0 -130 24 -177 70c-62 59 -99 153 -99 270c0 161 48 275 118 346c60 60 136 88 214 88c69 0 114 -13 141 -28c4 -2 7 -7 5 -12l-7 -19c-2 -4 -6 -6 -12 -3c-27 13 -70 24 -124 24c-69 0 -137 -27 -189 -80
c-64 -64 -106 -167 -106 -309c0 -30 4 -61 13 -96c-1 13 -2 22 -2 32c0 62 25 120 65 164c43 45 105 75 176 75c69 0 126 -24 167 -62c50 -46 77 -113 77 -186c0 -82 -34 -158 -91 -209zM192 83c39 -37 92 -57 148 -57c59 0 109 22 146 56c47 44 74 107 74 176
c0 60 -21 118 -63 159c-35 33 -84 54 -148 54c-66 0 -123 -28 -163 -71c-37 -42 -58 -96 -58 -152c0 -71 25 -126 64 -165z" />
    <glyph glyph-name="seven" unicode="7" horiz-adv-x="568" 
d="M191 0h-29c-6 0 -9 5 -6 10l322 699h-460c-5 0 -8 4 -8 8v25c0 5 3 8 8 8h509c4 0 8 -3 8 -6v-4c0 -4 -2 -8 -4 -13l-331 -721c-1 -4 -4 -6 -9 -6z" />
    <glyph glyph-name="eight" unicode="8" horiz-adv-x="646" 
d="M588 211c0 -129 -112 -224 -264 -224c-148 0 -262 95 -262 224c0 98 72 178 175 207c-74 28 -125 90 -125 162c0 100 94 181 212 181c122 0 214 -81 214 -181c0 -72 -50 -134 -125 -162c105 -28 175 -108 175 -207zM154 578c0 -79 75 -144 170 -144c99 0 172 65 172 144
c0 80 -73 144 -172 144c-95 0 -170 -65 -170 -144zM105 212c0 -109 96 -186 219 -186c126 0 221 77 221 186c0 106 -94 184 -221 184c-123 0 -219 -78 -219 -184z" />
    <glyph glyph-name="nine" unicode="9" horiz-adv-x="651" 
d="M468 76c-59 -61 -136 -89 -214 -89c-69 0 -114 13 -141 28c-3 2 -6 6 -4 12l6 18c1 5 6 7 12 4c28 -14 71 -23 123 -23c70 0 136 26 189 78c64 64 106 168 106 311c0 29 -3 60 -11 93c1 -8 1 -14 1 -22c0 -66 -28 -126 -73 -168c-43 -38 -102 -63 -168 -63
c-76 0 -137 26 -179 70c-42 43 -65 103 -65 170c0 76 29 144 77 193c46 46 109 73 182 73c65 0 124 -21 169 -61c68 -59 108 -157 108 -279c0 -161 -48 -275 -118 -345zM146 351c36 -36 87 -58 156 -58c60 0 114 21 153 58c42 39 68 96 68 157c0 68 -26 124 -67 161
c-39 35 -91 53 -146 53c-64 0 -117 -24 -156 -63c-40 -40 -63 -97 -63 -161c0 -56 18 -110 55 -147z" />
    <glyph glyph-name="dollar" unicode="$" horiz-adv-x="568" 
d="M314 -109h-11c-5 0 -8 3 -8 8v90c-13 -1 -26 -2 -40 -2c-66 0 -140 19 -180 45c-4 2 -5 5 -3 9l8 22c2 5 5 7 11 4c33 -21 100 -40 163 -40c14 0 28 1 41 2v350l-61 30c-80 41 -138 86 -138 170c0 93 78 164 199 179v66c0 5 3 8 8 8h11c5 0 8 -3 8 -8v-64c7 1 15 1 22 1
c51 0 107 -13 135 -27c5 -2 7 -5 5 -10l-9 -23c-2 -4 -5 -5 -11 -3c-24 12 -75 24 -120 24c-7 0 -15 0 -22 -1v-310l42 -21c92 -46 149 -110 149 -198c0 -97 -70 -178 -191 -199v-94c0 -5 -3 -8 -8 -8zM252 445l43 -21v294c-94 -14 -155 -69 -155 -139
c0 -65 47 -100 112 -134zM343 356l-21 10v-332c93 19 147 80 147 156c0 72 -46 125 -126 166z" />
    <glyph glyph-name="cent" unicode="&#xa2;" horiz-adv-x="631" 
d="M354 -109h-12c-5 0 -8 3 -8 8v89c-154 8 -267 123 -267 283c0 159 113 276 267 284v123c0 5 3 8 8 8h12c4 0 8 -3 8 -8v-122c86 -2 158 -37 207 -91c3 -4 3 -8 0 -12l-14 -15c-3 -4 -7 -4 -11 0c-45 49 -107 79 -182 81v-495c76 2 138 31 182 80c4 4 8 4 12 0l12 -15
c3 -3 4 -8 1 -11c-49 -55 -121 -89 -207 -91v-88c0 -5 -4 -8 -8 -8zM108 271c0 -139 96 -238 226 -246v493c-130 -9 -226 -110 -226 -247z" />
    <glyph glyph-name="sterling" unicode="&#xa3;" horiz-adv-x="520" 
d="M479 0h-426c-5 0 -8 3 -8 8v22c0 4 3 8 8 8h72v303h-69c-5 0 -8 3 -8 8v21c0 5 3 9 8 9h69v137c0 158 87 245 221 245c43 0 86 -9 116 -26c4 -2 6 -5 6 -9v-24c0 -6 -4 -9 -10 -7c-28 17 -67 26 -108 26c-115 0 -181 -77 -181 -206v-136h209c5 0 8 -4 8 -9v-21
c0 -5 -3 -8 -8 -8h-209v-303h310c5 0 8 -4 8 -8v-22c0 -5 -3 -8 -8 -8z" />
    <glyph glyph-name="florin" unicode="&#x192;" horiz-adv-x="385" 
d="M206 -36c0 -114 -59 -180 -159 -180c-30 0 -60 6 -80 17c-5 1 -7 5 -7 9l1 21c0 6 3 9 9 7c20 -11 46 -17 73 -17c74 0 120 50 120 143v542h-115c-5 0 -8 3 -8 8v21c0 5 3 8 8 8h115v94c0 102 60 154 164 154c24 0 48 -3 64 -9c4 -2 6 -5 6 -9v-20c0 -6 -3 -8 -9 -6
c-15 5 -36 8 -57 8c-80 0 -125 -38 -125 -118v-94h165c5 0 9 -3 9 -8v-21c0 -5 -4 -8 -9 -8h-165v-542z" />
    <glyph glyph-name="yen" unicode="&#xa5;" horiz-adv-x="717" 
d="M372 0h-27c-5 0 -9 3 -9 8v194h-199c-5 0 -8 4 -8 8v21c0 5 3 8 8 8h193l-72 124h-121c-5 0 -8 4 -8 9v20c0 5 3 9 8 9h99l-198 339c-2 5 0 10 6 10h32c4 0 7 -2 9 -6l274 -470l274 470c2 4 5 6 9 6h31c6 0 9 -5 6 -10l-198 -339h99c4 0 8 -4 8 -9v-20c0 -5 -4 -9 -8 -9
h-121l-73 -124h194c4 0 8 -3 8 -8v-21c0 -4 -4 -8 -8 -8h-200v-194c0 -5 -3 -8 -8 -8z" />
    <glyph glyph-name="Euro" unicode="&#x20ac;" horiz-adv-x="636" 
d="M408 278h-237c14 -81 45 -140 85 -181c49 -50 110 -71 170 -71c51 0 99 16 138 46c6 3 9 0 9 -6v-23c0 -4 -1 -8 -5 -9c-41 -32 -90 -47 -142 -47c-71 0 -143 25 -199 81c-47 47 -84 116 -98 210h-81c-5 0 -8 3 -8 8v21c0 5 3 8 8 8h76c-1 18 -2 38 -2 58c0 23 1 45 3 66
h-77c-5 0 -8 3 -8 8v21c0 5 3 8 8 8h82c16 90 51 157 98 204c56 55 127 81 198 81c52 0 102 -15 142 -46c4 -2 5 -5 5 -10v-24c0 -6 -3 -9 -9 -5c-39 31 -87 46 -138 46c-58 0 -119 -20 -168 -69c-39 -40 -70 -98 -85 -177h235c5 0 8 -3 8 -8v-21c0 -5 -3 -8 -8 -8h-241
c-2 -21 -3 -43 -3 -66c0 -20 1 -40 3 -58h241c5 0 8 -3 8 -8v-21c0 -5 -3 -8 -8 -8z" />
    <glyph glyph-name="plus" unicode="+" horiz-adv-x="642" 
d="M335 116h-26c-5 0 -9 3 -9 8v232h-232c-5 0 -8 3 -8 8v24c0 5 3 9 8 9h232v233c0 5 4 8 9 8h26c4 0 8 -3 8 -8v-233h231c5 0 8 -4 8 -9v-24c0 -5 -3 -8 -8 -8h-231v-232c0 -5 -4 -8 -8 -8z" />
    <glyph glyph-name="minus" unicode="&#x2212;" horiz-adv-x="468" 
d="M400 356h-332c-5 0 -8 3 -8 8v24c0 5 3 9 8 9h332c5 0 8 -4 8 -9v-24c0 -5 -3 -8 -8 -8z" />
    <glyph glyph-name="plusminus" unicode="&#xb1;" horiz-adv-x="483" 
d="M255 273h-26c-5 0 -8 3 -8 8v158h-158c-5 0 -8 3 -8 8v24c0 5 3 8 8 8h158v159c0 5 3 8 8 8h26c5 0 8 -3 8 -8v-159h157c5 0 8 -3 8 -8v-24c0 -5 -3 -8 -8 -8h-157v-158c0 -5 -3 -8 -8 -8zM420 167h-357c-5 0 -8 3 -8 8v24c0 5 3 8 8 8h357c5 0 8 -3 8 -8v-24
c0 -5 -3 -8 -8 -8z" />
    <glyph glyph-name="multiply" unicode="&#xd7;" horiz-adv-x="555" 
d="M97 171c-4 -4 -8 -5 -12 -1l-14 14c-4 4 -4 8 0 12l182 182c-80 80 -170 173 -169 174c-1 1 11 15 12 16c3 2 7 5 10 2c1 2 90 -87 91 -88l80 -80l167 167c4 4 8 5 12 1l15 -14c3 -3 4 -8 0 -11l-169 -169c82 -83 183 -186 182 -187c1 -2 -11 -15 -12 -17
c-3 -2 -7 -4 -10 -2c-1 -1 -90 87 -92 89c-1 1 -41 42 -92 93z" />
    <glyph glyph-name="equal" unicode="=" horiz-adv-x="468" 
d="M400 430h-332c-5 0 -8 3 -8 8v23c0 5 3 8 8 8h332c5 0 8 -3 8 -8v-23c0 -5 -3 -8 -8 -8zM400 267h-332c-5 0 -8 3 -8 8v23c0 5 3 8 8 8h332c5 0 8 -3 8 -8v-23c0 -5 -3 -8 -8 -8z" />
    <glyph glyph-name="notequal" unicode="&#x2260;" horiz-adv-x="468" 
d="M201 147h-19c-5 0 -8 2 -7 8l22 110h-129c-5 0 -8 3 -8 8v22c0 5 3 8 8 8h137l25 129h-162c-5 0 -8 4 -8 9v22c0 5 3 8 8 8h170l22 110c1 6 4 7 9 7h18c5 0 9 -2 7 -8l-21 -109h127c5 0 8 -3 8 -8v-22c0 -5 -3 -9 -8 -9h-135l-26 -129h161c5 0 8 -3 8 -8v-22
c0 -5 -3 -8 -8 -8h-168l-22 -111c-1 -6 -5 -7 -9 -7z" />
    <glyph glyph-name="divide" unicode="&#xf7;" horiz-adv-x="468" 
d="M275 527c0 -22 -15 -37 -41 -37c-25 0 -42 15 -42 37c0 25 17 39 42 39c26 0 41 -14 41 -39zM400 355h-332c-5 0 -8 3 -8 8v23c0 5 3 9 8 9h332c5 0 8 -4 8 -9v-23c0 -5 -3 -8 -8 -8zM275 221c0 -23 -15 -38 -41 -38c-25 0 -42 15 -42 38c0 24 17 39 42 39
c26 0 41 -15 41 -39z" />
    <glyph glyph-name="less" unicode="&#x3c;" horiz-adv-x="557" 
d="M496 176c0 -6 -5 -9 -10 -6l-421 162c-4 2 -6 4 -6 9v21c0 5 2 8 6 9l421 162c5 3 10 0 10 -6v-18c0 -5 -3 -7 -7 -9l-387 -148l387 -148c4 -2 7 -5 7 -9v-19z" />
    <glyph glyph-name="greater" unicode="&#x3e;" horiz-adv-x="557" 
d="M492 332l-421 -162c-5 -3 -10 0 -10 6v19c0 4 3 7 7 9l387 148l-387 148c-4 2 -7 4 -7 9v18c0 6 5 9 10 6l421 -162c4 -1 6 -4 6 -9v-21c0 -5 -2 -7 -6 -9z" />
    <glyph glyph-name="lessequal" unicode="&#x2264;" horiz-adv-x="557" 
d="M496 234c0 -7 -5 -9 -10 -7l-421 162c-4 2 -6 5 -6 9v21c0 5 2 8 6 9l421 162c5 3 10 0 10 -6v-18c0 -4 -3 -7 -7 -9l-387 -148l387 -148c4 -2 7 -4 7 -9v-18zM496 113c0 -6 -5 -9 -10 -6l-421 162c-4 1 -6 4 -6 9v17c0 6 4 8 9 6l421 -160c4 -2 7 -5 7 -9v-19z" />
    <glyph glyph-name="greaterequal" unicode="&#x2265;" horiz-adv-x="557" 
d="M492 389l-421 -162c-5 -2 -10 0 -10 7v18c0 5 3 7 7 9l387 148l-387 148c-4 2 -7 5 -7 9v18c0 6 5 9 10 6l421 -162c4 -1 6 -4 6 -9v-21c0 -4 -2 -7 -6 -9zM492 269l-421 -162c-5 -3 -10 0 -10 6v19c0 4 3 7 7 9l421 160c5 2 9 0 9 -6v-17c0 -5 -2 -8 -6 -9z" />
    <glyph glyph-name="degree" unicode="&#xb0;" horiz-adv-x="399" 
d="M344 621c0 -97 -77 -140 -145 -140c-67 0 -144 43 -144 140c0 98 77 140 144 140c68 0 145 -42 145 -140zM90 621c0 -68 50 -107 109 -107c60 0 110 39 110 107s-50 107 -110 107c-59 0 -109 -39 -109 -107z" />
    <glyph glyph-name="numbersign" unicode="#" horiz-adv-x="617" 
d="M184 0h-21c-6 0 -8 3 -8 8l23 236h-97c-5 0 -9 3 -9 8v20c0 5 4 8 9 8h101l18 186h-100c-5 0 -9 3 -9 8v20c0 5 4 8 9 8h103l24 240c1 5 4 8 9 8h21c6 0 8 -3 8 -8l-24 -240h163l24 240c0 5 3 8 8 8h21c6 0 9 -3 8 -8l-24 -240h96c5 0 8 -3 8 -8v-20c0 -5 -3 -8 -8 -8
h-99l-18 -186h98c5 0 8 -3 8 -8v-20c0 -5 -3 -8 -8 -8h-102l-23 -236c-1 -5 -4 -8 -8 -8h-22c-5 0 -8 3 -8 8l23 236h-163l-23 -236c0 -5 -3 -8 -8 -8zM219 280h163l19 186h-163z" />
    <glyph glyph-name="zero.lf" horiz-adv-x="651" 
d="M594 373c0 -270 -117 -386 -269 -386c-149 0 -269 116 -269 386c0 269 121 388 269 388c153 0 269 -118 269 -388zM98 373c0 -249 105 -347 227 -347c125 0 227 98 227 347s-102 349 -227 349c-121 0 -227 -101 -227 -349z" />
    <glyph glyph-name="one.lf" horiz-adv-x="372" 
d="M254 0h-26c-5 0 -8 3 -8 8v685l-161 -126c-7 -4 -11 -3 -15 3l-8 18c-4 5 -2 10 4 14l212 156c5 4 10 1 10 -5v-745c0 -5 -3 -8 -8 -8z" />
    <glyph glyph-name="two.lf" horiz-adv-x="585" 
d="M521 0h-487c-8 0 -9 4 -9 10c0 7 2 10 7 15l317 309c77 76 118 132 118 218c0 93 -81 169 -193 169c-88 0 -155 -44 -194 -80c-7 -6 -9 -5 -14 1l-10 17c-4 6 -1 11 4 15c37 35 116 87 217 87c133 0 233 -92 233 -206c0 -97 -44 -161 -127 -243l-277 -271h415
c4 0 8 -4 8 -8v-25c0 -5 -4 -8 -8 -8z" />
    <glyph glyph-name="three.lf" horiz-adv-x="575" 
d="M520 216c0 -133 -116 -229 -278 -229c-69 0 -137 11 -186 32c-4 2 -6 7 -4 12l8 20c1 5 5 7 13 4c43 -20 107 -28 168 -28c135 0 237 79 237 190c0 109 -89 181 -213 181h-100c-5 0 -8 3 -8 8v24c0 5 3 8 8 8h100c94 0 162 64 162 144c0 78 -75 139 -180 139
c-62 0 -122 -15 -159 -37c-8 -4 -13 -2 -15 3l-8 20c-3 5 1 10 6 13c43 26 107 41 179 41c128 0 221 -77 221 -175c0 -80 -52 -141 -127 -166c98 -22 176 -98 176 -204z" />
    <glyph glyph-name="four.lf" horiz-adv-x="645" 
d="M496 0h-26c-4 0 -8 3 -8 8v166h-402c-12 0 -18 8 -13 22l249 548c2 4 5 6 9 6h29c6 0 8 -5 6 -10l-239 -527h361v322c0 5 4 8 8 8h26c5 0 9 -3 9 -8v-322h113c5 0 8 -3 8 -8v-23c0 -5 -3 -8 -8 -8h-113v-166c0 -5 -4 -8 -9 -8z" />
    <glyph glyph-name="five.lf" horiz-adv-x="651" 
d="M583 257c0 -161 -122 -271 -314 -271c-88 0 -147 22 -192 46c-4 2 -6 6 -4 11l6 21c1 4 5 7 11 3c47 -25 100 -41 178 -41c168 0 272 93 272 230c0 109 -68 198 -222 198c-97 0 -173 -46 -202 -67c-11 -6 -19 0 -17 10l65 342c1 8 5 11 12 11h365c5 0 8 -3 8 -8v-25
c0 -4 -3 -8 -8 -8h-341l-51 -272c33 22 99 54 180 54c169 0 254 -104 254 -234z" />
    <glyph glyph-name="six.lf" horiz-adv-x="651" 
d="M510 52c-44 -41 -102 -65 -169 -65c-69 0 -130 24 -177 70c-62 59 -99 153 -99 270c0 161 48 275 118 346c60 60 136 88 214 88c69 0 114 -13 141 -28c4 -2 7 -7 5 -12l-7 -19c-2 -4 -6 -6 -12 -3c-27 13 -70 24 -124 24c-69 0 -137 -27 -189 -80
c-64 -64 -106 -167 -106 -309c0 -30 4 -61 13 -96c-1 13 -2 22 -2 32c0 62 25 120 65 164c43 45 105 75 176 75c69 0 126 -24 167 -62c50 -46 77 -113 77 -186c0 -82 -34 -158 -91 -209zM192 83c39 -37 92 -57 148 -57c59 0 109 22 146 56c47 44 74 107 74 176
c0 60 -21 118 -63 159c-35 33 -84 54 -148 54c-66 0 -123 -28 -163 -71c-37 -42 -58 -96 -58 -152c0 -71 25 -126 64 -165z" />
    <glyph glyph-name="seven.lf" horiz-adv-x="568" 
d="M191 0h-29c-6 0 -9 5 -6 10l322 699h-460c-5 0 -8 4 -8 8v25c0 5 3 8 8 8h509c4 0 8 -3 8 -6v-4c0 -4 -2 -8 -4 -13l-331 -721c-1 -4 -4 -6 -9 -6z" />
    <glyph glyph-name="eight.lf" horiz-adv-x="646" 
d="M588 211c0 -129 -112 -224 -264 -224c-148 0 -262 95 -262 224c0 98 72 178 175 207c-74 28 -125 90 -125 162c0 100 94 181 212 181c122 0 214 -81 214 -181c0 -72 -50 -134 -125 -162c105 -28 175 -108 175 -207zM154 578c0 -79 75 -144 170 -144c99 0 172 65 172 144
c0 80 -73 144 -172 144c-95 0 -170 -65 -170 -144zM105 212c0 -109 96 -186 219 -186c126 0 221 77 221 186c0 106 -94 184 -221 184c-123 0 -219 -78 -219 -184z" />
    <glyph glyph-name="nine.lf" horiz-adv-x="651" 
d="M468 76c-59 -61 -136 -89 -214 -89c-69 0 -114 13 -141 28c-3 2 -6 6 -4 12l6 18c1 5 6 7 12 4c28 -14 71 -23 123 -23c70 0 136 26 189 78c64 64 106 168 106 311c0 29 -3 60 -11 93c1 -8 1 -14 1 -22c0 -66 -28 -126 -73 -168c-43 -38 -102 -63 -168 -63
c-76 0 -137 26 -179 70c-42 43 -65 103 -65 170c0 76 29 144 77 193c46 46 109 73 182 73c65 0 124 -21 169 -61c68 -59 108 -157 108 -279c0 -161 -48 -275 -118 -345zM146 351c36 -36 87 -58 156 -58c60 0 114 21 153 58c42 39 68 96 68 157c0 68 -26 124 -67 161
c-39 35 -91 53 -146 53c-64 0 -117 -24 -156 -63c-40 -40 -63 -97 -63 -161c0 -56 18 -110 55 -147z" />
    <glyph glyph-name="dollar.lf" horiz-adv-x="568" 
d="M314 -109h-11c-5 0 -8 3 -8 8v90c-13 -1 -26 -2 -40 -2c-66 0 -140 19 -180 45c-4 2 -5 5 -3 9l8 22c2 5 5 7 11 4c33 -21 100 -40 163 -40c14 0 28 1 41 2v350l-61 30c-80 41 -138 86 -138 170c0 93 78 164 199 179v66c0 5 3 8 8 8h11c5 0 8 -3 8 -8v-64c7 1 15 1 22 1
c51 0 107 -13 135 -27c5 -2 7 -5 5 -10l-9 -23c-2 -4 -5 -5 -11 -3c-24 12 -75 24 -120 24c-7 0 -15 0 -22 -1v-310l42 -21c92 -46 149 -110 149 -198c0 -97 -70 -178 -191 -199v-94c0 -5 -3 -8 -8 -8zM252 445l43 -21v294c-94 -14 -155 -69 -155 -139
c0 -65 47 -100 112 -134zM343 356l-21 10v-332c93 19 147 80 147 156c0 72 -46 125 -126 166z" />
    <glyph glyph-name="cent.lf" horiz-adv-x="557" 
d="M354 -109h-12c-5 0 -8 3 -8 8v89c-154 8 -267 123 -267 283c0 159 113 276 267 284v123c0 5 3 8 8 8h12c4 0 8 -3 8 -8v-122c86 -2 158 -37 207 -91c3 -4 3 -8 0 -12l-14 -15c-3 -4 -7 -4 -11 0c-45 49 -107 79 -182 81v-495c76 2 138 31 182 80c4 4 8 4 12 0l12 -15
c3 -3 4 -8 1 -11c-49 -55 -121 -89 -207 -91v-88c0 -5 -4 -8 -8 -8zM108 271c0 -139 96 -238 226 -246v493c-130 -9 -226 -110 -226 -247z" />
    <glyph glyph-name="sterling.lf" horiz-adv-x="520" 
d="M479 0h-426c-5 0 -8 3 -8 8v22c0 4 3 8 8 8h72v303h-69c-5 0 -8 3 -8 8v21c0 5 3 9 8 9h69v137c0 158 87 245 221 245c43 0 86 -9 116 -26c4 -2 6 -5 6 -9v-24c0 -6 -4 -9 -10 -7c-28 17 -67 26 -108 26c-115 0 -181 -77 -181 -206v-136h209c5 0 8 -4 8 -9v-21
c0 -5 -3 -8 -8 -8h-209v-303h310c5 0 8 -4 8 -8v-22c0 -5 -3 -8 -8 -8z" />
    <glyph glyph-name="florin.lf" horiz-adv-x="385" 
d="M206 -36c0 -114 -59 -180 -159 -180c-30 0 -60 6 -80 17c-5 1 -7 5 -7 9l1 21c0 6 3 9 9 7c20 -11 46 -17 73 -17c74 0 120 50 120 143v542h-115c-5 0 -8 3 -8 8v21c0 5 3 8 8 8h115v94c0 102 60 154 164 154c24 0 48 -3 64 -9c4 -2 6 -5 6 -9v-20c0 -6 -3 -8 -9 -6
c-15 5 -36 8 -57 8c-80 0 -125 -38 -125 -118v-94h165c5 0 9 -3 9 -8v-21c0 -5 -4 -8 -9 -8h-165v-542z" />
    <glyph glyph-name="yen.lf" horiz-adv-x="717" 
d="M372 0h-27c-5 0 -9 3 -9 8v194h-199c-5 0 -8 4 -8 8v21c0 5 3 8 8 8h193l-72 124h-121c-5 0 -8 4 -8 9v20c0 5 3 9 8 9h99l-198 339c-2 5 0 10 6 10h32c4 0 7 -2 9 -6l274 -470l274 470c2 4 5 6 9 6h31c6 0 9 -5 6 -10l-198 -339h99c4 0 8 -4 8 -9v-20c0 -5 -4 -9 -8 -9
h-121l-73 -124h194c4 0 8 -3 8 -8v-21c0 -4 -4 -8 -8 -8h-200v-194c0 -5 -3 -8 -8 -8z" />
    <glyph glyph-name="Euro.lf" horiz-adv-x="636" 
d="M408 278h-237c14 -81 45 -140 85 -181c49 -50 110 -71 170 -71c51 0 99 16 138 46c6 3 9 0 9 -6v-23c0 -4 -1 -8 -5 -9c-41 -32 -90 -47 -142 -47c-71 0 -143 25 -199 81c-47 47 -84 116 -98 210h-81c-5 0 -8 3 -8 8v21c0 5 3 8 8 8h76c-1 18 -2 38 -2 58c0 23 1 45 3 66
h-77c-5 0 -8 3 -8 8v21c0 5 3 8 8 8h82c16 90 51 157 98 204c56 55 127 81 198 81c52 0 102 -15 142 -46c4 -2 5 -5 5 -10v-24c0 -6 -3 -9 -9 -5c-39 31 -87 46 -138 46c-58 0 -119 -20 -168 -69c-39 -40 -70 -98 -85 -177h235c5 0 8 -3 8 -8v-21c0 -5 -3 -8 -8 -8h-241
c-2 -21 -3 -43 -3 -66c0 -20 1 -40 3 -58h241c5 0 8 -3 8 -8v-21c0 -5 -3 -8 -8 -8z" />
    <glyph glyph-name="zero.osf" horiz-adv-x="651" 
d="M594 270c0 -182 -123 -283 -269 -283c-143 0 -269 102 -269 283c0 182 127 286 269 286c147 0 269 -105 269 -286zM98 270c0 -162 110 -244 227 -244c120 0 227 82 227 244c0 163 -107 247 -227 247c-116 0 -227 -84 -227 -247z" />
    <glyph glyph-name="one.osf" horiz-adv-x="372" 
d="M254 0h-26c-5 0 -8 3 -8 8v480l-163 -132c-7 -4 -12 -3 -15 3l-7 18c-3 5 -1 11 4 14l212 164c6 4 11 1 11 -5v-542c0 -5 -3 -8 -8 -8z" />
    <glyph glyph-name="two.osf" horiz-adv-x="580" 
d="M522 0h-487c-7 0 -9 4 -9 10c0 7 2 10 7 15l317 309c77 76 118 132 118 218c0 93 -81 169 -193 169c-88 0 -155 -44 -194 -80c-7 -6 -9 -5 -14 1l-10 17c-4 6 -1 11 4 15c38 35 116 87 217 87c133 0 233 -92 233 -206c0 -97 -44 -161 -127 -243l-276 -271h414
c4 0 8 -4 8 -8v-25c0 -5 -4 -8 -8 -8z" />
    <glyph glyph-name="three.osf" horiz-adv-x="575" 
d="M520 13c0 -133 -116 -229 -278 -229c-69 0 -137 10 -186 32c-4 2 -6 6 -4 12l8 19c2 5 5 8 13 4c43 -20 107 -27 168 -27c135 0 237 78 237 190c0 108 -89 180 -213 180h-100c-5 0 -8 3 -8 8v24c0 5 3 8 8 8h100c94 0 162 63 162 143c0 78 -75 139 -180 139
c-63 0 -122 -16 -159 -38c-8 -4 -13 -2 -15 4l-8 19c-3 6 1 10 6 13c43 26 107 42 179 42c128 0 221 -77 221 -175c0 -80 -52 -141 -126 -165c98 -23 175 -98 175 -203z" />
    <glyph glyph-name="four.osf" horiz-adv-x="645" 
d="M496 -205h-26c-4 0 -8 3 -8 8v197h-410c-7 0 -11 6 -8 15l238 522c2 4 4 6 9 6h29c6 0 8 -4 6 -9l-225 -495h361v257c0 5 4 8 8 8h26c5 0 9 -3 9 -8v-257h113c5 0 8 -3 8 -8v-23c0 -5 -3 -8 -8 -8h-113v-197c0 -5 -4 -8 -9 -8z" />
    <glyph glyph-name="five.osf" horiz-adv-x="651" 
d="M583 54c0 -161 -122 -270 -314 -270c-88 0 -147 21 -192 45c-4 2 -6 6 -4 12l6 20c1 5 5 7 11 4c47 -26 100 -41 178 -41c168 0 272 93 272 230c0 108 -68 198 -222 198c-97 0 -173 -46 -202 -67c-11 -6 -19 -1 -17 9l65 339c1 7 5 10 12 10h365c5 0 8 -3 8 -8v-24
c0 -5 -3 -8 -8 -8h-341l-51 -268c33 21 99 53 180 53c169 0 254 -104 254 -234z" />
    <glyph glyph-name="six.osf" horiz-adv-x="651" 
d="M510 52c-44 -41 -102 -65 -169 -65c-69 0 -130 24 -177 70c-62 59 -99 153 -99 270c0 161 48 275 118 346c60 60 136 88 214 88c69 0 114 -13 141 -28c3 -2 7 -6 5 -12l-7 -19c-3 -4 -6 -6 -12 -3c-27 13 -69 24 -124 24c-69 0 -137 -27 -189 -80
c-64 -64 -106 -167 -106 -309c0 -30 4 -61 13 -96c-1 13 -2 22 -2 32c0 62 25 120 65 164c43 45 105 75 176 75c69 0 126 -24 167 -62c50 -46 77 -113 77 -186c0 -82 -34 -158 -91 -209zM192 83c39 -37 92 -57 148 -57c59 0 109 22 146 56c47 44 74 107 74 176
c0 60 -21 118 -63 159c-35 33 -84 54 -148 54c-66 0 -123 -28 -163 -71c-37 -42 -58 -96 -58 -152c0 -71 25 -126 64 -165z" />
    <glyph glyph-name="seven.osf" horiz-adv-x="568" 
d="M193 -205h-30c-6 0 -8 5 -6 10l321 698h-460c-5 0 -8 3 -8 8v24c0 5 3 8 8 8h509c4 0 8 -2 8 -6v-3c0 -5 -2 -8 -4 -14l-329 -719c-2 -4 -5 -6 -9 -6z" />
    <glyph glyph-name="eight.osf" horiz-adv-x="646" 
d="M588 211c0 -129 -112 -224 -264 -224c-148 0 -262 95 -262 224c0 98 72 178 175 207c-74 28 -125 90 -125 162c0 100 94 181 212 181c122 0 214 -81 214 -181c0 -72 -50 -134 -125 -162c105 -28 175 -108 175 -207zM154 578c0 -79 75 -144 170 -144c99 0 172 65 172 144
c0 80 -73 144 -172 144c-95 0 -170 -65 -170 -144zM105 212c0 -109 96 -186 219 -186c126 0 221 77 221 186c0 106 -94 184 -221 184c-123 0 -219 -78 -219 -184z" />
    <glyph glyph-name="nine.osf" horiz-adv-x="651" 
d="M468 -128c-59 -60 -136 -88 -214 -88c-69 0 -114 13 -141 28c-3 2 -6 6 -4 12l6 18c1 5 6 7 12 4c28 -14 70 -23 123 -23c70 0 136 25 189 77c64 64 106 167 106 310c0 29 -3 59 -11 93c1 -8 1 -14 1 -22c0 -67 -28 -126 -73 -168c-43 -39 -102 -63 -168 -63
c-76 0 -137 26 -179 69s-65 104 -65 171c0 75 29 144 77 192c46 46 109 74 182 74c65 0 124 -22 169 -62c68 -59 108 -156 108 -278c0 -160 -48 -274 -118 -344zM146 145c36 -36 87 -58 156 -58c60 0 114 22 153 58c42 40 68 96 68 158c0 68 -26 123 -67 161
c-39 34 -91 53 -146 53c-64 0 -117 -24 -156 -63c-40 -41 -63 -98 -63 -161c0 -57 18 -110 55 -148z" />
    <glyph glyph-name="zero.tf" 
d="M611 373c0 -270 -110 -386 -262 -386c-149 0 -262 116 -262 386c0 269 114 388 262 388c153 0 262 -118 262 -388zM130 373c0 -249 98 -347 219 -347c126 0 220 98 220 347s-94 349 -220 349c-121 0 -219 -101 -219 -349z" />
    <glyph glyph-name="one.tf" 
d="M612 0h-514c-5 0 -8 3 -8 8v25c0 4 3 8 8 8h268v643l-223 -219c-9 -6 -15 -6 -21 1l-8 12c-5 8 -1 13 5 18l279 265c6 4 11 1 11 -5v-715h203c5 0 8 -4 8 -8v-25c0 -5 -3 -8 -8 -8z" />
    <glyph glyph-name="two.tf" 
d="M598 0h-490c-8 0 -9 4 -9 10c0 7 2 10 7 15l320 309c78 76 118 132 118 218c0 93 -81 169 -193 169c-88 0 -155 -43 -195 -78c-7 -6 -11 -4 -16 2l-7 13c-4 6 -2 12 3 16c39 35 116 87 218 87c133 0 233 -92 233 -206c0 -97 -44 -161 -127 -243l-279 -271h417
c4 0 8 -4 8 -8v-25c0 -5 -4 -8 -8 -8z" />
    <glyph glyph-name="three.tf" 
d="M602 219c0 -135 -120 -232 -284 -232c-87 0 -154 14 -210 40c-6 3 -8 9 -6 15l5 17c2 6 6 9 14 7c49 -23 117 -39 196 -39c138 0 243 80 243 192c0 109 -87 179 -210 179h-116c-5 0 -8 3 -8 8v24c0 5 3 8 8 8h116c94 0 161 64 161 144c0 79 -79 139 -185 139
c-72 0 -136 -25 -173 -47c-11 -5 -17 -1 -19 4l-6 19c-1 5 2 10 7 13c54 30 119 51 194 51c129 0 226 -77 226 -176c0 -80 -52 -140 -127 -165c98 -22 174 -96 174 -201z" />
    <glyph glyph-name="four.tf" 
d="M517 0h-26c-5 0 -8 3 -8 8v166h-412c-9 0 -14 6 -9 17l250 553c2 4 5 6 9 6h29c6 0 8 -5 6 -10l-239 -527h366v322c0 5 3 8 8 8h26c5 0 8 -3 8 -8v-322h123c5 0 9 -3 9 -8v-23c0 -5 -4 -8 -9 -8h-123v-166c0 -5 -3 -8 -8 -8z" />
    <glyph glyph-name="five.tf" 
d="M619 257c0 -161 -127 -271 -321 -271c-89 0 -158 24 -202 48c-3 2 -6 7 -3 13l4 14c2 6 6 10 14 6c44 -24 107 -41 188 -41c169 0 276 93 276 230c0 109 -77 198 -227 198c-102 0 -183 -47 -212 -66c-10 -7 -18 0 -17 8l65 343c1 8 6 11 12 11h381c5 0 8 -3 8 -8v-25
c0 -4 -3 -8 -8 -8h-357l-52 -273c34 22 106 55 192 55c164 0 259 -104 259 -234z" />
    <glyph glyph-name="six.tf" 
d="M617 261c0 -147 -108 -274 -259 -274c-161 0 -277 134 -277 340c0 162 48 275 119 346c60 60 137 88 214 88c70 0 115 -13 141 -28c5 -3 8 -7 4 -14l-6 -14c-3 -7 -7 -9 -16 -5c-26 14 -68 23 -120 23c-154 0 -295 -129 -295 -389c0 -30 3 -61 12 -96c-1 12 -2 22 -2 32
c0 128 103 239 241 239c153 0 244 -114 244 -248zM144 248c0 -140 99 -222 213 -222c130 0 220 108 220 232c0 110 -70 213 -211 213c-128 0 -222 -105 -222 -223z" />
    <glyph glyph-name="seven.tf" 
d="M235 0c-6 0 -9 5 -6 10l351 699h-477c-5 0 -8 4 -8 8v25c0 5 3 8 8 8h530c4 0 7 -3 7 -6v-4c0 -4 -1 -8 -4 -13l-360 -721c-2 -4 -5 -6 -9 -6h-32z" />
    <glyph glyph-name="eight.tf" 
d="M612 211c0 -129 -111 -224 -263 -224c-149 0 -262 95 -262 224c0 98 72 178 175 207c-75 28 -126 90 -126 162c0 100 95 181 213 181c121 0 214 -81 214 -181c0 -71 -51 -134 -126 -162c105 -28 175 -108 175 -207zM178 578c0 -79 76 -144 171 -144c98 0 172 65 172 144
c0 80 -74 144 -172 144c-95 0 -171 -65 -171 -144zM129 212c0 -109 97 -186 220 -186c125 0 221 77 221 186c0 106 -95 184 -221 184c-123 0 -220 -78 -220 -184z" />
    <glyph glyph-name="nine.tf" 
d="M499 76c-59 -60 -136 -89 -214 -89c-67 0 -111 12 -137 26c-6 3 -9 8 -7 16l4 14c3 7 7 9 15 5c27 -13 69 -22 122 -22c154 0 294 129 294 389c0 29 -3 60 -11 93c1 -8 1 -14 1 -22c0 -127 -103 -231 -241 -231c-153 0 -244 107 -244 240c0 147 108 266 260 266
c160 0 276 -134 276 -340c0 -161 -48 -275 -118 -345zM122 498c0 -109 69 -205 211 -205c127 0 221 97 221 215c0 134 -99 214 -213 214c-130 0 -219 -100 -219 -224z" />
    <glyph glyph-name="zero.tosf" 
d="M619 270c0 -182 -124 -283 -270 -283c-143 0 -269 102 -269 283c0 182 127 286 269 286c147 0 270 -105 270 -286zM122 270c0 -162 111 -244 227 -244c121 0 228 82 228 244c0 163 -107 247 -228 247c-115 0 -227 -84 -227 -247z" />
    <glyph glyph-name="one.tosf" 
d="M606 0h-514c-5 0 -8 3 -8 8v25c0 4 3 8 8 8h272v454l-218 -109c-10 -4 -14 -2 -18 6l-7 16c-3 6 -1 13 5 15l270 132c7 4 11 1 11 -5v-509h199c5 0 8 -4 8 -8v-25c0 -5 -3 -8 -8 -8z" />
    <glyph glyph-name="two.tosf" 
d="M581 0h-489c-8 0 -9 4 -9 10c0 7 2 10 6 15l320 309c78 76 119 132 119 218c0 93 -81 169 -193 169c-90 0 -154 -41 -193 -76c-9 -7 -13 -6 -17 1l-7 14c-3 5 -2 10 3 14c38 35 113 87 217 87c133 0 233 -92 233 -206c0 -97 -44 -161 -127 -243l-280 -271h417
c5 0 9 -4 9 -8v-25c0 -5 -4 -8 -9 -8z" />
    <glyph glyph-name="three.tosf" 
d="M587 13c0 -133 -116 -229 -278 -229c-69 0 -138 10 -185 32c-4 1 -6 5 -5 10l3 20c1 6 5 10 13 7c44 -19 109 -29 173 -29c136 0 237 78 237 190c0 109 -89 179 -212 179h-101c-5 0 -8 4 -8 9v23c0 5 3 8 8 8h101c94 0 161 64 161 144c0 78 -74 139 -180 139
c-72 0 -126 -18 -165 -38c-9 -4 -12 -1 -14 6l-4 20c-1 4 1 8 6 10c39 20 99 42 180 42c129 0 222 -77 222 -175c0 -79 -52 -140 -126 -165c98 -24 174 -97 174 -203z" />
    <glyph glyph-name="four.tosf" 
d="M513 -205h-26c-4 0 -8 3 -8 8v197h-409c-10 0 -14 6 -9 17l236 520c2 4 5 6 9 6h29c6 0 9 -4 7 -9l-225 -495h362v257c0 5 4 8 8 8h26c5 0 9 -3 9 -8v-257h113c5 0 8 -3 8 -8v-23c0 -5 -3 -8 -8 -8h-113v-197c0 -5 -4 -8 -9 -8z" />
    <glyph glyph-name="five.tosf" 
d="M605 54c0 -161 -123 -270 -316 -270c-89 0 -147 21 -190 44c-4 2 -7 6 -5 13l6 17c2 7 7 9 13 6c44 -22 95 -40 176 -40c169 0 272 93 272 230c0 108 -67 198 -222 198c-97 0 -174 -48 -202 -68c-10 -5 -18 0 -16 10l64 339c1 7 6 10 12 10h364c4 0 8 -3 8 -8v-24
c0 -5 -4 -8 -8 -8h-341l-50 -269c33 22 100 54 181 54c169 0 254 -104 254 -234z" />
    <glyph glyph-name="six.tosf" 
d="M358 -13c-161 0 -277 134 -277 340c0 161 48 275 119 346c60 60 136 88 213 88c70 0 114 -13 141 -28c5 -3 8 -7 6 -13l-4 -17c-3 -7 -7 -8 -14 -4c-27 14 -71 24 -125 24c-154 0 -295 -129 -295 -389c0 -30 3 -61 12 -96c-1 12 -2 22 -2 32c0 128 103 239 241 239
c153 0 244 -114 244 -248c0 -147 -108 -274 -259 -274zM357 26c130 0 220 108 220 232c0 110 -70 213 -211 213c-128 0 -222 -105 -222 -223c0 -140 99 -222 213 -222z" />
    <glyph glyph-name="seven.tosf" 
d="M247 -205c-7 0 -9 5 -7 10l323 698h-461c-5 0 -8 3 -8 8v24c0 5 3 8 8 8h511c4 0 7 -2 7 -6v-3c0 -5 -2 -8 -4 -14l-331 -719c-2 -4 -5 -6 -9 -6h-29z" />
    <glyph glyph-name="eight.tosf" 
d="M612 211c0 -129 -111 -224 -263 -224c-149 0 -262 95 -262 224c0 98 72 178 175 207c-75 28 -126 90 -126 162c0 100 95 181 213 181c121 0 214 -81 214 -181c0 -71 -51 -134 -126 -162c105 -28 175 -108 175 -207zM178 578c0 -79 76 -144 171 -144c98 0 172 65 172 144
c0 80 -74 144 -172 144c-95 0 -171 -65 -171 -144zM129 212c0 -109 97 -186 220 -186c125 0 221 77 221 186c0 106 -95 184 -221 184c-123 0 -220 -78 -220 -184z" />
    <glyph glyph-name="nine.tosf" 
d="M500 -127c-60 -61 -137 -89 -215 -89c-69 0 -114 13 -140 27c-5 3 -7 7 -5 13l4 18c1 5 5 9 12 5c27 -14 71 -24 126 -24c154 0 294 126 294 387c0 29 -3 59 -11 93c1 -8 1 -14 1 -22c0 -128 -103 -231 -241 -231c-153 0 -244 106 -244 240c0 147 108 266 260 266
c160 0 276 -134 276 -340c0 -160 -47 -273 -117 -343zM122 293c0 -110 69 -206 211 -206c127 0 221 97 221 216c0 133 -99 214 -213 214c-130 0 -219 -100 -219 -224z" />
    <glyph glyph-name="zero.sups" horiz-adv-x="345" 
d="M302 605c0 -126 -56 -182 -130 -182c-72 0 -129 56 -129 182s57 183 129 183c75 0 130 -57 130 -183zM80 605c0 -105 42 -145 92 -145c52 0 93 40 93 145s-41 147 -93 147c-49 0 -92 -42 -92 -147z" />
    <glyph glyph-name="one.sups" horiz-adv-x="221" 
d="M149 430h-30c-3 0 -5 2 -5 5v297l-71 -49c-3 -3 -6 -2 -7 1l-7 22c-2 3 -1 6 3 7l116 74c4 2 6 0 6 -3v-349c0 -3 -2 -5 -5 -5z" />
    <glyph glyph-name="two.sups" horiz-adv-x="308" 
d="M264 430h-224c-7 0 -8 3 -8 8c0 4 1 7 4 10l134 134c35 34 51 60 51 97c0 41 -36 75 -85 75c-37 0 -64 -18 -81 -33c-3 -4 -5 -4 -7 0l-6 19c-2 4 -1 7 2 9c19 17 56 39 104 39c65 0 113 -44 113 -101c0 -44 -19 -74 -56 -111l-108 -110h167c3 0 5 -2 5 -5v-26
c0 -3 -2 -5 -5 -5z" />
    <glyph glyph-name="three.sups" horiz-adv-x="311" 
d="M268 533c0 -64 -56 -110 -136 -110c-33 0 -65 6 -88 15c-2 2 -3 5 -2 8l5 21c1 3 3 5 7 2c19 -7 46 -11 72 -11c60 0 104 32 104 78c0 44 -36 72 -87 72h-46c-3 0 -4 2 -4 5v21c0 3 1 5 4 5h46c40 0 67 26 67 59s-32 58 -79 58c-28 0 -55 -7 -71 -17c-4 -2 -7 -1 -8 3
l-5 20c-2 3 0 6 3 7c21 12 53 19 86 19c66 0 111 -37 111 -85c0 -35 -21 -64 -53 -77c43 -12 74 -47 74 -93z" />
    <glyph glyph-name="four.sups" horiz-adv-x="343" 
d="M261 430h-27c-3 0 -5 2 -5 5v73h-185c-6 0 -10 4 -8 12l109 259c1 2 3 4 5 4h29c3 0 5 -3 4 -6l-102 -239h148v143c0 3 2 5 5 5h27c3 0 5 -2 5 -5v-143h46c3 0 5 -2 5 -5v-20c0 -3 -2 -5 -5 -5h-46v-73c0 -3 -2 -5 -5 -5z" />
    <glyph glyph-name="five.sups" horiz-adv-x="341" 
d="M293 550c0 -76 -60 -127 -151 -127c-39 0 -69 10 -89 20c-3 2 -4 4 -4 8l6 21c0 3 2 5 6 3c21 -11 44 -18 78 -18c71 0 114 38 114 94c0 44 -28 81 -95 81c-41 0 -74 -19 -87 -27c-6 -4 -10 0 -9 5l30 167c1 4 4 6 6 6h175c2 0 5 -3 5 -6v-25c0 -3 -3 -5 -5 -5h-153
l-21 -110c16 9 43 21 76 21c76 0 118 -48 118 -108z" />
    <glyph glyph-name="six.sups" horiz-adv-x="345" 
d="M265 455c-21 -20 -50 -32 -83 -32c-36 0 -66 13 -89 35c-30 28 -47 73 -47 128c0 73 22 125 55 158c30 30 69 44 108 44c34 0 56 -7 69 -14c2 -1 4 -3 3 -7l-5 -19c-1 -4 -3 -5 -7 -4c-13 7 -32 11 -57 11c-31 0 -62 -11 -85 -35c-26 -27 -44 -70 -44 -129
c0 -8 1 -16 2 -25c1 27 11 49 27 66c19 19 47 33 81 33c33 0 60 -12 79 -30c22 -21 35 -51 35 -84c0 -38 -16 -73 -42 -96zM119 479c16 -15 38 -23 61 -23c24 0 46 9 61 23c19 18 31 43 31 71c0 25 -9 49 -27 65c-13 14 -34 23 -61 23c-28 0 -52 -11 -68 -29
c-15 -17 -24 -39 -24 -62v-7l2 -5h-1c2 -24 12 -42 26 -56z" />
    <glyph glyph-name="seven.sups" horiz-adv-x="304" 
d="M123 430h-31c-4 0 -5 3 -4 6l134 311h-192c-3 0 -4 1 -4 5v25c0 3 1 6 4 6h238c3 0 5 -2 5 -4v-1c0 -2 -1 -4 -2 -7l-142 -337c-1 -2 -3 -4 -6 -4z" />
    <glyph glyph-name="eight.sups" horiz-adv-x="344" 
d="M300 531c0 -62 -54 -108 -128 -108c-72 0 -127 46 -127 108c0 43 29 78 72 94c-30 16 -50 43 -50 74c0 49 46 89 105 89c61 0 106 -40 106 -89c0 -31 -20 -58 -50 -74c44 -16 72 -51 72 -94zM101 697c0 -33 31 -60 71 -60c41 0 72 27 72 60c0 34 -31 60 -72 60
c-40 0 -71 -26 -71 -60zM81 532c0 -45 40 -76 91 -76c53 0 91 31 91 76c0 44 -38 76 -91 76c-51 0 -91 -33 -91 -76z" />
    <glyph glyph-name="nine.sups" horiz-adv-x="345" 
d="M245 468c-30 -31 -70 -45 -108 -45c-35 0 -56 7 -69 14c-3 2 -4 4 -3 7l4 20c1 3 3 5 8 3c13 -6 32 -10 56 -10c31 0 62 11 84 33c28 28 45 71 45 131c0 8 -1 16 -2 25c-1 -27 -13 -49 -31 -66c-19 -16 -45 -27 -76 -27c-36 0 -64 12 -84 32s-30 48 -30 78
c0 36 13 67 36 90c22 22 53 35 89 35c33 0 61 -10 84 -30c32 -28 52 -74 52 -132c0 -73 -23 -125 -55 -158zM97 604c14 -15 36 -25 64 -25c26 0 48 10 65 24c16 17 27 40 27 65v5l-2 5h1c-2 24 -12 43 -26 56c-17 14 -39 22 -61 22c-27 0 -49 -10 -65 -26
c-17 -17 -27 -40 -27 -66c0 -23 9 -45 24 -60z" />
    <glyph glyph-name="period.sups" horiz-adv-x="221" 
d="M110 422c-15 0 -24 10 -24 29c0 18 9 27 24 27c17 0 25 -9 25 -27c0 -19 -8 -29 -25 -29z" />
    <glyph glyph-name="comma.sups" horiz-adv-x="179" 
d="M64 318c-6 0 -8 4 -7 9l31 156c1 6 4 10 11 10h25c6 0 8 -5 7 -10l-48 -158c-2 -5 -5 -7 -10 -7h-9z" />
    <glyph glyph-name="hyphen.sups" horiz-adv-x="307" 
d="M56 592v17c0 5 4 8 8 8h179c5 0 8 -3 8 -8v-17c0 -5 -3 -9 -8 -9h-179c-4 0 -8 4 -8 9z" />
    <glyph glyph-name="parenleft.sups" horiz-adv-x="197" 
d="M45 603c0 137 52 241 90 289c4 4 7 6 13 6h20c4 0 6 -4 4 -8c-42 -51 -91 -159 -91 -287s49 -238 91 -288c2 -4 0 -8 -4 -8h-20c-6 0 -9 2 -13 6c-37 47 -90 152 -90 290z" />
    <glyph glyph-name="parenright.sups" horiz-adv-x="197" 
d="M49 898c6 0 9 -2 13 -6c38 -48 90 -152 90 -289c0 -138 -53 -243 -90 -290c-4 -4 -7 -6 -13 -6h-20c-4 0 -6 4 -3 8c41 50 91 160 91 288s-50 236 -91 287c-3 4 -1 8 3 8h20z" />
    <glyph glyph-name="plus.sups" horiz-adv-x="319" 
d="M153 546v93h-94c-4 0 -8 3 -8 8v14c0 4 4 8 8 8h94v93c0 5 3 8 8 8h14c4 0 8 -3 8 -8v-93h92c5 0 8 -4 8 -8v-14c0 -5 -3 -8 -8 -8h-92v-93c0 -4 -4 -8 -8 -8h-14c-5 0 -8 4 -8 8z" />
    <glyph glyph-name="minus.sups" horiz-adv-x="319" 
d="M51 647v14c0 4 4 8 8 8h201c5 0 8 -4 8 -8v-14c0 -5 -3 -8 -8 -8h-201c-4 0 -8 3 -8 8z" />
    <glyph glyph-name="multiply.sups" horiz-adv-x="280" 
d="M61 567l-8 8c-4 4 -4 8 0 12l68 68l-68 66c-4 4 -4 8 0 12l8 8c4 4 8 4 12 0l67 -67l67 67c4 4 8 4 12 0l8 -8c4 -4 4 -8 0 -12l-68 -66l68 -68c4 -4 4 -9 0 -12l-8 -8c-4 -3 -9 -2 -12 1l-67 67l-67 -67c-4 -4 -8 -5 -12 -1z" />
    <glyph glyph-name="equal.sups" horiz-adv-x="319" 
d="M51 692v12c0 5 4 9 8 9h201c5 0 8 -4 8 -9v-12c0 -5 -3 -9 -8 -9h-201c-4 0 -8 4 -8 9zM51 592v13c0 4 4 8 8 8h201c5 0 8 -4 8 -8v-13c0 -5 -3 -8 -8 -8h-201c-4 0 -8 3 -8 8z" />
    <glyph glyph-name="divide.sups" horiz-adv-x="319" 
d="M159 724c-17 0 -28 9 -28 24c0 16 11 26 28 26c18 0 29 -10 29 -26c0 -15 -11 -24 -29 -24zM51 647v13c0 5 4 8 8 8h201c5 0 8 -3 8 -8v-13c0 -5 -3 -8 -8 -8h-201c-4 0 -8 3 -8 8zM159 533c-17 0 -28 9 -28 24c0 17 11 27 28 27c18 0 29 -10 29 -27
c0 -15 -11 -24 -29 -24z" />
    <glyph glyph-name="a.sups" horiz-adv-x="409" 
d="M159 421c-67 0 -112 39 -112 96c0 28 11 52 29 70c33 33 89 49 149 49c28 0 56 -3 83 -10v29c0 62 -43 95 -116 95c-44 0 -81 -12 -105 -22c-4 -2 -7 -1 -7 3l-6 17c-2 3 -1 7 3 8c26 13 65 25 120 25c96 0 150 -47 150 -131v-111c0 -40 5 -82 9 -103c1 -3 -2 -6 -6 -6
h-22c-5 0 -7 2 -8 5c-4 15 -10 45 -11 79c-22 -51 -79 -93 -150 -93zM84 519c0 -41 34 -70 84 -70c78 0 140 58 140 128v25c-24 7 -50 10 -76 10c-51 0 -99 -13 -126 -41c-14 -14 -22 -31 -22 -52z" />
    <glyph glyph-name="b.sups" horiz-adv-x="466" 
d="M94 430h-23c-4 0 -6 3 -6 6v474c0 4 2 6 5 6l26 5c3 1 7 -1 7 -4v-225c26 57 80 89 146 89c99 0 171 -74 171 -179c0 -104 -72 -181 -171 -181c-68 0 -124 37 -149 100v-86c0 -3 -2 -5 -6 -5zM100 602c0 -85 61 -145 141 -145s140 60 140 145c0 86 -60 144 -140 144
s-141 -58 -141 -144z" />
    <glyph glyph-name="d.sups" horiz-adv-x="459" 
d="M393 430h-24c-2 0 -5 2 -5 5l-1 80c-26 -60 -80 -94 -148 -94c-98 0 -169 75 -169 180c0 104 72 180 169 180c66 0 120 -34 147 -92v221c0 4 2 6 4 6l27 5c2 1 6 -1 6 -4v-481c0 -3 -3 -6 -6 -6zM84 601c0 -86 59 -144 139 -144c81 0 141 58 141 144
c0 85 -60 146 -141 146c-80 0 -139 -61 -139 -146z" />
    <glyph glyph-name="e.sups" horiz-adv-x="420" 
d="M360 447c-30 -16 -74 -26 -119 -26c-121 0 -195 72 -195 185c0 101 74 175 172 175c101 0 161 -74 161 -167c0 -4 0 -7 -1 -9c0 -6 -3 -8 -9 -8h-287c5 -91 64 -142 163 -142c41 0 78 9 104 22c4 1 6 1 8 -4l5 -17c1 -4 0 -7 -2 -9zM218 749c-72 0 -130 -52 -136 -129
h262c-2 73 -47 129 -126 129z" />
    <glyph glyph-name="f.sups" horiz-adv-x="243" 
d="M127 430h-29c-3 0 -5 3 -5 6v303h-68c-4 0 -6 3 -6 6v22c0 3 2 6 6 6h68v55c0 66 38 100 108 100c17 0 33 -3 44 -7c3 -1 4 -3 3 -7l-4 -18c-1 -3 -4 -6 -7 -4c-9 3 -19 5 -30 5c-47 0 -74 -23 -74 -70v-54h98c3 0 6 -3 6 -6v-22c0 -3 -3 -6 -6 -6h-98v-303
c0 -3 -2 -6 -6 -6z" />
    <glyph glyph-name="g.sups" horiz-adv-x="466" 
d="M400 462c0 -102 -57 -168 -179 -168c-63 0 -113 20 -144 42c-3 2 -3 4 -2 8l7 19c2 4 4 5 8 2c29 -19 73 -37 128 -37c102 0 147 56 147 134v57c-26 -58 -81 -92 -148 -92c-99 0 -171 73 -171 176c0 102 74 178 171 178c68 0 123 -35 149 -94v80c0 4 3 6 6 6h23
c3 0 5 -3 5 -6v-305zM85 603c0 -84 59 -143 139 -143s141 59 141 144s-60 144 -141 144c-78 0 -139 -61 -139 -145z" />
    <glyph glyph-name="h.sups" horiz-adv-x="447" 
d="M101 430h-30c-4 0 -6 3 -6 6v474c0 4 2 6 5 6l28 5c3 1 6 -1 6 -4v-230c19 51 66 94 138 94c86 0 143 -59 143 -157v-188c0 -3 -1 -6 -5 -6h-29c-4 0 -6 3 -6 6v179c0 82 -44 133 -115 133c-72 0 -124 -56 -124 -143v-169c0 -3 -3 -6 -5 -6z" />
    <glyph glyph-name="i.sups" horiz-adv-x="194" 
d="M122 888c0 -16 -9 -23 -25 -23c-15 0 -24 7 -24 23s9 24 24 24c16 0 25 -8 25 -24zM111 430h-28c-3 0 -6 3 -6 6v331c0 3 3 6 6 6h28c4 0 6 -3 6 -6v-331c0 -3 -2 -6 -6 -6z" />
    <glyph glyph-name="j.sups" horiz-adv-x="205" 
d="M133 888c0 -16 -9 -23 -25 -23c-15 0 -23 7 -23 23s8 24 23 24c16 0 25 -8 25 -24zM129 414c0 -72 -36 -107 -77 -119c-4 -1 -6 0 -7 4l-7 25c-1 3 1 5 4 7c26 10 46 32 46 83v353c0 3 3 6 6 6h29c4 0 6 -3 6 -6v-353z" />
    <glyph glyph-name="k.sups" horiz-adv-x="362" 
d="M98 430h-27c-4 0 -6 3 -6 6v474c0 4 2 6 5 6l27 5c4 1 6 -1 6 -4v-282h43l135 134c1 3 3 4 7 4h31c5 0 7 -3 4 -7l-144 -145l154 -184c2 -4 0 -7 -4 -7h-33c-3 0 -6 2 -7 4l-142 168h-44v-166c0 -3 -1 -6 -5 -6z" />
    <glyph glyph-name="l.sups" horiz-adv-x="169" 
d="M99 430h-29c-3 0 -5 3 -5 6v474c0 4 2 5 4 6l29 5c3 1 6 -1 6 -4v-481c0 -3 -2 -6 -5 -6z" />
    <glyph glyph-name="m.sups" 
d="M100 430h-29c-4 0 -6 3 -6 6v331c0 3 2 6 6 6h26c4 0 7 -2 7 -6v-77c16 47 63 91 131 91c66 0 114 -36 131 -98c15 50 63 98 135 98c82 0 136 -55 136 -148v-197c0 -3 -2 -6 -6 -6h-29c-4 0 -6 3 -6 6v191c0 74 -41 121 -108 121s-116 -52 -116 -132v-180
c0 -3 -3 -6 -6 -6h-29c-4 0 -6 3 -6 6v191c0 73 -42 121 -109 121c-68 0 -116 -52 -116 -132v-180c0 -3 -3 -6 -6 -6z" />
    <glyph glyph-name="n.sups" horiz-adv-x="447" 
d="M100 430h-29c-4 0 -6 3 -6 6v331c0 3 2 6 6 6h26c3 0 7 -2 7 -6v-87c17 54 66 101 139 101c86 0 142 -59 142 -157v-188c0 -3 -2 -6 -5 -6h-30c-3 0 -5 3 -5 6v179c0 82 -44 132 -115 132c-72 0 -124 -55 -124 -142v-169c0 -3 -3 -6 -6 -6z" />
    <glyph glyph-name="o.sups" horiz-adv-x="456" 
d="M410 601c0 -105 -76 -180 -182 -180c-105 0 -182 75 -182 180c0 104 77 180 182 180c107 0 182 -76 182 -180zM84 601c0 -86 62 -144 144 -144c84 0 144 58 144 144s-60 146 -144 146c-81 0 -144 -61 -144 -146z" />
    <glyph glyph-name="p.sups" horiz-adv-x="466" 
d="M97 301h-26c-4 0 -6 2 -6 5v461c0 3 2 6 6 6h23c3 0 6 -2 6 -6l1 -81c25 61 80 95 148 95c99 0 171 -74 171 -179c0 -104 -72 -181 -171 -181c-66 0 -119 34 -146 93v-208c0 -3 -3 -5 -6 -5zM100 602c0 -85 61 -145 141 -145s140 60 140 145c0 86 -60 144 -140 144
s-141 -58 -141 -144z" />
    <glyph glyph-name="q.sups" horiz-adv-x="466" 
d="M395 301h-27c-3 0 -5 2 -5 5v207c-27 -58 -80 -92 -146 -92c-99 0 -171 76 -171 181s72 179 170 179c68 0 123 -35 149 -96l1 82c0 4 2 6 5 6h24c3 0 5 -3 5 -6v-461c0 -3 -2 -5 -5 -5zM85 602c0 -86 59 -145 139 -145c81 0 141 59 141 144c0 86 -60 145 -141 145
c-80 0 -139 -59 -139 -144z" />
    <glyph glyph-name="r.sups" horiz-adv-x="296" 
d="M100 430h-29c-4 0 -6 3 -6 6v331c0 3 2 6 6 6h24c4 0 7 -2 7 -6v-78c14 50 55 92 117 92c19 0 38 -3 52 -10c3 -1 4 -4 2 -7l-5 -25c-1 -4 -4 -6 -8 -4c-12 5 -29 8 -45 8c-62 0 -109 -46 -109 -125v-182c0 -3 -3 -6 -6 -6z" />
    <glyph glyph-name="s.sups" horiz-adv-x="334" 
d="M285 523c0 -58 -50 -102 -133 -102c-39 0 -73 10 -93 23c-3 2 -4 4 -2 7l6 19c2 4 4 4 7 2c17 -10 46 -18 77 -18c63 0 99 30 99 70c0 35 -23 55 -65 71l-41 16c-45 17 -74 41 -74 83c0 50 50 87 122 87c28 0 57 -7 77 -18c3 -1 3 -5 2 -8l-6 -17c-1 -3 -4 -4 -8 -3
c-16 8 -37 14 -60 14c-51 0 -86 -22 -86 -57c0 -30 21 -45 55 -58l41 -16c52 -21 82 -48 82 -95z" />
    <glyph glyph-name="t.sups" horiz-adv-x="267" 
d="M238 433c-14 -7 -35 -12 -54 -12c-63 0 -100 40 -100 108v210h-59c-4 0 -6 3 -6 6v22c0 3 2 6 6 6h59v93c0 4 2 6 5 6l28 6c4 1 7 -1 7 -4v-101h110c4 0 6 -3 6 -6v-22c0 -3 -2 -6 -6 -6h-110v-208c0 -48 25 -73 66 -73c14 0 30 3 41 9c3 1 5 0 6 -3l4 -24
c0 -3 0 -5 -3 -7z" />
    <glyph glyph-name="u.sups" horiz-adv-x="436" 
d="M375 583c0 -101 -63 -162 -158 -162c-93 0 -156 61 -156 163v183c0 3 2 6 6 6h28c4 0 7 -3 7 -6v-186c0 -77 45 -125 115 -125c73 0 117 48 117 125v186c0 3 3 6 6 6h29c4 0 6 -3 6 -6v-184z" />
    <glyph glyph-name="v.sups" horiz-adv-x="387" 
d="M209 425h-31c-3 0 -6 1 -7 5l-139 336c-1 4 1 7 4 7h30c3 0 5 -2 7 -5l121 -304l121 304c1 3 3 5 6 5h29c4 0 6 -3 4 -7l-138 -336c-1 -4 -3 -5 -7 -5z" />
    <glyph glyph-name="w.sups" horiz-adv-x="614" 
d="M201 425h-23c-4 0 -6 1 -7 5l-139 336c-1 4 1 7 4 7h29c3 0 5 -1 6 -5l120 -292l100 250c2 4 4 5 7 5h18c3 0 5 -1 6 -5l100 -250l120 292c2 4 4 5 7 5h28c4 0 6 -3 4 -7l-139 -336c-1 -4 -4 -5 -7 -5h-23c-3 0 -6 1 -7 5l-98 249l-99 -249c-2 -4 -3 -5 -7 -5z" />
    <glyph glyph-name="x.sups" horiz-adv-x="395" 
d="M74 430h-32c-5 0 -5 3 -3 7l135 169l-128 160c-3 3 -2 7 3 7h32c3 0 5 -1 7 -4l110 -141l110 141c1 3 4 4 7 4h31c5 0 6 -4 3 -7l-128 -160l135 -169c3 -4 2 -7 -3 -7h-33c-3 0 -5 1 -6 4l-116 148l-117 -148c-2 -3 -4 -4 -7 -4z" />
    <glyph glyph-name="y.sups" horiz-adv-x="403" 
d="M163 301h-24c-5 0 -7 3 -5 7l47 110l-156 348c-1 4 1 7 5 7h29c3 0 5 -2 6 -5l135 -307l131 307c1 3 3 5 7 5h28c5 0 6 -3 5 -7l-201 -461c-2 -3 -4 -4 -7 -4z" />
    <glyph glyph-name="z.sups" horiz-adv-x="345" 
d="M306 430h-269c-4 0 -6 3 -6 6v17c0 3 1 5 3 7l226 278h-209c-3 0 -5 2 -5 6v23c0 3 2 6 5 6h255c4 0 6 -3 6 -6v-17c0 -3 -1 -5 -3 -7l-223 -278h220c4 0 6 -2 6 -6v-23c0 -3 -2 -6 -6 -6z" />
    <glyph glyph-name="zero.subs" horiz-adv-x="349" 
d="M302 64c0 -126 -56 -182 -130 -182c-72 0 -129 56 -129 182s57 183 129 183c75 0 130 -57 130 -183zM80 64c0 -105 42 -145 92 -145c52 0 93 40 93 145s-41 147 -93 147c-49 0 -92 -42 -92 -147z" />
    <glyph glyph-name="one.subs" horiz-adv-x="236" 
d="M149 -111h-30c-3 0 -5 2 -5 5v297l-71 -49c-3 -3 -6 -2 -7 1l-7 22c-2 3 -1 6 3 7l116 74c4 2 6 0 6 -3v-349c0 -3 -2 -5 -5 -5z" />
    <glyph glyph-name="two.subs" horiz-adv-x="285" 
d="M264 -111h-224c-7 0 -8 3 -8 8c0 4 1 7 4 10l134 134c35 34 51 60 51 97c0 41 -36 75 -85 75c-37 0 -64 -18 -81 -33c-3 -4 -5 -4 -7 0l-6 19c-2 4 -1 7 2 9c19 17 56 39 104 39c65 0 113 -44 113 -101c0 -44 -19 -74 -56 -111l-108 -110h167c3 0 5 -2 5 -5v-26
c0 -3 -2 -5 -5 -5z" />
    <glyph glyph-name="three.subs" horiz-adv-x="288" 
d="M264 -8c0 -64 -56 -110 -136 -110c-33 0 -65 6 -88 15c-2 2 -3 5 -2 8l5 21c1 3 3 5 7 2c19 -7 46 -11 72 -11c60 0 104 32 104 78c0 44 -36 72 -87 72h-46c-3 0 -4 2 -4 5v21c0 3 1 5 4 5h46c40 0 67 26 67 59s-32 58 -79 58c-28 0 -55 -7 -71 -17c-4 -2 -7 -1 -8 3
l-5 20c-2 3 0 6 3 7c21 12 53 19 86 19c66 0 111 -37 111 -85c0 -35 -21 -64 -53 -77c43 -12 74 -47 74 -93z" />
    <glyph glyph-name="four.subs" horiz-adv-x="355" 
d="M261 -111h-27c-3 0 -5 2 -5 5v73h-185c-6 0 -10 4 -8 12l109 259c1 2 3 4 5 4h29c3 0 5 -3 4 -6l-102 -239h148v143c0 3 2 5 5 5h27c3 0 5 -2 5 -5v-143h46c3 0 5 -2 5 -5v-20c0 -3 -2 -5 -5 -5h-46v-73c0 -3 -2 -5 -5 -5z" />
    <glyph glyph-name="five.subs" horiz-adv-x="311" 
d="M293 9c0 -76 -60 -127 -151 -127c-39 0 -69 10 -89 20c-3 2 -4 4 -4 8l6 21c0 3 2 5 6 3c21 -11 44 -18 78 -18c71 0 114 38 114 94c0 44 -28 81 -95 81c-41 0 -74 -19 -87 -27c-6 -4 -10 0 -9 5l30 167c1 4 4 6 6 6h175c2 0 5 -3 5 -6v-25c0 -3 -3 -5 -5 -5h-153
l-21 -110c16 9 43 21 76 21c76 0 118 -48 118 -108z" />
    <glyph glyph-name="six.subs" horiz-adv-x="335" 
d="M265 -86c-21 -20 -50 -32 -83 -32c-36 0 -66 13 -89 35c-30 28 -47 73 -47 128c0 73 22 125 55 158c30 30 69 44 108 44c34 0 56 -7 69 -14c2 -1 4 -3 3 -7l-5 -19c-1 -4 -3 -5 -7 -4c-13 7 -32 11 -57 11c-31 0 -62 -11 -85 -35c-26 -27 -44 -70 -44 -129
c0 -8 1 -16 2 -25c1 27 11 49 27 66c19 19 47 33 81 33c33 0 60 -12 79 -30c22 -21 35 -51 35 -84c0 -38 -16 -73 -42 -96zM119 -62c16 -15 38 -23 61 -23c24 0 46 9 61 23c19 18 31 43 31 71c0 25 -9 49 -27 65c-13 14 -34 23 -61 23c-28 0 -52 -11 -68 -29
c-15 -17 -24 -39 -24 -62v-7l2 -5h-1c2 -24 12 -42 26 -56z" />
    <glyph glyph-name="seven.subs" horiz-adv-x="313" 
d="M123 -111h-31c-4 0 -5 3 -4 6l134 311h-192c-3 0 -4 1 -4 5v25c0 3 1 6 4 6h238c3 0 5 -2 5 -4v-1c0 -2 -1 -4 -2 -7l-142 -337c-1 -2 -3 -4 -6 -4z" />
    <glyph glyph-name="eight.subs" horiz-adv-x="331" 
d="M300 -10c0 -62 -54 -108 -128 -108c-72 0 -127 46 -127 108c0 43 29 78 72 94c-30 16 -50 43 -50 74c0 49 46 89 105 89c61 0 106 -40 106 -89c0 -31 -20 -58 -50 -74c44 -16 72 -51 72 -94zM101 156c0 -33 31 -60 71 -60c41 0 72 27 72 60c0 34 -31 60 -72 60
c-40 0 -71 -26 -71 -60zM81 -9c0 -45 40 -76 91 -76c53 0 91 31 91 76c0 44 -38 76 -91 76c-51 0 -91 -33 -91 -76z" />
    <glyph glyph-name="nine.subs" horiz-adv-x="335" 
d="M245 -73c-30 -31 -70 -45 -108 -45c-35 0 -56 7 -69 14c-3 2 -4 4 -3 7l4 20c1 3 3 5 8 3c13 -6 32 -10 56 -10c31 0 62 11 84 33c28 28 45 71 45 131c0 8 -1 16 -2 25c-1 -27 -13 -49 -31 -66c-19 -16 -45 -27 -76 -27c-36 0 -64 12 -84 32s-30 48 -30 78
c0 36 13 67 36 90c22 22 53 35 89 35c33 0 61 -10 84 -30c32 -28 52 -74 52 -132c0 -73 -23 -125 -55 -158zM97 63c14 -15 36 -25 64 -25c26 0 48 10 65 24c16 17 27 40 27 65v5l-2 5h1c-2 24 -12 43 -26 56c-17 14 -39 22 -61 22c-27 0 -49 -10 -65 -26
c-17 -17 -27 -40 -27 -66c0 -23 9 -45 24 -60z" />
    <glyph glyph-name="period.subs" horiz-adv-x="221" 
d="M110 -119c-15 0 -24 10 -24 29c0 18 9 27 24 27c17 0 25 -9 25 -27c0 -19 -8 -29 -25 -29z" />
    <glyph glyph-name="comma.subs" horiz-adv-x="179" 
d="M64 -223c-6 0 -8 4 -7 9l31 156c1 6 4 10 11 10h25c6 0 8 -5 7 -10l-48 -158c-2 -5 -5 -7 -10 -7h-9z" />
    <glyph glyph-name="hyphen.subs" horiz-adv-x="307" 
d="M56 51v17c0 5 4 8 8 8h179c5 0 8 -3 8 -8v-17c0 -5 -3 -9 -8 -9h-179c-4 0 -8 4 -8 9z" />
    <glyph glyph-name="parenleft.subs" horiz-adv-x="197" 
d="M45 62c0 137 52 241 90 289c4 4 7 6 13 6h20c4 0 6 -4 4 -8c-42 -51 -91 -159 -91 -287s49 -238 91 -288c2 -4 0 -8 -4 -8h-20c-6 0 -9 2 -13 6c-37 47 -90 152 -90 290z" />
    <glyph glyph-name="parenright.subs" horiz-adv-x="197" 
d="M49 357c6 0 9 -2 13 -6c38 -48 90 -152 90 -289c0 -138 -53 -243 -90 -290c-4 -4 -7 -6 -13 -6h-20c-4 0 -6 4 -3 8c41 50 91 160 91 288s-50 236 -91 287c-3 4 -1 8 3 8h20z" />
    <glyph glyph-name="plus.subs" horiz-adv-x="319" 
d="M51 106v14c0 4 4 8 8 8h94v93c0 5 3 8 8 8h14c4 0 8 -3 8 -8v-93h92c5 0 8 -4 8 -8v-14c0 -5 -3 -8 -8 -8h-92v-93c0 -4 -4 -8 -8 -8h-14c-5 0 -8 4 -8 8v93h-94c-4 0 -8 3 -8 8z" />
    <glyph glyph-name="minus.subs" horiz-adv-x="319" 
d="M51 106v14c0 4 4 8 8 8h201c5 0 8 -4 8 -8v-14c0 -5 -3 -8 -8 -8h-201c-4 0 -8 3 -8 8z" />
    <glyph glyph-name="multiply.subs" horiz-adv-x="280" 
d="M61 26l-8 8c-4 4 -4 8 0 12l68 68l-68 66c-4 4 -4 8 0 12l8 8c4 4 8 4 12 0l67 -67l67 67c4 4 8 4 12 0l8 -8c4 -4 4 -8 0 -12l-68 -66l68 -68c4 -4 4 -9 0 -12l-8 -8c-4 -3 -9 -2 -12 1l-67 67l-67 -67c-4 -4 -8 -5 -12 -1z" />
    <glyph glyph-name="equal.subs" horiz-adv-x="319" 
d="M51 151v12c0 5 4 9 8 9h201c5 0 8 -4 8 -9v-12c0 -5 -3 -9 -8 -9h-201c-4 0 -8 4 -8 9zM51 51v13c0 4 4 8 8 8h201c5 0 8 -4 8 -8v-13c0 -5 -3 -8 -8 -8h-201c-4 0 -8 3 -8 8z" />
    <glyph glyph-name="divide.subs" horiz-adv-x="319" 
d="M159 183c-17 0 -28 9 -28 24c0 16 11 26 28 26c18 0 29 -10 29 -26c0 -15 -11 -24 -29 -24zM51 106v13c0 5 4 8 8 8h201c5 0 8 -3 8 -8v-13c0 -5 -3 -8 -8 -8h-201c-4 0 -8 3 -8 8zM159 -8c-17 0 -28 9 -28 24c0 17 11 27 28 27c18 0 29 -10 29 -27
c0 -15 -11 -24 -29 -24z" />
    <glyph glyph-name="a.subs" horiz-adv-x="430" 
d="M159 -117c-67 0 -112 39 -112 96c0 28 11 52 29 70c33 33 89 49 149 49c28 0 56 -3 83 -10v29c0 62 -43 95 -116 95c-44 0 -81 -12 -105 -22c-4 -2 -7 -1 -7 3l-6 17c-2 3 -1 7 3 8c26 13 65 25 120 25c96 0 150 -47 150 -131v-111c0 -40 5 -82 9 -103c1 -3 -2 -6 -6 -6
h-22c-5 0 -7 2 -8 5c-4 15 -10 45 -11 79c-22 -51 -79 -93 -150 -93zM84 -19c0 -41 34 -70 84 -70c78 0 140 58 140 128v25c-24 7 -50 10 -76 10c-51 0 -99 -13 -126 -41c-14 -14 -22 -31 -22 -52z" />
    <glyph glyph-name="b.subs" horiz-adv-x="472" 
d="M94 -108h-23c-4 0 -6 3 -6 6v474c0 4 2 6 5 6l26 5c3 1 7 -1 7 -4v-225c26 57 80 89 146 89c99 0 171 -74 171 -179c0 -104 -72 -181 -171 -181c-68 0 -124 37 -149 100v-86c0 -3 -2 -5 -6 -5zM100 64c0 -85 61 -145 141 -145s140 60 140 145c0 86 -60 144 -140 144
s-141 -58 -141 -144z" />
    <glyph glyph-name="c.subs" horiz-adv-x="366" 
d="M364 -60c-33 -35 -79 -57 -136 -57c-105 0 -182 75 -182 180c0 104 77 180 182 180c56 0 104 -22 136 -57c3 -3 2 -6 0 -9l-15 -15c-3 -3 -6 -3 -8 0c-28 29 -65 47 -112 47c-82 0 -145 -61 -145 -146c0 -86 62 -144 145 -144c47 0 84 16 112 46c2 3 5 3 8 0l15 -16
c2 -2 3 -6 0 -9z" />
    <glyph glyph-name="d.subs" horiz-adv-x="469" 
d="M393 -108h-24c-2 0 -5 2 -5 5l-1 80c-26 -60 -80 -94 -148 -94c-98 0 -169 75 -169 180c0 104 72 180 169 180c66 0 120 -34 147 -92v221c0 4 2 6 4 6l27 5c2 1 6 -1 6 -4v-481c0 -3 -3 -6 -6 -6zM84 63c0 -86 59 -144 139 -144c81 0 141 58 141 144
c0 85 -60 146 -141 146c-80 0 -139 -61 -139 -146z" />
    <glyph glyph-name="e.subs" horiz-adv-x="425" 
d="M360 -91c-30 -16 -74 -26 -119 -26c-121 0 -195 72 -195 185c0 101 74 175 172 175c101 0 161 -74 161 -167c0 -4 0 -7 -1 -9c0 -6 -3 -8 -9 -8h-287c5 -91 64 -142 163 -142c41 0 78 9 104 22c4 1 6 1 8 -4l5 -17c1 -4 0 -7 -2 -9zM218 211c-72 0 -130 -52 -136 -129
h262c-2 73 -47 129 -126 129z" />
    <glyph glyph-name="f.subs" horiz-adv-x="226" 
d="M127 -108h-29c-3 0 -5 3 -5 6v303h-68c-4 0 -6 3 -6 6v22c0 3 2 6 6 6h68v55c0 66 38 100 108 100c17 0 33 -3 44 -7c3 -1 4 -3 3 -7l-4 -18c-1 -3 -4 -6 -7 -4c-9 3 -19 5 -30 5c-47 0 -74 -23 -74 -70v-54h98c3 0 6 -3 6 -6v-22c0 -3 -3 -6 -6 -6h-98v-303
c0 -3 -2 -6 -6 -6z" />
    <glyph glyph-name="g.subs" horiz-adv-x="475" 
d="M400 -76c0 -102 -57 -168 -179 -168c-63 0 -113 20 -144 42c-3 2 -3 4 -2 8l7 19c2 4 4 5 8 2c29 -19 73 -37 128 -37c102 0 147 56 147 134v57c-26 -58 -81 -92 -148 -92c-99 0 -171 73 -171 176c0 102 74 178 171 178c68 0 123 -35 149 -94v80c0 4 3 6 6 6h23
c3 0 5 -3 5 -6v-305zM85 65c0 -84 59 -143 139 -143s141 59 141 144s-60 144 -141 144c-78 0 -139 -61 -139 -145z" />
    <glyph glyph-name="h.subs" horiz-adv-x="462" 
d="M101 -108h-30c-4 0 -6 3 -6 6v474c0 4 2 6 5 6l28 5c3 1 6 -1 6 -4v-230c19 51 66 94 138 94c86 0 143 -59 143 -157v-188c0 -3 -1 -6 -5 -6h-29c-4 0 -6 3 -6 6v179c0 82 -44 133 -115 133c-72 0 -124 -56 -124 -143v-169c0 -3 -3 -6 -5 -6z" />
    <glyph glyph-name="i.subs" horiz-adv-x="222" 
d="M122 350c0 -16 -9 -23 -25 -23c-15 0 -24 7 -24 23s9 24 24 24c16 0 25 -8 25 -24zM111 -108h-28c-3 0 -6 3 -6 6v331c0 3 3 6 6 6h28c4 0 6 -3 6 -6v-331c0 -3 -2 -6 -6 -6z" />
    <glyph glyph-name="j.subs" horiz-adv-x="230" 
d="M133 350c0 -16 -9 -23 -25 -23c-15 0 -23 7 -23 23s8 24 23 24c16 0 25 -8 25 -24zM129 -124c0 -72 -36 -107 -77 -119c-4 -1 -6 0 -7 4l-7 25c-1 3 1 5 4 7c26 10 46 32 46 83v353c0 3 3 6 6 6h29c4 0 6 -3 6 -6v-353z" />
    <glyph glyph-name="k.subs" horiz-adv-x="389" 
d="M98 -108h-27c-4 0 -6 3 -6 6v474c0 4 2 6 5 6l27 5c4 1 6 -1 6 -4v-282h43l135 134c1 3 3 4 7 4h31c5 0 7 -3 4 -7l-144 -145l154 -184c2 -4 0 -7 -4 -7h-33c-3 0 -6 2 -7 4l-142 168h-44v-166c0 -3 -1 -6 -5 -6z" />
    <glyph glyph-name="l.subs" horiz-adv-x="204" 
d="M99 -108h-29c-3 0 -5 3 -5 6v474c0 4 2 5 4 6l29 5c3 1 6 -1 6 -4v-481c0 -3 -2 -6 -5 -6z" />
    <glyph glyph-name="m.subs" horiz-adv-x="703" 
d="M100 -108h-29c-4 0 -6 3 -6 6v331c0 3 2 6 6 6h26c4 0 7 -2 7 -6v-77c16 47 63 91 131 91c66 0 114 -36 131 -98c15 50 63 98 135 98c82 0 136 -55 136 -148v-197c0 -3 -2 -6 -6 -6h-29c-4 0 -6 3 -6 6v191c0 74 -41 121 -108 121s-116 -52 -116 -132v-180
c0 -3 -3 -6 -6 -6h-29c-4 0 -6 3 -6 6v191c0 73 -42 121 -109 121c-68 0 -116 -52 -116 -132v-180c0 -3 -3 -6 -6 -6z" />
    <glyph glyph-name="n.subs" horiz-adv-x="461" 
d="M100 -108h-29c-4 0 -6 3 -6 6v331c0 3 2 6 6 6h26c3 0 7 -2 7 -6v-87c17 54 66 101 139 101c86 0 142 -59 142 -157v-188c0 -3 -2 -6 -5 -6h-30c-3 0 -5 3 -5 6v179c0 82 -44 132 -115 132c-72 0 -124 -55 -124 -142v-169c0 -3 -3 -6 -6 -6z" />
    <glyph glyph-name="o.subs" horiz-adv-x="461" 
d="M410 63c0 -105 -76 -180 -182 -180c-105 0 -182 75 -182 180c0 104 77 180 182 180c107 0 182 -76 182 -180zM84 63c0 -86 62 -144 144 -144c84 0 144 58 144 144s-60 146 -144 146c-81 0 -144 -61 -144 -146z" />
    <glyph glyph-name="p.subs" horiz-adv-x="475" 
d="M97 -237h-26c-4 0 -6 2 -6 5v461c0 3 2 6 6 6h23c3 0 6 -2 6 -6l1 -81c25 61 80 95 148 95c99 0 171 -74 171 -179c0 -104 -72 -181 -171 -181c-66 0 -119 34 -146 93v-208c0 -3 -3 -5 -6 -5zM100 64c0 -85 61 -145 141 -145s140 60 140 145c0 86 -60 144 -140 144
s-141 -58 -141 -144z" />
    <glyph glyph-name="q.subs" horiz-adv-x="475" 
d="M395 -237h-27c-3 0 -5 2 -5 5v207c-27 -58 -80 -92 -146 -92c-99 0 -171 76 -171 181s72 179 170 179c68 0 123 -35 149 -96l1 82c0 4 2 6 5 6h24c3 0 5 -3 5 -6v-461c0 -3 -2 -5 -5 -5zM85 64c0 -86 59 -145 139 -145c81 0 141 59 141 144c0 86 -60 145 -141 145
c-80 0 -139 -59 -139 -144z" />
    <glyph glyph-name="r.subs" horiz-adv-x="301" 
d="M100 -108h-29c-4 0 -6 3 -6 6v331c0 3 2 6 6 6h24c4 0 7 -2 7 -6v-78c14 50 55 92 117 92c19 0 38 -3 52 -10c3 -1 4 -4 2 -7l-5 -25c-1 -4 -4 -6 -8 -4c-12 5 -29 8 -45 8c-62 0 -109 -46 -109 -125v-182c0 -3 -3 -6 -6 -6z" />
    <glyph glyph-name="s.subs" horiz-adv-x="346" 
d="M285 -15c0 -58 -50 -102 -133 -102c-39 0 -73 10 -93 23c-3 2 -4 4 -2 7l6 19c2 4 4 4 7 2c17 -10 46 -18 77 -18c63 0 99 30 99 70c0 35 -23 55 -65 71l-41 16c-45 17 -74 41 -74 83c0 50 50 87 122 87c28 0 57 -7 77 -18c3 -1 3 -5 2 -8l-6 -17c-1 -3 -4 -4 -8 -3
c-16 8 -37 14 -60 14c-51 0 -86 -22 -86 -57c0 -30 21 -45 55 -58l41 -16c52 -21 82 -48 82 -95z" />
    <glyph glyph-name="t.subs" horiz-adv-x="261" 
d="M238 -105c-14 -7 -35 -12 -54 -12c-63 0 -100 40 -100 108v210h-59c-4 0 -6 3 -6 6v22c0 3 2 6 6 6h59v93c0 4 2 6 5 6l28 6c4 1 7 -1 7 -4v-101h110c4 0 6 -3 6 -6v-22c0 -3 -2 -6 -6 -6h-110v-208c0 -48 25 -73 66 -73c14 0 30 3 41 9c3 1 5 0 6 -3l4 -24
c0 -3 0 -5 -3 -7z" />
    <glyph glyph-name="u.subs" horiz-adv-x="449" 
d="M375 45c0 -101 -63 -162 -158 -162c-93 0 -156 61 -156 163v183c0 3 2 6 6 6h28c4 0 7 -3 7 -6v-186c0 -77 45 -125 115 -125c73 0 117 48 117 125v186c0 3 3 6 6 6h29c4 0 6 -3 6 -6v-184z" />
    <glyph glyph-name="v.subs" horiz-adv-x="382" 
d="M209 -113h-31c-3 0 -6 1 -7 5l-139 336c-1 4 1 7 4 7h30c3 0 5 -2 7 -5l121 -304l121 304c1 3 3 5 6 5h29c4 0 6 -3 4 -7l-138 -336c-1 -4 -3 -5 -7 -5z" />
    <glyph glyph-name="w.subs" horiz-adv-x="603" 
d="M201 -113h-23c-4 0 -6 1 -7 5l-139 336c-1 4 1 7 4 7h29c3 0 5 -1 6 -5l120 -292l100 250c2 4 4 5 7 5h18c3 0 5 -1 6 -5l100 -250l120 292c2 4 4 5 7 5h28c4 0 6 -3 4 -7l-139 -336c-1 -4 -4 -5 -7 -5h-23c-3 0 -6 1 -7 5l-98 249l-99 -249c-2 -4 -3 -5 -7 -5z" />
    <glyph glyph-name="x.subs" horiz-adv-x="402" 
d="M74 -108h-32c-5 0 -5 3 -3 7l135 169l-128 160c-3 3 -2 7 3 7h32c3 0 5 -1 7 -4l110 -141l110 141c1 3 4 4 7 4h31c5 0 6 -4 3 -7l-128 -160l135 -169c3 -4 2 -7 -3 -7h-33c-3 0 -5 1 -6 4l-116 148l-117 -148c-2 -3 -4 -4 -7 -4z" />
    <glyph glyph-name="y.subs" horiz-adv-x="403" 
d="M163 -237h-24c-5 0 -7 3 -5 7l47 110l-156 348c-1 4 1 7 5 7h29c3 0 5 -2 6 -5l135 -307l131 307c1 3 3 5 7 5h28c5 0 6 -3 5 -7l-201 -461c-2 -3 -4 -4 -7 -4z" />
    <glyph glyph-name="z.subs" horiz-adv-x="342" 
d="M306 -108h-269c-4 0 -6 3 -6 6v17c0 3 1 5 3 7l226 278h-209c-3 0 -5 2 -5 6v23c0 3 2 6 5 6h255c4 0 6 -3 6 -6v-17c0 -3 -1 -5 -3 -7l-223 -278h220c4 0 6 -2 6 -6v-23c0 -3 -2 -6 -6 -6z" />
    <glyph glyph-name="ampersand" unicode="&#x26;" horiz-adv-x="662" 
d="M456 101c-70 -72 -157 -114 -246 -114c-66 0 -114 22 -146 54c-32 33 -46 77 -46 116c0 72 42 133 131 196l80 57l-35 39c-55 62 -74 109 -74 159c0 42 17 78 43 104c32 32 78 49 123 49c50 0 90 -17 117 -44c27 -26 42 -62 42 -100c0 -83 -64 -144 -147 -203l-12 -9
l195 -218c40 57 70 123 84 190c1 5 5 7 9 7h21c6 0 10 -2 8 -9c-18 -79 -52 -154 -97 -216l133 -148c3 -3 2 -11 -3 -11h-31c-4 0 -9 1 -12 5l-111 124c-9 -10 -17 -19 -26 -28zM223 475l38 -42l14 10c75 55 130 100 130 171c0 29 -11 57 -31 77s-50 32 -89 32
c-33 0 -68 -13 -92 -38c-19 -19 -32 -46 -32 -79c0 -41 17 -80 62 -131zM96 67c24 -25 62 -43 117 -43c78 0 155 40 217 103c9 9 18 19 27 29l-204 227l-75 -53c-77 -56 -119 -107 -119 -170c0 -31 10 -66 37 -93z" />
    <glyph glyph-name="at" unicode="@" horiz-adv-x="1097" 
d="M661 -197c-37 -13 -82 -19 -129 -19c-284 0 -488 194 -488 475c0 303 237 502 508 502c281 0 501 -195 501 -483c0 -187 -83 -275 -166 -275c-80 0 -125 53 -129 146c-38 -88 -119 -146 -220 -146c-148 0 -258 114 -258 264c0 147 110 263 257 263c97 0 177 -53 217 -136
v115c0 5 3 8 8 8h22c5 0 8 -3 8 -8v-337c0 -85 36 -130 96 -130c62 0 124 73 124 234c0 270 -202 448 -460 448c-249 0 -468 -184 -468 -465c0 -263 188 -438 448 -438c47 0 95 9 127 18c5 2 8 -1 8 -7v-20c0 -5 -2 -8 -6 -9zM321 266c0 -129 94 -225 218 -225
s216 100 216 227c0 124 -92 221 -216 221s-218 -97 -218 -223z" />
    <glyph glyph-name="ordfeminine" unicode="&#xaa;" horiz-adv-x="430" 
d="M159 421c-67 0 -112 39 -112 96c0 28 11 52 29 70c33 33 89 49 149 49c28 0 56 -3 83 -10v29c0 62 -43 95 -116 95c-44 0 -81 -12 -105 -22c-4 -2 -7 -1 -7 3l-6 17c-2 3 -1 7 3 8c26 13 65 25 120 25c96 0 150 -47 150 -131v-111c0 -40 5 -82 9 -103c1 -3 -2 -6 -6 -6
h-22c-5 0 -7 2 -8 5c-4 15 -10 45 -11 79c-22 -51 -79 -93 -150 -93zM84 519c0 -41 34 -70 84 -70c78 0 140 58 140 128v25c-24 7 -50 10 -76 10c-51 0 -99 -13 -126 -41c-14 -14 -22 -31 -22 -52zM372 241h-303c-3 0 -7 3 -7 7v26c0 3 4 7 7 7h303c3 0 7 -4 7 -7v-26
c0 -4 -4 -7 -7 -7z" />
    <glyph glyph-name="ordmasculine" unicode="&#xba;" horiz-adv-x="461" 
d="M410 601c0 -105 -76 -180 -182 -180c-105 0 -182 75 -182 180c0 104 77 180 182 180c107 0 182 -76 182 -180zM84 601c0 -86 62 -144 144 -144c84 0 144 58 144 144s-60 146 -144 146c-81 0 -144 -61 -144 -146zM381 241h-303c-3 0 -7 3 -7 7v26c0 3 4 7 7 7h303
c3 0 7 -4 7 -7v-26c0 -4 -4 -7 -7 -7z" />
    <glyph glyph-name="uni2116" unicode="&#x2116;" horiz-adv-x="1265" 
d="M1190 601c0 -105 -76 -180 -182 -180c-105 0 -182 75 -182 180c0 104 77 180 182 180c107 0 182 -76 182 -180zM117 0h-25c-5 0 -8 3 -8 8v737c0 5 3 8 8 8h15c4 0 7 -1 11 -6l536 -669v664c0 5 3 8 8 8h26c5 0 8 -3 8 -8v-736c0 -5 -3 -8 -8 -8h-15c-4 0 -7 1 -10 4
l-537 674v-668c0 -5 -4 -8 -9 -8zM864 601c0 -86 62 -144 144 -144c84 0 144 58 144 144s-60 146 -144 146c-81 0 -144 -61 -144 -146zM1160 230h-303c-3 0 -7 3 -7 7v26c0 3 4 7 7 7h303c3 0 7 -4 7 -7v-26c0 -4 -4 -7 -7 -7z" />
    <glyph glyph-name="guilsinglleft" unicode="&#x2039;" horiz-adv-x="262" 
d="M227 40h-25c-4 0 -8 1 -11 5l-159 190c-5 5 -5 11 0 17l159 190c3 4 7 5 11 5h25c6 0 8 -5 4 -10l-162 -193l162 -194c5 -5 2 -10 -4 -10z" />
    <glyph glyph-name="guilsinglright" unicode="&#x203a;" horiz-adv-x="262" 
d="M60 40h-24c-7 0 -9 5 -5 10l163 194l-163 193c-4 5 -2 10 5 10h24c4 0 8 -1 11 -5l159 -190c5 -6 5 -12 0 -17l-159 -190c-3 -4 -7 -5 -11 -5z" />
    <glyph glyph-name="guillemotleft" unicode="&#xab;" horiz-adv-x="431" 
d="M378 40h-25c-4 0 -8 1 -11 5l-159 190c-5 5 -5 11 0 17l159 190c3 4 7 5 11 5h25c6 0 8 -5 4 -10l-162 -193l162 -194c5 -5 2 -10 -4 -10zM227 40h-25c-4 0 -8 1 -11 5l-159 190c-5 5 -5 11 0 17l159 190c3 4 7 5 11 5h25c6 0 8 -5 4 -10l-162 -193l162 -194
c5 -5 2 -10 -4 -10z" />
    <glyph glyph-name="guillemotright" unicode="&#xbb;" horiz-adv-x="431" 
d="M211 40h-24c-7 0 -9 5 -5 10l163 194l-163 193c-4 5 -2 10 5 10h24c4 0 8 -1 11 -5l159 -190c5 -6 5 -12 0 -17l-159 -190c-3 -4 -7 -5 -11 -5zM60 40h-24c-7 0 -9 5 -5 10l163 194l-163 193c-4 5 -2 10 5 10h24c4 0 8 -1 11 -5l159 -190c5 -6 5 -12 0 -17l-159 -190
c-3 -4 -7 -5 -11 -5z" />
    <glyph glyph-name="hyphen" unicode="-" horiz-adv-x="457" 
d="M380 264h-303c-3 0 -7 3 -7 7v26c0 3 4 7 7 7h303c3 0 7 -4 7 -7v-26c0 -4 -4 -7 -7 -7z" />
    <glyph glyph-name="endash" unicode="&#x2013;" horiz-adv-x="632" 
d="M548 264h-464c-4 0 -8 3 -8 8v24c0 5 4 8 8 8h464c5 0 8 -3 8 -8v-24c0 -5 -3 -8 -8 -8z" />
    <glyph glyph-name="emdash" unicode="&#x2014;" horiz-adv-x="1092" 
d="M903 264h-714c-5 0 -8 3 -8 8v24c0 5 3 8 8 8h714c5 0 8 -3 8 -8v-24c0 -5 -3 -8 -8 -8z" />
    <glyph glyph-name="underscore" unicode="_" horiz-adv-x="491" 
d="M413 -41h-335c-5 0 -8 4 -8 8v25c0 5 3 8 8 8h335c5 0 8 -3 8 -8v-25c0 -4 -3 -8 -8 -8z" />
    <glyph glyph-name="bar" unicode="|" horiz-adv-x="339" 
d="M183 -205h-27c-5 0 -8 3 -8 8v961c0 5 3 8 8 8h27c5 0 8 -3 8 -8v-961c0 -5 -3 -8 -8 -8z" />
    <glyph glyph-name="brokenbar" unicode="&#xa6;" horiz-adv-x="339" 
d="M182 370h-25c-5 0 -8 4 -8 8l-1 386c0 5 3 8 8 8h28c4 0 8 -3 8 -8l-2 -386c0 -4 -3 -8 -8 -8zM184 -205h-28c-5 0 -8 3 -8 8l1 374c0 5 3 9 8 9h25c5 0 8 -4 8 -9l2 -374c0 -5 -4 -8 -8 -8z" />
    <glyph glyph-name="parenleft" unicode="(" horiz-adv-x="253" 
d="M235 -205h-27c-5 0 -8 1 -10 4c-67 86 -153 263 -153 489c0 225 83 397 152 487c3 4 6 5 11 5h27c6 0 8 -4 4 -10c-73 -94 -153 -271 -153 -482c0 -210 81 -390 154 -483c3 -6 1 -10 -5 -10z" />
    <glyph glyph-name="parenright" unicode=")" horiz-adv-x="253" 
d="M44 -205h-26c-6 0 -10 3 -7 7c74 93 156 274 156 486c0 211 -80 388 -154 482c-4 6 -1 10 5 10h26c5 0 9 -1 12 -5c69 -90 152 -262 152 -487s-86 -400 -152 -488c-3 -4 -7 -5 -12 -5z" />
    <glyph glyph-name="bracketleft" unicode="[" horiz-adv-x="245" 
d="M212 -205h-129c-5 0 -8 3 -8 8v969c0 5 3 8 8 8h129c5 0 8 -3 8 -8v-24c0 -5 -3 -8 -8 -8h-96v-905h96c5 0 8 -3 8 -8v-24c0 -5 -3 -8 -8 -8z" />
    <glyph glyph-name="bracketright" unicode="]" horiz-adv-x="245" 
d="M25 -197v24c0 5 3 8 8 8h96v905h-96c-5 0 -8 3 -8 8v24c0 5 3 8 8 8h129c5 0 8 -3 8 -8v-969c0 -5 -3 -8 -8 -8h-129c-5 0 -8 3 -8 8z" />
    <glyph glyph-name="braceleft" unicode="{" horiz-adv-x="259" 
d="M229 -205h-20c-60 0 -119 26 -119 138c0 82 24 168 24 247c0 52 -18 89 -56 89h-16c-5 0 -6 3 -6 8v21c0 4 3 8 6 8h16c38 0 56 37 56 89c0 79 -24 164 -24 248c0 111 59 137 119 137h20c6 0 8 -3 8 -8l1 -17c0 -4 -3 -8 -8 -8c-57 -2 -98 -24 -98 -114
c0 -85 23 -167 23 -241c0 -78 -32 -102 -57 -104v-2c25 -2 57 -26 57 -104c0 -73 -23 -155 -23 -239c0 -90 41 -113 98 -115c5 0 8 -4 8 -8l-1 -17c0 -4 -2 -8 -8 -8z" />
    <glyph glyph-name="braceright" unicode="}" horiz-adv-x="259" 
d="M50 -205h-20c-5 0 -8 4 -8 8l-1 17c0 4 3 8 8 8c57 2 98 25 98 115c0 84 -23 166 -23 239c0 78 32 102 57 104v2c-25 2 -57 26 -57 104c0 74 23 156 23 241c0 90 -41 112 -98 114c-5 0 -8 4 -8 8l1 17c0 5 2 8 8 8h20c61 0 119 -26 119 -137c0 -84 -23 -169 -23 -248
c0 -52 18 -89 55 -89h16c4 0 6 -4 6 -8v-21c0 -5 -1 -8 -6 -8h-16c-37 0 -55 -37 -55 -89c0 -79 23 -165 23 -247c0 -112 -58 -138 -119 -138z" />
    <glyph glyph-name="asterisk" unicode="*" horiz-adv-x="324" 
d="M169 489h-10c-5 0 -8 4 -7 9l5 125l-113 -68c-4 -3 -8 -3 -11 2l-4 7c-4 6 -2 9 3 11l118 61l-114 61c-5 3 -7 7 -4 12l3 6c3 5 6 7 12 3l110 -70l-5 123c0 5 3 9 8 9h10c5 0 9 -4 8 -9l-6 -123l114 70c4 3 8 2 11 -3l3 -6c2 -4 2 -8 -3 -11l-117 -62l116 -61
c5 -2 5 -6 3 -11l-4 -8c-3 -5 -7 -5 -12 -1l-111 69l5 -126c1 -5 -3 -9 -8 -9z" />
    <glyph glyph-name="slash" unicode="/" horiz-adv-x="418" 
d="M89 0h-23c-6 0 -8 5 -6 10l264 734c2 5 6 6 10 6h23c6 0 8 -5 6 -10l-264 -734c-2 -5 -6 -6 -10 -6z" />
    <glyph glyph-name="backslash" unicode="\" horiz-adv-x="418" 
d="M352 0h-23c-5 0 -8 1 -10 6l-265 734c-2 5 1 10 7 10h24c4 0 7 -1 9 -6l265 -734c2 -5 -1 -10 -7 -10z" />
    <glyph glyph-name="fraction" unicode="&#x2044;" horiz-adv-x="530" 
d="M55 0h-26c-6 0 -8 5 -5 10l441 734c2 4 6 6 10 6h26c6 0 9 -5 6 -10l-442 -734c-2 -4 -6 -6 -10 -6z" />
    <glyph glyph-name="dagger" unicode="&#x2020;" horiz-adv-x="481" 
d="M248 0h-21c-5 0 -8 4 -8 8l-7 503h-156c-5 0 -9 4 -9 9v24c0 5 4 8 9 8h156l3 144l3 28c1 5 4 7 9 7h21c5 0 8 -3 9 -7l3 -28l3 -144h162c5 0 9 -3 9 -8v-24c0 -5 -4 -9 -9 -9h-163l-6 -503c0 -4 -3 -8 -8 -8z" />
    <glyph glyph-name="daggerdbl" unicode="&#x2021;" horiz-adv-x="483" 
d="M247 0h-17c-4 0 -8 3 -9 7l-3 28l-2 139h-160c-5 0 -9 3 -9 8v25c0 5 4 8 9 8h159v296h-159c-5 0 -9 4 -9 9v24c0 5 4 8 9 8h160l2 144l3 28c1 5 5 7 9 7h17c5 0 8 -3 9 -7l3 -28l3 -144h166c5 0 8 -3 8 -8v-24c0 -5 -3 -9 -8 -9h-166v-296h166c5 0 8 -3 8 -8v-25
c0 -5 -3 -8 -8 -8h-166l-3 -139l-3 -28c-1 -4 -4 -7 -9 -7z" />
    <glyph glyph-name="section" unicode="&#xa7;" horiz-adv-x="526" 
d="M448 104c0 -91 -74 -166 -207 -166c-60 0 -116 18 -147 35c-4 2 -5 6 -4 11l8 19c2 5 5 7 10 4c27 -17 79 -31 132 -31c107 0 167 55 167 126c0 61 -41 95 -112 124l-39 17c-73 30 -118 68 -118 133c0 48 30 89 77 110c-70 31 -107 68 -107 132c0 82 76 144 190 144
c41 0 85 -12 116 -27c5 -3 5 -7 3 -12l-7 -18c-2 -5 -6 -6 -11 -4c-28 9 -63 23 -101 23c-89 -1 -147 -43 -147 -105c0 -51 33 -78 95 -105l30 -12c89 -38 135 -77 135 -152c0 -44 -22 -85 -56 -110c59 -32 93 -73 93 -136zM313 260c4 -2 8 -4 12 -5c30 22 46 54 46 89
c0 61 -38 94 -112 124l-10 4c-44 -18 -70 -50 -70 -91c0 -51 36 -79 95 -105z" />
    <glyph glyph-name="bullet" unicode="&#x2022;" horiz-adv-x="299" 
d="M204 296c0 -31 -24 -54 -55 -54c-30 0 -54 23 -54 54c0 30 24 54 54 54c31 0 55 -24 55 -54z" />
    <glyph glyph-name="paragraph" unicode="&#xb6;" horiz-adv-x="650" 
d="M343 -205h-21c-5 0 -8 3 -8 8v487h-19c-148 0 -255 88 -255 226c0 134 79 234 269 234h285c5 0 8 -3 8 -8v-25c0 -4 -3 -8 -8 -8h-87v-906c0 -5 -4 -8 -8 -8h-22c-5 0 -8 3 -8 8v906h-118v-906c0 -5 -3 -8 -8 -8z" />
    <glyph glyph-name="registered" unicode="&#xae;" horiz-adv-x="575" 
d="M286 315c-133 0 -233 102 -233 234c0 131 100 235 233 235c137 0 236 -104 236 -235c0 -132 -99 -234 -236 -234zM286 340c121 0 210 88 210 209c0 119 -89 209 -210 209c-117 0 -208 -91 -208 -209c0 -121 91 -209 208 -209zM197 418c-2 0 -4 2 -4 5v259c0 2 2 4 4 4
h114c62 0 94 -31 94 -79c0 -43 -24 -72 -71 -79l69 -104c2 -3 1 -6 -3 -6h-12c-3 0 -6 1 -7 4l-68 104h-2h-99v-103c0 -3 -2 -5 -4 -5h-11zM311 668h-99v-123h99c50 0 74 22 75 62c0 39 -25 61 -75 61z" />
    <glyph glyph-name="copyright" unicode="&#xa9;" horiz-adv-x="895" 
d="M838 377c0 -218 -169 -390 -391 -390c-220 0 -390 172 -390 390c0 216 170 384 390 384c222 0 391 -168 391 -384zM91 377c0 -199 155 -356 356 -356c202 0 357 157 357 356c0 197 -155 350 -357 350c-201 0 -356 -153 -356 -350zM645 241c-40 -57 -108 -96 -187 -96
c-128 0 -227 98 -227 227c0 130 99 229 227 229c79 0 145 -36 187 -97c2 -3 2 -5 -1 -8l-14 -13c-3 -2 -6 -2 -8 1c-36 53 -95 86 -164 86c-110 0 -194 -83 -194 -198c0 -113 84 -196 194 -196c69 0 128 33 164 86c2 3 5 3 8 1l14 -14c2 -3 3 -5 1 -8z" />
    <glyph glyph-name="uni2117" unicode="&#x2117;" horiz-adv-x="895" 
d="M838 377c0 -218 -169 -390 -391 -390c-220 0 -390 172 -390 390c0 216 170 384 390 384c222 0 391 -168 391 -384zM91 377c0 -199 155 -356 356 -356c202 0 357 157 357 356c0 197 -155 350 -357 350c-201 0 -356 -153 -356 -350zM321 137h-21c-3 0 -6 2 -6 5v456
c0 3 3 5 6 5h192c116 0 177 -60 177 -158c0 -99 -61 -157 -177 -157h-166v-146c0 -3 -2 -5 -5 -5zM490 575h-164v-258h163c104 0 149 50 149 128s-45 130 -148 130z" />
    <glyph glyph-name="trademark" unicode="&#x2122;" horiz-adv-x="896" 
d="M211 426h-19c-5 0 -8 3 -8 8v316h-111c-5 0 -8 3 -8 8v14c0 5 3 9 8 9h257c5 0 8 -4 8 -9v-14c0 -5 -3 -8 -8 -8h-111v-316c0 -5 -4 -8 -8 -8zM423 425h-17c-5 0 -8 3 -8 8l60 339c1 7 4 8 9 8h8c4 0 7 -2 9 -6l131 -266l130 266c2 4 5 6 9 6h9c4 0 8 -1 9 -8l58 -339
c1 -5 -2 -8 -7 -8h-17c-4 0 -9 2 -9 7l-49 285l-124 -252c-1 -3 -3 -4 -5 -4h-8c-2 0 -4 1 -6 4l-124 251l-48 -284c-1 -5 -5 -7 -10 -7z" />
    <glyph glyph-name="uni2120" unicode="&#x2120;" horiz-adv-x="861" 
d="M285 524c0 -57 -47 -102 -128 -102c-36 0 -70 8 -92 22c-3 2 -7 5 -4 10l6 13c2 4 4 6 10 3c16 -10 44 -17 76 -17c60 0 94 31 94 71c0 34 -22 53 -62 70l-39 17c-44 17 -72 41 -72 82c0 50 48 89 121 89c24 0 49 -7 70 -17c4 -1 5 -4 3 -10l-5 -13c-2 -4 -4 -6 -10 -3
c-12 6 -34 11 -55 11c-51 0 -84 -23 -84 -58c0 -29 20 -45 53 -59l39 -16c51 -22 79 -47 79 -93zM389 425h-18c-4 0 -8 3 -7 8l59 339c2 7 5 8 10 8h7c4 0 7 -2 10 -6l131 -267l130 267c2 4 5 6 9 6h8c5 0 9 -1 10 -8l58 -339c1 -5 -2 -8 -7 -8h-17c-5 0 -8 2 -9 7l-49 284
l-124 -251c-2 -3 -3 -4 -6 -4h-7c-2 0 -4 1 -6 4l-124 251l-49 -284c-1 -5 -5 -7 -9 -7z" />
    <glyph glyph-name="infinity" unicode="&#x221e;" horiz-adv-x="854" 
d="M365 193c-32 -33 -88 -71 -150 -71c-51 0 -92 17 -120 45s-44 67 -44 111c0 43 16 82 45 111s71 46 121 46c69 0 118 -37 148 -68l62 -66l62 66c30 31 80 68 149 68c50 0 92 -18 121 -47c28 -28 44 -67 44 -110c0 -44 -16 -83 -43 -111c-29 -28 -70 -45 -120 -45
c-63 0 -119 38 -151 71l-62 63zM123 192c22 -23 54 -37 93 -37c55 0 101 36 130 66l56 58l-56 59c-24 25 -70 65 -128 65c-40 0 -72 -15 -94 -38c-23 -22 -36 -53 -36 -87c0 -33 13 -64 35 -86zM508 221c30 -30 75 -66 130 -66c39 0 70 14 93 36c22 23 35 54 35 87
c0 34 -13 64 -34 87c-23 23 -56 38 -96 38c-57 0 -103 -40 -128 -65l-55 -59z" />
    <glyph glyph-name="pi" unicode="&#x3c0;" horiz-adv-x="742" 
d="M147 8v503h-100c-5 0 -8 4 -8 9v24c0 5 3 8 8 8h664c5 0 8 -3 8 -8v-24c0 -5 -3 -9 -8 -9h-103v-444c0 -31 14 -44 41 -44c11 0 22 2 31 7c6 1 9 0 10 -6v-16c1 -5 0 -9 -4 -10c-16 -8 -34 -11 -51 -11c-41 0 -70 20 -70 71v453h-374v-503c0 -5 -4 -8 -9 -8h-27
c-5 0 -8 3 -8 8z" />
    <glyph glyph-name="asciicircum" unicode="^" horiz-adv-x="529" 
d="M111 230c-4 -8 -11 -6 -11 3v46c0 6 1 11 5 18c38 86 114 242 153 327c2 4 4 5 5 5c2 0 4 -1 6 -5l155 -327c4 -7 5 -12 5 -18v-46c0 -9 -7 -11 -11 -3l-154 327z" />
    <glyph glyph-name="asciitilde" unicode="~" horiz-adv-x="517" 
d="M383 329c-13 -7 -30 -12 -50 -12c-30 0 -52 8 -74 16s-44 16 -74 16c-24 0 -42 -5 -55 -12c-10 -5 -17 -10 -20 -14c-6 -4 -10 -2 -10 4v24c0 4 1 7 5 11c3 3 10 9 21 15c14 7 33 13 59 13c31 0 55 -9 78 -18c20 -7 42 -15 70 -15c19 0 34 5 47 11s21 15 26 20
c6 4 9 2 9 -5v-22c0 -5 0 -7 -4 -11s-13 -13 -28 -21z" />
    <glyph glyph-name="approxequal" unicode="&#x2248;" horiz-adv-x="517" 
d="M383 390c-13 -7 -30 -12 -50 -12c-30 0 -52 8 -74 16s-44 16 -74 16c-24 0 -42 -5 -55 -12c-10 -5 -16 -10 -20 -14c-5 -5 -10 -2 -10 4v24c0 4 1 7 5 11c3 3 10 9 21 15c14 6 33 13 59 13c31 0 55 -10 78 -18c20 -7 42 -15 70 -15c19 0 34 5 47 11s20 15 26 20
c6 4 9 2 9 -4v-23c0 -5 0 -7 -4 -11s-13 -13 -28 -21zM383 237c-13 -7 -30 -12 -50 -12c-30 0 -52 8 -74 16s-44 16 -74 16c-24 0 -42 -5 -55 -12c-10 -5 -16 -10 -20 -14c-5 -6 -10 -2 -10 4v24c0 4 1 7 5 11c3 3 10 9 21 15c14 6 33 13 59 13c31 0 55 -10 78 -18
c20 -7 42 -15 70 -15c19 0 34 5 47 11s20 14 26 19s9 3 9 -4v-22c0 -5 0 -7 -4 -11s-13 -13 -28 -21z" />
    </font>
</defs>
</svg>
