<?xml version="1.0" standalone="no"?>
<!DOCTYPE svg PUBLIC "-//W3C//DTD SVG 20010904//EN"
 "http://www.w3.org/TR/2001/REC-SVG-20010904/DTD/svg10.dtd">
<svg version="1.0" xmlns="http://www.w3.org/2000/svg"
 width="1200.000000pt" height="1200.000000pt" viewBox="0 0 1200.000000 1200.000000"
 preserveAspectRatio="xMidYMid meet">
<metadata>
Created by potrace 1.11, written by Peter Selinger 2001-2013
</metadata>
<g transform="translate(0.000000,1200.000000) scale(0.100000,-0.100000)"
fill="#000000" stroke="none">
<path d="M3438 6742 l-28 -3 1 -550 c1 -562 3 -602 41 -690 22 -50 74 -107
134 -145 69 -44 171 -64 331 -64 l128 0 1 138 c0 75 -4 140 -9 143 -5 4 -50 7
-99 7 -100 1 -139 16 -169 67 -15 26 -18 60 -18 262 l-1 232 147 3 148 3 0
133 c0 73 -2 136 -5 140 -3 4 -68 7 -145 7 l-140 0 -5 160 -5 160 -140 0 c-77
0 -152 -1 -167 -3z"/>
<path d="M8225 6475 c-159 -36 -265 -150 -268 -288 -1 -34 1 -76 4 -92 9 -41
52 -125 83 -162 l25 -29 -62 -34 c-89 -49 -159 -124 -181 -193 -54 -171 25
-322 199 -382 146 -49 312 -33 471 46 l79 39 44 -45 43 -45 155 0 c178 0 170
-10 72 95 -94 99 -131 143 -129 152 0 4 23 38 50 74 48 65 122 194 134 234 6
20 2 20 -131 20 l-136 0 -20 -35 c-10 -19 -32 -52 -47 -73 l-28 -38 -43 47
c-24 27 -54 58 -66 71 l-22 23 47 37 c73 58 112 107 139 175 44 108 18 233
-64 314 -37 37 -101 75 -151 89 -41 12 -147 12 -197 0z m148 -266 c9 -12 17
-37 17 -56 0 -29 -9 -44 -46 -82 l-46 -46 -25 30 c-51 63 -57 118 -16 160 23
22 34 26 63 21 19 -3 43 -15 53 -27z m18 -652 c-17 -18 -125 -47 -177 -47 -48
0 -59 4 -85 29 -52 52 -35 115 46 169 l50 32 86 -87 c48 -49 84 -91 80 -96z"/>
<path d="M2432 6444 c-134 -34 -230 -103 -310 -220 -135 -198 -146 -483 -26
-700 62 -113 212 -226 339 -254 155 -35 318 5 425 106 l48 45 -1 -63 -1 -63
151 -3 151 -3 -1 568 -2 568 -155 0 -155 0 -3 -56 -3 -56 -41 38 c-104 94
-267 131 -416 93z m310 -304 c170 -87 223 -296 119 -462 -93 -146 -302 -173
-424 -55 -68 66 -90 125 -91 232 0 72 5 100 23 140 30 66 109 141 169 159 64
19 152 13 204 -14z"/>
<path d="M6646 6445 c-212 -58 -379 -253 -411 -480 -7 -48 -7 -178 1 -220 38
-219 165 -384 352 -455 172 -66 397 -22 503 98 15 17 30 32 31 32 2 0 3 -29 3
-65 l-1 -65 148 0 c111 0 148 3 149 13 1 15 1 1074 0 1102 -1 19 -8 20 -156
20 l-155 0 0 -59 0 -58 -32 31 c-39 38 -102 76 -161 98 -56 20 -208 25 -271 8z
m311 -305 c69 -30 138 -110 161 -185 3 -11 6 -58 6 -105 0 -98 -20 -149 -80
-213 -103 -108 -283 -117 -388 -19 -164 155 -115 453 89 531 63 24 146 20 212
-9z"/>
<path d="M9530 6445 c-264 -56 -452 -245 -487 -490 -28 -194 30 -378 161 -509
122 -123 283 -188 466 -187 88 0 151 9 214 30 l51 18 0 142 c0 79 -3 144 -6
147 -4 2 -26 -3 -50 -11 -105 -37 -253 -33 -344 11 -50 23 -114 89 -135 138
-77 177 22 367 214 411 68 16 178 11 248 -9 32 -10 61 -17 65 -17 4 1 8 66 8
146 l1 145 -47 15 c-71 24 -87 26 -194 30 -60 2 -126 -2 -165 -10z"/>
<path d="M10523 6444 c-73 -16 -177 -61 -230 -101 -375 -278 -301 -870 129
-1039 311 -122 661 4 796 286 45 95 62 166 63 261 2 274 -168 504 -431 584
-73 22 -247 27 -327 9z m259 -302 c55 -24 110 -79 140 -141 19 -39 23 -62 23
-146 0 -84 -4 -107 -22 -141 -33 -61 -70 -101 -122 -132 -38 -22 -59 -27 -123
-29 -94 -2 -143 15 -201 72 -91 88 -122 230 -76 350 30 79 106 157 175 178 64
19 150 14 206 -11z"/>
<path d="M772 6425 c-19 -8 -37 -26 -43 -42 -8 -19 -11 -192 -11 -548 0 -286
1 -526 1 -532 1 -10 41 -13 164 -13 l162 0 0 306 0 305 35 -38 c40 -44 74 -83
180 -203 76 -86 105 -119 240 -269 41 -46 89 -90 105 -96 17 -7 60 -13 97 -14
77 -2 124 16 138 55 6 15 10 243 10 557 l0 533 -162 -1 -163 0 -1 -293 c0
-160 -3 -295 -7 -298 -5 -5 -38 28 -100 100 -10 12 -31 35 -45 51 -15 17 -93
104 -172 195 -180 204 -199 224 -230 240 -35 19 -158 21 -198 5z"/>
<path d="M4224 6421 c-2 -3 -4 -160 -4 -350 1 -382 7 -438 61 -546 35 -72 112
-154 183 -194 125 -72 320 -92 488 -52 184 43 305 158 359 338 19 63 21 97 23
431 1 200 -1 366 -4 370 -3 4 -80 8 -172 8 l-167 -1 -3 -365 -3 -365 -25 -48
c-36 -71 -90 -101 -184 -100 -55 0 -79 5 -109 23 -45 27 -85 91 -93 151 -3 24
-7 192 -8 374 l-1 330 -168 0 c-93 0 -170 -2 -173 -4z"/>
<path d="M5830 6414 c-147 -31 -250 -126 -287 -267 -15 -59 -18 -216 -13 -799
l0 -58 168 0 167 0 0 370 c0 405 1 411 58 454 24 17 46 22 133 24 l104 4 0
141 0 142 -136 0 c-75 0 -162 -5 -194 -11z"/>
</g>
</svg>
